<svg width="512" height="512" viewBox="0 0 512 512" fill="none" xmlns="http://www.w3.org/2000/svg">
<path d="M39.6896 222.665C39.4563 220.177 39.223 218.233 39.223 216.211C38.9898 206.803 44.8995 198.56 53.8418 195.838C57.0299 194.828 60.1403 194.905 62.6286 197.549C63.6395 196.461 64.4171 195.372 65.5057 194.594C68.3828 192.573 71.4932 193.272 74.4481 194.283C77.6362 195.372 80.7466 196.538 83.857 197.86C88.4448 199.726 93.1881 200.271 98.0869 200.193C113.561 199.96 129.035 198.949 144.354 196.849C148.475 196.305 152.519 195.527 156.64 194.905C159.828 194.439 161.85 192.728 163.483 190.084C168.693 181.686 173.747 173.133 179.346 164.968C187.355 153.226 196.608 142.573 208.428 134.564C213.404 131.143 218.847 128.343 224.213 125.466C225.535 124.766 226.079 124.066 225.768 122.589C224.679 116.99 225.301 111.469 226.234 105.793C226.701 102.916 225.923 99.8055 225.535 96.7729C224.679 89.9301 223.591 83.0095 224.99 76.0889C226.079 70.6457 228.723 66.2912 234.088 64.1139C235.255 63.6474 235.332 63.1031 235.099 62.0144C233 55.0161 235.177 50.195 241.631 46.6958C247.774 43.3522 253.995 43.1189 260.293 45.996C266.514 48.7953 269.158 53.2276 268.613 60.0704C268.536 61.6256 268.924 62.5587 270.169 63.4141C274.445 66.4467 276.078 71.19 277.167 76.0111C279.033 84.5647 277.478 92.8849 275.223 101.127C274.99 102.061 274.834 102.994 274.756 104.005C274.679 109.137 274.679 114.269 274.601 119.323C274.601 120.567 274.99 121.189 276.234 121.5C295.44 126.71 310.915 137.597 323.667 152.682C332.532 163.257 340.074 174.688 346.762 186.741C349.794 192.184 353.682 195.061 359.903 195.605C370.945 196.538 381.909 198.249 392.873 199.182C399.949 199.804 407.103 199.649 414.257 200.037C420.4 200.348 426.154 198.871 431.753 196.461C434.474 195.294 437.351 194.361 440.151 193.583C443.65 192.65 446.682 193.272 448.86 196.538C449.093 196.849 450.104 197.083 450.337 196.849C453.914 194.05 457.569 194.905 461.146 196.616C469.933 200.815 474.443 209.913 472.887 220.022C472.81 220.721 472.732 221.344 472.499 222.665C474.132 221.655 475.22 220.877 476.387 220.333C478.953 219.088 481.441 217.689 484.085 216.911C486.729 216.134 489.061 217.3 490.772 219.477C492.327 221.421 492.016 223.599 490.928 225.698C490.383 226.787 490.539 227.253 491.783 227.642C496.138 228.886 497.148 232.152 494.505 235.807C493.649 236.973 492.794 237.984 491.783 239.15C492.172 239.461 492.405 239.695 492.638 239.85C496.604 242.494 497.148 246.46 493.805 249.803C492.25 251.359 490.228 252.525 488.206 253.536C480.663 257.346 472.654 259.523 464.412 261.234C457.491 262.634 450.57 263.878 443.572 264.5C436.652 265.122 429.653 265.044 422.655 265.044C417.134 265.044 411.691 264.889 406.17 264.422C400.804 264.033 395.517 263.178 390.229 262.478C387.352 262.089 384.475 261.545 381.598 261.079C381.131 261.001 380.665 261.234 380.12 261.312C380.276 261.856 380.198 262.478 380.509 262.867C384.475 267.533 386.73 272.976 388.285 278.808C390.307 286.428 390.151 294.049 388.441 301.669C385.564 314.499 378.954 325.541 370.867 335.728C359.514 349.958 345.517 360.766 328.955 368.231C324.833 370.097 320.557 371.652 316.28 373.208C314.569 373.83 314.414 374.53 315.425 375.852C318.768 380.362 322.19 384.872 325.456 389.459C328.255 393.425 330.432 397.624 330.899 402.601C331.287 406.644 329.188 410.299 325.456 411.699C323.201 412.554 321.023 412.165 319.157 410.921C316.358 409.055 313.636 407.033 311.07 404.856C305.86 400.346 300.806 395.525 295.596 391.015C291.863 387.749 287.198 386.271 282.455 385.027C280.122 384.405 279.889 384.638 279.266 387.049C277.945 392.337 276.078 397.391 272.812 401.901C267.836 408.822 260.371 412.087 251.506 408.433C249.096 407.422 246.374 407.111 243.73 406.878C231.133 405.556 219.158 401.668 207.494 397.08C192.798 391.326 178.957 383.861 166.282 374.452C149.33 361.855 136.034 346.225 127.713 326.708C122.737 315.044 119.315 303.069 119.237 290.238C119.237 280.907 120.948 271.965 125.769 263.8C126.003 263.411 126.08 262.867 126.469 261.934C123.281 262.323 120.559 262.634 117.76 262.867C109.673 263.567 101.508 264.422 93.4214 264.733C85.4899 265.044 77.4807 265.2 69.5492 264.656C53.6863 263.645 38.3677 259.912 23.7489 253.536C21.9604 252.758 20.3275 251.67 18.7723 250.503C15.1176 247.704 14.8843 241.639 19.3944 239.695C19.6277 239.617 19.7832 239.384 20.0942 239.073C19.2389 237.984 18.3058 236.973 17.5282 235.885C14.8066 232.152 15.7397 229.042 20.172 227.564C21.1051 227.253 21.5716 226.864 21.1051 225.931C19.8609 223.365 19.4721 220.799 21.8827 218.7C24.4487 216.367 27.4036 216.211 30.4362 217.611C32.8468 218.7 35.024 220.177 37.3568 221.499C38.2122 221.966 38.8342 222.199 39.6896 222.665ZM250.184 299.881C251.04 299.57 251.662 299.414 252.206 299.181C256.094 297.314 259.982 295.526 263.792 293.66C279.266 285.806 294.974 278.73 312.081 275.075C322.734 272.82 333.387 271.498 344.273 271.498C345.517 271.498 346.762 271.654 346.762 273.209C346.762 274.609 345.517 274.764 344.351 274.92C336.42 275.62 328.488 276.164 320.557 277.097C310.992 278.341 301.661 280.829 292.874 284.562C281.599 289.383 270.635 294.982 259.438 300.036C250.029 304.235 240.542 308.201 231.056 312.167C229.967 312.633 229.734 313.177 230.045 314.266C230.9 317.687 231.678 321.187 232.455 324.686C232.844 326.397 233.155 328.029 233.466 329.74C236.032 329.585 236.032 329.585 237.432 331.762C237.898 332.54 238.52 333.239 239.143 333.784C240.153 334.639 241.242 335.572 242.564 334.717C243.886 333.784 244.43 332.54 243.886 330.829C243.653 330.207 243.886 328.963 244.275 328.807C244.897 328.574 245.83 328.807 246.53 329.118C247.696 329.662 248.707 330.596 249.873 330.984C251.895 331.606 253.295 330.051 252.517 328.107C251.973 326.708 250.884 325.541 249.873 324.375C249.329 323.83 248.396 323.597 247.618 323.208C245.597 322.275 245.519 321.264 247.23 320.02C247.463 319.865 247.774 319.631 248.007 319.476C249.329 318.543 250.34 317.454 249.562 315.743C248.862 314.111 247.385 313.566 245.674 313.799C244.819 313.955 243.964 314.266 243.031 314.422C242.719 314.499 242.331 314.266 242.02 314.111C242.175 313.722 242.175 313.177 242.408 312.944C244.041 311.311 248.24 311.389 250.184 312.944C252.362 314.733 252.828 317.143 251.195 319.709C250.495 320.876 250.884 321.342 251.662 322.12C252.906 323.364 254.072 324.686 254.928 326.163C255.939 328.029 256.016 330.207 254.617 332.073C253.139 334.017 251.04 334.406 248.862 333.784C247.385 333.395 246.841 333.861 246.141 335.028C244.197 338.527 240.776 339.227 237.665 336.661C236.499 335.728 235.643 334.328 234.632 333.162C234.321 332.851 234.088 332.462 233.855 332.073C235.255 346.847 235.177 361.233 229.189 374.918C229.5 375.229 229.578 375.307 229.656 375.385C229.967 375.463 230.278 375.54 230.589 375.618C241.709 377.562 252.906 378.651 264.181 378.029C279.811 377.173 295.207 374.918 310.215 370.253C328.566 364.499 345.129 355.79 358.737 342.026C369.701 330.907 378.721 318.387 383.075 303.069C385.486 294.593 385.952 286.039 382.764 277.641C381.054 273.054 378.721 268.699 376.232 264.5C374.288 261.079 371.178 258.901 367.135 258.124C363.169 257.346 359.125 256.491 355.315 255.169C349.794 253.38 344.429 251.125 338.986 249.104C336.342 248.093 333.698 247.16 330.976 246.227C330.588 250.503 328.955 251.825 324.833 251.203C323.589 251.048 323.278 251.436 323.123 252.603C322.578 256.024 318.846 257.502 316.047 255.247C314.647 254.158 314.025 253.925 313.17 255.869C311.925 258.746 308.504 258.979 306.638 256.491C304.616 253.925 305.471 251.048 305.938 248.248C306.016 247.937 306.716 247.782 307.104 247.548C307.26 248.015 307.726 248.482 307.649 248.87C307.493 250.037 307.104 251.125 306.871 252.292C306.482 254.002 307.96 255.946 309.826 256.18C311.148 256.413 312.081 255.247 312.081 253.225C312.081 252.136 311.925 251.048 311.925 249.959C311.925 249.57 312.159 249.181 312.314 248.793C312.703 249.026 313.247 249.104 313.558 249.415C314.336 250.348 314.88 251.514 315.736 252.37C316.902 253.536 318.535 254.08 320.012 253.303C321.568 252.447 321.023 250.892 320.79 249.492C320.712 248.87 320.868 248.171 320.868 247.548C321.49 247.704 322.19 247.859 322.812 248.093C324.134 248.482 325.456 249.259 326.777 249.337C328.177 249.415 328.799 248.171 328.022 247.082C327.011 245.682 325.922 243.972 324.522 243.038C320.79 240.706 316.902 238.684 312.936 236.662C312.625 236.507 311.537 236.818 311.459 237.051C309.437 243.038 304.849 246.615 299.717 249.726C298.084 250.737 296.529 252.058 294.741 252.758C290.542 254.391 286.265 255.869 281.91 257.035C277.867 258.124 273.668 258.979 269.469 259.679C266.203 260.223 262.937 260.69 259.671 260.845C254.617 261.001 249.64 260.923 244.586 260.923C244.43 260.923 244.352 260.923 244.197 260.923C243.108 260.923 242.719 261.467 242.953 262.556C243.264 263.956 243.497 265.355 243.653 266.755C244.197 271.887 244.741 277.019 245.363 282.151C245.519 283.707 246.063 285.184 246.452 286.739C246.607 286.739 246.841 286.739 246.996 286.739C247.152 286.117 247.307 285.417 247.385 284.795C247.696 282.462 247.852 280.13 248.318 277.875C248.474 277.253 249.407 276.708 250.029 276.164C250.573 276.786 251.195 277.408 251.584 278.108C251.74 278.419 251.584 278.963 251.506 279.43C251.04 284.562 250.495 289.772 250.107 294.904C250.029 296.537 250.184 298.014 250.184 299.881ZM448.16 220.255C448.238 221.188 448.238 221.966 448.393 222.743C449.56 229.197 448.627 235.496 446.605 241.639C446.449 242.183 445.516 242.416 444.972 242.805C444.739 242.183 444.35 241.639 444.194 241.017C444.116 240.706 444.272 240.239 444.35 239.85C446.06 231.841 444.894 224.143 442.25 216.522C440.928 212.79 441.239 209.446 443.261 206.103C443.805 205.17 444.583 204.236 444.739 203.148C444.972 201.67 445.205 199.96 444.583 198.716C443.805 197.238 442.017 197.549 440.539 198.093C438.362 198.793 436.185 199.338 434.085 200.271C427.476 203.148 420.633 204.859 413.324 204.392C408.658 204.081 403.993 204.081 399.327 203.848C385.175 203.07 371.1 201.67 357.104 199.493C350.883 198.482 347.073 195.527 343.962 190.24C335.72 176.088 327.244 162.091 315.891 150.038C309.593 143.351 302.516 137.597 294.585 133.009C294.041 132.698 293.419 132.542 292.874 132.309C293.419 134.253 294.274 135.886 295.052 137.519C298.629 145.373 299.717 153.848 300.106 162.324C300.728 176.554 303.683 190.24 307.104 204.003C308.971 211.701 310.603 219.555 312.003 227.331C312.392 229.664 313.247 230.986 315.191 232.074C327.477 239.15 340.074 245.371 353.604 249.492C358.581 250.97 363.48 252.603 368.456 254.002C371.256 254.78 374.133 255.169 377.01 255.713C385.408 257.113 393.806 258.746 402.204 259.757C407.492 260.457 412.935 260.379 418.223 260.534C428.331 260.923 438.362 260.612 448.393 259.601C456.325 258.746 463.945 256.88 471.566 254.858C477.475 253.303 483.229 251.359 488.595 248.326C489.372 247.859 490.15 247.393 490.772 246.693C491.161 246.304 491.472 245.449 491.316 244.982C491.161 244.594 490.228 244.205 489.761 244.283C487.428 244.827 485.173 245.449 482.996 246.304C480.897 247.16 478.953 248.404 476.931 249.337C475.765 249.881 474.52 250.115 473.743 248.637C473.043 247.237 473.509 246.071 474.754 245.293C475.92 244.516 477.164 243.738 478.486 243.194C483.152 241.094 486.806 237.751 490.15 234.018C490.539 233.63 490.772 233.163 491.316 232.385C490.461 232.308 489.917 232.074 489.528 232.23C487.117 233.163 484.629 233.941 482.452 235.107C479.808 236.584 477.397 238.528 474.909 240.161C473.743 240.939 472.576 240.706 471.643 239.539C470.71 238.373 471.099 237.284 472.11 236.429C473.976 234.874 475.687 233.163 477.786 232.074C481.052 230.364 483.54 227.875 485.795 225.154C486.418 224.376 486.573 223.132 486.962 222.121C485.718 222.043 484.551 221.966 483.307 221.966C483.152 221.966 482.918 222.121 482.763 222.199C478.175 225.309 472.887 227.409 469.31 231.919C468.611 232.774 467.6 233.396 466.433 232.696C465.267 231.997 464.878 230.986 465.267 229.742C465.734 228.109 466.2 226.553 466.822 224.92C468.066 221.655 468.844 218.389 468.688 214.889C468.222 207.58 463.479 201.437 456.869 200.037C456.014 199.882 454.614 199.96 454.303 200.504C453.914 201.048 454.147 202.526 454.614 203.148C455.78 204.703 457.18 206.025 458.58 207.347C460.912 209.524 461.69 212.168 460.757 215.123C459.824 218.078 457.569 219.711 454.614 220.099C452.437 220.488 450.415 220.255 448.16 220.255ZM64.1838 220.022C63.4062 220.099 62.7841 220.255 62.1621 220.177C60.2958 220.099 58.2741 220.41 56.5634 219.866C51.1202 218.078 49.7983 211.935 53.8418 207.813C55.1637 206.414 56.7189 205.17 57.8853 203.692C58.5074 202.915 58.3519 201.593 58.5074 200.504C57.4965 200.426 56.3301 200.115 55.397 200.348C47.0767 202.681 41.9446 211.857 44.3552 220.255C45.2105 223.288 46.2991 226.32 47.2323 229.275C47.6988 230.675 47.6211 231.997 46.1436 232.852C44.6662 233.707 43.7331 232.619 42.8 231.686C41.8669 230.675 41.0115 229.586 39.9229 228.808C36.8125 226.709 33.6244 224.687 30.4362 222.743C29.5809 222.199 28.57 221.888 27.5591 221.732C26.937 221.655 25.9262 221.966 25.5374 222.432C25.3041 222.743 25.6151 223.91 26.0039 224.298C28.3367 226.631 30.5917 228.964 33.08 231.063C35.4128 233.085 38.1344 234.718 40.4672 236.662C41.0115 237.129 41.2448 238.762 40.856 239.306C40.3894 240.006 39.0675 240.239 38.1344 240.317C37.5123 240.395 36.8125 239.773 36.2682 239.384C34.0132 237.829 31.8359 236.273 29.5809 234.718C27.1703 233.007 24.4487 232.23 21.1051 231.997C21.4939 232.774 21.6494 233.241 21.9604 233.63C25.2263 237.284 28.7255 240.783 33.3133 242.883C34.9463 243.66 36.5015 244.594 37.9789 245.682C39.1453 246.46 39.3786 247.626 38.601 248.948C37.8234 250.192 36.7347 250.037 35.7239 249.492C33.7799 248.559 31.9914 247.393 30.0474 246.615C27.7146 245.682 25.3041 244.905 22.8936 244.205C22.427 244.049 21.3384 244.438 21.2606 244.749C21.1051 245.293 21.2606 246.304 21.6494 246.615C22.6603 247.548 23.7489 248.326 24.9931 248.948C31.7581 252.525 39.1453 254.236 46.4547 256.257C58.3519 259.523 70.5601 260.534 82.7683 260.768C89.1446 260.923 95.5209 260.379 101.897 260.068C105.552 259.912 109.207 259.679 112.861 259.135C120.793 257.968 128.724 256.802 136.578 255.324C141.865 254.391 147.153 253.303 152.208 251.67C159.206 249.492 166.204 247.082 172.969 244.127C180.978 240.55 188.754 236.351 196.608 232.385C197.463 231.997 198.397 231.063 198.552 230.208C199.252 226.087 199.563 221.888 200.185 217.689C201.585 208.902 203.14 200.115 204.617 191.251C205.706 184.952 207.261 178.654 207.65 172.277C208.272 161.547 208.194 150.738 208.428 139.541C207.494 140.163 206.717 140.629 206.017 141.096C197.386 148.094 190.154 156.337 183.933 165.512C178.412 173.677 173.28 182.075 168.226 190.473C165.582 194.905 162.55 198.327 157.029 199.027C147.542 200.193 138.055 201.904 128.569 202.681C117.682 203.614 106.718 203.848 95.8319 204.236C91.2441 204.392 86.8118 203.381 82.535 201.748C79.1914 200.426 75.77 199.182 72.3486 198.016C70.7934 197.471 69.0049 197.238 67.8385 198.716C66.6721 200.115 67.0609 201.748 67.7608 203.303C68.4606 204.703 69.2382 206.025 69.938 207.425C71.3377 209.991 71.4932 212.634 70.5601 215.512C67.683 223.754 66.4388 232.23 68.3051 240.939C68.3828 241.483 67.7608 242.183 67.4497 242.805C66.9054 242.416 65.9723 242.028 65.8168 241.483C64.9614 237.517 64.0283 233.552 63.6395 229.508C63.4062 226.553 63.9505 223.365 64.1838 220.022ZM295.44 166.29C294.43 166.756 293.574 167.145 292.797 167.456C280.044 172.588 266.747 174.766 253.139 174.999C243.73 175.154 234.399 173.988 225.224 171.889C222.424 171.266 219.625 170.411 216.826 169.556C215.815 169.245 214.804 168.623 215.193 167.378C215.581 166.134 216.592 166.212 217.603 166.523C218.07 166.679 218.536 166.679 218.925 166.834C227.634 169.4 236.499 170.644 245.519 171.111C257.883 171.811 270.091 170.256 281.988 166.912C286.343 165.746 290.619 164.424 295.285 163.024C294.974 160.069 294.663 156.803 294.352 153.537C293.73 153.537 293.574 153.537 293.496 153.537C282.766 157.659 271.646 160.069 260.293 161.002C250.107 161.858 239.998 161.469 229.889 159.991C227.323 159.603 224.757 159.214 222.269 158.669C221.724 158.592 221.336 157.814 220.869 157.425C221.413 157.114 221.958 156.648 222.58 156.57C223.202 156.414 223.902 156.57 224.524 156.648C230.278 157.114 235.954 157.659 241.709 158.125C242.642 158.203 243.575 158.125 244.43 158.125C244.041 157.348 243.575 156.959 243.108 156.57C241.709 155.326 240.153 154.237 238.987 152.837C235.566 148.872 234.166 144.051 233.544 138.919C233.388 137.597 233 136.275 232.3 135.108C230.978 132.931 229.423 130.987 228.023 128.888C227.479 128.032 226.934 127.643 226.001 128.188C222.658 130.287 219.081 132.076 216.048 134.486C213.093 136.819 211.771 140.24 211.771 144.128C211.849 148.561 211.771 153.071 212.005 157.503C212.471 165.979 211.616 174.377 210.061 182.619C207.183 197.938 204.462 213.334 202.984 228.808C202.362 235.34 204.54 240.861 209.438 245.527C215.27 251.048 222.502 252.992 229.889 254.547C235.021 255.635 240.231 256.102 245.441 256.491C253.062 257.113 260.76 256.491 268.225 255.324C274.368 254.314 280.511 253.147 286.42 250.892C291.397 248.948 296.218 247.004 300.417 243.66C306.016 239.15 308.426 233.474 307.027 226.553C305.238 217.456 303.061 208.358 300.884 199.338C298.395 189.151 296.218 178.887 295.674 168.389C295.674 167.767 295.596 167.145 295.44 166.29ZM227.245 307.345C227.401 307.034 227.479 306.801 227.634 306.49C226.934 306.024 226.234 305.557 225.612 305.013C219.936 300.503 214.415 295.837 208.505 291.56C198.319 284.251 187.199 278.574 175.38 274.22C173.669 273.598 171.958 272.976 170.248 272.354C169.159 271.965 168.07 271.343 168.537 270.021C169.004 268.543 170.248 268.777 171.492 269.088C171.647 269.166 171.881 269.243 172.036 269.243C183.389 272.976 194.198 277.952 204.384 284.251C204.928 284.562 205.473 284.795 205.784 284.951C205.473 283.24 205.006 281.529 204.851 279.819C204.695 278.341 204.851 276.786 204.695 275.231C204.617 274.686 204.229 274.142 203.84 273.598C202.907 272.198 201.74 270.954 200.963 269.477C200.418 268.388 200.03 266.911 201.274 266.133C202.285 265.511 203.684 265.355 204.851 265.433C205.862 265.511 206.795 266.288 207.806 266.677C208.739 265.355 209.516 264.033 210.527 262.867C211.771 261.39 213.56 261.079 215.115 262.089C216.981 263.334 218.536 265.044 218.225 267.533C217.914 269.71 218.536 270.487 220.791 270.721C223.824 271.032 225.846 273.287 226.001 275.931C226.157 278.497 224.057 280.985 221.18 281.685C220.947 281.763 220.636 281.685 220.403 281.84C219.858 282.307 219.158 282.696 218.925 283.318C217.992 286.117 215.97 287.75 213.015 287.672C212.005 287.672 210.994 287.439 209.983 287.284C210.061 287.828 210.372 288.061 210.605 288.217C218.148 293.349 225.224 299.103 231.833 305.479C232.377 306.024 233.699 306.179 234.477 305.946C237.976 304.779 241.398 303.457 244.897 302.213C246.141 301.747 246.296 301.047 245.83 299.803C242.953 292.105 241.32 284.095 240.698 275.931C240.309 270.954 240.62 265.9 240.62 260.845C239.842 260.69 239.376 260.612 238.909 260.612C234.71 259.99 230.434 259.601 226.312 258.668C223.357 258.046 220.558 256.646 217.681 255.869C213.793 254.78 210.449 252.836 207.494 250.037C204.306 247.004 200.885 244.127 199.641 239.695C199.096 237.829 198.008 237.751 196.53 238.295C195.908 238.528 195.364 238.917 194.82 239.15C186.111 243.116 177.557 247.315 168.77 251.048C164.26 252.914 159.439 254.08 154.774 255.402C148.864 257.113 143.032 259.057 137.044 260.145C133.467 260.768 132.068 262.789 130.746 265.511C130.668 265.744 130.513 265.977 130.435 266.211C124.603 276.397 123.67 287.517 125.225 298.792C127.713 317.299 135.567 333.706 146.764 348.48C147.775 349.88 149.019 351.124 150.108 352.368C150.419 352.135 150.497 352.057 150.575 351.979C150.652 351.746 150.808 351.513 150.808 351.28C151.585 347.858 153.374 344.981 155.94 342.726C158.973 340.004 162.083 337.361 165.504 335.106C171.958 330.673 178.335 326.319 182.378 319.32C183.234 317.765 184.478 316.366 185.411 314.81C188.599 309.523 193.109 307.034 199.407 307.89C208.039 308.978 216.748 308.667 225.379 307.579C225.846 307.734 226.546 307.501 227.245 307.345ZM207.261 391.792C207.494 392.025 207.572 392.181 207.728 392.259C208.117 392.492 208.505 392.648 208.972 392.881C221.258 398.013 233.933 401.512 247.152 403.067C248.862 403.301 249.174 402.834 249.251 401.201C249.485 395.68 249.796 390.081 250.184 384.561C250.262 383.239 249.873 382.928 248.629 382.772C244.897 382.383 241.164 381.839 237.432 381.45C232.844 380.984 228.178 380.206 223.591 380.206C216.748 380.128 210.76 376.629 207.883 370.408C205.006 364.11 204.384 357.423 205.162 350.657C205.317 349.025 204.851 348.402 203.218 348.325C198.086 348.091 192.953 348.325 188.055 350.035C185.022 351.124 182.067 352.524 179.19 353.923C172.814 356.956 166.593 360.455 159.206 362.555C159.672 363.254 160.45 363.566 160.994 364.032C168.926 371.108 177.557 377.096 186.81 382.306C191.476 384.872 196.219 387.204 200.963 389.537C202.44 390.315 205.239 389.537 205.784 388.293C206.406 386.816 205.317 385.183 203.218 384.405C202.518 384.172 201.818 384.016 201.196 383.783C199.33 383.239 199.019 382.306 200.341 380.906C200.963 380.284 201.663 379.662 202.207 378.884C203.14 377.562 202.673 376.474 201.04 376.629C199.563 376.707 198.086 377.407 196.608 377.796C195.831 377.951 194.742 378.418 194.353 378.029C193.887 377.718 193.964 376.551 193.964 375.774C193.964 374.841 194.586 373.752 194.275 372.897C193.964 371.886 193.187 370.564 192.409 370.331C191.554 370.097 190.387 370.953 189.454 371.575C189.143 371.808 189.299 372.663 189.065 373.13C188.754 373.752 188.21 374.296 187.821 374.841C187.277 374.374 186.655 373.985 186.188 373.441C185.955 373.208 186.188 372.663 185.955 372.352C185.022 370.875 184.089 369.32 183 367.92C182.689 367.531 181.445 367.376 181.134 367.687C180.667 368.076 180.201 369.164 180.356 369.631C180.823 370.953 181.523 372.197 182.456 373.208C183.545 374.296 184.944 374.996 186.188 376.007C186.499 376.24 186.655 376.862 186.81 377.251C186.344 377.407 185.877 377.796 185.489 377.718C182.767 377.173 178.412 372.586 177.946 369.864C177.635 368.153 178.179 366.754 179.423 365.665C180.745 364.576 182.145 364.499 183.545 365.354C184.478 365.898 185.411 366.52 186.111 367.376C187.044 368.542 187.744 368.775 189.143 367.92C192.72 365.821 196.219 367.687 196.919 371.73C196.997 372.352 197.152 372.974 197.23 373.519C198.708 373.363 199.874 373.208 201.118 373.208C201.74 373.208 202.44 373.285 202.984 373.519C205.628 374.452 206.25 376.707 204.851 379.584C204.462 380.362 203.84 380.984 205.084 381.839C209.749 384.949 210.138 387.282 207.261 391.792ZM230.511 342.026H230.589C230.356 339.616 230.2 337.205 229.811 334.872C228.567 328.029 227.245 321.187 225.923 314.344C225.69 313.1 224.99 312.866 223.824 313.022C221.258 313.333 218.692 313.644 216.048 313.644C209.438 313.566 202.829 313.333 196.219 313.1C194.042 313.022 192.331 313.799 191.009 315.588C189.61 317.532 188.055 319.398 186.81 321.42C183.156 327.174 178.568 331.995 172.969 335.961C168.07 339.46 163.405 343.193 158.739 347.081C156.718 348.791 155.085 351.046 155.007 353.846C154.929 356.412 156.64 357.811 159.128 357.423C159.983 357.267 160.839 357.112 161.539 356.8C168.381 353.768 175.302 350.813 182.067 347.625C189.999 343.892 198.319 343.504 206.795 344.359C213.948 345.137 221.025 346.225 228.178 347.081C230.511 347.392 230.667 347.081 230.589 344.825C230.589 343.815 230.589 342.882 230.511 342.026ZM266.98 76.9442C262.704 80.5212 258.194 81.9208 253.217 81.6876C247.385 81.4543 241.631 80.5212 236.343 77.6441C235.099 76.9442 234.399 77.1775 233.933 78.4217C233.233 80.1324 232.3 81.9208 232.066 83.7093C231.444 89.7746 230.978 95.8398 230.667 101.905C230.589 103.771 231.211 105.715 231.833 107.581C232.611 109.759 235.021 110.692 237.043 109.603C238.054 109.059 238.909 108.048 239.765 107.193C240.775 106.182 241.475 104.782 242.719 104.16C244.43 103.227 245.519 102.294 245.13 100.194C245.052 99.8055 245.674 99.1057 246.141 98.7946C246.374 98.6391 247.074 99.1057 247.385 99.4167C247.618 99.65 247.463 100.194 247.618 100.505C247.852 101.05 248.24 101.516 248.629 101.983C249.174 101.594 249.718 101.283 250.184 100.816C250.418 100.583 250.34 100.039 250.573 99.7278C250.884 99.339 251.273 98.7946 251.584 98.7946C252.051 98.7946 252.75 99.1057 252.984 99.4945C253.295 100.039 253.606 100.894 253.45 101.516C253.139 102.76 253.761 103.149 254.617 103.771C256.172 104.86 257.96 106.026 258.893 107.581C260.138 109.681 261.771 110.225 263.792 110.381C267.136 110.692 269.624 109.214 270.324 105.949C270.946 102.916 271.413 99.7278 271.179 96.6951C270.635 91.4075 269.546 86.1976 268.613 81.0655C268.38 79.6658 267.603 78.4994 266.98 76.9442ZM290.853 139.307C290.697 139.463 290.464 139.618 290.308 139.774C289.297 140.396 288.364 141.096 287.276 141.485C282.299 143.506 277.011 143.662 271.802 143.118C271.024 143.04 269.78 142.262 269.702 141.718C269.546 140.396 270.791 140.318 271.879 140.24C275.378 140.007 278.878 139.774 282.299 139.23C284.71 138.841 286.965 137.985 289.375 137.363C289.375 137.363 289.453 137.13 289.375 136.975C286.187 131.298 281.444 127.643 275.145 126.166C274.601 126.01 273.668 126.71 273.279 127.255C272.268 128.81 271.802 130.909 270.557 132.076C267.991 134.408 267.525 137.286 267.214 140.396C267.136 140.94 267.136 141.407 266.98 141.951C265.892 147.55 264.103 152.76 259.438 156.414C259.282 156.57 259.204 156.803 258.971 157.348C265.192 157.27 270.868 156.026 276.623 154.704C282.377 153.382 287.975 151.671 294.118 150.038C292.952 146.461 291.941 142.884 290.853 139.307ZM285.254 380.75C285.254 380.906 285.176 381.139 285.176 381.295C285.72 381.528 286.187 381.839 286.809 381.995C291.475 383.472 295.907 385.416 299.717 388.604C303.294 391.637 306.638 394.825 310.137 397.935C313.558 400.89 316.98 403.845 320.479 406.722C321.801 407.811 323.434 408.277 324.989 407.266C326.622 406.178 327.011 404.545 326.777 402.679C326.777 402.367 326.622 402.056 326.544 401.745C325.611 397.624 323.356 394.125 320.945 390.781C317.68 386.271 314.336 381.839 311.148 377.251C310.215 375.852 309.359 375.618 307.804 375.929C301.972 377.329 296.062 378.573 290.23 379.895C288.598 380.206 286.887 380.439 285.254 380.75ZM237.665 138.996C237.354 143.662 240.931 149.572 245.13 152.215C250.34 155.404 255.705 154.315 258.738 149.027C260.138 146.617 260.76 143.74 261.615 141.096C261.771 140.551 261.537 139.929 261.46 138.996C253.373 142.962 245.597 143.506 237.665 138.996ZM218.303 279.041C218.847 278.963 219.78 278.963 220.714 278.808C221.958 278.574 223.124 277.797 222.735 276.475C222.502 275.542 221.647 274.453 220.791 273.987C219.858 273.52 218.536 273.52 217.37 273.598C214.182 273.909 213.793 273.442 214.726 270.254C215.115 268.932 215.193 267.533 215.037 266.133C214.959 265.589 214.026 264.811 213.482 264.733C212.938 264.656 211.849 265.355 211.693 265.822C211.305 267.377 211.227 269.088 210.994 270.721C210.838 271.498 210.527 272.276 210.294 273.054C209.594 272.665 208.661 272.431 208.117 271.809C207.028 270.643 206.095 269.321 205.006 268.155C204.617 267.766 203.918 267.766 203.295 267.61C203.295 268.232 203.14 268.855 203.373 269.399C204.229 271.576 206.095 272.743 208.039 273.831C208.583 274.142 208.894 274.842 209.361 275.309C208.894 275.62 208.428 275.853 208.039 276.242C207.728 276.553 207.261 277.253 207.339 277.33C208.661 278.574 208.661 279.974 208.039 281.529C207.883 281.84 208.428 282.696 208.816 282.929C210.138 283.629 211.538 284.329 213.015 284.562C213.793 284.717 214.882 284.095 215.426 283.396C215.659 283.084 215.037 281.996 214.804 281.218C214.648 280.674 214.26 279.974 214.493 279.663C214.804 279.197 215.426 278.885 216.048 278.73C216.592 278.808 217.214 278.963 218.303 279.041ZM448.704 206.025C448.86 205.792 449.015 205.558 449.249 205.247C448.471 206.491 447.693 207.736 446.994 209.058C445.438 211.857 446.06 213.879 449.093 214.967C450.57 215.512 452.359 215.667 453.992 215.434C456.169 215.123 457.024 212.868 455.469 211.39C453.37 209.446 450.959 207.813 448.704 206.025ZM63.795 206.025C61.6178 207.736 59.4405 209.213 57.4965 211.002C56.8744 211.624 56.3301 213.101 56.6412 213.879C56.9522 214.656 58.1963 215.434 59.1295 215.667C61.4622 216.211 63.5617 215.278 65.428 213.801C66.4388 212.946 66.8276 211.701 66.2056 210.457C65.2724 208.591 64.2616 206.88 63.795 206.025ZM248.785 113.724C248.707 113.569 248.629 113.413 248.629 113.258C248.007 113.569 247.463 113.88 246.841 114.191C247.463 114.58 248.085 115.357 248.785 115.357C249.951 115.357 251.118 115.046 252.284 114.658C252.595 114.58 252.75 113.802 252.906 113.258C252.362 113.18 251.895 112.869 251.351 112.947C250.495 113.18 249.64 113.491 248.785 113.724Z" fill="#1A1A1A"/>
<path d="M368.068 443.347C367.135 440.703 366.279 438.448 365.657 436.193C365.191 434.482 365.035 432.616 365.113 430.827C365.191 429.817 365.813 428.339 366.59 427.95C367.523 427.562 369.001 427.873 369.934 428.417C371.256 429.195 372.267 430.439 373.355 431.527C373.822 431.994 374.211 432.46 374.91 433.238C375.299 431.916 375.455 430.983 375.844 430.05C376.854 427.795 377.788 425.54 379.109 423.518C379.654 422.663 381.287 421.963 382.22 422.118C383.153 422.274 384.086 423.674 384.397 424.684C385.019 426.473 385.097 428.417 385.486 430.594C388.752 428.883 391.473 425.618 395.672 427.017C397.616 424.762 397.772 422.274 396.061 419.941C393.184 416.053 390.618 412.01 389.529 407.266C389.218 405.867 389.14 404.312 389.218 402.834C389.374 400.812 390.54 399.335 392.562 398.791C394.506 398.246 396.139 399.024 397.072 400.579C398.238 402.445 399.016 404.467 399.871 406.489C400.26 407.422 400.493 408.433 400.804 409.366C400.96 409.366 401.193 409.366 401.349 409.444C401.893 408.122 402.437 406.8 402.982 405.478C405.392 399.335 407.803 393.192 410.291 387.049C410.68 386.116 411.069 384.949 412.546 385.571C413.868 386.194 413.401 387.282 413.09 388.215C411.768 391.792 410.369 395.369 409.047 398.946C408.891 399.335 408.891 399.801 408.658 400.501C409.591 400.19 410.369 399.957 411.069 399.724C411.768 399.49 412.468 399.257 413.168 399.179C416.356 398.791 419 400.112 419.7 402.445C420.4 404.623 418.922 406.878 415.812 408.433C413.09 409.755 410.135 410.377 407.103 409.755C405.781 409.521 405.159 409.988 404.77 411.154C403.059 417.064 401.349 422.974 399.638 428.883C399.327 430.05 399.56 430.672 400.727 431.139C402.36 431.761 403.37 433.083 403.837 434.871C404.07 435.571 404.926 436.348 405.548 436.504C410.135 437.515 412.079 440.858 410.602 445.446C409.902 447.624 410.058 447.701 412.391 448.168C416.745 449.101 421.1 450.112 425.376 451.278C426.854 451.667 428.875 452.211 428.875 454.155C428.875 456.177 426.854 456.799 425.299 457.188C420.555 458.432 415.812 459.754 410.913 460.454C388.829 463.797 366.59 465.275 344.351 466.13C328.799 466.752 313.325 467.297 297.773 467.608C281.366 467.997 264.881 468.308 248.396 468.152C227.556 467.997 206.717 467.685 185.877 466.986C167.915 466.364 150.03 465.508 132.145 464.109C119.237 463.098 106.407 461.309 93.5768 459.521C89.9999 459.054 86.5784 457.732 83.157 456.566C82.1461 456.255 80.6687 454.933 80.7465 454.233C80.8242 453.222 82.0684 451.9 83.0793 451.589C87.5116 450.267 92.0216 448.868 96.6094 448.09C118.071 444.513 139.688 443.269 161.383 442.18C175.613 441.481 189.843 440.936 204.073 440.703C225.846 440.314 247.618 440.003 269.391 440.236C294.896 440.47 320.401 441.325 345.906 442.103C352.438 442.258 358.97 442.88 365.502 443.269C366.435 443.347 367.135 443.347 368.068 443.347Z" fill="#1A1A1A"/>
<path d="M250.184 299.881C250.184 298.092 250.107 296.537 250.184 294.982C250.573 289.85 251.118 284.64 251.584 279.508C251.662 279.041 251.817 278.497 251.662 278.186C251.273 277.486 250.651 276.864 250.107 276.242C249.485 276.786 248.551 277.253 248.396 277.952C247.929 280.207 247.774 282.54 247.463 284.873C247.385 285.495 247.23 286.195 247.074 286.817C246.918 286.817 246.685 286.817 246.53 286.817C246.141 285.262 245.674 283.784 245.441 282.229C244.819 277.097 244.352 271.965 243.73 266.833C243.575 265.433 243.342 264.033 243.031 262.634C242.797 261.545 243.186 261.001 244.275 261.001C244.43 261.001 244.508 261.001 244.663 261.001C249.718 261.001 254.694 261.156 259.749 260.923C263.015 260.768 266.281 260.379 269.546 259.757C273.746 259.057 277.867 258.201 281.988 257.113C286.343 255.946 290.619 254.469 294.818 252.836C296.607 252.136 298.084 250.814 299.795 249.803C304.927 246.693 309.515 243.116 311.537 237.129C311.614 236.818 312.703 236.507 313.014 236.74C316.902 238.762 320.868 240.783 324.6 243.116C326.078 244.049 327.088 245.682 328.099 247.16C328.877 248.248 328.255 249.492 326.855 249.415C325.533 249.337 324.211 248.637 322.889 248.171C322.267 247.937 321.568 247.782 320.945 247.626C320.868 248.248 320.712 248.948 320.868 249.57C321.101 250.97 321.645 252.603 320.09 253.38C318.613 254.158 316.98 253.614 315.813 252.447C314.958 251.592 314.414 250.426 313.636 249.492C313.403 249.181 312.858 249.026 312.392 248.87C312.236 249.259 312.003 249.648 312.003 250.037C312.003 251.125 312.236 252.214 312.159 253.303C312.159 255.324 311.226 256.413 309.904 256.258C308.037 255.946 306.56 254.08 306.949 252.37C307.182 251.203 307.571 250.115 307.726 248.948C307.804 248.559 307.415 248.093 307.182 247.626C306.793 247.859 306.093 248.093 306.016 248.326C305.549 251.125 304.694 253.925 306.716 256.569C308.659 259.057 312.081 258.824 313.247 255.946C314.103 254.002 314.725 254.158 316.124 255.324C318.924 257.579 322.656 256.102 323.201 252.681C323.356 251.592 323.667 251.125 324.911 251.281C329.032 251.903 330.743 250.581 331.054 246.304C333.776 247.315 336.42 248.248 339.063 249.181C344.507 251.203 349.872 253.458 355.393 255.247C359.281 256.491 363.247 257.424 367.212 258.201C371.256 258.979 374.366 261.156 376.31 264.578C378.799 268.777 381.054 273.209 382.842 277.719C386.03 286.039 385.564 294.593 383.153 303.146C378.798 318.465 369.856 330.984 358.814 342.104C345.206 355.867 328.644 364.654 310.292 370.331C295.285 374.996 279.966 377.251 264.259 378.107C252.906 378.729 241.786 377.64 230.667 375.696C230.356 375.618 230.045 375.54 229.734 375.463C229.656 375.463 229.578 375.307 229.267 374.996C235.255 361.311 235.332 346.847 233.933 332.151C234.166 332.54 234.477 332.928 234.71 333.239C235.721 334.406 236.576 335.805 237.743 336.739C240.853 339.305 244.275 338.605 246.219 335.106C246.918 333.861 247.463 333.395 248.94 333.861C251.118 334.484 253.217 334.095 254.694 332.151C256.094 330.284 256.016 328.185 255.005 326.241C254.228 324.764 252.984 323.442 251.74 322.198C250.962 321.42 250.573 320.953 251.273 319.787C252.906 317.221 252.439 314.81 250.262 313.022C248.318 311.389 244.119 311.389 242.486 313.022C242.253 313.255 242.253 313.799 242.097 314.188C242.408 314.266 242.797 314.577 243.108 314.499C243.964 314.344 244.819 313.955 245.752 313.877C247.463 313.644 248.862 314.111 249.64 315.821C250.418 317.532 249.407 318.621 248.085 319.554C247.852 319.709 247.541 319.865 247.307 320.098C245.597 321.342 245.674 322.353 247.696 323.286C248.474 323.675 249.407 323.83 249.951 324.453C250.962 325.541 252.051 326.785 252.595 328.185C253.373 330.129 251.895 331.606 249.951 331.062C248.785 330.673 247.774 329.74 246.607 329.196C245.908 328.885 244.974 328.652 244.352 328.885C244.041 329.04 243.808 330.284 243.964 330.907C244.508 332.617 243.964 333.861 242.642 334.795C241.32 335.728 240.153 334.717 239.22 333.861C238.52 333.317 237.976 332.54 237.51 331.84C236.11 329.662 236.11 329.662 233.544 329.818C233.233 328.185 232.922 326.474 232.533 324.764C231.755 321.264 230.978 317.843 230.122 314.344C229.889 313.255 230.045 312.711 231.133 312.244C240.62 308.279 250.107 304.313 259.516 300.114C270.713 295.059 281.677 289.461 292.952 284.64C301.739 280.829 311.07 278.341 320.634 277.175C328.488 276.164 336.497 275.697 344.429 274.998C345.595 274.92 346.762 274.764 346.839 273.287C346.839 271.654 345.595 271.576 344.351 271.576C333.465 271.498 322.812 272.898 312.159 275.153C295.052 278.73 279.344 285.884 263.87 293.738C260.06 295.682 256.172 297.47 252.284 299.258C251.662 299.414 251.04 299.57 250.184 299.881ZM352.749 316.055C353.293 316.132 353.527 316.132 353.76 316.21C357.57 317.299 360.214 315.355 360.447 311.311C360.603 308.123 359.67 305.246 357.57 302.913C356.559 301.747 356.248 300.814 356.87 299.258C358.503 294.904 355.626 289.694 351.116 288.528C345.284 286.972 339.686 291.172 339.53 297.237C339.53 298.559 339.063 299.025 337.819 299.492C334.631 300.736 331.676 302.602 329.499 305.401C328.022 307.268 327.088 309.445 327.866 311.933C329.188 316.521 332.298 318.776 337.042 318.387C338.519 318.232 339.063 318.543 339.219 320.176C339.608 325.152 344.895 327.563 348.939 324.608C351.116 322.975 352.36 320.798 352.438 317.998C352.594 317.376 352.671 316.832 352.749 316.055ZM286.343 358.822C283.776 358.122 281.521 357.267 279.189 356.878C276.856 356.489 275.767 358.122 276.7 360.3C278.722 364.887 281.755 368.542 285.954 371.186C286.42 371.497 287.198 371.341 287.82 371.419C287.509 370.797 287.276 370.097 286.887 369.553C286.654 369.164 286.187 369.009 285.798 368.775C282.843 366.676 280.666 363.877 279.033 360.611C278.8 360.144 278.878 359.522 278.878 358.978C279.344 358.978 279.966 358.744 280.355 358.978C282.61 360.144 284.787 361.311 286.965 362.555C287.975 363.177 288.598 365.121 290.075 364.032C290.542 363.643 290.153 361.777 289.764 360.766C288.442 356.8 287.975 352.835 289.686 348.869C290.386 347.158 291.552 347.003 292.486 348.558C293.185 349.724 293.807 350.968 294.118 352.29C294.741 354.701 295.129 357.267 295.751 359.678C295.907 360.3 296.685 360.688 297.151 361.155C297.54 360.611 298.084 360.066 298.317 359.444C298.473 358.978 298.317 358.433 298.395 357.889C298.862 354.545 300.261 351.824 303.605 350.502C306.949 349.102 309.515 350.735 308.971 354.234C308.582 356.956 307.26 359.6 306.482 362.321C306.249 363.099 306.093 364.499 306.482 364.81C307.571 365.665 308.504 364.732 308.893 363.721C309.981 360.611 311.303 357.578 311.848 354.39C312.47 350.735 310.448 348.014 307.104 347.469C303.683 346.925 300.884 348.247 298.551 350.657C298.084 351.124 297.618 351.668 297.073 352.213C296.14 350.269 295.44 348.325 294.352 346.692C292.33 343.659 289.297 343.892 287.664 347.158C286.965 348.558 286.42 350.191 286.265 351.746C286.187 354.157 286.343 356.489 286.343 358.822ZM300.184 298.636C300.806 299.336 301.195 299.647 301.506 300.114C302.75 302.136 304.46 303.146 306.949 302.602C309.126 302.136 311.226 299.958 311.381 297.47C311.537 295.682 312.081 295.371 313.792 295.526C319.079 295.993 323.978 290.472 322.656 285.651C322.501 285.029 321.723 284.562 321.257 284.095C320.868 284.717 320.09 285.495 320.168 286.039C321.179 291.327 315.425 294.593 311.459 292.26C309.904 291.327 309.048 292.027 309.048 293.893C309.048 295.059 309.359 296.381 308.893 297.315C308.348 298.403 307.338 299.647 306.249 300.036C305.627 300.269 304.305 299.258 303.45 298.559C302.672 297.937 302.283 297.003 301.583 296.381C300.184 295.137 299.017 295.371 298.24 297.081C297.851 297.937 297.54 298.87 297.151 299.803C295.985 302.447 293.108 302.758 291.475 300.347C290.93 299.492 290.542 298.325 290.464 297.237C290.386 295.682 290.697 294.126 290.697 292.571C290.697 292.105 290.308 291.56 289.997 291.094C289.919 291.016 289.142 291.249 288.909 291.56C286.965 294.282 288.131 301.047 290.853 303.069C294.196 305.557 297.929 304.468 299.406 300.58C299.562 300.114 299.873 299.57 300.184 298.636ZM273.512 272.665C273.357 272.743 273.201 272.82 272.968 272.898C273.279 273.52 273.59 274.142 273.979 274.764C274.601 274.375 275.223 273.987 275.845 273.52C276.001 273.442 276.001 273.209 276.156 273.054C277.011 271.576 278.333 271.187 279.811 271.887C281.21 272.587 281.832 273.909 281.21 275.464C280.899 276.242 280.122 276.786 279.811 277.486C279.5 278.108 279.577 278.885 279.5 279.508C280.2 279.508 281.055 279.741 281.521 279.43C284.01 277.875 284.865 274.609 283.621 271.965C282.377 269.321 279.811 268.31 276.778 269.088C276.001 269.321 275.145 269.321 274.445 269.088C271.102 267.999 268.147 270.099 268.458 273.676C268.613 275.231 269.235 276.786 269.858 278.263C270.169 278.963 271.024 279.352 271.646 279.974C271.568 279.197 271.568 278.341 271.413 277.564C271.179 276.786 270.557 276.008 270.557 275.231C270.557 274.142 270.713 272.976 271.102 271.965C271.257 271.498 272.268 271.187 272.89 271.187C272.968 271.187 273.201 272.198 273.512 272.665ZM372.889 280.518C372.733 283.862 373.9 285.884 376.155 286.817C378.176 287.595 380.976 286.973 382.298 285.262C382.609 284.873 382.609 284.095 382.764 283.551C382.142 283.473 381.287 283.085 380.898 283.396C379.421 284.329 377.865 285.262 376.388 283.707C374.833 282.151 375.844 280.674 376.777 279.197C377.01 278.808 377.01 278.03 376.777 277.641C376.621 277.33 375.921 277.253 375.455 277.175C374.677 277.019 373.977 276.942 373.2 276.786C373.355 275.931 373.511 275.075 373.666 274.142C373.744 273.676 373.744 273.209 373.744 272.743C373.2 272.743 372.578 272.587 372.189 272.82C369.934 274.142 369.856 277.253 371.878 279.119C372.422 279.585 372.811 280.363 372.889 280.518ZM273.823 329.351C273.512 329.351 273.201 329.351 272.89 329.429C272.735 328.652 272.657 327.874 272.501 327.174C272.424 326.785 272.113 326.397 271.802 326.163C271.646 326.085 270.868 326.397 270.868 326.552C270.946 327.952 270.713 329.429 271.257 330.596C271.568 331.295 273.279 331.917 273.979 331.606C274.99 331.14 275.845 329.973 276.312 328.963C276.623 328.185 276.234 327.019 275.923 326.163C275.767 325.697 274.99 325.463 274.523 325.152C274.29 325.697 273.901 326.163 273.901 326.708C273.745 327.563 273.823 328.418 273.823 329.351ZM312.47 324.841C312.159 323.908 311.925 323.208 311.614 322.431C310.992 323.053 310.292 323.519 309.826 324.219C309.515 324.686 309.437 325.463 309.67 325.852C310.137 326.552 310.837 327.252 311.537 327.485C312.003 327.641 313.092 326.941 313.247 326.397C313.403 325.93 312.703 325.23 312.47 324.841ZM252.206 265.666C251.895 265.666 251.584 265.666 251.351 265.589C250.806 266.288 249.796 267.066 249.873 267.688C249.951 268.466 250.806 269.554 251.584 269.71C252.828 270.021 253.684 269.01 253.528 267.688C253.373 267.066 252.673 266.444 252.206 265.666Z" fill="white"/>
<path d="M227.245 307.345C226.545 307.501 225.846 307.734 225.068 307.812C216.437 308.901 207.728 309.212 199.096 308.123C192.798 307.345 188.288 309.756 185.1 315.044C184.167 316.599 183 317.999 182.067 319.554C178.101 326.552 171.647 330.907 165.193 335.339C161.85 337.594 158.661 340.238 155.629 342.959C153.063 345.214 151.352 348.091 150.497 351.513C150.419 351.746 150.341 351.979 150.263 352.213C150.186 352.29 150.108 352.368 149.797 352.601C148.708 351.28 147.464 350.035 146.453 348.713C135.256 333.861 127.48 317.532 124.914 299.025C123.359 287.75 124.292 276.63 130.124 266.444C130.279 266.211 130.357 265.977 130.435 265.744C131.757 263.023 133.156 261.001 136.733 260.379C142.721 259.29 148.63 257.346 154.462 255.635C159.128 254.314 163.949 253.147 168.459 251.281C177.246 247.548 185.877 243.349 194.509 239.384C195.131 239.15 195.597 238.684 196.219 238.528C197.697 237.984 198.785 238.062 199.33 239.928C200.574 244.36 203.995 247.237 207.183 250.27C210.138 253.069 213.404 255.013 217.37 256.102C220.325 256.88 223.046 258.279 226.001 258.901C230.122 259.757 234.399 260.223 238.598 260.845C239.065 260.923 239.454 261.001 240.309 261.079C240.309 266.133 239.998 271.187 240.387 276.164C241.009 284.329 242.642 292.338 245.519 300.036C245.985 301.28 245.83 301.98 244.586 302.447C241.086 303.691 237.665 305.09 234.166 306.179C233.388 306.412 232.066 306.179 231.522 305.713C224.912 299.414 217.836 293.66 210.294 288.45C209.983 288.217 209.749 287.983 209.672 287.517C210.683 287.672 211.693 287.828 212.704 287.906C215.659 287.983 217.759 286.35 218.614 283.551C218.77 283.007 219.547 282.54 220.091 282.074C220.247 281.918 220.558 281.996 220.869 281.918C223.824 281.141 225.846 278.73 225.69 276.164C225.535 273.598 223.513 271.265 220.48 270.954C218.225 270.721 217.681 269.943 217.914 267.766C218.225 265.278 216.67 263.567 214.804 262.323C213.249 261.312 211.46 261.623 210.216 263.1C209.205 264.267 208.427 265.589 207.494 266.911C206.561 266.444 205.55 265.744 204.54 265.666C203.373 265.589 201.973 265.822 200.963 266.366C199.641 267.144 200.029 268.621 200.652 269.71C201.429 271.187 202.596 272.431 203.529 273.831C203.84 274.298 204.306 274.92 204.384 275.464C204.54 277.019 204.384 278.497 204.54 280.052C204.773 281.763 205.162 283.473 205.473 285.184C205.162 285.029 204.617 284.795 204.073 284.484C193.886 278.186 183.078 273.287 171.725 269.477C171.57 269.399 171.336 269.321 171.181 269.321C170.014 268.932 168.77 268.699 168.226 270.254C167.759 271.654 168.848 272.198 169.937 272.587C171.647 273.209 173.358 273.831 175.069 274.453C186.888 278.73 198.008 284.406 208.194 291.794C214.104 295.993 219.625 300.736 225.301 305.246C225.923 305.79 226.701 306.257 227.323 306.723C227.556 306.801 227.401 307.112 227.245 307.345ZM136.422 294.204C137.433 294.204 138.6 293.971 139.455 294.36C140.543 294.904 141.71 295.759 142.176 296.77C142.41 297.315 141.477 298.636 140.777 299.336C139.377 300.736 139.222 301.436 140.621 302.913C141.71 304.08 143.11 305.09 143.887 306.49C144.431 307.501 144.587 309.367 143.965 310.223C143.343 311.078 141.632 311.467 140.466 311.467C137.511 311.389 135.334 309.523 133.156 307.734C132.69 307.345 131.679 307.579 130.979 307.501C131.135 308.201 130.979 309.056 131.368 309.523C133.312 311.856 135.878 313.411 138.833 314.266C142.021 315.121 145.209 314.188 146.686 311.856C148.164 309.523 147.775 306.179 145.52 303.613C145.131 303.146 144.431 302.758 144.198 302.213C143.965 301.747 143.809 300.891 144.043 300.503C146.298 296.926 145.054 292.96 140.932 291.949C138.833 291.405 138.6 290.627 138.988 288.761C139.533 286.195 138.366 284.095 136.189 282.618C134.012 281.218 131.757 281.063 129.579 282.462C127.402 283.862 126.158 285.884 126.391 288.528C126.469 289.228 127.247 289.85 127.713 290.549C127.946 289.927 128.258 289.305 128.491 288.605C128.569 288.372 128.491 288.061 128.491 287.828C128.646 285.884 129.968 284.329 131.834 284.095C133.856 283.784 135.722 284.717 136.267 286.428C136.967 288.294 136.267 290.316 134.478 291.483C134.089 291.716 133.545 291.794 133.312 292.105C132.923 292.493 132.534 293.115 132.612 293.504C132.69 293.893 133.39 294.36 133.856 294.437C134.789 294.437 135.645 294.282 136.422 294.204ZM193.264 292.96C193.264 290.783 190.854 287.517 188.443 286.35C187.899 286.117 187.199 286.428 186.499 286.428C186.655 287.128 186.655 287.906 187.044 288.372C187.821 289.305 188.832 290.005 189.687 290.938C190.543 291.949 191.165 293.193 189.999 294.36C188.832 295.526 187.588 295.137 186.499 294.36C185.566 293.66 184.866 292.727 183.856 292.027C183.389 291.716 182.534 291.638 181.989 291.871C181.678 292.027 181.756 292.96 181.756 293.582C181.756 293.971 182.223 294.282 182.223 294.593C182.145 295.293 182.067 296.304 181.6 296.615C181.134 296.926 179.89 296.926 179.579 296.537C178.723 295.604 178.335 294.282 177.635 293.193C177.168 292.493 176.468 292.027 175.846 291.405C175.38 291.949 174.68 292.416 174.447 293.038C173.98 294.282 172.347 295.526 170.87 295.293C169.392 295.059 168.381 293.971 168.615 292.649C168.848 291.327 169.626 289.927 170.559 288.916C171.336 288.061 172.736 287.828 173.747 287.128C174.213 286.817 174.447 286.195 174.758 285.651C174.213 285.417 173.591 284.951 173.125 285.106C170.481 285.806 168.226 287.128 166.826 289.616C165.582 291.949 165.815 294.282 167.448 296.148C168.926 297.859 170.947 298.403 173.436 297.237C174.991 296.537 175.924 296.848 177.09 298.014C179.268 300.192 182.378 300.192 184.089 298.014C185.022 296.926 185.722 296.77 187.044 297.159C190.387 298.481 193.342 296.304 193.264 292.96ZM179.501 252.603C179.501 254.78 180.667 256.491 182.3 256.88C184.011 257.268 186.033 256.102 186.966 254.469C187.588 253.38 188.288 252.292 189.221 251.514C191.398 249.648 191.243 247.471 188.599 246.227C188.055 245.993 187.277 246.227 186.655 246.227C186.888 246.771 187.121 247.237 187.355 247.782C187.588 248.326 187.899 248.948 187.821 249.492C187.821 249.804 187.044 250.192 186.655 250.192C184.711 250.115 184.711 251.048 185.177 252.525C185.333 253.069 184.944 254.158 184.478 254.469C184.011 254.78 182.845 254.547 182.456 254.158C181.989 253.691 182.145 252.681 181.912 251.903C181.756 251.359 181.6 250.892 181.367 250.426C180.823 250.659 180.201 250.814 179.812 251.281C179.579 251.747 179.579 252.37 179.501 252.603ZM174.369 280.207C173.669 279.663 173.125 279.041 172.969 279.197C172.269 279.508 171.725 280.052 171.103 280.518C171.414 280.907 171.881 281.685 172.036 281.607C172.736 281.374 173.358 280.83 174.369 280.207Z" fill="white"/>
<path d="M207.261 391.792C210.138 387.282 209.75 384.949 205.317 381.994C204.073 381.139 204.773 380.517 205.084 379.739C206.484 376.862 205.784 374.607 203.218 373.674C202.596 373.441 201.974 373.363 201.352 373.363C200.107 373.363 198.941 373.519 197.464 373.674C197.386 373.13 197.23 372.508 197.153 371.886C196.453 367.765 192.954 365.976 189.377 368.076C187.977 368.931 187.277 368.62 186.344 367.531C185.644 366.676 184.711 366.054 183.778 365.509C182.378 364.654 180.901 364.732 179.657 365.821C178.335 366.909 177.868 368.309 178.179 370.02C178.646 372.741 183.078 377.329 185.722 377.873C186.111 377.951 186.577 377.562 187.044 377.407C186.811 376.94 186.733 376.396 186.422 376.163C185.178 375.229 183.778 374.452 182.689 373.363C181.756 372.352 181.056 371.108 180.59 369.786C180.356 369.242 180.823 368.231 181.367 367.842C181.756 367.531 182.923 367.687 183.234 368.076C184.322 369.475 185.255 370.953 186.188 372.508C186.344 372.819 186.188 373.363 186.422 373.596C186.888 374.141 187.51 374.53 188.055 374.996C188.521 374.452 188.988 373.908 189.299 373.285C189.532 372.819 189.377 371.886 189.688 371.73C190.621 371.108 191.787 370.253 192.642 370.486C193.42 370.719 194.198 372.041 194.509 373.052C194.742 373.908 194.198 374.918 194.198 375.929C194.198 376.707 194.12 377.873 194.586 378.184C195.053 378.495 196.064 378.107 196.841 377.951C198.319 377.562 199.796 376.94 201.274 376.785C202.907 376.629 203.373 377.718 202.44 379.04C201.896 379.739 201.196 380.362 200.574 381.061C199.252 382.461 199.563 383.394 201.429 383.938C202.129 384.172 202.829 384.327 203.451 384.561C205.551 385.338 206.639 387.049 206.017 388.449C205.473 389.693 202.751 390.47 201.196 389.693C196.453 387.282 191.632 385.027 187.044 382.461C177.79 377.329 169.159 371.264 161.228 364.188C160.683 363.721 159.906 363.41 159.439 362.71C166.749 360.688 172.969 357.111 179.423 354.079C182.378 352.679 185.255 351.28 188.288 350.191C193.187 348.48 198.319 348.247 203.451 348.48C205.084 348.558 205.551 349.18 205.395 350.813C204.617 357.656 205.24 364.265 208.117 370.564C210.994 376.785 216.981 380.284 223.824 380.362C228.412 380.439 233.077 381.139 237.665 381.606C241.398 381.994 245.13 382.539 248.863 382.928C250.107 383.083 250.496 383.394 250.418 384.716C250.029 390.237 249.64 395.758 249.485 401.357C249.407 402.99 249.096 403.456 247.385 403.223C234.166 401.668 221.491 398.168 209.205 393.036C208.816 392.881 208.35 392.648 207.961 392.414C207.572 392.181 207.417 392.025 207.261 391.792Z" fill="white"/>
<path d="M218.303 279.041C217.292 278.963 216.67 278.808 216.126 278.963C215.582 279.119 214.882 279.43 214.571 279.896C214.337 280.207 214.726 280.907 214.882 281.452C215.115 282.229 215.737 283.318 215.504 283.629C214.959 284.251 213.871 284.873 213.093 284.795C211.616 284.562 210.216 283.862 208.894 283.162C208.505 282.929 207.961 282.074 208.117 281.763C208.739 280.207 208.739 278.808 207.417 277.564C207.339 277.486 207.806 276.786 208.117 276.475C208.505 276.086 208.972 275.853 209.439 275.542C208.972 274.997 208.661 274.298 208.117 274.064C206.173 272.976 204.306 271.809 203.451 269.632C203.218 269.088 203.373 268.466 203.373 267.844C203.918 267.999 204.695 267.999 205.084 268.388C206.173 269.554 207.106 270.954 208.194 272.043C208.739 272.587 209.672 272.898 210.372 273.287C210.605 272.509 210.916 271.732 211.071 270.954C211.305 269.321 211.383 267.688 211.771 266.055C211.927 265.511 212.938 264.889 213.56 264.967C214.182 265.044 215.115 265.822 215.115 266.366C215.27 267.688 215.193 269.166 214.804 270.487C213.793 273.676 214.182 274.22 217.448 273.831C218.536 273.676 219.858 273.676 220.869 274.22C221.725 274.686 222.58 275.775 222.813 276.708C223.124 278.108 221.958 278.808 220.791 279.041C219.781 279.041 218.77 279.041 218.303 279.041Z" fill="white"/>
<path d="M352.749 316.054C352.671 316.832 352.593 317.376 352.593 317.921C352.516 320.72 351.272 322.897 349.094 324.53C345.051 327.485 339.763 325.152 339.374 320.098C339.219 318.543 338.752 318.232 337.197 318.309C332.454 318.698 329.266 316.443 328.021 311.855C327.322 309.367 328.255 307.268 329.654 305.324C331.832 302.524 334.709 300.658 337.975 299.414C339.219 298.947 339.608 298.559 339.685 297.159C339.763 291.094 345.362 286.972 351.272 288.45C355.782 289.616 358.659 294.826 357.026 299.181C356.481 300.736 356.715 301.669 357.726 302.835C359.825 305.246 360.758 308.045 360.603 311.233C360.369 315.199 357.726 317.143 353.915 316.132C353.527 316.132 353.293 316.132 352.749 316.054ZM354.46 296.848C354.46 293.66 352.205 291.249 349.328 291.094C345.673 290.938 342.718 293.193 342.485 296.537C342.407 297.937 342.718 299.336 342.718 300.814C342.718 301.358 342.407 302.135 342.018 302.447C341.707 302.602 341.007 302.136 340.463 301.902C339.919 301.747 339.219 301.28 338.908 301.436C336.808 302.68 334.553 303.768 332.765 305.401C329.965 307.89 329.81 311.778 332.143 314.033C334.553 316.365 338.286 316.365 340.696 313.488C341.085 313.022 342.096 312.944 342.796 312.711C342.873 313.488 343.185 314.266 343.107 314.966C342.951 315.977 342.329 316.91 342.174 317.921C341.707 320.253 342.873 322.353 344.662 322.82C346.606 323.286 348.861 321.886 349.405 319.709C349.794 318.232 349.794 316.677 349.716 315.121C349.716 313.877 349.25 312.711 349.172 311.467C349.172 310.922 349.561 310.067 350.027 309.756C350.261 309.6 351.194 310.067 351.583 310.456C352.205 311.078 352.516 312.089 353.293 312.555C354.226 313.1 355.471 313.722 356.404 313.488C357.103 313.255 357.492 311.778 357.881 310.845C358.037 310.456 357.881 309.989 357.803 309.523C357.181 306.412 355.704 303.924 352.827 302.213C352.282 301.902 351.971 301.047 351.738 300.425C351.66 300.269 352.36 299.569 352.749 299.492C354.537 299.336 354.304 297.937 354.46 296.848Z" fill="#1A1A1A"/>
<path d="M286.342 358.822C286.342 356.489 286.187 354.157 286.42 351.902C286.576 350.346 287.12 348.713 287.82 347.314C289.453 344.048 292.485 343.815 294.507 346.847C295.596 348.48 296.296 350.346 297.229 352.368C297.773 351.824 298.24 351.28 298.706 350.813C301.039 348.325 303.838 347.003 307.26 347.625C310.526 348.169 312.625 350.891 312.003 354.545C311.459 357.734 310.137 360.844 309.048 363.877C308.659 364.887 307.726 365.821 306.638 364.965C306.249 364.654 306.404 363.254 306.638 362.477C307.415 359.755 308.737 357.189 309.126 354.39C309.593 350.891 307.026 349.258 303.761 350.657C300.495 351.979 299.017 354.701 298.551 358.045C298.473 358.589 298.706 359.133 298.473 359.6C298.24 360.222 297.695 360.766 297.307 361.311C296.84 360.844 296.062 360.377 295.907 359.833C295.285 357.423 294.896 354.856 294.274 352.446C293.963 351.124 293.341 349.88 292.641 348.713C291.708 347.158 290.541 347.314 289.842 349.025C288.131 352.99 288.597 356.956 289.919 360.922C290.308 362.01 290.697 363.877 290.23 364.188C288.753 365.276 288.209 363.332 287.12 362.71C284.943 361.466 282.766 360.3 280.51 359.133C280.122 358.9 279.577 359.133 279.033 359.133C279.111 359.678 278.955 360.3 279.189 360.766C280.822 364.032 282.999 366.754 285.954 368.931C286.342 369.164 286.809 369.397 287.042 369.709C287.431 370.253 287.664 370.953 287.975 371.575C287.353 371.497 286.576 371.653 286.109 371.341C281.91 368.698 278.8 364.965 276.856 360.455C275.923 358.278 276.934 356.723 279.344 357.034C281.599 357.189 283.776 358.122 286.342 358.822Z" fill="#1A1A1A"/>
<path d="M300.184 298.636C299.795 299.492 299.562 300.114 299.328 300.658C297.773 304.546 294.118 305.635 290.775 303.146C288.053 301.125 286.887 294.437 288.831 291.638C289.064 291.327 289.842 291.094 289.919 291.171C290.23 291.56 290.619 292.105 290.619 292.649C290.619 294.204 290.308 295.759 290.386 297.314C290.464 298.325 290.775 299.492 291.397 300.425C293.03 302.835 295.907 302.524 297.073 299.881C297.462 299.025 297.695 298.014 298.162 297.159C298.94 295.448 300.106 295.215 301.506 296.459C302.205 297.081 302.672 298.092 303.372 298.636C304.227 299.336 305.471 300.347 306.171 300.114C307.26 299.725 308.271 298.481 308.815 297.392C309.282 296.459 308.971 295.137 308.971 293.971C309.048 292.105 309.826 291.482 311.381 292.338C315.347 294.671 321.101 291.405 320.09 286.117C320.012 285.573 320.79 284.873 321.179 284.173C321.645 284.717 322.423 285.184 322.578 285.728C323.9 290.627 319.001 296.148 313.714 295.604C312.003 295.448 311.459 295.759 311.303 297.548C311.148 300.036 309.048 302.213 306.871 302.68C304.46 303.224 302.75 302.136 301.428 300.192C301.272 299.725 300.806 299.336 300.184 298.636Z" fill="#1A1A1A"/>
<path d="M273.512 272.665C273.279 272.12 273.046 271.187 272.735 271.187C272.113 271.187 271.179 271.498 270.946 271.965C270.557 272.976 270.324 274.142 270.402 275.231C270.402 276.008 271.024 276.786 271.257 277.564C271.413 278.341 271.413 279.119 271.491 279.974C270.868 279.43 270.013 278.963 269.702 278.263C269.08 276.786 268.458 275.231 268.302 273.676C267.991 270.099 270.868 267.999 274.29 269.088C274.99 269.321 275.923 269.243 276.623 269.088C279.655 268.31 282.299 269.321 283.465 271.965C284.71 274.609 283.854 277.875 281.366 279.43C280.899 279.741 280.044 279.508 279.344 279.508C279.422 278.808 279.422 278.03 279.655 277.486C279.966 276.786 280.744 276.164 281.055 275.464C281.677 273.909 281.133 272.587 279.655 271.887C278.178 271.187 276.856 271.576 276.001 273.054C275.923 273.209 275.845 273.442 275.69 273.52C275.067 273.987 274.445 274.375 273.823 274.764C273.512 274.142 273.201 273.52 272.812 272.898C273.123 272.898 273.279 272.82 273.512 272.665Z" fill="#1A1A1A"/>
<path d="M372.889 280.519C372.733 280.363 372.422 279.585 371.8 279.041C369.778 277.175 369.856 274.064 372.111 272.743C372.5 272.509 373.122 272.665 373.666 272.665C373.666 273.131 373.666 273.598 373.589 274.064C373.433 274.92 373.278 275.775 373.122 276.708C373.9 276.864 374.677 276.942 375.377 277.097C375.844 277.175 376.544 277.253 376.699 277.564C376.932 277.952 377.01 278.73 376.699 279.119C375.766 280.596 374.833 282.151 376.31 283.629C377.788 285.184 379.343 284.251 380.82 283.318C381.287 283.085 382.064 283.396 382.687 283.473C382.531 284.018 382.531 284.718 382.22 285.184C380.82 286.895 378.021 287.595 376.077 286.739C373.977 285.962 372.733 283.94 372.889 280.519Z" fill="#1A1A1A"/>
<path d="M273.823 329.351C273.823 328.496 273.745 327.563 273.823 326.708C273.901 326.163 274.212 325.697 274.445 325.152C274.912 325.463 275.689 325.697 275.845 326.163C276.156 327.019 276.545 328.185 276.234 328.963C275.767 330.051 274.912 331.218 273.901 331.606C273.201 331.917 271.49 331.295 271.179 330.596C270.635 329.429 270.791 327.952 270.791 326.552C270.791 326.397 271.49 326.086 271.724 326.163C272.035 326.319 272.346 326.785 272.424 327.174C272.657 327.874 272.735 328.652 272.812 329.429C273.201 329.351 273.512 329.351 273.823 329.351Z" fill="#1A1A1A"/>
<path d="M312.47 324.841C312.703 325.23 313.403 326.008 313.325 326.474C313.17 326.941 312.081 327.641 311.614 327.563C310.915 327.407 310.215 326.63 309.748 325.93C309.515 325.541 309.67 324.686 309.904 324.297C310.37 323.597 311.07 323.053 311.692 322.509C311.925 323.131 312.159 323.908 312.47 324.841Z" fill="#1A1A1A"/>
<path d="M252.206 265.666C252.673 266.366 253.372 267.066 253.45 267.766C253.606 269.01 252.75 270.021 251.506 269.788C250.806 269.632 249.873 268.466 249.795 267.766C249.718 267.066 250.729 266.366 251.273 265.666C251.662 265.666 251.895 265.666 252.206 265.666Z" fill="#1A1A1A"/>
<path d="M271.491 241.25C267.914 241.639 264.337 242.183 260.76 242.416C246.841 243.194 233.233 241.406 219.936 237.44C217.525 236.74 215.115 235.962 212.782 234.951C212.082 234.64 211.227 233.552 211.305 232.93C211.46 231.53 212.704 231.919 213.638 232.152C219.936 233.707 226.235 235.418 232.611 236.818C240.542 238.528 248.552 238.451 256.561 238.373C270.635 238.295 284.01 234.951 297.073 230.208C298.473 229.742 299.639 229.508 300.339 231.064C301.039 232.774 299.873 233.552 298.551 234.096C292.408 236.584 286.187 238.606 279.655 239.617C276.934 240.006 274.29 240.861 271.568 241.483C271.568 241.406 271.568 241.328 271.491 241.25Z" fill="#1A1A1A"/>
<path d="M253.062 190.318C241.242 190.084 229.812 188.14 218.536 185.108C218.07 184.952 217.448 184.874 217.137 184.486C216.826 184.097 216.515 183.475 216.592 183.008C216.67 182.697 217.292 182.153 217.681 182.153C218.536 182.075 219.392 182.231 220.169 182.464C235.021 186.196 250.029 187.129 265.27 185.341C274.368 184.252 283.232 182.075 291.941 179.431C293.185 179.042 294.352 178.887 294.896 180.287C295.44 181.764 294.352 182.464 293.185 182.853C286.42 185.419 279.5 187.363 272.346 188.218C265.97 189.151 259.516 189.695 253.062 190.318Z" fill="#1A1A1A"/>
<path d="M251.74 209.058C238.209 208.747 228.412 207.736 218.925 204.548C217.681 204.159 215.581 204.003 216.281 201.981C216.903 199.882 218.614 201.359 219.703 201.67C226.779 203.77 233.933 204.781 241.32 205.092C252.128 205.481 262.781 204.392 273.357 202.604C279.189 201.593 285.098 200.504 290.93 199.649C291.708 199.571 293.03 200.426 293.419 201.126C294.041 202.37 293.03 203.148 291.786 203.381C286.576 204.392 281.366 205.558 276.156 206.258C266.825 207.502 257.494 208.435 251.74 209.058Z" fill="#1A1A1A"/>
<path d="M238.909 226.476C231.133 226.553 223.513 225.931 216.126 223.288C214.959 222.899 213.793 222.51 212.704 221.888C212.16 221.577 211.849 220.799 211.46 220.255C212.238 220.022 213.093 219.477 213.715 219.555C215.504 219.944 217.292 220.799 219.081 221.188C222.113 221.81 225.224 222.588 228.256 222.51C239.143 222.199 249.951 221.577 260.76 221.11C263.559 220.955 266.281 220.799 269.08 220.644C270.402 220.566 271.957 220.566 272.035 222.277C272.113 223.987 270.635 224.454 269.235 224.532C264.959 224.843 260.76 225.232 256.483 225.465C250.651 226.009 244.819 226.242 238.909 226.476Z" fill="#1A1A1A"/>
<path d="M225.69 145.373C223.202 144.984 221.025 144.673 219.003 144.206C218.459 144.051 217.759 143.118 217.759 142.651C217.837 142.107 218.692 141.174 219.158 141.174C221.569 141.251 223.98 141.562 226.39 142.029C226.779 142.107 227.401 143.351 227.245 143.817C226.934 144.439 226.079 144.984 225.69 145.373Z" fill="#1A1A1A"/>
<path d="M286.654 219.555C286.654 221.577 285.876 222.199 284.554 222.199C283.31 222.199 282.377 221.655 282.454 220.255C282.454 218.933 283.31 218.078 284.476 218.233C285.332 218.389 286.109 219.244 286.654 219.555Z" fill="#1A1A1A"/>
<path d="M136.422 294.204C135.567 294.282 134.712 294.437 133.934 294.282C133.468 294.204 132.768 293.738 132.69 293.349C132.612 292.96 133.079 292.338 133.39 291.949C133.701 291.638 134.167 291.56 134.556 291.327C136.345 290.238 137.045 288.217 136.345 286.273C135.723 284.64 133.856 283.629 131.912 283.94C130.124 284.251 128.724 285.728 128.569 287.672C128.569 287.906 128.647 288.217 128.569 288.45C128.336 289.072 128.024 289.694 127.791 290.394C127.325 289.694 126.547 289.072 126.469 288.372C126.236 285.728 127.402 283.707 129.657 282.307C131.835 280.907 134.09 281.063 136.267 282.462C138.444 283.94 139.611 286.039 139.066 288.605C138.678 290.472 138.911 291.249 141.01 291.794C145.132 292.882 146.298 296.77 144.121 300.347C143.887 300.736 144.043 301.591 144.276 302.058C144.587 302.602 145.209 302.991 145.598 303.458C147.775 306.024 148.242 309.367 146.765 311.7C145.287 314.033 142.177 314.966 138.911 314.111C135.956 313.255 133.468 311.7 131.446 309.367C131.057 308.901 131.135 308.045 131.057 307.345C131.835 307.423 132.768 307.19 133.234 307.579C135.412 309.367 137.589 311.233 140.544 311.311C141.788 311.311 143.499 310.922 144.043 310.067C144.665 309.212 144.509 307.423 143.965 306.335C143.265 304.935 141.866 303.924 140.699 302.758C139.3 301.358 139.377 300.58 140.855 299.181C141.555 298.481 142.488 297.159 142.254 296.615C141.788 295.604 140.622 294.671 139.533 294.204C138.678 293.971 137.511 294.204 136.422 294.204Z" fill="#1A1A1A"/>
<path d="M193.265 292.96C193.342 296.304 190.387 298.559 186.966 297.47C185.644 297.081 184.944 297.159 184.011 298.325C182.223 300.503 179.19 300.503 177.013 298.325C175.846 297.159 174.913 296.848 173.358 297.548C170.87 298.636 168.77 298.17 167.371 296.459C165.738 294.593 165.504 292.26 166.749 289.927C168.071 287.439 170.403 286.117 173.047 285.417C173.514 285.262 174.136 285.806 174.68 285.962C174.369 286.428 174.136 287.128 173.669 287.439C172.658 288.139 171.259 288.372 170.481 289.228C169.548 290.238 168.77 291.638 168.537 292.96C168.304 294.36 169.315 295.371 170.792 295.604C172.27 295.837 173.902 294.593 174.369 293.349C174.602 292.727 175.302 292.26 175.769 291.716C176.391 292.26 177.091 292.804 177.557 293.504C178.257 294.593 178.724 295.837 179.501 296.848C179.812 297.237 181.056 297.237 181.523 296.926C181.989 296.537 182.067 295.604 182.145 294.904C182.145 294.593 181.756 294.204 181.678 293.893C181.678 293.271 181.601 292.338 181.912 292.182C182.456 291.949 183.311 292.027 183.778 292.338C184.711 292.96 185.489 293.971 186.422 294.671C187.51 295.526 188.755 295.837 189.921 294.671C191.165 293.427 190.543 292.26 189.61 291.249C188.832 290.316 187.744 289.616 186.966 288.683C186.577 288.217 186.577 287.361 186.422 286.739C187.044 286.661 187.821 286.428 188.366 286.661C190.932 287.439 193.265 290.783 193.265 292.96Z" fill="#1A1A1A"/>
<path d="M179.501 252.603C179.579 252.37 179.579 251.67 179.89 251.281C180.201 250.892 180.901 250.737 181.445 250.426C181.601 250.892 181.834 251.436 181.989 251.903C182.145 252.681 182.067 253.614 182.534 254.158C182.923 254.547 184.089 254.78 184.555 254.469C185.022 254.158 185.411 253.069 185.255 252.525C184.789 251.048 184.789 250.115 186.733 250.192C187.122 250.192 187.899 249.726 187.899 249.492C187.977 248.948 187.588 248.326 187.433 247.782C187.199 247.237 186.966 246.771 186.733 246.227C187.355 246.227 188.132 245.993 188.677 246.227C191.321 247.471 191.476 249.648 189.299 251.514C188.366 252.292 187.666 253.38 187.044 254.469C186.111 256.102 184.089 257.268 182.378 256.88C180.745 256.569 179.501 254.858 179.501 252.603Z" fill="#1A1A1A"/>
<path d="M174.369 280.207C173.358 280.829 172.736 281.296 172.036 281.607C171.881 281.685 171.414 280.907 171.103 280.518C171.725 280.052 172.347 279.508 172.969 279.197C173.125 279.119 173.669 279.663 174.369 280.207Z" fill="#1A1A1A"/>
<path d="M204.54 327.796C205.317 328.574 206.25 329.04 206.406 329.662C206.484 330.207 205.784 331.062 205.24 331.451C204.151 332.151 202.907 332.695 201.663 333.006C201.041 333.162 199.952 333.006 199.563 332.539C199.252 332.228 199.485 330.829 199.874 330.595C201.118 329.585 202.751 328.807 204.54 327.796Z" fill="#1A1A1A"/>
<path d="M262.392 91.0188C260.915 91.252 259.515 91.6408 258.038 91.6408C257.26 91.6408 256.016 91.8741 255.55 90.8632C255.161 89.8524 256.249 88.9192 256.872 88.686C259.826 87.5196 262.859 87.9861 265.736 89.0748C266.125 89.2303 266.436 90.0079 266.358 90.4744C266.358 90.7855 265.658 91.252 265.27 91.3298C264.336 91.4075 263.326 91.252 262.392 91.252V91.0188Z" fill="#1A1A1A"/>
<path d="M239.687 88.5304C241.32 88.5304 242.331 88.7637 243.419 89.308C244.041 89.619 244.819 90.3189 244.819 91.3297C244.819 92.3406 243.342 92.2628 242.642 92.2628C240.309 92.2628 238.054 92.1851 235.721 91.9518C235.099 91.874 233.777 91.7185 233.777 91.0965C233.777 90.3966 234.555 89.6968 235.099 89.5413C236.654 89.0747 238.054 88.5304 239.687 88.5304Z" fill="#1A1A1A"/>
<path d="M260.993 94.3623C261.926 94.9844 263.637 95.5287 263.715 96.2285C263.948 98.017 262.159 98.0948 260.837 98.2503C259.827 98.4058 258.738 98.4836 257.805 98.1725C257.183 97.9392 256.483 97.0839 256.405 96.4618C256.327 96.073 257.261 95.2177 257.883 95.0621C258.738 94.7511 259.827 94.8289 260.76 94.7511C260.76 94.5956 260.838 94.5178 260.993 94.3623Z" fill="#1A1A1A"/>
<path d="M238.832 95.9176C239.22 95.8398 239.842 95.6843 240.465 95.762C241.087 95.9176 241.709 96.3841 242.253 96.6951C241.942 97.2395 241.709 97.9393 241.164 98.2503C239.609 99.2612 238.054 98.7169 236.577 98.0171C236.188 97.8615 235.954 97.0839 236.032 96.5396C236.032 96.2286 236.732 95.9176 237.199 95.762C237.587 95.6843 238.054 95.8398 238.832 95.9176Z" fill="#1A1A1A"/>
<path d="M354.46 296.848C354.304 297.937 354.46 299.336 352.594 299.492C352.205 299.492 351.505 300.192 351.583 300.425C351.816 301.125 352.127 301.902 352.671 302.213C355.548 303.846 357.026 306.335 357.648 309.523C357.726 309.989 357.881 310.456 357.726 310.845C357.337 311.778 356.948 313.255 356.248 313.488C355.393 313.722 354.071 313.1 353.138 312.555C352.438 312.089 352.127 311.078 351.427 310.456C351.038 310.067 350.105 309.6 349.872 309.756C349.405 310.067 349.017 310.845 349.017 311.467C349.017 312.711 349.483 313.877 349.561 315.121C349.639 316.677 349.561 318.232 349.25 319.709C348.706 321.886 346.451 323.208 344.507 322.82C342.718 322.431 341.552 320.254 342.018 317.921C342.252 316.91 342.796 315.977 342.951 314.966C343.107 314.266 342.796 313.488 342.64 312.711C341.941 312.944 340.93 312.944 340.541 313.488C338.13 316.366 334.32 316.366 331.987 314.033C329.655 311.778 329.81 307.812 332.609 305.401C334.398 303.769 336.653 302.68 338.752 301.436C339.063 301.28 339.763 301.747 340.308 301.902C340.852 302.058 341.63 302.602 341.863 302.447C342.252 302.213 342.563 301.358 342.563 300.814C342.563 299.414 342.252 297.937 342.329 296.537C342.563 293.193 345.595 290.938 349.172 291.094C352.205 291.249 354.46 293.66 354.46 296.848Z" fill="white"/>
</svg>
