<svg width="512" height="512" viewBox="0 0 512 512" fill="none" xmlns="http://www.w3.org/2000/svg">
<path d="M169.639 435.334C167.439 435.434 165.139 435.534 162.939 435.534C151.539 435.534 143.839 430.334 140.539 419.334C135.539 402.634 131.339 385.734 127.939 368.634C126.539 361.634 124.939 354.734 120.239 349.034C119.439 348.134 119.039 346.734 117.439 346.834C116.439 342.834 116.839 338.834 117.739 334.934C121.439 317.934 124.639 300.934 125.839 283.634C125.939 282.234 126.939 280.134 125.039 279.734C122.839 279.334 123.339 281.734 123.139 283.034C121.139 298.534 118.139 313.834 114.539 329.034C112.239 338.534 112.339 348.034 115.539 357.434C119.239 368.734 121.739 380.334 123.139 392.134C124.139 400.534 125.639 408.934 125.639 417.434C125.639 422.134 124.439 426.434 119.639 428.534C118.639 428.934 117.939 429.634 118.139 430.834C118.339 432.334 119.439 432.534 120.639 432.634C117.639 435.734 113.539 436.634 109.939 438.534C108.839 438.834 107.639 439.034 106.539 439.334C96.7385 441.134 86.8385 442.634 76.8385 442.334C72.5385 437.634 64.5385 436.434 59.0385 439.534C58.3385 439.334 57.5385 439.134 56.8385 438.934C46.0385 435.634 42.5385 428.234 46.5385 417.734C48.3385 412.934 50.6385 408.434 51.4385 403.234C52.7385 394.934 51.7385 386.734 50.9385 378.634C47.6385 343.834 48.3385 309.334 57.2385 275.234C58.8385 269.334 61.1385 263.634 63.4385 257.934C65.1385 258.034 67.1385 258.634 68.6385 258.034C71.5385 257.034 73.2385 258.234 75.2385 259.834C81.6385 265.034 88.8385 268.634 96.6385 271.034C108.339 274.634 120.139 275.334 132.239 272.034C132.439 280.634 132.339 288.834 127.239 296.034C126.639 296.834 125.539 298.134 126.739 298.934C128.039 299.834 128.539 298.234 129.239 297.434C133.239 292.834 135.439 287.334 135.239 281.334C134.939 274.034 136.739 268.534 144.739 267.034C145.339 266.934 145.839 266.534 146.439 266.334C166.139 289.134 179.639 315.634 191.339 343.134C195.439 352.834 198.539 363.034 203.339 372.534C205.839 377.534 209.138 381.834 213.538 385.334C214.238 385.834 214.838 386.434 215.538 387.034C226.538 396.734 226.538 404.134 215.438 413.934C209.138 413.734 202.438 418.334 200.938 424.034C192.038 428.834 182.339 431.834 172.639 434.634C171.739 434.734 170.539 434.634 169.639 435.334ZM83.9385 384.034C83.9385 388.934 84.0385 392.434 83.9385 395.934C83.9385 397.734 83.4385 399.934 85.8385 400.034C88.4385 400.134 88.0385 397.734 88.1385 396.134C89.3385 384.334 88.5385 372.634 86.3385 361.134C85.5385 357.034 85.6385 353.334 87.7385 349.534C89.5385 346.434 90.0385 343.234 87.6385 340.034C86.5385 338.634 86.5385 336.934 87.4385 335.434C90.9385 330.234 90.4385 324.834 88.9385 319.234C86.3385 309.734 85.6385 300.034 87.3385 290.334C87.9385 286.934 88.9385 283.534 89.7385 280.134C89.9385 279.234 90.1385 278.334 89.0385 277.934C88.0385 277.634 87.3385 278.234 87.0385 279.134C86.7385 279.834 86.5385 280.534 86.3385 281.234C82.4385 293.434 81.8385 305.734 84.7385 318.234C86.0385 324.034 86.7385 329.534 83.2385 334.834C82.0385 336.634 82.0385 339.034 83.3385 340.934C85.1385 343.634 84.7385 346.034 83.2385 348.634C80.9385 352.534 80.5385 356.734 81.5385 360.934C83.5385 368.934 83.5385 377.134 83.9385 384.034ZM177.238 393.734C177.138 393.534 177.138 393.034 176.938 392.534C172.338 375.134 163.239 359.434 156.839 342.734C155.439 338.934 153.439 335.334 152.639 331.334C150.939 323.334 146.739 316.534 140.939 310.834C140.139 310.034 139.339 308.834 138.139 309.934C136.739 311.234 138.039 312.134 138.939 313.034C142.139 316.434 144.939 320.134 146.639 324.434C149.739 332.634 150.839 341.434 154.639 349.534C155.639 351.534 155.939 354.134 157.039 356.134C162.739 366.134 166.639 376.934 170.539 387.734C171.439 390.234 172.438 392.634 173.438 395.034C173.938 396.134 174.638 397.034 176.038 396.534C177.038 395.934 177.438 395.034 177.238 393.734ZM205.038 384.334C204.638 383.934 204.339 383.334 203.839 383.034C203.039 382.634 202.439 383.134 201.839 383.734C198.139 387.434 194.638 391.334 190.238 394.234C189.338 394.834 188.839 395.734 189.639 396.734C190.339 397.534 191.238 397.434 192.038 397.034C196.938 394.234 201.439 390.834 204.339 385.834C204.639 385.434 204.838 384.934 205.038 384.334ZM68.3385 410.934C69.2385 410.434 71.6385 411.734 71.8385 409.434C71.9385 407.434 69.7385 407.834 68.3385 407.634C65.1385 407.234 62.1385 406.134 59.2385 404.534C58.0385 403.834 56.8385 403.534 56.1385 405.034C55.5385 406.334 56.3385 407.134 57.3385 407.734C60.6385 409.834 64.1385 410.934 68.3385 410.934ZM104.039 409.634C102.539 409.634 100.439 410.934 100.639 411.834C100.739 412.734 101.439 413.134 102.239 412.934C103.539 412.534 105.439 412.734 105.639 410.734C105.639 409.834 104.839 409.634 104.039 409.634Z" fill="#F5DF4D"/>
<path d="M146.538 266.334C145.938 266.634 145.438 266.934 144.838 267.034C136.738 268.534 135.038 274.034 135.338 281.334C135.538 287.334 133.338 292.834 129.338 297.434C128.638 298.234 128.138 299.834 126.838 298.934C125.538 298.034 126.738 296.834 127.338 296.034C132.438 288.834 132.538 280.634 132.338 272.034C120.238 275.234 108.438 274.534 96.7384 271.034C88.9384 268.634 81.7384 264.934 75.3384 259.834C73.3384 258.234 71.5384 256.934 68.7384 258.034C67.2384 258.534 65.3384 258.034 63.5384 257.934C54.6384 254.534 52.8384 251.734 53.4384 242.234C53.5384 240.034 52.8384 238.034 52.2384 236.034C46.0384 213.434 46.2384 191.134 55.9384 169.434C58.5384 163.534 62.3384 158.434 66.8384 153.934C68.2384 152.534 68.6384 151.834 66.6384 150.534C57.2384 144.134 55.3384 132.434 62.0384 122.934C65.3384 118.234 69.7384 114.634 75.0384 112.634C78.0384 111.534 79.7384 109.634 80.5384 106.634C82.6384 99.4339 86.6384 93.5339 93.1384 89.5339C103.538 83.0339 116.338 85.0339 124.238 94.3339C125.538 95.8339 126.938 97.1339 128.738 98.1339C133.138 100.534 133.738 104.434 130.338 108.334C128.638 110.334 126.338 111.234 124.238 112.434C130.738 126.134 128.738 134.734 117.138 142.234C123.238 143.334 128.338 145.434 133.038 148.734C138.838 152.934 143.938 157.934 148.638 163.234C150.638 165.534 151.738 165.434 153.738 163.234C158.638 157.834 164.238 153.234 170.938 150.234C174.038 148.934 176.938 148.434 179.538 151.134C179.638 151.734 179.738 152.334 179.738 153.034C179.738 159.034 179.738 159.034 185.538 160.234C189.138 161.034 192.738 162.034 196.138 163.734C201.038 166.134 205.338 169.634 209.638 172.834C211.638 175.134 213.738 177.234 215.438 179.634C218.638 184.234 218.638 187.034 215.038 191.434C213.938 192.834 214.638 193.634 215.038 194.734C217.038 199.834 215.838 203.834 211.238 206.734C209.838 207.634 209.638 208.434 209.638 209.934C209.738 214.234 207.538 216.934 203.238 217.834C202.338 218.034 201.438 217.634 200.938 219.134C199.138 224.534 198.738 224.734 192.938 224.634C190.038 224.634 187.338 224.734 185.038 227.434C196.338 227.934 206.838 225.834 216.838 221.734C244.038 210.434 263.838 190.334 281.438 167.534C282.938 165.634 283.638 163.334 283.938 160.934C284.238 158.934 284.438 157.334 281.538 156.934C279.238 156.734 279.238 155.034 280.438 153.334C281.338 152.134 282.338 150.934 282.338 149.334C282.338 148.234 282.338 147.034 280.838 146.834C276.438 146.234 276.438 146.234 278.838 142.434C280.238 140.234 281.538 138.234 278.938 135.834C274.838 132.134 274.538 130.834 276.638 125.734C277.938 122.534 279.438 119.334 280.638 116.034C280.938 115.134 281.238 113.734 279.938 113.034C278.838 112.434 278.038 113.234 277.238 113.734C276.638 114.134 276.038 114.734 275.538 115.234C269.538 121.134 263.638 127.034 257.538 132.734C256.238 134.034 256.638 134.634 257.638 135.734C260.438 138.734 262.238 142.234 263.438 146.034C263.838 147.334 265.138 149.134 262.938 149.834C261.138 150.434 260.838 148.534 260.238 147.434C257.838 142.634 255.038 138.134 250.038 135.334C248.538 134.534 248.038 133.134 247.838 131.634C247.638 130.134 247.638 128.634 247.538 127.134C247.438 125.634 247.338 123.934 245.738 123.334C244.138 122.734 242.838 123.734 241.738 124.734C240.138 126.134 238.938 127.934 237.838 129.734C234.838 134.634 232.038 139.634 228.638 144.334C224.738 149.734 220.838 155.334 215.338 159.334C214.738 155.634 217.238 153.134 218.838 150.234C224.638 144.134 228.838 136.934 233.138 129.634C234.938 126.634 236.838 123.634 239.438 121.334C241.738 119.334 244.438 118.334 247.438 119.434C250.438 120.534 251.038 123.234 251.438 126.034C251.638 127.534 250.738 129.734 252.438 130.334C253.938 130.834 255.238 128.934 256.338 127.834C261.538 122.834 266.738 117.734 271.838 112.634C276.038 108.534 279.338 107.534 282.338 109.434C285.238 111.334 285.538 114.834 283.138 120.334C282.438 121.934 281.638 123.534 280.838 125.034C279.138 128.334 278.238 131.334 282.438 133.634C282.838 133.834 283.038 134.334 283.438 134.734C285.938 137.534 282.038 141.034 284.038 143.434C286.138 146.134 287.038 148.534 285.638 151.634C285.038 152.834 285.138 153.534 286.138 154.534C288.138 156.634 288.238 159.234 287.638 161.934C287.038 164.634 286.038 167.234 284.438 169.434C267.238 192.334 247.138 212.034 220.638 224.134C208.938 229.434 196.638 231.734 183.838 231.034C181.638 230.934 180.438 231.634 179.338 233.434C172.638 244.134 164.238 253.234 154.038 260.734C151.838 263.034 149.138 264.634 146.538 266.334ZM117.038 270.534C129.238 270.134 140.638 266.134 151.038 258.834C161.838 251.234 170.238 241.534 177.338 230.434C181.238 224.334 186.138 219.934 194.138 220.734C196.738 221.034 197.538 219.734 196.638 217.234C196.138 216.034 195.038 214.834 196.238 213.434C197.538 211.934 198.738 213.134 199.938 213.534C201.838 214.134 203.638 214.334 205.038 212.434C206.438 210.534 205.738 208.934 204.238 207.434C203.438 206.634 202.538 205.834 203.238 204.534C203.938 203.234 205.038 203.434 206.138 203.534C209.038 203.834 211.038 202.734 211.738 199.834C212.238 197.434 211.038 195.534 209.538 193.734C207.138 190.934 207.238 190.234 210.638 189.334C213.338 188.634 213.438 186.734 213.238 184.734C213.038 182.834 211.838 181.334 210.438 179.934C202.938 172.234 194.638 165.734 183.638 163.934C182.138 163.734 180.738 163.134 179.438 162.534C176.638 161.134 174.738 158.834 175.238 155.634C175.738 152.334 174.138 153.334 172.538 153.934C168.938 155.534 165.738 157.634 162.738 160.134C153.638 167.734 146.638 177.134 139.338 186.334C130.438 197.634 122.738 209.734 116.238 222.634C113.938 227.134 112.738 227.534 108.738 225.234C106.638 224.034 104.738 223.734 102.338 224.334C88.4384 228.034 80.6384 238.034 74.9384 250.434C73.7384 253.034 74.3384 254.634 76.5384 256.334C88.3384 265.534 101.738 269.934 117.038 270.534ZM138.438 181.134C140.338 178.734 141.738 177.134 143.038 175.534C148.838 168.334 148.938 168.334 142.538 161.734C136.838 155.734 130.838 150.134 122.938 147.034C120.838 146.234 118.138 144.834 116.538 145.934C115.038 146.934 116.938 149.534 117.238 151.434C117.738 155.634 117.638 159.934 113.738 162.634C109.938 165.234 106.138 163.934 102.438 161.934C99.2384 160.134 96.4384 157.834 93.7384 155.434C92.7384 154.534 92.0384 154.034 90.5384 154.334C85.2384 155.234 79.8384 155.034 74.5384 153.934C72.8384 153.534 71.8384 153.934 70.6384 155.034C66.0384 159.534 62.3384 164.634 59.5384 170.434C51.3384 187.334 50.8384 205.034 53.2384 223.234C53.7384 227.334 54.6384 231.434 56.4384 235.534C57.4384 234.334 58.0384 233.434 58.8384 232.634C59.8384 231.734 60.7384 229.634 62.4384 231.334C63.8384 232.834 62.0384 233.734 61.2384 234.734C58.3384 238.234 56.9384 242.334 57.2384 246.834C57.4384 250.534 60.7384 253.034 65.6384 254.034C69.6384 254.834 69.9384 252.134 71.1384 249.634C77.6384 234.834 86.6384 222.834 104.138 220.134C107.238 219.634 107.838 217.334 105.838 214.934C105.038 213.934 104.138 213.034 103.038 212.434C88.7384 203.734 88.4384 189.734 89.0384 175.434C89.0384 174.234 89.8384 173.134 91.1384 173.234C92.5384 173.234 92.8384 174.434 92.8384 175.634C92.8384 178.734 92.8384 181.834 92.9384 185.034C93.1384 195.134 96.2384 203.634 105.438 209.034C106.538 209.634 107.438 210.534 108.338 211.434C110.538 213.734 111.638 216.434 110.838 219.634C110.638 220.534 109.638 221.434 111.238 222.034C112.738 222.534 112.838 221.234 113.338 220.434C115.838 216.034 118.438 211.534 120.838 207.034C124.638 199.834 130.338 193.934 133.238 186.134C136.438 177.434 135.438 173.434 127.738 168.434C125.838 167.234 124.038 165.834 122.938 163.834C122.438 162.934 122.038 161.934 123.138 161.234C124.238 160.534 124.738 161.434 125.238 162.134C126.438 163.834 128.138 164.934 129.938 165.834C135.538 168.634 138.538 173.434 138.438 181.134ZM119.638 114.034C114.638 114.234 109.838 115.434 104.838 115.234C99.4384 115.034 99.4384 115.134 101.838 119.734C102.238 120.534 102.638 121.334 102.738 122.134C103.038 123.934 103.938 126.034 102.038 127.334C99.6384 128.934 99.4384 125.934 98.2384 125.034C98.0384 124.934 97.9384 124.634 97.7384 124.534C96.8384 123.934 95.9384 122.934 94.7384 123.834C93.8384 124.534 93.8384 125.534 94.1384 126.634C94.3384 127.434 94.5384 128.334 94.9384 129.134C98.9384 135.534 98.4384 142.234 96.1384 148.934C95.5384 150.834 95.6384 152.034 97.2384 153.134C100.138 155.034 102.938 157.234 106.038 158.834C110.538 161.234 113.738 158.934 113.238 153.834C112.938 151.234 111.938 148.734 111.838 146.134C111.738 143.434 110.638 142.534 108.138 142.434C106.738 142.334 104.238 142.334 104.438 140.334C104.638 138.134 107.038 139.134 108.538 139.134C118.538 139.034 124.138 132.934 123.538 123.634C123.338 120.934 119.738 119.834 121.138 116.734C121.338 116.334 120.538 116.034 120.038 116.234C119.138 116.734 118.038 116.734 117.538 117.734C117.038 118.834 117.738 119.634 118.338 120.334C119.038 121.134 119.738 121.734 120.438 122.434C121.238 123.334 121.038 124.334 120.138 125.034C119.538 125.634 118.738 126.534 117.938 126.134C116.438 125.334 117.638 124.634 118.338 123.934C118.738 123.534 118.338 123.034 118.038 122.634C115.038 117.134 115.038 117.134 119.638 114.034Z" fill="#1A1A1A"/>
<path d="M468.938 188.434C468.838 230.934 466.638 273.434 467.638 315.934C467.938 326.734 468.138 337.434 466.138 348.034C464.138 358.734 458.038 365.434 447.338 367.934C439.138 369.834 430.838 370.834 422.438 371.034C388.438 371.834 354.538 370.034 320.838 364.634C311.838 363.234 302.738 362.834 293.638 361.934C289.538 361.534 285.538 360.434 281.638 359.034C274.938 356.634 272.738 353.634 272.538 346.534C271.738 324.034 271.438 301.534 271.638 279.034C271.738 260.334 272.138 241.534 273.138 222.834C273.238 221.034 273.138 218.934 275.538 218.934C278.138 218.934 277.738 221.134 277.638 222.934C276.338 252.034 275.838 281.134 276.238 310.234C276.438 322.234 276.938 334.234 277.138 346.234C277.238 351.134 279.738 353.634 284.138 355.134C291.338 357.434 298.838 358.234 306.238 358.634C320.938 359.434 335.438 362.534 350.138 363.934C377.538 366.534 404.938 367.634 432.438 365.834C438.538 365.434 444.538 364.334 450.338 362.134C455.238 360.234 458.338 356.834 460.038 351.934C462.638 344.634 463.338 337.034 462.938 329.434C461.538 296.434 463.038 263.434 463.238 230.434C463.638 168.834 464.238 107.234 464.638 45.6339C464.638 42.2339 464.538 38.8339 464.238 35.5339C463.738 30.8339 461.938 29.1339 457.338 28.8339C404.038 25.0339 350.538 24.8339 297.038 29.5339C295.438 29.6339 293.838 29.7339 292.138 29.8339C286.738 30.1339 285.638 31.3339 285.438 36.6339C284.838 52.6339 284.138 68.6339 283.438 84.5339C283.438 85.1339 283.438 85.8339 283.338 86.4339C283.138 87.6339 283.438 89.3339 281.638 89.1339C279.738 89.0339 280.338 87.3339 280.338 86.1339C281.038 68.7339 281.638 51.4339 282.338 34.0339C282.538 29.1339 284.538 27.1339 289.538 26.7339C318.938 24.1339 348.338 22.3339 377.838 22.0339C402.538 21.8339 427.338 22.5339 452.038 23.7339C453.638 23.8339 455.238 24.0339 456.838 24.2339C465.738 25.4339 468.538 28.6339 469.038 37.6339C470.238 58.3339 468.738 79.1339 468.838 99.8339C469.038 129.434 468.938 158.934 468.938 188.434Z" fill="#F5DF4D"/>
<path d="M106.438 439.334C107.538 439.034 108.738 438.834 109.838 438.534C109.938 450.934 109.738 463.234 109.038 475.634C108.738 481.434 107.038 483.734 101.338 485.234C85.3385 489.634 69.1385 490.134 52.7385 487.834C50.1385 487.434 47.6385 486.434 45.6385 484.634C42.6385 481.934 42.1385 478.534 44.4385 475.234C45.8385 473.234 47.7385 471.534 49.2385 469.534C51.0385 467.134 53.2385 470.334 55.0385 469.034C55.0385 467.134 53.0385 467.834 52.3385 466.934C54.1385 463.734 54.1385 463.734 61.2385 465.834C61.2385 463.834 59.6385 463.434 58.4385 462.734C57.5385 462.134 55.5385 462.534 56.6385 460.434C57.4385 459.034 57.6385 456.834 60.1385 457.434C61.9385 457.934 63.7385 458.634 65.8385 458.834C64.9385 456.834 63.2385 455.834 61.1385 455.734C59.2385 455.634 58.5385 455.234 58.8385 453.134C59.5385 448.634 59.0385 444.134 58.8385 439.634C64.3385 436.534 72.3385 437.734 76.6385 442.434C77.6385 445.434 77.2385 448.634 77.3385 451.734C77.4385 455.934 79.3385 457.834 83.6385 458.034C85.2385 458.034 86.8385 457.934 88.4385 457.734C93.7385 457.034 98.9385 455.234 104.338 455.334C106.338 455.334 106.138 454.234 106.138 452.934C106.338 448.234 106.338 443.734 106.438 439.334Z" fill="#1A1A1A"/>
<path d="M169.638 435.334C170.638 434.634 171.838 434.734 172.938 434.534C174.038 436.734 175.238 438.934 176.338 441.134C177.638 443.534 178.138 446.934 180.438 447.934C182.038 448.634 184.738 446.634 186.938 445.934C191.638 444.334 196.638 443.734 201.138 441.534C205.438 439.434 206.238 437.134 204.338 432.734C203.138 429.934 201.338 427.234 201.138 424.034C202.638 418.334 209.338 413.734 215.638 413.934C217.638 418.234 219.138 422.734 221.938 426.634C222.938 428.034 222.238 428.434 221.238 429.134C219.438 430.334 217.738 431.734 217.738 435.034C220.938 432.134 223.438 426.834 227.838 432.834C226.638 434.434 224.638 435.834 224.638 438.434C226.738 438.734 226.638 436.734 227.538 436.034C228.638 435.234 229.038 433.534 231.138 434.134C234.938 435.134 232.838 437.034 231.638 439.234C236.438 434.034 240.238 437.934 243.938 439.634C248.038 441.534 248.938 445.334 246.938 449.434C245.738 451.834 243.938 453.734 241.738 455.134C228.438 464.134 213.938 470.234 198.238 473.434C192.038 474.734 189.238 473.434 186.238 467.834C180.338 457.234 174.838 446.334 169.638 435.334Z" fill="#1A1A1A"/>
<path d="M323.838 100.534C325.038 73.5339 340.138 53.2339 363.038 46.6339C371.138 44.3339 379.238 44.2339 387.338 47.2339C428.338 62.2339 431.138 102.334 415.438 128.634C407.138 142.534 395.438 151.634 378.838 153.634C355.438 156.434 331.538 139.934 325.838 117.134C324.438 111.334 323.838 105.334 323.838 100.534ZM411.538 127.334C425.738 105.534 424.338 69.7339 393.838 54.3339C378.138 46.3339 363.638 47.7339 349.738 57.4339C331.638 70.1339 325.738 88.2339 328.338 109.634C329.038 115.034 330.438 120.134 332.938 124.934C333.438 125.834 333.738 127.434 335.238 126.034C339.638 121.734 345.338 120.134 350.838 118.334C354.138 117.234 356.438 115.334 357.438 111.834C358.538 107.734 361.538 105.734 365.638 105.334C369.938 104.934 374.338 104.434 378.738 104.234C383.138 104.034 386.538 105.734 388.138 110.134C388.938 112.134 390.138 113.834 392.238 114.734C399.538 117.634 406.338 121.234 411.538 127.334ZM385.538 114.334C383.738 108.934 382.538 107.734 378.638 108.034C374.738 108.334 370.938 108.634 367.038 109.034C364.438 109.234 361.938 110.034 361.238 112.834C359.738 118.934 355.338 121.434 349.838 122.834C345.738 123.934 341.838 125.734 338.538 128.434C336.638 129.934 336.538 131.034 338.138 132.934C352.738 149.934 384.638 160.334 407.238 133.834C409.138 131.534 409.138 130.234 406.938 128.034C401.338 122.534 393.738 120.534 387.438 116.334C387.138 116.134 386.338 116.034 386.138 116.234C383.638 119.334 380.038 118.334 376.838 118.834C375.638 119.034 374.038 119.434 373.938 117.534C373.838 115.734 375.538 115.934 376.638 115.734C379.638 115.234 382.638 114.734 385.538 114.334Z" fill="#1A1A1A"/>
<path d="M219.138 150.634C217.638 153.534 215.038 156.034 215.638 159.734C212.838 163.834 211.738 168.634 209.638 173.034C205.238 169.734 201.038 166.334 196.138 163.934C192.738 162.234 189.238 161.234 185.538 160.434C179.738 159.134 179.738 159.134 179.738 153.234C179.738 152.634 179.638 152.034 179.538 151.334C181.538 146.534 183.638 141.734 185.638 136.934C188.038 131.034 191.138 129.534 197.138 131.834C202.838 134.034 208.338 136.634 213.838 139.234C218.638 141.434 220.038 145.534 219.138 150.634ZM208.838 152.434C210.038 152.334 211.038 151.734 211.138 150.234C211.238 148.634 210.438 147.534 208.838 147.434C207.438 147.334 206.438 148.234 206.338 149.634C206.238 151.134 207.138 152.134 208.838 152.434Z" fill="#F5DF4D"/>
<path d="M120.538 432.534C119.338 432.434 118.238 432.234 118.038 430.734C117.838 429.534 118.538 428.934 119.538 428.434C124.338 426.234 125.538 422.034 125.538 417.334C125.538 408.834 124.038 400.434 123.038 392.034C121.638 380.234 119.138 368.634 115.438 357.334C112.338 347.834 112.238 338.434 114.438 328.934C118.038 313.734 121.038 298.434 123.038 282.934C123.238 281.634 122.738 279.234 124.938 279.634C126.938 280.034 125.838 282.134 125.738 283.534C124.538 300.834 121.338 317.934 117.638 334.834C116.738 338.734 116.338 342.734 117.338 346.734C118.138 353.034 120.638 358.934 122.138 365.034C126.238 381.434 128.438 398.034 129.838 414.834C130.038 417.434 129.838 420.034 129.138 422.634C128.138 427.534 125.338 430.934 120.538 432.534Z" fill="#1A1A1A"/>
<path d="M389.439 187.134C364.839 186.634 341.139 185.034 317.539 182.334C316.939 182.234 316.339 182.134 315.639 182.034C314.839 181.934 314.239 181.534 314.239 180.634C314.339 179.634 315.039 179.534 315.839 179.534C317.239 179.634 318.539 179.634 319.939 179.834C353.939 182.934 388.039 183.234 422.139 182.134C423.639 182.134 425.139 182.134 426.639 182.134C428.039 182.134 429.239 182.534 429.239 184.234C429.239 185.734 428.039 186.334 426.639 186.434C421.639 186.734 416.639 187.034 411.639 187.134C403.939 187.234 396.239 187.134 389.439 187.134Z" fill="#1A1A1A"/>
<path d="M376.439 217.934C357.039 217.534 337.839 215.934 318.939 211.234C318.739 211.134 318.439 211.134 318.239 211.034C317.139 210.334 314.639 210.834 315.339 208.534C315.939 206.634 317.839 207.534 319.239 207.834C329.139 209.434 338.939 211.234 348.839 212.134C366.039 213.734 383.239 213.734 400.439 212.134C402.039 212.034 403.639 211.934 405.339 211.834C406.739 211.734 408.239 211.734 408.339 213.734C408.339 215.434 407.039 216.134 405.639 216.234C402.839 216.634 399.939 216.934 397.039 217.134C390.139 217.534 383.339 218.234 376.439 217.934Z" fill="#1A1A1A"/>
<path d="M384.339 335.634C377.239 335.334 370.139 336.434 363.139 337.534C360.139 338.034 357.339 337.734 355.239 335.234C354.339 334.134 353.639 334.134 352.439 334.834C348.839 337.134 345.039 338.434 340.739 336.634C339.339 336.034 338.639 337.134 337.839 337.634C334.839 339.634 331.639 340.034 328.139 339.334C327.039 339.134 325.839 338.634 326.139 337.134C326.439 335.834 327.439 335.934 328.539 336.134C330.439 336.534 332.239 336.434 334.039 335.634C335.739 334.834 337.439 334.234 335.939 331.634C334.739 329.434 335.939 327.534 338.239 327.034C340.739 326.434 342.139 328.434 342.039 330.534C341.739 334.434 344.139 333.834 346.239 333.434C349.039 332.934 351.139 331.234 353.339 329.534C355.439 327.934 357.239 327.334 357.339 331.134C357.339 333.434 359.139 333.734 360.739 333.634C364.439 333.334 368.139 332.934 371.839 332.434C378.939 331.534 385.939 331.134 393.139 331.834C394.639 331.934 396.439 331.934 396.239 334.034C396.039 336.334 394.139 335.634 392.739 335.634C390.039 335.634 387.239 335.634 384.339 335.634Z" fill="#1A1A1A"/>
<path d="M339.938 240.434C332.438 240.534 324.938 239.734 317.538 238.634C316.538 238.534 314.838 238.734 315.038 237.134C315.238 235.334 316.738 235.734 318.038 235.834C328.038 237.134 337.938 236.934 347.938 236.734C349.338 236.734 351.038 236.334 351.138 238.334C351.238 240.434 349.338 240.434 347.838 240.434C345.238 240.434 342.638 240.434 339.938 240.434Z" fill="#1A1A1A"/>
<path d="M354.439 349.134C357.539 349.134 360.639 348.534 363.639 347.834C364.639 347.634 365.739 347.434 366.139 348.634C366.639 350.134 365.539 350.534 364.439 351.034C360.539 352.434 356.439 352.734 352.239 352.434C351.039 352.334 349.539 352.334 349.639 350.534C349.739 348.534 351.439 349.234 352.539 349.134C353.239 349.034 353.839 349.134 354.439 349.134Z" fill="#1A1A1A"/>
<path d="M383.438 244.634C381.938 243.934 378.938 245.734 378.938 242.934C378.938 240.134 381.838 241.334 383.438 241.334C385.138 241.434 388.238 239.934 388.038 243.034C387.938 245.734 385.038 243.834 383.438 244.634Z" fill="#1A1A1A"/>
<path d="M425.839 216.234C424.939 216.234 423.539 216.334 423.339 214.634C423.139 212.934 424.539 212.734 425.839 212.634C427.239 212.634 428.839 212.634 428.939 214.434C428.939 216.034 427.539 216.334 425.839 216.234Z" fill="#1A1A1A"/>
<path d="M205.039 384.334C204.739 384.934 204.539 385.434 204.339 385.834C201.439 390.834 196.939 394.234 192.039 397.034C191.239 397.534 190.339 397.634 189.639 396.734C188.839 395.734 189.339 394.834 190.239 394.234C194.539 391.234 198.139 387.434 201.839 383.734C202.339 383.234 203.039 382.634 203.839 383.034C204.439 383.334 204.739 383.934 205.039 384.334Z" fill="#1A1A1A"/>
<path d="M68.3384 410.934C64.0384 410.834 60.5384 409.834 57.3384 407.734C56.3384 407.034 55.5384 406.234 56.1384 405.034C56.8384 403.534 58.1384 403.834 59.2384 404.534C62.0384 406.134 65.0384 407.134 68.3384 407.634C69.7384 407.834 71.9384 407.434 71.8384 409.434C71.7384 411.734 69.2384 410.434 68.3384 410.934Z" fill="#1A1A1A"/>
<path d="M104.038 409.634C104.838 409.634 105.638 409.834 105.538 410.734C105.338 412.734 103.538 412.534 102.138 412.934C101.338 413.134 100.638 412.734 100.538 411.834C100.438 410.934 102.538 409.634 104.038 409.634Z" fill="#1A1A1A"/>
<path d="M385.538 114.334C382.538 114.834 379.638 115.234 376.638 115.734C375.538 115.934 373.738 115.734 373.938 117.534C374.038 119.334 375.738 119.034 376.838 118.834C380.038 118.334 383.638 119.334 386.138 116.234C386.338 116.034 387.138 116.134 387.438 116.334C393.738 120.534 401.338 122.534 406.938 128.034C409.138 130.234 409.138 131.634 407.238 133.834C384.638 160.434 352.638 150.034 338.138 132.934C336.538 131.034 336.738 129.934 338.538 128.434C341.938 125.734 345.738 123.934 349.838 122.834C355.338 121.434 359.738 118.934 361.238 112.834C361.938 109.934 364.438 109.234 367.038 109.034C370.938 108.734 374.738 108.334 378.638 108.034C382.538 107.734 383.738 108.934 385.538 114.334Z" fill="#F5DF4D"/>
<path d="M208.839 152.434C207.139 152.134 206.239 151.134 206.339 149.634C206.439 148.234 207.439 147.334 208.839 147.434C210.439 147.534 211.239 148.634 211.139 150.234C211.139 151.634 210.039 152.234 208.839 152.434Z" fill="#1A1A1A"/>
<path d="M107.938 119.134C108.038 117.734 108.738 117.334 109.438 117.034C110.638 116.534 111.838 116.234 113.038 116.934C113.238 117.034 113.338 117.434 113.338 117.534C112.738 118.934 111.438 118.134 110.438 118.534C109.638 118.734 108.938 118.834 107.938 119.134Z" fill="#1A1A1A"/>
<path d="M117.339 130.334C114.039 131.634 112.539 131.334 111.239 128.334C113.439 129.034 114.939 129.534 117.339 130.334Z" fill="#1A1A1A"/>
<path d="M374.538 62.6339C377.338 62.5339 380.238 62.6339 382.838 63.9339C384.838 64.9339 386.738 66.1339 386.038 68.7339C385.638 70.2339 386.638 70.3339 387.338 70.9339C389.638 72.5339 390.938 74.3339 389.138 77.1339C388.738 77.7339 388.638 78.5339 388.638 79.2339C388.938 84.7339 387.038 89.2339 383.538 93.4339C379.838 97.8339 376.138 101.734 370.038 101.534C364.038 101.334 359.738 98.2339 357.138 92.8339C356.638 91.8339 356.038 91.0339 355.138 90.2339C350.838 86.2339 352.338 80.8339 351.838 75.9339C351.838 75.6339 352.038 75.2339 352.338 74.9339C358.538 68.5339 364.138 61.3339 374.538 62.6339ZM381.438 85.5339C380.738 84.1339 382.738 80.9339 379.138 80.9339C374.038 80.9339 369.238 79.8339 364.638 77.9339C363.638 77.5339 362.838 77.4339 362.138 78.5339C359.838 81.9339 359.938 88.8339 362.538 92.4339C365.338 96.2339 370.138 97.8339 374.838 96.5339C378.438 95.5339 381.338 90.8339 381.438 85.5339Z" fill="#1A1A1A"/>
<path d="M111.838 119.834C109.938 119.834 109.938 122.834 111.838 122.834C113.838 122.834 113.838 119.834 111.838 119.834Z" fill="#1A1A1A"/>
</svg>
