<svg width="512" height="512" viewBox="0 0 512 512" fill="none" xmlns="http://www.w3.org/2000/svg">
<path d="M495.266 222.696C496.48 217.922 497.127 213.148 497.693 208.375C498.907 198.18 492.515 186.61 483.372 182.079C480.217 180.542 476.98 179.652 473.663 179.085C472.53 178.924 471.883 178.519 472.045 177.386C472.207 176.011 473.097 175.849 474.229 176.011C480.945 176.982 487.094 179.247 492.11 183.94C497.208 188.714 500.201 194.458 501.334 201.417C502.224 207.08 501.577 212.42 500.525 217.922C499.878 221.482 499.15 224.961 498.017 228.36C497.693 229.411 498.421 230.059 498.745 230.949C500.768 236.127 502.548 241.305 503.761 246.726C504.894 251.743 505.703 256.84 505.946 262.018C506.27 269.705 505.137 277.31 502.629 284.511C500.363 290.822 497.531 296.89 492.353 301.664C487.66 306.033 482.239 308.541 475.847 308.622C473.097 308.622 470.427 308.865 467.676 307.894C465.572 307.166 464.196 308.38 463.306 311.211C461.445 317.118 458.614 322.62 455.539 327.96C450.037 337.588 441.461 343.495 431.347 347.135C425.683 349.158 419.696 350.453 413.547 350.615C412.576 350.615 411.524 350.453 411.443 352.071C411.362 353.608 412.495 353.689 413.385 353.77C416.54 354.094 419.696 354.66 422.851 355.307C424.065 355.55 425.521 354.66 426.654 355.874C427.544 356.845 428.677 357.816 428.272 359.272C427.949 360.567 426.978 361.618 425.602 361.861C424.065 362.104 422.609 361.699 421.961 360.081C421.8 359.596 421.476 359.515 421.071 359.353C418.078 358.382 415.003 357.492 411.848 356.926C411.039 356.764 410.715 357.006 410.553 357.896C410.068 360.081 408.611 361.052 406.427 361.133C402.543 361.295 402.624 361.295 401.815 364.774C400.925 369.062 399.711 373.269 398.74 377.477C397.607 382.331 396.313 387.105 395.18 391.96C394.371 395.601 393.077 399.161 392.348 402.882C391.458 407.332 389.597 411.54 388.626 415.99C388.303 417.608 387.979 419.145 387.898 420.683C387.736 423.272 388.06 424.243 391.216 424.324C397.446 424.404 403.676 425.214 409.906 424.971C411.929 424.89 413.789 425.295 415.489 426.104C418.401 427.479 418.968 430.149 418.968 433.062C418.968 433.709 418.806 434.437 418.806 435.085C418.806 436.46 418.159 437.35 416.864 437.35C415.57 437.269 414.356 436.784 414.679 435.004C414.841 434.356 414.76 433.628 414.76 432.981C414.76 430.635 414.032 429.745 411.686 429.664C405.051 429.502 398.417 428.855 391.701 428.774C388.869 428.774 385.956 428.126 384.5 425.214C383.772 423.757 383.205 422.139 383.448 420.44C384.176 415.747 385.552 411.135 387.008 406.604C388.06 403.368 388.788 399.97 389.678 396.652C390.649 393.092 391.701 389.532 392.672 385.972C393.562 382.574 394.452 379.176 395.342 375.859C396.232 372.46 397.203 368.981 398.093 365.583C399.064 362.104 400.035 358.625 401.006 355.146C401.087 354.741 401.087 354.336 401.168 353.932C402.381 350.21 402.381 350.21 398.659 349.725C392.672 348.996 386.766 347.864 381.183 345.598C378.027 344.385 375.115 344.87 372.202 346.326C368.237 348.268 364.03 349.563 359.661 350.534C354.725 351.666 349.79 352.718 344.692 352.799C342.912 352.799 341.213 352.718 339.433 352.88C334.659 353.204 330.371 351.666 326.245 349.482C325.84 349.239 325.517 348.43 324.95 348.996C324.465 349.482 324.95 350.048 325.274 350.534C327.054 353.285 329.319 355.55 331.747 357.735C336.44 362.023 341.699 365.502 346.23 369.871C348.495 372.056 350.842 374.159 352.217 376.991C354.159 380.956 353.512 384.84 351.165 388.4C347.524 393.982 342.993 398.918 338.786 404.096C331.099 413.482 323.575 422.948 315.888 432.415C315.079 433.386 314.351 434.437 313.461 435.408C310.386 438.806 305.37 437.755 303.752 433.386C302.619 430.392 302.862 427.479 303.59 424.485C303.995 422.705 304.076 420.925 304.48 419.145C305.532 413.886 306.098 408.465 305.37 403.125C304.723 398.028 302.296 393.497 299.545 389.209C298.007 386.781 296.389 384.354 294.771 382.008C294.124 381.037 293.557 380.632 292.344 381.846C282.392 392.121 272.116 402.073 261.355 411.54C254.559 417.446 247.6 423.191 241.128 429.502C238.7 431.848 236.03 434.195 232.227 433.871C229.638 433.628 227.535 432.415 225.512 430.958C214.104 422.544 203.019 413.643 193.552 402.963C189.669 398.675 185.542 394.468 182.791 389.29C179.798 383.545 182.953 377.639 189.021 376.263C193.957 375.211 198.164 376.829 202.453 378.448C206.094 379.823 209.654 381.603 213.618 382.089C220.172 382.898 225.35 380.066 230.043 375.778C235.464 370.923 239.752 365.017 243.636 359.029C251.079 347.702 259.575 337.345 269.203 327.879C270.012 327.07 270.498 326.261 270.579 325.047C271.064 319.302 272.44 313.801 274.382 308.299C278.023 297.861 284.172 289.204 292.344 281.841C292.748 281.517 293.314 281.194 293.314 280.627C293.153 276.501 296.065 274.559 298.978 272.779C304.561 269.3 310.548 266.792 316.455 263.96C322.442 261.128 328.753 259.348 335.064 257.325C340.08 255.707 345.259 254.736 350.275 253.361C353.026 252.633 355.858 252.066 358.69 251.743C359.256 251.662 359.499 251.5 359.58 250.933C360.146 247.616 362.493 245.432 365.082 243.813C367.994 241.952 369.451 239.121 370.745 236.208C370.907 235.722 371.15 235.075 370.745 234.671C370.179 234.104 369.613 234.671 369.127 234.913C364.92 237.098 360.389 238.635 355.939 240.172C352.379 241.386 348.657 242.276 344.854 243.085C340.323 244.056 335.792 244.865 331.18 245.189C323.008 245.755 314.756 245.755 306.584 245.108C300.111 244.542 293.638 243.975 287.165 243.085C283.848 242.6 280.531 242.357 277.132 242.033C269.851 241.386 262.569 240.496 255.287 239.768C252.374 239.525 249.38 239.363 246.468 238.878C244.283 238.554 242.018 238.797 239.833 238.15C238.7 237.826 237.81 237.988 237.81 239.606C237.81 240.82 236.839 241.872 236.435 243.004C235.949 244.461 236.435 244.703 237.648 244.542C240.885 243.894 244.202 243.571 247.439 243.894C253.264 244.461 258.361 246.241 260.789 252.309C262.164 255.707 260.87 260.076 257.714 263.07C254.397 266.225 250.432 267.844 245.901 267.925C237.729 268.086 229.557 267.763 221.466 268.005C213.699 268.248 205.932 268.976 198.245 270.109C195.332 270.514 192.42 270.433 189.507 271.08C186.594 271.808 184.41 273.588 183.681 276.501C182.63 280.708 181.982 284.997 181.173 289.204C180.04 295.353 178.584 301.421 177.37 307.57C176.4 312.182 175.671 316.875 174.781 321.487C173.568 327.474 172.273 333.462 171.059 339.449C170.412 342.766 169.846 346.084 169.199 349.401C168.228 354.013 167.176 358.625 166.205 363.237C165.558 366.311 165.072 369.386 164.425 372.46C163.697 375.859 162.807 379.176 162.24 382.574C161.755 385.81 161.027 388.966 160.379 392.202C159.651 395.843 159.166 399.565 158.114 403.125C157.628 404.824 157.628 406.685 157.224 408.465C156.334 412.753 155.767 417.123 154.797 421.411C154.473 422.624 154.149 423.514 152.774 423.272C151.479 423.029 150.67 421.977 150.913 420.602C152.127 413.805 153.34 406.928 154.554 400.132C155.201 396.491 155.606 392.769 156.415 389.128C157.224 385.73 157.79 382.25 158.518 378.771C159.166 375.373 159.894 371.975 160.46 368.577C161.027 365.097 161.917 361.699 162.645 358.22C163.292 355.065 163.858 351.909 164.425 348.835C165.153 345.194 165.962 341.553 166.69 337.912C167.338 334.675 167.904 331.358 168.551 328.122C169.279 324.642 170.008 321.082 170.736 317.603C171.383 314.367 171.949 311.05 172.597 307.813C173.325 304.091 174.134 300.369 174.781 296.648C175.429 293.168 175.995 289.689 176.723 286.21C177.775 281.275 177.856 276.096 180.607 271.646C182.306 268.976 184.652 267.358 187.565 266.549C193.229 264.931 199.135 265.174 204.88 264.284C210.867 263.394 216.935 263.313 223.004 262.908C228.91 262.504 234.817 262.423 240.723 263.232C245.578 263.879 250.189 262.908 254.235 259.995C257.471 257.568 256.581 251.985 252.698 250.448C251.079 249.801 249.299 249.477 247.519 249.396C240.885 249.234 234.331 250.124 227.777 250.529C218.877 251.095 209.896 250.772 200.996 251.176C189.992 251.662 178.908 251.662 167.904 251.985C150.346 252.633 132.789 252.633 115.232 252.713C109.082 252.794 102.852 253.361 96.7032 253.118C88.1267 252.794 79.6312 253.199 71.0547 253.037C52.769 252.713 34.5643 252.713 16.2786 252.471C13.6895 252.471 11.0195 252.066 8.43036 251.823C6.81216 251.662 6.08397 250.448 6.00306 249.153C5.92215 247.293 7.45944 246.403 8.99673 246.322C13.7704 246.079 18.5441 246.322 23.3178 246.645C26.5542 246.888 29.7906 246.807 33.027 246.888C44.1117 246.969 55.1154 246.969 66.2001 247.131C68.061 247.131 68.8701 246.726 69.1129 244.622C69.5174 241.71 70.5692 238.878 71.2165 235.965C71.8638 233.214 72.4302 230.544 72.9965 227.793C73.6438 224.233 74.372 220.754 75.3429 217.275C75.6666 215.98 75.6666 215.252 73.8056 215.252C66.6856 215.333 59.5655 215.171 52.4454 214.443C47.5099 213.877 42.8171 212.42 40.228 207.728C38.5289 204.734 37.7198 201.255 36.7489 197.937C35.4543 193.487 34.3216 188.956 32.8652 184.506C31.8134 181.027 31.0852 177.467 30.1952 173.907C29.2242 170.023 28.1724 166.14 27.2015 162.256C26.5542 159.586 25.9878 156.916 25.4215 154.246C24.6933 151.01 23.8842 147.773 23.2369 144.537C22.5896 141.381 22.0232 138.307 21.376 135.151C20.6478 131.51 19.9196 127.869 19.1914 124.228C18.625 121.316 18.0587 118.322 17.6541 115.328C17.0877 110.474 15.5504 105.781 15.6314 100.845C15.7123 98.1754 16.7641 96.1526 18.8678 94.5344C20.405 93.4017 21.9423 93.0781 23.8033 93.0781C39.1762 93.0781 54.5491 93.0781 69.922 93.0781C91.9295 93.0781 113.856 93.159 135.864 93.0781C140.961 93.0781 146.139 93.4017 151.156 94.2108C155.687 94.939 160.622 95.4245 164.02 99.6318C166.124 102.221 167.419 105.215 168.551 108.289C170.008 112.092 171.221 115.976 172.354 119.859C173.163 122.529 173.568 125.28 174.215 127.95C174.943 130.944 175.671 134.019 176.4 137.012C177.047 139.925 177.613 142.838 178.26 145.75C178.989 148.987 179.717 152.223 180.445 155.46C181.092 158.453 181.74 161.447 182.306 164.441C183.034 167.839 183.601 171.318 184.491 174.716C185.219 177.629 185.704 180.542 186.271 183.455C186.999 186.853 187.808 190.17 188.536 193.568C189.183 196.724 189.831 199.798 190.397 202.954C190.721 204.734 191.53 206.352 190.559 208.375C189.426 210.64 187.322 212.663 184.733 212.825C172.354 213.553 160.056 214.2 147.676 214.767C139.505 215.171 131.414 214.929 123.242 215.576C118.387 215.98 113.532 215.899 108.678 215.899C107.383 215.899 106.898 216.304 107.06 217.599C108.111 225.609 107.545 233.781 108.354 241.791C108.435 242.276 108.435 242.762 108.435 243.166C108.516 247.131 108.516 247.131 112.4 247.05C118.873 246.969 125.345 246.888 131.818 246.888C137.32 246.888 142.741 246.645 148.243 246.564C159.328 246.483 170.331 245.755 181.335 245.998C183.439 246.079 183.52 245.917 182.711 243.813C181.659 240.982 183.196 238.716 184.248 236.289C184.491 235.803 184.814 235.237 185.219 234.832C186.432 233.457 187.322 232.324 186.351 230.059C185.219 227.389 186.756 224.8 188.293 222.534C189.588 220.673 190.882 218.812 192.258 217.032C192.905 216.223 193.31 215.414 193.148 214.524C192.096 205.543 196.465 199.151 203.343 194.296C208.116 190.898 213.699 189.28 219.444 188.39C223.975 187.662 228.506 187.095 233.037 187.338C238.943 187.662 244.93 188.066 250.837 189.118C254.64 189.766 258.442 190.494 262.245 191.06C265.967 191.626 269.689 192.678 273.411 193.164C277.213 193.649 280.935 194.377 284.657 195.025C288.784 195.753 292.991 196.157 297.036 197.209C298.735 197.614 300.596 197.857 302.376 198.099C308.364 198.908 314.27 199.96 320.338 199.879C325.678 199.798 330.938 198.908 336.116 197.614C341.051 196.4 345.906 194.863 350.68 193.326C357.638 191.141 364.596 188.956 371.554 186.772C376.409 185.235 381.264 183.455 386.199 182.241C390.245 181.189 394.29 180.137 398.417 179.49C402.138 178.924 405.86 177.953 409.501 177.144C410.634 176.901 410.796 174.231 409.825 173.017C408.369 171.318 406.508 169.943 405.537 167.92C403.676 164.117 403.352 160.152 404.808 156.188C405.213 155.136 405.456 154.084 406.022 153.032C406.346 152.466 406.346 152.061 406.022 151.576C403.838 147.854 402.867 143.89 403.918 139.763C405.456 133.695 408.449 128.517 414.76 126.494C418.159 125.442 421.961 126.008 425.441 127.141C431.752 129.164 437.577 132.238 442.27 136.931C444.94 139.601 447.61 142.433 448.581 146.236C449.066 148.34 449.471 150.362 451.898 151.01C452.06 151.091 452.303 151.333 452.384 151.576C452.869 152.628 453.193 153.032 454.487 152.223C456.753 150.848 459.18 150.443 461.203 152.871C461.526 153.275 461.85 153.356 462.416 153.194C464.439 152.547 466.057 153.518 467.433 154.731C467.918 155.136 468.242 155.379 468.97 155.46C473.016 155.621 474.715 158.13 473.258 161.852C471.964 165.088 470.507 168.163 469.132 171.318C466.947 176.415 466.705 181.755 466.947 187.176C467.028 188.147 467.756 188.552 468.323 189.037C478.032 197.614 485.88 207.728 492.677 218.731C493.405 219.864 493.971 221.078 494.619 222.291C494.861 222.615 495.023 222.615 495.266 222.696ZM410.068 159.586C410.31 159.101 410.391 158.615 410.229 158.049C408.53 158.453 409.016 159.748 409.016 160.881C408.692 163.874 409.906 166.302 411.767 168.405C413.628 170.59 416.136 171.965 418.887 172.694C421.638 173.422 421.557 173.503 421.719 170.833C421.88 168.324 422.69 166.14 425.279 165.088C425.683 164.926 426.007 164.522 425.926 164.198C425.441 161.609 426.654 159.505 427.382 157.159C427.787 155.783 427.463 154.57 425.845 153.841C423.337 152.709 420.586 151.738 418.725 149.715C417.592 148.501 416.621 148.744 415.731 149.391C414.518 150.362 413.142 151.414 412.414 152.79C411.767 154.003 410.068 154.893 410.634 156.754C411.686 156.269 412.171 155.217 412.899 154.408C413.547 153.761 414.113 153.761 414.599 154.246C415.084 154.651 415.65 155.217 415.165 155.945C414.356 157.24 413.466 158.534 412.576 159.748C411.848 160.638 410.877 160.638 410.068 159.586ZM363.625 344.789C365.243 344.87 366.376 343.818 367.833 343.252C377.704 339.692 386.199 333.704 394.371 327.232C399.954 322.782 404.323 317.441 407.155 310.807C408.045 308.622 408.53 306.357 408.692 304.172C408.935 301.907 407.559 299.803 406.265 297.942C404.242 295.029 403.999 291.874 405.86 288.88C407.479 286.291 410.31 285.644 413.061 285.078C414.841 285.644 416.621 285.806 418.401 286.372C420.343 287.019 422.204 287.586 424.146 288.233C424.955 288.476 426.088 288.961 426.654 287.586C427.949 284.754 429.324 282.003 430.619 279.171C430.942 278.443 431.104 277.553 429.648 277.715C423.499 278.281 417.43 277.877 411.281 277.796C410.31 277.877 409.582 277.148 408.611 277.067C403.433 276.663 398.497 275.206 393.562 273.912C386.685 272.051 379.969 269.786 373.658 266.306C368.804 263.636 363.787 261.209 360.874 256.112C360.389 255.384 359.661 255.06 358.69 255.222C356.262 255.788 353.754 256.274 351.327 256.759C349.79 256.759 348.252 257.244 346.877 257.649C341.456 259.024 336.035 260.643 330.695 262.423C328.915 262.989 326.892 263.232 325.517 264.769C323.413 264.931 321.471 265.902 319.61 266.711C314.756 268.895 309.982 271.404 305.208 273.75C302.781 274.883 300.515 276.258 298.412 277.876C297.684 278.443 296.955 279.414 298.169 279.98C301.001 281.275 303.914 282.327 306.746 283.54C306.826 283.864 306.907 284.107 307.231 284.349C309.658 286.129 311.438 288.476 312.49 291.227C313.218 293.168 313.947 292.602 315.079 291.874C318.073 290.094 321.067 288.395 324.06 286.615C326.407 285.239 328.996 284.511 331.099 282.731C332.475 282.731 333.689 282.003 334.821 281.437C341.294 278.281 347.929 275.854 354.968 274.316C356.991 273.912 359.013 272.941 360.065 270.918C361.441 268.248 363.949 267.196 366.295 265.74C366.7 265.497 367.185 265.497 367.671 265.983C369.208 267.52 367.752 268.086 366.862 268.815C365.082 269.624 363.787 270.918 362.816 272.617C361.926 274.155 360.955 275.854 359.175 276.42C357.233 277.067 355.372 277.877 353.431 278.443C351.084 279.09 348.657 279.576 346.472 280.87C346.311 280.87 346.068 280.789 345.906 280.87C340.323 282.893 335.145 285.725 329.805 288.233C329.481 288.395 328.915 288.88 329.239 289.528C333.85 289.447 337.734 291.308 341.132 294.301C347.848 300.208 350.841 307.894 351.489 316.632C351.732 320.031 351.489 323.51 351.489 326.908C350.761 329.335 350.032 331.763 349.385 334.19C348.171 338.64 345.825 342.604 343.883 346.731C343.236 348.187 343.802 348.025 344.611 348.025C347.686 347.945 350.68 347.945 353.754 347.297C357.152 346.731 360.47 346.165 363.625 344.789ZM101.72 199.637C101.639 199.637 101.558 199.637 101.396 199.637C101.396 195.591 101.396 191.546 101.396 187.5C101.396 186.286 101.72 185.396 103.176 185.396C104.632 185.396 105.522 186.044 105.522 187.419C105.441 190.575 106.331 193.568 106.251 196.643C106.089 201.174 106.979 205.624 106.979 210.155C106.979 211.045 107.221 211.449 108.192 211.449C113.775 211.368 119.358 211.611 124.941 211.207C133.922 210.478 142.903 210.64 151.884 209.912C155.12 209.669 158.357 209.912 161.512 209.346C165.962 208.537 170.493 209.508 174.943 208.456C175.914 208.213 176.157 207.808 175.833 207.161C175.186 205.543 175.348 203.844 174.862 202.307C173.891 199.07 173.487 195.753 172.678 192.436C171.949 189.361 171.383 186.205 170.736 183.05C170.008 179.814 169.279 176.658 168.632 173.422C168.066 170.509 167.257 167.596 166.852 164.683C166.367 161.528 165.234 158.453 164.748 155.298C164.182 152.142 163.373 149.068 162.807 145.912C162.078 141.624 160.865 137.417 159.894 133.209C159.004 129.326 158.276 125.442 157.224 121.639C155.848 116.866 154.392 112.092 152.531 107.399C151.237 104.163 149.618 101.25 145.977 99.9554C143.307 99.0654 140.556 98.499 137.805 98.3372C128.663 97.6899 119.52 97.1236 110.377 97.4472C107.545 97.5281 104.713 97.7708 101.881 97.7708C76.3139 97.6899 50.6654 98.1754 25.0978 97.4472C21.0523 97.3663 19.1105 101.007 20.2432 103.92C20.4859 104.567 20.4859 105.215 20.6478 105.862C21.2141 109.503 21.6996 113.225 22.4278 116.866C23.3178 121.073 24.046 125.361 24.7742 129.649C25.2596 132.643 25.826 135.718 26.5542 138.63C27.2824 141.705 28.0106 144.86 28.6579 147.935C29.3051 151.091 30.0333 154.165 30.5997 157.321C31.5706 162.337 33.1079 167.192 34.4025 172.127C35.5352 176.658 36.587 181.189 37.8816 185.72C39.338 191.141 40.9562 196.562 42.6553 201.902C43.6262 205.219 45.0826 208.132 48.7235 209.346C50.8272 209.993 53.0118 210.64 55.1963 210.721C61.831 210.964 68.5465 210.721 75.1811 211.449C76.2329 211.53 77.2039 211.288 77.2848 210.236C77.5275 207.08 78.8221 204.087 79.0648 200.931C79.2266 199.313 79.7121 197.695 79.9548 195.996C80.5212 192.436 81.4112 188.875 82.1394 185.315C82.3821 184.102 81.8966 182.241 84.0003 182.403C86.2658 182.645 85.214 184.506 85.2949 185.801C85.2949 185.963 85.2949 186.044 85.2139 186.205C84.1621 191.707 83.1103 197.128 82.1394 202.63C81.4921 206.271 81.1685 209.993 80.2784 213.634C79.1457 218.327 78.2557 223.02 77.4466 227.712C76.3948 233.538 74.7766 239.202 73.8056 245.027C73.4011 247.535 73.4011 247.697 75.9093 247.616C84.3239 247.131 92.7386 247.373 101.153 247.212C102.933 247.212 103.419 246.888 103.338 245.027C102.771 233.942 102.61 222.858 101.881 211.773C101.477 207.647 101.72 203.601 101.72 199.637ZM347.524 320.435C347.362 317.927 347.443 315.419 346.877 312.911C345.582 306.923 343.236 301.583 338.624 297.538C334.579 293.897 329.643 292.521 324.465 294.139C320.419 295.434 316.536 297.619 312.814 299.884C299.868 307.57 288.055 316.794 276.971 326.989C269.122 334.271 261.76 341.957 255.368 350.534C251.403 355.874 247.681 361.376 243.798 366.797C239.348 373.108 234.655 379.257 227.777 383.221C221.952 386.62 215.722 387.995 209.168 385.891C205.365 384.678 201.805 382.979 198.083 381.603C195.575 380.632 192.986 380.147 190.316 380.47C187.646 380.794 186.271 382.574 186.432 385.244C186.513 386.539 187.161 387.59 187.808 388.642C190.235 392.769 193.714 396.167 196.87 399.727C206.093 410.083 216.855 418.741 228.02 426.994C229.234 427.884 230.528 428.855 232.227 429.097C234.817 429.421 236.516 427.884 238.053 426.346C242.665 421.654 247.762 417.527 252.779 413.239C261.193 405.957 269.527 398.513 277.456 390.665C293.234 375.13 308.202 358.867 323.332 342.685C328.915 336.698 334.902 332.086 343.479 331.763C344.935 331.682 346.553 331.115 346.796 329.093C347.12 326.261 347.767 323.429 347.524 320.435ZM448.419 155.379C444.454 157.968 441.946 161.528 439.681 165.169C437.901 168.082 436.202 170.994 434.341 173.907C433.774 174.797 432.803 175.687 431.59 175.606C430.457 175.444 429.971 174.635 429.729 173.422C429.486 172.289 428.839 171.237 428.515 170.104C428.272 169.295 427.706 169.214 426.978 169.214C426.088 169.295 426.331 169.862 426.25 170.347C425.521 176.092 425.441 181.836 425.198 187.581C424.712 197.857 424.874 208.213 425.683 218.489C426.007 222.13 426.573 225.69 426.816 229.25C426.978 231.191 427.14 233.295 427.625 235.237C428.758 240.172 429.243 245.189 430.538 250.043C431.428 253.361 432.318 256.678 433.451 259.995C434.907 264.445 436.768 268.815 438.791 273.022C442.593 280.951 447.124 288.476 453.435 294.706C457.885 299.075 463.145 302.23 469.213 303.363C472.773 304.01 476.495 303.849 480.136 302.959C486.77 301.259 491.22 296.89 494.619 291.308C497.612 286.453 499.635 281.275 500.444 275.53C501.172 270.19 501.981 264.931 501.415 259.51C500.849 254.089 500.201 248.749 498.745 243.49C497.531 238.959 495.994 234.59 494.052 230.301C493.405 228.926 492.677 229.007 491.787 229.25C486.77 230.625 481.997 232.567 477.708 235.641C476.818 236.289 476.495 236.855 476.657 237.988C477.061 240.172 477.304 242.438 477.789 244.622C478.922 249.477 479.407 254.494 479.974 259.429C480.378 262.665 479.974 265.983 480.621 269.3C480.945 271.161 479.65 272.375 477.951 272.132C476.333 271.889 476.09 270.676 476.171 269.381C476.495 262.261 475.2 255.384 474.31 248.344C474.067 246.645 473.906 244.865 473.501 243.247C472.611 239.687 471.964 236.208 471.236 232.648C470.669 229.654 470.103 226.66 469.375 223.748C468.646 220.592 467.999 217.437 467.271 214.281C466.462 210.964 466.057 207.485 465.329 204.087C464.439 199.879 463.549 195.591 463.145 191.303C462.821 187.095 462.659 182.888 463.145 178.681C463.306 176.82 463.711 174.959 464.196 173.179C465.41 169.214 467.595 165.573 468.97 161.69C469.132 161.285 469.941 160.881 469.213 160.395C468.889 160.152 468.323 160.395 467.837 160.8C466.462 161.852 465.572 163.308 464.439 164.441C463.711 165.169 462.821 165.573 461.85 164.683C460.96 163.874 460.475 163.146 461.445 161.932C461.85 161.366 462.416 160.719 462.659 159.91C462.74 159.505 463.63 159.02 463.145 158.615C462.74 158.292 462.093 158.615 461.526 159.02C460.394 159.91 459.989 161.204 459.18 162.256C458.29 163.47 457.238 164.117 455.863 163.227C454.568 162.337 454.892 160.962 455.458 159.829C456.024 158.696 456.753 157.644 457.481 156.512C456.915 156.35 456.429 156.269 456.025 156.592C454.244 158.211 452.384 159.748 451.089 161.852C450.361 163.146 449.552 164.036 448.014 163.389C446.72 162.822 446.639 161.366 447.448 159.667C448.014 158.453 448.985 157.24 448.419 155.379ZM232.389 192.84C226.806 192.516 221.305 192.678 215.803 194.216C210.058 195.753 205.203 198.666 201.482 203.277C199.783 205.3 198.569 207.566 198.488 210.317C198.488 210.721 198.164 211.368 198.812 211.53C199.216 211.611 199.783 211.449 200.025 211.126C200.753 210.236 201.805 209.831 202.695 209.265C204.799 207.97 206.903 206.838 209.087 205.786C210.139 205.3 211.353 205.462 212 206.676C212.647 207.97 211.514 208.456 210.705 208.86C204.718 212.016 199.297 215.899 195.252 221.482C193.957 223.262 192.662 224.961 191.449 226.822C191.044 227.47 190.721 228.44 191.368 229.007C192.015 229.492 192.662 228.926 193.229 228.36C194.362 227.227 195.494 226.094 196.789 225.123C200.673 222.21 204.88 220.107 209.815 219.136C214.508 218.165 219.201 218.084 223.651 219.621C229.153 221.563 229.719 223.91 225.512 228.279C224.056 229.735 222.842 231.434 221.547 233.052C221.143 233.538 220.981 234.104 221.224 234.751C221.385 235.075 221.709 235.156 222.114 235.075C223.57 234.913 225.107 234.994 226.483 234.509C229.638 233.457 232.875 232.648 236.03 233.376C239.509 234.104 243.15 234.185 246.629 234.509C254.073 235.075 261.436 236.046 268.799 236.612C272.682 236.936 276.647 237.179 280.531 237.988C283.12 238.554 285.871 238.312 288.541 238.635C294.366 239.282 300.273 240.011 306.098 240.253C312.814 240.496 319.448 241.467 326.164 240.82C332.07 240.334 337.977 239.768 343.802 238.716C346.796 238.15 346.715 238.069 346.715 234.994C346.715 232.971 346.715 230.949 346.715 228.926C346.634 226.58 346.796 224.152 346.391 221.887C345.582 217.518 344.692 213.149 343.317 208.941C342.589 206.676 341.699 204.41 340.161 202.468C339.757 201.983 339.352 201.417 338.462 201.74C333.365 203.601 328.025 204.167 322.685 204.653C315.727 205.219 308.768 203.844 301.891 202.954C300.435 202.792 298.978 202.549 297.522 202.226C293.153 201.255 288.864 200.446 284.414 199.798C282.796 199.556 281.178 199.232 279.479 198.989C275.433 198.342 271.388 197.371 267.342 196.805C263.54 196.238 259.737 195.591 255.934 194.863C251.565 194.054 247.115 193.568 242.746 192.84C239.428 192.436 235.868 192.84 232.389 192.84ZM397.769 184.021C397.122 184.021 396.637 183.859 396.232 183.94C392.429 184.992 388.626 186.044 384.824 187.095C382.154 187.905 379.403 188.552 376.814 189.604C374.791 190.413 372.606 190.979 370.503 191.788C366.943 193.245 363.14 194.135 359.418 195.348C354.806 196.886 350.194 198.504 345.501 199.96C343.155 200.688 343.155 200.607 344.611 202.468C344.773 202.63 344.854 202.954 344.935 203.116C346.877 206.595 348.171 210.236 349.142 214.2C350.194 218.731 351.408 223.181 351.408 227.874C351.408 230.625 352.702 233.376 351.57 236.208C353.512 237.098 354.806 235.48 356.424 234.994C361.926 233.376 367.024 230.949 372.04 228.36C372.768 228.036 373.739 227.793 373.982 226.903C375.195 223.343 376.652 219.864 378.027 216.385C380.94 209.103 384.662 202.387 389.274 196.076C390.002 195.106 390.811 194.863 391.62 195.429C392.51 195.996 392.672 196.886 391.863 198.018C388.869 202.226 386.199 206.676 384.096 211.449C382.882 214.362 381.264 217.032 380.455 220.188C379.969 222.21 378.998 224.152 378.27 226.175C377.218 229.25 376.166 232.243 375.195 235.318C374.305 237.907 373.658 240.658 372.121 242.842C370.664 244.865 368.723 246.483 366.619 247.859C364.192 249.477 363.302 251.5 364.353 253.765C364.839 254.817 365.486 255.869 366.457 256.678C368.48 258.458 370.664 259.995 373.092 261.209C375.924 262.584 378.594 264.203 381.506 265.335C383.125 265.983 383.853 265.902 383.853 263.96C383.853 261.856 384.338 259.834 384.824 257.811C386.118 252.309 388.06 246.969 390.326 241.791C390.73 240.82 391.458 240.092 392.591 240.577C393.724 241.062 393.643 242.033 393.238 243.004C391.944 246.322 390.973 249.639 390.083 253.118C389.678 254.898 389.516 256.678 389.112 258.377C388.384 261.047 387.979 263.879 387.736 266.63C387.656 267.196 387.736 267.763 388.546 268.005C391.216 268.734 393.886 269.705 396.556 270.352C401.815 271.566 407.155 272.779 412.495 273.507C413.87 273.669 415.246 273.831 416.864 273.426C411.767 270.676 407.964 267.035 404.566 262.665C401.087 258.296 398.821 253.523 397.122 248.183C396.798 248.506 396.717 248.749 396.637 248.992C396.313 250.124 395.747 250.772 394.452 250.367C393.4 249.963 392.996 249.153 393.481 248.183C394.047 247.131 394.776 246.483 395.908 247.697C396.151 247.94 396.556 248.021 396.798 247.778C396.96 247.535 397.122 247.131 397.041 246.807C396.717 245.998 396.232 245.351 395.989 244.542C394.776 239.768 394.128 234.913 393.562 230.059C392.915 224.476 393.562 218.812 394.452 213.31C394.695 211.854 395.18 210.236 395.504 208.779C396.07 206.352 397.284 204.087 397.446 201.659C397.607 198.989 398.174 196.562 399.63 194.296C400.278 193.245 399.873 192.678 398.578 192.84C396.879 193.002 395.504 192.355 394.29 191.222C393.481 190.413 393.157 189.442 394.128 188.39C395.504 187.015 396.475 185.639 397.769 184.021ZM408.854 345.679C411.039 345.922 413.142 345.275 415.246 345.113C421.233 344.708 426.897 343.171 432.48 341.067C441.38 337.669 447.853 331.601 452.464 323.51C455.539 318.089 457.966 312.344 460.636 306.68C460.798 306.276 461.122 305.629 460.394 305.305C457.643 304.01 455.135 302.23 452.707 300.45C452.06 299.965 451.413 299.641 450.927 300.936C450.604 301.826 449.552 302.311 448.257 301.664C443.807 299.479 439.033 298.104 434.422 296.405C428.92 294.382 423.337 292.521 417.754 290.822C415.812 290.256 413.709 289.608 411.524 290.498C409.744 291.227 409.016 292.521 409.744 294.382C410.229 295.758 411.2 296.809 411.929 298.023C413.385 300.45 414.032 303.04 413.628 305.79C413.142 308.865 412.171 311.778 410.877 314.691C406.993 322.943 401.006 329.254 393.724 334.433C390.811 336.455 387.817 338.235 384.824 340.177C384.419 340.42 384.015 340.744 384.015 341.229C384.015 341.957 384.743 341.634 385.147 341.795C387.898 342.604 390.73 343.495 393.562 344.061C398.417 344.951 403.595 345.436 408.854 345.679ZM306.907 428.935H307.069C307.069 429.583 306.907 430.23 307.069 430.715C307.393 431.686 307.636 432.819 308.687 433.224C309.82 433.709 310.387 432.576 310.953 431.929C312.409 430.311 313.704 428.612 315.079 426.913C321.795 418.579 328.672 410.326 335.307 401.912C339.433 396.652 344.288 392.041 347.605 386.134C349.304 383.06 349.871 380.875 347.524 377.477C344.692 373.431 340.809 370.599 337.087 367.525C331.585 363.075 325.921 358.706 321.795 352.799C320.986 351.666 320.581 351.586 319.61 352.718C317.426 355.226 314.998 357.573 312.652 360C307.474 365.502 302.457 371.166 297.036 376.425C296.551 376.91 296.389 377.315 296.955 378.043C298.169 379.58 299.221 381.279 300.273 382.979C302.7 386.862 305.289 390.665 306.988 394.953C308.364 398.351 309.011 401.831 309.658 405.472C310.387 409.436 309.335 413.158 308.93 416.961C308.768 418.579 308.606 420.278 308.202 421.896C307.636 424.243 307.312 426.589 306.907 428.935ZM152.531 99.0654C153.178 100.036 153.745 100.684 154.149 101.493C156.01 104.729 157.224 108.208 158.518 111.687C160.056 115.976 161.188 120.264 162.24 124.714C162.888 127.546 163.535 130.378 164.182 133.209C164.91 136.365 165.558 139.601 166.286 142.838C166.933 145.589 167.338 148.42 168.147 151.171C169.118 154.489 169.522 157.887 170.331 161.204C171.059 164.198 171.626 167.273 172.192 170.347C172.839 173.907 173.81 177.386 174.458 180.946C175.024 183.697 175.59 186.529 176.238 189.28C177.047 192.516 177.532 195.834 178.341 199.151C179.15 202.145 179.717 205.219 180.364 208.213C180.526 208.86 180.688 209.184 181.335 209.103C182.387 209.022 183.52 209.103 184.571 208.941C186.109 208.698 186.918 207.323 186.594 205.786C186.271 203.844 185.947 201.821 185.542 199.879C184.895 197.128 184.329 194.296 183.843 191.546C183.277 188.471 182.144 185.477 181.74 182.403C181.254 179.004 180.364 175.768 179.717 172.451C178.746 167.758 177.694 163.065 176.642 158.453C176.238 156.835 176.076 155.217 175.752 153.599C175.024 150.362 174.215 147.207 173.568 143.97C173.001 140.977 172.192 138.064 171.626 135.07C171.14 132.158 170.089 129.326 169.603 126.494C169.118 123.905 168.389 121.397 167.661 118.888C166.367 114.519 164.829 110.231 163.13 106.024C161.431 101.735 157.143 98.8227 152.531 99.0654ZM411.039 201.578C409.663 203.358 407.398 204.653 407.398 206.918C407.317 212.744 407.074 218.569 407.964 224.395C408.935 230.625 410.31 236.612 413.061 242.357C415.084 246.726 417.592 250.772 420.91 254.17C423.499 256.84 423.741 259.914 423.094 263.475C422.528 266.549 421.395 269.462 421.071 272.536C420.99 273.022 420.667 273.588 421.557 273.669C425.279 273.831 429.001 273.588 432.48 272.051C432.884 271.889 433.208 271.889 432.965 271.242C432.075 269.219 431.347 267.035 430.538 264.931C428.92 260.481 427.301 255.95 426.088 251.338C425.441 248.911 424.874 246.322 424.389 243.813C423.418 239.121 422.528 234.347 422.042 229.573C421.314 222.939 420.91 216.304 420.424 209.588C420.343 208.294 420.02 207.808 418.725 207.97C416.136 208.375 413.87 207.808 412.576 205.381C411.929 204.491 411.605 203.116 411.039 201.578ZM217.583 245.674V245.432C219.039 245.432 220.576 245.512 222.033 245.432C224.46 245.189 226.968 245.917 229.315 244.703C231.661 243.49 233.684 242.114 234.088 239.202C234.25 238.15 233.927 237.179 232.794 237.583C231.499 238.069 230.124 237.988 228.91 238.392C226.24 239.202 223.57 239.93 220.738 239.849C216.126 239.606 215.479 236.693 216.774 233.214C217.906 230.382 219.848 228.117 221.952 225.932C222.761 225.123 223.327 224.395 221.466 224.071C218.473 223.424 215.641 223.262 212.566 223.586C210.382 223.829 208.278 224.314 206.255 225.123C200.915 227.146 197.193 231.677 192.42 234.509C192.096 234.671 191.368 235.156 191.692 235.641C191.934 236.127 192.42 236.612 193.148 236.531C194.847 236.451 195.899 235.48 196.87 234.266C199.378 231.03 202.614 229.088 206.66 228.44C207.55 228.279 208.844 227.955 209.087 229.492C209.33 230.868 208.764 231.515 207.388 231.92C204.394 232.81 201.482 233.942 199.54 236.531C197.032 239.849 194.119 241.062 190.235 238.716C189.507 238.312 189.183 238.312 188.698 239.121C187.808 240.577 186.594 242.033 187.484 243.732C188.374 245.432 190.073 246.483 192.177 246.403C196.465 246.241 200.673 246.564 205.042 245.998C209.168 245.27 213.375 245.674 217.583 245.674ZM275.514 322.215C278.265 319.788 280.854 317.441 283.443 315.257C291.13 308.784 299.221 302.797 307.878 297.538C309.577 296.486 309.982 294.949 309.173 293.169C307.231 288.718 303.671 286.048 299.302 284.43C297.845 283.864 296.227 283.783 294.933 285.239C291.858 288.557 288.46 291.631 285.871 295.434C284.172 297.861 282.553 300.289 281.259 302.878C279.317 306.68 277.618 310.726 276.647 314.933C276.081 317.199 274.948 319.464 275.514 322.215ZM398.336 224.961C398.578 228.44 398.417 232.001 399.064 235.561C399.954 240.82 401.248 245.836 403.109 250.772C405.86 258.134 410.391 263.96 416.945 268.248C418.159 269.057 418.401 268.815 418.563 267.601C418.725 266.225 418.725 264.769 419.13 263.475C419.858 261.047 419.534 258.863 417.835 257.002C415.731 254.898 413.87 252.633 412.252 250.124C407.883 243.004 404.97 235.399 403.838 227.065C403.514 224.476 403.514 221.887 403.028 219.298C402.381 216.142 402.3 212.987 403.028 209.831C403.19 209.022 403.595 208.132 402.705 207.485C401.491 206.595 400.682 207.161 400.197 209.103C398.821 214.281 398.093 219.54 398.336 224.961ZM468.323 193.568C467.756 194.216 467.918 194.701 467.999 195.106C468.161 198.099 469.051 200.931 469.617 203.844C470.265 207.242 470.669 210.64 471.397 213.958C472.53 218.893 473.744 223.748 474.553 228.764C474.796 230.301 475.605 230.463 476.657 229.816C480.864 227.47 485.233 225.77 490.088 225.851C491.544 225.851 491.868 225.366 491.059 223.99C489.602 221.563 488.227 218.974 486.77 216.547C481.592 208.132 475.038 200.85 468.323 193.568ZM436.04 278.524C434.502 282.327 433.046 285.887 431.428 289.447C431.104 290.175 431.023 290.418 431.913 290.741C436.363 292.521 440.813 294.463 445.263 296.324C446.558 296.89 447.691 298.104 449.714 297.78C443.726 292.198 439.923 285.482 436.04 278.524ZM410.553 189.685C412.009 189.685 412.576 188.39 413.628 187.905C415.489 187.095 417.43 186.529 419.372 186.205C420.262 186.044 420.829 185.558 420.91 184.749C420.99 182.403 420.99 180.056 420.99 177.71C420.99 177.386 421.152 176.658 420.262 176.982C418.887 177.548 417.511 177.224 416.055 177.224C415.165 177.224 414.679 177.386 414.356 178.438C413.628 180.704 412.657 182.888 411.767 185.073C411.281 186.691 410.715 188.066 410.553 189.685ZM420.343 189.766C416.864 190.575 413.709 191.141 411.605 194.216C414.032 194.135 414.599 195.429 414.599 197.452C414.599 199.475 415.408 201.336 416.136 203.277C416.702 204.734 417.916 204.006 418.887 204.087C419.615 204.168 420.262 203.925 420.262 203.035C420.343 198.585 420.343 194.216 420.343 189.766ZM406.346 190.736C406.508 187.662 407.883 185.477 408.369 183.05C408.449 182.645 408.935 182.241 408.449 181.836C408.126 181.513 407.721 181.917 407.398 181.917C404.323 182.322 402.462 184.264 400.844 186.691C399.792 188.309 399.63 188.228 401.41 189.523C401.491 189.442 401.572 189.361 401.653 189.28C401.977 188.552 401.006 187.257 402.543 187.015C403.918 186.853 404.647 187.662 405.051 188.956C405.213 189.442 405.698 189.846 406.346 190.736ZM433.855 160.395C432.237 160.314 428.596 163.389 428.596 164.279C428.596 164.522 428.758 164.764 428.92 164.926C431.59 167.192 432.642 166.868 434.017 163.712C434.179 163.308 434.583 162.984 434.664 162.58C434.988 161.366 434.664 160.476 433.855 160.395ZM405.213 356.926C406.346 357.411 406.669 356.359 406.912 355.631C407.236 354.498 407.236 353.285 407.559 352.152C407.721 351.586 408.53 350.857 407.479 350.695C406.588 350.534 405.132 349.886 404.97 351.586C404.808 352.961 404.242 354.094 403.918 355.388C403.433 356.764 403.918 357.087 405.213 356.926ZM402.462 200.446C402.624 201.174 402.219 202.387 403.514 202.387C404.647 202.387 405.294 201.093 405.213 200.527C405.132 199.798 404.161 198.908 403.271 198.827C402.3 198.747 402.705 199.798 402.462 200.446Z" fill="white"/>
<path d="M361.198 64.0314C364.515 63.8695 367.752 64.355 370.988 65.0023C380.212 66.7014 388.869 69.5332 395.18 76.977C401.329 84.2589 403.838 92.5117 402.624 102.059C401.896 107.885 399.468 112.982 397.446 118.322C395.827 122.61 395.666 127.141 396.232 131.591C396.637 135.151 397.203 138.711 398.417 142.11C398.74 143 399.307 143.809 399.387 144.86C399.468 146.236 398.821 146.964 397.688 147.288C396.475 147.692 395.585 146.883 395.342 145.831C394.209 141.462 390.892 139.925 386.846 139.278C380.05 138.145 373.092 138.064 366.214 137.659C360.389 137.336 354.563 136.85 348.819 135.96C339.838 134.585 331.261 131.996 323.979 126.251C318.72 122.125 314.917 116.946 312.652 110.555C311.196 106.752 310.225 102.868 310.386 98.8227C310.71 90.9744 314.027 84.3398 319.367 78.8379C325.193 72.9315 332.151 69.0478 340 66.4587C346.958 64.1123 354.078 63.9505 361.198 64.0314ZM399.226 96.6381C399.387 95.6672 398.74 94.1299 398.497 92.4308C397.85 88.1425 396.232 84.4207 393.643 81.0225C389.436 75.4397 383.691 72.446 377.056 70.4233C371.393 68.6432 365.567 68.0769 359.822 67.5914C353.997 67.1869 348.091 68.0769 342.265 69.6951C334.659 71.7987 328.025 75.3588 322.523 81.1034C318.882 84.9061 316.05 89.3562 315.16 94.5344C314.351 99.5509 314.675 104.729 316.617 109.584C319.448 116.542 324.141 121.882 330.533 125.685C337.734 129.973 345.744 131.51 353.835 132.724C360.389 133.695 367.023 133.776 373.658 134.261C378.998 134.666 384.338 134.747 389.516 136.041C390.487 136.284 391.377 137.498 392.267 136.85C393.4 136.041 391.863 135.07 391.944 134.019C392.106 130.216 391.863 126.332 391.944 122.529C392.025 119.94 392.834 117.432 394.047 115.166C397.122 109.584 399.064 103.758 399.226 96.6381Z" fill="white"/>
<path d="M394.29 362.589C393.643 366.554 392.834 370.357 391.539 374.079C390.568 376.991 389.597 379.904 388.707 382.898C387.413 387.105 386.28 391.312 384.905 395.52C383.529 399.565 382.639 403.772 381.345 407.899C379.646 413.32 378.27 418.984 373.577 422.948C370.341 425.618 366.538 426.751 362.493 427.479C357.8 428.369 352.864 428.45 348.414 430.635C345.663 431.929 343.883 434.114 342.751 436.784C342.022 438.483 340.809 438.402 339.676 437.917C338.624 437.35 338.543 436.298 339.029 434.923C341.213 428.855 345.987 426.508 351.732 425.052C356.02 423.919 360.389 423.676 364.677 422.705C369.855 421.492 373.254 418.417 375.034 413.401C377.299 407.333 378.755 401.022 380.778 394.791C382.72 388.723 384.581 382.574 386.442 376.506C387.737 372.46 389.031 368.334 390.164 364.288C390.892 361.537 389.436 359.11 388.303 356.683C387.656 355.388 387.008 354.094 386.846 352.637C386.766 351.666 386.766 350.776 387.979 350.534C389.031 350.291 390.083 350.776 390.164 351.666C390.407 354.094 392.106 355.793 392.996 357.897C393.643 359.353 393.886 360.971 394.29 362.589Z" fill="white"/>
<path d="M66.3619 418.984C67.8992 416.071 69.2747 413.401 70.731 410.731C72.0256 408.384 73.3201 408.061 75.6665 409.436C79.2266 411.54 82.1393 414.453 85.0521 417.365C85.4566 417.77 86.6703 418.336 85.3757 419.388C84.0812 420.44 83.9194 419.226 83.4339 418.741C80.9257 416.152 78.4175 413.563 75.4238 411.54C73.8865 410.569 73.0774 410.812 72.1874 412.511C70.8928 415.019 70.0028 417.77 68.3846 420.197C66.8473 422.382 65.6337 422.301 64.2582 420.035C62.8019 417.689 61.3455 415.423 59.4036 413.482C57.8663 411.863 57.0572 411.944 56.0054 413.886C54.7108 416.233 53.3354 418.498 52.1217 420.844C51.3126 422.301 50.5035 422.463 49.3708 421.249C47.0244 418.822 44.5971 416.475 42.2507 414.129C41.1989 413.077 40.3898 412.753 39.6616 414.453C39.0952 415.666 38.367 416.718 37.8007 417.932C37.477 418.498 37.0725 419.064 36.4252 418.66C35.697 418.255 36.2634 417.689 36.4252 417.123C37.1534 415.262 38.2861 413.724 39.3379 412.025C40.147 410.812 41.0371 410.488 42.1698 411.702C44.3544 413.886 46.6198 415.909 48.8853 418.013C49.9372 418.984 50.5844 419.388 51.3935 417.608C52.4454 415.343 53.4972 412.996 55.1963 411.135C56.8954 409.193 58.19 409.032 60.0509 410.812C62.4782 413.158 64.3391 415.909 66.3619 418.984Z" fill="white"/>
<path d="M375.681 432.496C380.05 432.657 383.367 435.732 383.287 439.616C383.125 444.389 378.917 448.111 374.872 448.03C371.312 447.949 368.399 444.389 368.561 440.587C368.642 437.027 372.687 432.415 375.681 432.496ZM378.432 439.454C378.432 438.159 376.328 436.298 374.791 436.784C373.254 437.188 372.768 438.887 372.687 440.425C372.525 441.8 373.982 443.499 375.034 443.499C376.571 443.418 378.432 441.234 378.432 439.454Z" fill="white"/>
<path d="M392.025 440.991C392.025 437.35 395.989 432.495 398.821 432.495C403.352 432.495 406.831 435.327 406.75 439.696C406.669 444.147 403.028 447.949 398.74 448.03C395.18 448.111 392.267 445.441 392.025 440.991ZM396.151 440.344C396.151 441.719 397.527 443.499 398.578 443.418C399.954 443.337 402.138 440.91 402.219 439.535C402.219 438.483 399.954 436.784 398.255 436.703C397.527 436.622 396.151 438.968 396.151 440.344Z" fill="white"/>
<path d="M359.661 439.778C360.065 443.661 355.777 448.03 351.651 448.111C348.171 448.192 345.097 444.794 345.097 440.91C345.097 437.35 348.98 432.577 351.812 432.415C356.181 432.334 360.227 435.813 359.661 439.778ZM354.887 439.373C354.887 438.078 352.702 436.217 351.246 436.703C349.79 437.188 349.223 438.807 349.142 440.344C349.061 441.719 350.437 443.418 351.489 443.418C353.107 443.418 354.968 441.234 354.887 439.373Z" fill="white"/>
<path d="M85.6184 356.116C83.1911 356.359 81.0065 358.544 78.741 360.567C76.2328 362.832 73.7246 365.178 72.1064 368.253C71.9446 368.577 71.7018 368.819 71.4591 368.981C71.1355 369.305 70.7309 369.79 70.2455 369.467C69.8409 369.143 69.9218 368.738 70.2455 368.091C72.43 364.531 75.1001 361.295 78.3365 358.544C80.4401 356.845 82.5438 355.226 85.2138 354.256C87.3984 353.446 88.8548 354.094 90.2302 355.469C91.4439 356.683 91.5248 359.11 90.473 360.89C87.1557 366.635 82.382 370.923 76.7992 374.402C76.1519 374.807 75.3428 375.049 74.7764 374.402C74.1292 373.512 74.8573 372.946 75.5046 372.46C79.631 369.467 83.7574 366.635 86.9938 362.67C87.722 361.78 88.2884 360.89 88.8548 359.919C90.0684 357.735 89.0166 356.036 85.6184 356.116Z" fill="white"/>
<path d="M190.801 134.504C189.426 134.747 188.455 134.423 188.131 133.048C187.646 131.349 189.183 130.863 190.154 130.62C194.119 129.649 198.164 128.759 202.21 128.031C203.504 127.788 204.799 126.494 206.255 128.031C207.307 129.083 207.226 130.782 205.77 131.187C202.372 132.077 198.973 132.967 195.575 133.614C193.876 133.857 192.339 134.747 190.801 134.504Z" fill="white"/>
<path d="M198.407 88.2234C198.002 89.0325 197.355 89.5989 196.465 90.0844C192.015 92.188 187.565 94.0489 183.115 96.0717C181.659 96.719 180.93 96.2335 180.364 95.2626C179.555 93.968 180.607 93.2398 181.497 92.7544C183.115 91.7835 184.895 91.0553 186.594 90.2462C189.426 88.9516 192.258 87.738 195.171 86.4434C196.465 85.7152 198.488 86.848 198.407 88.2234Z" fill="white"/>
<path d="M42.3316 368.496C42.8171 370.599 43.788 372.541 45.6489 373.998C46.458 374.645 46.9435 375.373 46.2962 376.182C45.568 377.072 44.9207 376.02 44.3544 375.616C41.6843 373.593 40.3898 370.761 40.0661 367.444C39.9852 366.23 40.4707 365.34 41.2798 364.693C42.3316 363.884 43.2216 364.936 43.9498 365.421C44.678 365.907 45.3253 366.716 45.8916 367.525C46.2962 368.172 46.1344 368.415 45.7298 368.819C45.0826 369.467 45.0016 368.738 44.7589 368.415C44.5162 368.172 44.3544 367.929 44.1116 367.767C43.7071 367.363 43.3834 366.635 42.6552 366.958C42.0889 367.12 42.4125 367.848 42.3316 368.496Z" fill="white"/>
<path d="M198.245 176.577C199.863 176.739 201.401 176.82 202.938 177.386C204.071 177.791 204.475 178.357 204.394 179.409C204.313 180.623 203.343 181.351 202.372 181.027C200.187 180.461 197.841 180.946 195.656 180.056C194.523 179.571 194.281 178.924 194.442 177.953C194.604 176.82 195.413 176.577 196.384 176.658C197.032 176.577 197.679 176.577 198.245 176.577Z" fill="white"/>
<path d="M60.6173 394.063C60.0509 393.578 59.3228 393.659 59.3228 392.769C59.4037 391.879 60.0509 391.798 60.6982 391.798C61.4264 391.798 61.7501 392.283 61.7501 392.93C61.7501 393.82 60.941 393.659 60.6173 394.063Z" fill="white"/>
<path d="M99.3731 378.771C95.4895 377.8 91.5249 377.719 87.5603 377.719C79.4693 377.639 71.3783 377.881 63.3682 378.043C61.8309 378.043 61.5073 377.477 61.8309 376.182C62.0736 375.373 62.4782 374.564 62.5591 373.755C63.0445 369.467 64.8246 365.502 66.2 361.537C67.6564 357.249 69.7601 353.204 71.7019 349.077C71.9446 348.43 72.5919 348.026 71.7828 347.459C70.8119 346.812 70.4074 347.945 70.2455 348.349C67.8991 353.285 65.3909 358.22 64.0155 363.641C63.8536 363.479 63.6918 363.237 63.53 363.075C63.1255 360.486 64.0964 358.058 64.5818 355.631C65.31 351.828 66.4428 348.106 67.6564 344.465C68.5464 341.634 69.5983 338.802 70.9737 336.213C72.8347 332.734 74.7765 329.173 77.3656 326.18C80.1975 322.862 82.9484 319.383 86.8321 317.199C88.7739 316.147 89.9876 316.794 90.3112 318.979C90.8776 322.782 89.9876 326.342 88.2885 329.74C82.7057 341.067 75.6665 351.586 69.5173 362.589C67.8991 365.502 66.2 368.415 64.5009 371.328C64.1773 371.975 63.9346 372.784 64.5009 373.108C65.2291 373.593 65.7955 372.865 66.2 372.218C67.171 370.518 68.1419 368.9 69.1128 367.201C74.1292 358.625 79.2266 350.129 84.0812 341.553C86.6703 336.941 89.4212 332.41 91.0394 327.313C92.0103 324.157 93.3049 321.082 91.7676 317.684C91.0394 315.985 90.0685 314.852 88.0457 314.852C85.5375 314.852 83.7575 316.39 82.0584 317.927C78.0129 321.406 74.8574 325.613 72.1065 330.144C68.7082 335.808 65.8764 341.634 64.5009 348.106C64.42 348.592 64.1773 349.077 63.53 349.158C63.1255 348.43 63.2873 347.621 63.2873 346.974C63.3682 336.698 64.0964 326.342 63.9346 316.066C63.9346 314.448 63.2064 312.344 66.0382 312.344L66.2 312.263C68.8701 310.483 70.4883 307.894 71.0546 304.739C71.2165 303.687 70.8119 302.635 69.7601 302.069C68.6273 301.34 67.9801 302.15 67.171 302.797C66.1191 303.606 65.8764 304.9 65.0673 305.871C64.7437 306.276 65.1482 307.328 64.1773 307.085C63.4491 306.923 63.6109 306.114 63.6109 305.548C63.4491 302.473 63.3682 299.399 63.2064 296.324C63.1255 294.868 62.3164 293.816 61.1836 293.249C60.1318 292.764 58.8372 292.845 57.9472 293.978C57.0572 295.11 56.7336 296.324 57.6236 297.619C58.109 298.428 58.999 299.722 59.7272 299.318C60.6982 298.832 59.97 297.861 59.3227 297.052C58.9181 296.486 58.8372 295.434 59.7272 294.949C60.7791 294.382 61.1027 295.596 61.1836 296.081C61.5073 297.133 61.4263 298.347 61.5073 299.48C61.8309 306.033 61.6691 312.506 61.6691 319.06C61.6691 319.626 61.5882 320.354 60.7791 319.869C58.3518 318.412 56.0054 316.956 54.8726 314.205C54.4681 313.315 53.7399 312.263 55.1963 311.697C56.4099 311.211 57.0572 312.182 57.5427 313.234C58.0281 314.448 58.4327 315.742 59.4036 316.713C59.6463 316.956 60.0509 317.361 60.4554 317.037C60.7791 316.794 60.86 316.309 60.6982 315.904C59.8891 314.286 59.2418 312.425 58.109 311.05C57.2999 310.079 56.0863 308.865 54.3872 309.917C52.9308 310.888 52.2835 312.506 53.0117 314.124C54.3063 316.956 56.329 319.222 58.999 321.002C59.4845 321.325 60.0509 321.649 60.4554 321.568C61.75 321.082 61.75 321.73 61.75 322.701C61.75 331.763 61.6691 340.744 61.0218 349.725C61.0218 350.21 61.1836 350.857 60.1318 350.776C60.0509 346.245 58.9181 341.795 58.1899 337.345C57.4618 333.057 56.329 328.931 55.1154 324.723C54.2254 321.406 53.4972 317.927 51.2317 315.095C49.5326 312.991 47.348 311.859 44.5162 312.263C42.0079 312.587 40.5516 314.771 39.8234 317.927C38.6906 323.024 39.4188 328.122 40.0661 333.138C40.5516 336.779 41.4416 340.501 42.5743 343.98C43.9498 348.349 45.4871 352.637 47.0244 357.007C49.2898 363.318 51.6362 369.548 54.0635 375.778C54.7917 377.719 54.7108 377.962 52.6881 377.962C44.1116 377.962 35.6161 377.881 27.0396 377.962C22.6705 378.043 20.3241 380.713 20.405 385.001C20.405 385.972 20.405 386.862 20.4859 387.833C20.8095 391.151 21.3759 391.717 24.6123 392.445C25.5023 392.607 25.9069 393.092 26.0687 394.063C26.8778 398.999 27.8487 403.934 28.6578 408.87C28.9814 410.973 29.2242 413.077 29.6287 415.262C30.3569 419.226 31.0042 423.191 31.6515 427.155C32.5415 432.657 33.3506 438.159 34.0788 443.661C34.1597 444.389 34.5642 444.956 35.1306 444.875C35.697 444.794 35.9397 443.985 35.9397 443.418C35.8588 441.962 35.697 440.506 35.4542 439.049C34.2406 431.282 32.7842 423.515 31.7324 415.666C31.0851 410.65 30.1142 405.714 29.3051 400.779C28.9814 398.675 28.2532 396.652 28.2532 394.468C28.2532 393.254 28.4151 392.931 29.7905 393.011C37.5579 393.578 45.3253 393.982 53.0926 393.335C53.5781 393.254 54.1444 393.335 54.3063 392.607C54.3872 392.121 54.7917 391.798 54.3872 391.312C53.8208 390.584 53.0117 390.746 52.2026 390.746C44.0307 390.908 35.7779 391.393 27.606 390.341C26.1496 390.18 24.2887 391.07 23.1559 389.371C22.185 387.914 22.6705 386.215 22.5895 384.678C22.4277 381.846 23.5605 380.713 26.3923 380.309C30.5996 379.742 34.726 380.47 38.8525 380.39C50.5035 380.309 62.1545 380.309 73.8056 380.309C80.6829 380.309 87.5603 380.066 94.4376 380.39C97.5931 380.551 97.9977 380.956 97.8358 383.95C97.8358 384.516 97.8358 385.001 97.7549 385.568C97.674 388.319 97.674 388.319 94.9231 388.481C93.6285 388.561 92.4149 388.804 92.1722 390.18C92.0103 391.393 91.5249 392.526 91.444 393.659C91.1203 398.756 90.3112 403.773 89.9067 408.87C89.5021 414.21 88.4503 419.55 87.9648 424.89C87.7221 427.155 87.5603 429.421 87.1557 431.686C86.5084 435.166 86.1039 438.726 85.6994 442.205C85.6184 442.933 85.3757 444.066 86.5894 444.066C87.3985 444.066 87.8839 443.337 88.0457 442.528C88.6121 438.645 89.2594 434.842 89.6639 430.958C90.1494 426.104 91.1203 421.33 91.6058 416.394C92.4149 408.627 93.6285 400.86 94.5185 393.011C94.6804 391.312 95.1658 390.746 96.8649 390.746C99.2922 390.746 100.182 389.775 100.263 387.348C100.344 385.244 100.425 383.221 100.749 381.118C101.396 380.066 100.991 379.176 99.3731 378.771ZM64.6627 308.946C66.4428 309.593 66.2 307.894 66.6046 307.247C67.2519 306.276 67.3328 304.9 68.5464 304.334C68.6273 304.253 69.0319 304.415 69.0319 304.577C69.2746 305.952 68.2228 306.761 67.7373 307.894C67.171 309.431 65.7146 309.998 64.6627 310.888C64.1773 310.888 64.0155 310.645 64.0155 310.241C64.0155 309.674 64.0964 308.784 64.6627 308.946ZM60.5363 368.981C60.4554 370.114 60.5363 371.328 59.6463 372.946C59.1609 367.606 57.7854 362.913 56.8145 358.22C56.0054 354.013 54.7108 349.806 53.7399 345.679C53.5781 345.032 53.3353 344.951 52.769 344.951C52.0408 344.951 52.1217 345.436 52.1217 345.922C52.0408 347.459 52.769 348.754 53.0926 350.21C53.9017 354.337 55.2772 358.301 56.0054 362.427C56.5717 365.826 57.4618 369.143 57.8663 372.541C58.0281 373.998 58.7563 375.454 58.6754 376.991C58.6754 377.396 58.999 378.043 58.2709 378.124C57.7045 378.205 57.2999 378.124 56.8954 377.477C55.3581 374.969 55.0345 372.056 53.9017 369.467C52.6072 366.392 51.3935 363.318 50.2608 360.162C49.2089 357.33 48.4807 354.336 47.348 351.505C45.7298 347.459 44.678 343.333 43.5452 339.206C41.6843 332.41 41.037 325.371 41.8461 318.332C42.0079 316.632 42.817 314.852 44.5971 314.286C46.6198 313.639 48.3998 314.286 49.9371 315.985C51.7171 317.927 52.2835 320.435 53.0117 322.862C54.2254 326.827 55.2772 330.873 56.1672 334.837C56.8954 338.074 57.4618 341.31 57.8663 344.627C58.5136 349.725 59.4036 354.741 59.5654 359.919C59.5654 360.162 59.5654 360.567 59.7272 360.728C62.3973 363.075 60.7791 366.149 60.5363 368.981Z" fill="white"/>
<path d="M306.826 283.459C303.914 282.327 301.001 281.275 298.25 279.899C297.036 279.333 297.764 278.362 298.493 277.796C300.596 276.177 302.862 274.883 305.289 273.669C310.063 271.323 314.836 268.815 319.691 266.63C321.552 265.821 323.494 264.769 325.598 264.688C325.678 264.931 325.759 265.255 325.921 265.416C329.967 269.138 334.417 271.485 340.242 270.514C342.993 270.109 345.34 269.3 347.443 267.601C350.922 264.769 351.57 260.885 351.489 256.759C353.916 256.274 356.424 255.707 358.852 255.222C359.822 254.979 360.632 255.303 361.036 256.112C363.949 261.209 369.046 263.636 373.82 266.306C380.05 269.705 386.765 272.051 393.724 273.912C398.659 275.206 403.595 276.663 408.773 277.067C409.744 277.148 410.391 277.957 411.443 277.796C411.038 280.466 412.738 282.569 413.142 285.078C410.391 285.644 407.478 286.291 405.941 288.88C404.08 291.874 404.323 295.029 406.346 297.942C407.64 299.884 409.016 301.907 408.773 304.172C408.53 306.438 408.126 308.703 407.236 310.807C404.404 317.361 399.954 322.782 394.452 327.232C386.28 333.704 377.784 339.692 367.913 343.252C366.538 343.737 365.324 344.87 363.706 344.789C363.949 341.715 363.463 338.721 362.007 335.889C359.742 331.52 356.505 328.283 351.57 327.07C351.57 323.672 351.812 320.192 351.57 316.794C351.003 308.056 347.929 300.369 341.213 294.463C337.815 291.469 333.931 289.608 329.319 289.689C328.996 289.042 329.562 288.557 329.886 288.395C335.226 285.887 340.404 283.055 345.987 281.032C346.149 280.951 346.391 281.032 346.553 281.032C347.848 282.407 349.142 283.864 350.437 285.239C352.217 287.1 354.24 288.476 356.829 289.285C364.677 291.712 371.716 286.615 371.554 278.605C371.474 274.883 369.936 271.404 366.862 268.896C367.752 268.167 369.289 267.682 367.671 266.064C367.185 265.578 366.7 265.497 366.295 265.821C363.949 267.196 361.441 268.329 360.065 270.999C359.013 273.022 356.991 273.912 354.968 274.397C347.929 275.854 341.294 278.362 334.821 281.517C333.689 282.084 332.475 282.812 331.099 282.812C327.62 279.657 323.413 278.686 318.882 278.605C317.021 278.524 315.322 279.171 313.704 279.576C311.115 280.061 308.364 280.87 306.826 283.459ZM395.989 310.807C396.394 308.865 395.666 307.085 394.856 305.548C392.186 300.693 384.095 295.191 377.542 297.942C370.988 300.693 368.156 304.658 367.752 310.645C367.509 314.367 368.642 317.846 370.664 321.082C374.791 327.555 384.662 329.416 390.811 323.672C394.533 320.192 395.342 315.5 395.989 310.807Z" fill="#F5DF4D"/>
<path d="M152.531 99.0654C157.224 98.7418 161.431 101.735 163.049 105.781C164.668 110.069 166.286 114.276 167.58 118.646C168.308 121.154 169.118 123.662 169.522 126.251C170.008 129.164 171.059 131.996 171.545 134.828C172.03 137.821 172.839 140.734 173.487 143.728C174.134 146.964 174.862 150.12 175.671 153.356C176.076 154.974 176.238 156.592 176.561 158.211C177.694 162.903 178.746 167.515 179.636 172.208C180.283 175.525 181.173 178.762 181.659 182.16C182.063 185.235 183.196 188.228 183.762 191.303C184.329 194.054 184.814 196.886 185.461 199.637C185.947 201.578 186.19 203.52 186.513 205.543C186.837 207.08 186.028 208.456 184.49 208.698C183.439 208.86 182.306 208.779 181.254 208.86C180.607 208.86 180.364 208.618 180.283 207.97C179.636 204.896 179.069 201.902 178.26 198.908C177.451 195.672 176.885 192.355 176.157 189.037C175.509 186.286 174.943 183.535 174.377 180.704C173.649 177.144 172.759 173.664 172.111 170.104C171.545 167.03 170.978 164.036 170.25 160.962C169.441 157.644 169.037 154.246 168.066 150.929C167.257 148.178 166.852 145.427 166.205 142.595C165.477 139.439 164.829 136.203 164.101 132.967C163.454 130.135 162.807 127.303 162.159 124.471C161.107 120.102 159.975 115.733 158.437 111.445C157.143 107.965 155.929 104.486 154.068 101.25C153.664 100.765 153.097 100.036 152.531 99.0654Z" fill="#F5DF4D"/>
<path d="M217.583 245.674C213.375 245.674 209.168 245.27 205.042 245.755C200.754 246.322 196.465 245.917 192.177 246.16C189.992 246.241 188.374 245.189 187.484 243.49C186.594 241.872 187.808 240.334 188.698 238.878C189.183 238.069 189.588 238.069 190.235 238.473C194.119 240.82 197.032 239.606 199.54 236.289C201.482 233.7 204.394 232.567 207.388 231.677C208.764 231.272 209.33 230.625 209.087 229.25C208.845 227.793 207.55 228.117 206.66 228.198C202.614 228.845 199.378 230.787 196.87 234.023C195.899 235.237 194.847 236.289 193.148 236.289C192.42 236.289 192.015 235.803 191.692 235.399C191.368 234.832 192.096 234.428 192.42 234.266C197.193 231.434 200.915 226.903 206.255 224.88C208.278 224.152 210.382 223.667 212.566 223.343C215.56 222.939 218.473 223.181 221.466 223.829C223.246 224.233 222.68 224.88 221.952 225.69C219.929 227.874 217.906 230.14 216.774 232.971C215.398 236.451 216.126 239.444 220.738 239.606C223.57 239.768 226.24 238.959 228.91 238.15C230.205 237.745 231.499 237.826 232.794 237.341C233.927 236.936 234.25 237.988 234.088 238.959C233.684 241.872 231.661 243.247 229.315 244.461C226.968 245.674 224.46 244.946 222.033 245.189C220.576 245.351 219.039 245.189 217.583 245.189V245.674V245.674ZM204.88 242.923C206.822 242.033 209.33 242.276 211.757 241.872C212.485 241.791 213.375 241.224 213.133 240.092C212.971 239.04 212.162 238.635 211.353 238.959C208.925 239.768 206.255 239.444 203.828 240.334C202.938 240.658 202.453 240.982 202.614 241.952C202.776 243.166 203.747 242.842 204.88 242.923Z" fill="#F5DF4D"/>
<path d="M398.336 224.961C398.012 219.54 398.821 214.281 400.116 209.103C400.601 207.08 401.491 206.595 402.624 207.485C403.514 208.132 403.109 209.103 402.948 209.831C402.219 212.987 402.3 216.142 402.948 219.298C403.433 221.806 403.433 224.476 403.757 227.065C404.889 235.399 407.802 243.004 412.171 250.124C413.709 252.633 415.65 254.898 417.754 257.002C419.534 258.782 419.858 260.966 419.049 263.475C418.644 264.769 418.644 266.225 418.482 267.601C418.32 268.815 418.078 269.057 416.864 268.248C410.31 263.96 405.779 258.134 403.028 250.772C401.167 245.836 399.873 240.739 398.983 235.561C398.497 232.001 398.578 228.44 398.336 224.961Z" fill="#F5DF4D"/>
<path d="M402.462 200.446C402.705 199.798 402.3 198.746 403.271 198.827C404.161 198.908 405.132 199.798 405.213 200.527C405.294 201.093 404.647 202.387 403.514 202.387C402.219 202.387 402.624 201.174 402.462 200.446Z" fill="#F5DF4D"/>
<path d="M73.9675 140.168C74.0484 134.989 78.013 129.568 83.1913 127.95C91.525 125.361 100.263 132.238 99.7778 140.572C99.4542 145.508 96.2987 149.634 90.3113 150.605C89.4213 150.767 88.7741 150.929 88.5313 151.9C88.2886 153.032 87.3177 153.275 86.3468 153.113C80.1976 152.061 74.2103 148.097 73.9675 140.168ZM77.9321 140.33C77.9321 144.86 80.9258 148.744 84.8904 149.23C85.6186 149.311 86.1849 149.472 86.2658 148.421C86.5086 146.56 87.965 145.831 89.6641 145.912C94.1141 146.074 97.7551 140.087 94.6805 135.394C92.4959 132.077 87.5604 130.135 84.1622 131.429C80.8449 132.724 77.5276 135.96 77.9321 140.33Z" fill="white"/>
<path d="M36.1016 115.814C33.8361 116.137 31.166 115.247 28.4151 115.895C27.6869 116.056 27.2824 115.571 27.0396 114.924C26.2305 112.658 25.5023 110.474 24.6123 108.289C23.8841 106.509 25.0169 104.972 26.8778 104.648C31.0042 103.92 35.1306 103.596 39.338 103.839C40.5516 103.92 41.5225 104.405 42.6553 104.648C43.2216 104.81 43.9498 105.295 43.9498 106.105C44.1116 108.289 44.8398 110.474 44.7589 112.658C44.678 114.762 43.9498 115.652 41.7653 115.652C40.0661 115.814 38.367 115.814 36.1016 115.814ZM29.0624 112.011C29.5478 110.797 30.4379 111.04 31.247 111.04C33.8361 111.04 36.3443 111.04 38.9334 111.04C39.8234 111.04 40.7943 111.283 40.7943 109.746C40.7943 108.289 40.3898 107.723 38.8525 107.723C36.4252 107.804 33.9979 107.561 31.4897 107.642C27.3633 107.966 27.3633 107.804 29.0624 112.011Z" fill="white"/>
<path d="M146.706 199.313C149.052 199.313 151.398 199.394 153.664 198.746C154.958 198.423 156.253 198.342 156.496 200.122C156.738 201.821 155.687 202.145 154.23 202.549C150.185 203.52 146.301 202.954 142.255 202.468C141.204 202.307 140.395 201.821 140.395 200.931C140.395 199.879 141.204 199.232 142.417 199.313C143.874 199.313 145.33 199.313 146.706 199.313Z" fill="white"/>
<path d="M145.654 196.886C143.955 196.724 142.337 196.805 140.88 196.076C139.909 195.591 139.424 195.106 139.586 194.135C139.747 193.245 140.314 192.759 141.204 192.759C143.631 192.678 146.139 193.002 148.486 192.112C149.861 191.545 151.075 192.436 151.398 193.73C151.722 195.025 150.751 195.591 149.457 196.238C148.162 196.886 146.787 196.562 145.654 196.886Z" fill="white"/>
<path d="M96.5413 180.542C96.5413 181.836 95.8131 182.564 94.7613 183.293C93.1431 184.344 91.7676 183.616 90.4731 182.888C89.3403 182.16 88.4503 180.946 87.884 179.652C87.4794 178.6 88.0458 177.872 88.6931 177.144C89.5831 176.253 90.3922 177.144 90.6349 177.548C91.1204 178.276 91.5249 178.357 92.2531 177.953C94.5186 176.901 96.5413 178.195 96.5413 180.542Z" fill="white"/>
<path d="M142.094 190.251C141.285 190.251 140.475 190.332 139.666 190.251C138.695 190.089 137.886 189.604 137.886 188.39C137.805 187.176 138.695 186.934 139.505 186.853C141.204 186.691 142.984 186.61 144.683 186.853C145.573 187.015 146.139 187.338 146.058 188.39C146.058 189.523 145.411 190.089 144.44 190.251C143.712 190.413 142.903 190.251 142.094 190.251Z" fill="white"/>
<path d="M136.997 106.185C136.026 106.185 134.974 106.266 134.003 106.185C133.032 106.105 132.385 105.457 132.466 104.567C132.546 103.758 133.113 103.111 134.165 103.111C136.187 103.111 138.21 103.03 140.233 102.949C141.123 102.949 142.013 102.868 142.013 104.244C142.013 105.376 141.366 106.024 140.314 106.185C139.181 106.266 138.048 106.185 136.997 106.185Z" fill="white"/>
<path d="M92.2531 192.84C94.0332 192.84 95.0041 193.811 95.085 195.51C95.1659 196.967 94.3568 197.857 93.1431 198.261C92.334 198.504 89.7449 195.672 89.7449 194.62C89.664 193.649 90.7968 192.84 92.2531 192.84Z" fill="white"/>
<path d="M233.117 414.453C231.742 414.776 230.609 413.886 229.395 413.401C228.586 413.077 228.182 412.187 228.586 411.297C228.991 410.326 229.962 410.245 230.609 410.65C232.713 412.025 234.574 411.216 236.354 410.164C237.244 409.598 237.891 409.598 238.538 410.407C239.347 411.297 238.781 411.944 238.215 412.511C236.839 413.724 235.302 414.614 233.117 414.453Z" fill="white"/>
<path d="M215.884 204.815C216.774 204.653 217.34 205.057 217.34 206.109C217.34 206.999 216.935 207.485 216.045 207.485C215.074 207.485 214.184 207.161 214.104 206.19C214.104 205.3 214.832 204.815 215.884 204.815Z" fill="white"/>
<path d="M394.29 263.151C394.452 264.365 393.643 265.012 392.429 265.012C391.216 265.012 390.245 264.526 390.245 262.989C390.245 261.614 390.973 260.885 392.267 260.885C393.562 260.885 394.371 261.533 394.29 263.151Z" fill="white"/>
<path d="M334.498 383.626C334.255 385.972 333.527 387.995 331.504 389.451C330.857 389.937 330.452 390.503 329.562 389.532C328.753 388.723 328.672 388.157 329.238 387.348C330.048 386.215 331.099 385.163 331.18 383.545C331.18 382.736 331.342 382.008 330.776 381.28C329.967 380.228 330.938 379.499 331.585 379.014C332.394 378.367 333.284 379.338 333.446 379.823C333.769 381.118 334.74 382.17 334.498 383.626Z" fill="white"/>
<path d="M204.88 242.923C203.747 242.842 202.776 243.166 202.614 241.952C202.453 240.982 202.938 240.658 203.828 240.334C206.255 239.444 208.925 239.768 211.353 238.959C212.162 238.716 212.89 239.121 213.133 240.092C213.375 241.224 212.485 241.791 211.757 241.872C209.33 242.276 206.822 242.033 204.88 242.923Z" fill="white"/>
<path d="M374.144 123.257C372.121 123.015 371.393 121.72 372.04 119.778C372.687 117.756 372.202 115.652 370.503 114.357C369.532 113.548 368.399 112.82 367.104 112.658C366.295 112.577 365.405 112.173 365.243 111.526C365.163 110.959 366.053 110.555 366.7 110.231C367.428 109.907 368.075 109.26 368.804 108.855C373.011 106.185 373.011 103.111 368.804 100.522C367.994 100.036 367.347 99.3081 367.833 98.4181C368.804 96.4763 368.399 94.4535 368.48 92.5117C368.48 91.298 368.642 90.0844 368.48 88.8707C367.913 85.2298 366.781 81.7506 363.544 79.647C359.094 76.7342 353.107 77.7861 348.981 80.4561C348.495 80.7797 347.848 81.2652 347.686 81.7506C347.281 82.9643 346.311 83.6116 345.259 84.097C337.896 87.738 334.417 96.3954 337.896 104.405C339.919 109.098 344.126 112.577 349.547 112.82C357.233 113.063 362.654 109.665 366.214 103.03C366.7 102.221 367.023 102.14 367.833 102.706C370.26 104.405 369.694 106.105 367.509 107.237C366.457 107.804 365.324 108.289 364.273 108.855C363.221 109.341 362.169 110.069 362.088 111.526C362.007 112.982 363.302 113.386 364.03 114.196C364.192 114.438 364.677 114.357 365.001 114.438C369.613 116.056 369.694 116.056 369.451 120.911C369.37 123.096 371.069 125.685 374.063 126.089C374.71 126.17 375.762 126.17 375.924 125.118C376.005 123.824 375.195 123.419 374.144 123.257ZM347.848 87.8189C348.738 84.8252 349.304 84.5016 352.702 84.3398C355.453 84.1779 358.042 84.7443 360.47 85.958C361.603 86.5243 362.25 87.5762 362.816 88.4662C362.654 89.6798 361.926 89.2753 361.603 89.0325C359.256 87.2525 356.586 87.4953 353.835 87.4953C352.055 87.4953 350.437 87.738 348.981 88.7898C348.495 89.1135 348.091 89.1944 347.767 88.8707C347.443 88.628 347.686 88.2234 347.848 87.8189ZM350.194 94.049C348.981 92.4308 349.871 90.3271 351.812 90.0844C352.945 89.9226 354.078 89.9226 354.968 89.8416C357.395 90.0035 359.499 90.0035 361.279 91.6217C362.331 92.5926 362.412 93.2399 361.603 94.2917C359.175 97.4472 352.702 97.3663 350.194 94.049ZM361.279 100.36C361.117 100.764 360.793 101.169 360.308 101.25C358.609 101.412 357.395 100.684 356.262 98.9845C358.042 99.1463 359.337 99.9554 360.874 99.8745C360.955 99.8745 361.279 100.279 361.279 100.36ZM363.383 103.111C361.603 105.943 359.256 108.046 356.262 109.422C354.644 110.231 352.945 110.231 351.246 110.312C344.935 110.474 341.537 107.48 339.595 102.464C337.653 97.2854 339.352 90.8935 344.288 87.2525C344.692 86.9289 345.097 86.6862 345.501 86.848C345.987 87.0098 345.744 87.5762 345.744 87.8998C345.663 90.4889 345.663 93.078 347.767 95.1008C349.466 96.719 351.57 97.8517 353.835 98.7417C354.24 98.9036 354.644 98.7417 354.887 99.389C356.02 102.464 358.447 103.435 361.603 102.302C362.007 102.14 362.412 102.14 362.816 102.14C363.14 102.14 363.383 101.574 363.625 101.978C363.787 102.383 363.625 102.706 363.383 103.111ZM363.625 97.7708C363.544 98.8227 362.735 98.1754 362.25 98.1754C361.926 98.1754 361.603 98.0136 361.117 97.8517C361.683 97.3663 361.926 96.9617 362.331 96.8808C362.897 96.719 362.816 95.5053 363.625 96.1526C364.353 96.6381 363.706 97.2045 363.625 97.7708ZM365.81 94.2108C365.082 93.2399 365.243 92.1071 365.324 91.0553C365.729 86.2816 362.007 83.7734 358.447 82.7216C356.262 82.0743 354.159 82.0743 351.974 82.0743C351.732 81.8316 351.489 81.6697 351.246 81.427C353.026 81.0225 354.806 80.4561 356.667 80.2943C360.632 80.1324 363.221 81.6697 364.839 85.1489C366.214 88.0616 366.133 91.1362 365.81 94.2108Z" fill="white"/>
</svg>
