<svg width="512" height="512" viewBox="0 0 512 512" fill="none" xmlns="http://www.w3.org/2000/svg">
<path d="M159.226 318.376C158.814 317.346 158.505 316.522 158.196 315.698C154.9 307.045 157.784 301.071 166.746 298.701C169.733 297.877 171.072 296.847 171.278 293.448C171.588 286.855 175.193 281.602 180.755 278.305C185.803 275.318 191.469 273.464 196.825 271.095C197.752 270.683 198.679 270.477 199.503 269.652C196.413 269.652 193.323 269.549 190.232 269.652C182.919 269.962 175.605 271.404 168.703 267.386C167.982 266.974 166.952 267.077 166.025 267.077C140.272 266.356 116.168 258.939 93.1965 247.814C72.1824 237.616 54.9796 222.268 39.322 205.168C33.0384 198.266 26.9608 191.055 20.9861 183.742C19.132 181.475 17.8958 178.694 16.8657 175.913C14.7025 170.144 16.5567 167.26 22.8403 166.23C23.7674 162.522 25.6216 159.74 29.742 158.401C32.7293 157.371 33.3474 151.602 38.0859 154.178C42.3093 146.761 47.4599 145.628 54.1555 150.469C56.6278 152.323 58.894 154.487 61.1602 156.547C63.6325 158.813 66.4138 159.843 69.9161 159.637C79.3931 159.122 83.5135 161.8 86.8099 170.865C88.6641 175.81 91.5484 179.621 95.7718 182.712C110.502 193.631 126.16 203.005 142.642 210.936C151.603 215.16 161.389 216.19 171.072 217.426C178.18 218.353 185.391 218.971 192.911 219.795C192.911 209.597 197.752 202.387 205.787 196.721C202.491 192.292 200.636 187.656 200.946 182.3C201.564 170.865 212.277 162.419 223.402 164.685C225.771 165.2 227.419 165.097 229.479 163.037C235.351 156.959 244.519 155.826 251.936 159.946C262.031 165.612 267.696 174.162 268.108 185.802C268.211 187.965 268.932 188.789 270.89 189.613C274.598 191.261 278.1 193.322 282.427 195.588C283.354 194.97 285.002 193.94 286.547 192.807C290.05 190.334 293.346 187.656 296.951 185.493C318.687 172.308 330.121 150.881 341.864 129.661C343.615 126.365 345.16 122.965 346.808 119.669C349.899 113.283 351.238 106.69 350.002 99.4791C348.663 91.7533 352.165 85.7787 359.582 82.8944C363.496 81.3493 365.556 78.774 366.483 74.8596C366.895 72.6964 367.411 70.5331 368.235 68.5759C371.119 60.9532 377.196 59.8201 382.553 65.8977C385.952 64.2495 389.352 63.3224 392.03 67.1338C392.236 67.4428 392.957 67.8549 393.266 67.7519C397.284 66.7218 400.065 67.9579 401.816 71.6663C402.022 72.0783 402.537 72.2843 403.052 72.3873C409.027 74.2415 409.954 75.4777 410.778 81.6583C411.911 90.7232 410.675 99.5821 408.512 108.441C402.434 132.855 394.193 156.238 378.948 176.737C363.393 197.854 345.057 215.675 321.777 228.345C319.717 229.478 318.171 231.436 316.42 232.981C314.36 234.732 312.403 236.586 310.343 238.337C307.973 240.191 305.398 241.943 303.338 244.415C311.476 242.252 319.614 239.779 327.751 237.822C343.203 234.114 358.758 230.405 374.312 227.006C387.704 224.019 395.017 215.881 396.356 202.284C396.562 200.017 397.284 197.751 397.387 195.382C397.593 190.746 399.962 188.274 404.288 187.45C413.147 185.802 421.903 183.845 430.865 182.712C444.668 180.857 458.472 179.312 472.275 177.973C477.632 177.458 483.091 177.767 488.448 178.076C493.083 178.385 494.731 180.033 494.834 184.669C495.35 206.713 496.174 228.654 495.968 250.699C495.762 269.755 494.835 288.812 493.186 307.766C491.435 328.368 488.757 348.971 486.285 369.47C485.77 373.487 484.43 377.504 483.194 381.419C477.22 399.858 465.064 410.983 445.802 414.588C400.58 422.932 355.358 431.997 310.034 439.723C285.105 443.946 259.765 446.109 234.63 449.2C233.6 449.303 232.57 449.303 231.54 449.406C219.281 450.642 210.216 446.006 203.727 435.396C187.039 408.099 169.218 381.419 155.312 352.37C153.87 349.383 152.531 346.292 151.397 343.099C147.689 332.592 147.689 324.969 159.226 318.376ZM318.79 288.4C317.141 288.606 316.111 288.606 315.184 288.812C290.05 294.272 264.915 299.835 239.78 305.191C218.766 309.724 197.752 313.947 176.738 318.479C171.072 319.716 165.407 320.952 160.05 323.012C154.694 324.969 152.531 329.605 153.561 335.167C154.179 338.567 155.106 341.966 156.548 345.056C171.278 377.195 190.541 406.759 209.701 436.323C213.822 442.71 219.59 445.697 227.007 444.873C253.069 442.092 279.234 439.62 305.192 436.014C328.061 432.821 350.826 428.392 373.591 424.168C398.211 419.533 422.83 414.485 447.347 409.644C462.283 406.656 472.584 397.798 477.426 383.685C481.031 373.075 483.812 361.95 485.152 350.825C487.521 330.738 488.654 310.548 490.096 290.461C492.465 257.909 493.289 225.461 491.332 192.91C490.611 180.754 493.083 180.754 478.765 181.372C464.755 181.991 450.849 183.845 436.943 185.493C426.539 186.832 416.134 188.789 405.73 190.437C402.228 190.952 400.786 193.116 400.477 196.515C400.271 199.605 399.55 202.593 399.138 205.683C397.284 218.044 390.176 226.079 378.124 229.169C363.187 232.981 348.148 236.277 333.108 239.985C323.837 242.252 314.772 245.033 305.501 247.196C298.29 248.844 297.981 248.638 297.775 256.055C297.672 258.733 297.775 262.133 299.321 263.987C304.677 270.374 311.27 275.73 312.815 285.104C316.42 283.765 320.232 283.559 322.189 281.499C328.37 274.803 335.992 270.992 344.748 269.858C356.594 268.313 368.544 267.798 380.493 266.768C381.111 266.768 382.038 266.562 382.347 266.974C384.922 269.549 387.807 268.21 390.588 267.695C403.052 265.635 414.383 267.592 422.624 277.996C426.23 282.529 429.114 287.885 431.277 293.345C440.033 315.08 448.274 336.918 456.824 358.757C457.854 361.332 459.399 363.598 460.429 365.452C462.901 364.834 464.446 364.422 465.992 364.01C466.095 365.143 466.816 366.894 466.301 367.409C464.858 368.749 463.004 369.985 461.047 370.397C460.017 370.603 458.369 369.47 457.442 368.543C455.897 366.997 454.454 365.246 453.527 363.289C451.467 358.757 449.716 354.018 447.862 349.383C440.239 329.708 432.719 310.033 424.89 290.461C421.079 280.778 414.383 273.567 403.67 272.228C397.49 271.507 391 273.155 384.613 273.67C380.184 273.979 379.051 276.657 378.639 280.572C376.99 294.169 379.257 307.251 382.965 320.231C390.588 346.807 401.507 372.045 414.795 396.252C415.619 397.695 415.413 399.755 415.722 401.506C413.868 401.197 411.808 401.3 410.263 400.476C399.241 394.192 388.219 387.703 377.197 381.213C375.857 380.492 374.518 379.771 372.767 378.844C369.986 385.642 367.411 392.029 364.732 398.416C362.981 402.536 361.436 406.759 359.479 410.88C358.037 414.073 356.079 414.073 354.122 411.189C352.68 409.026 351.444 406.759 350.311 404.493C338.568 380.389 328.885 355.46 321.159 329.811C317.656 316.213 313.948 302.925 318.79 288.4ZM309.313 285.928C308.798 283.25 308.901 280.778 307.767 279.232C304.162 274.082 300.145 269.24 296.23 264.296C296.127 264.09 295.818 263.987 295.612 263.987C291.389 264.502 292.934 262.03 293.346 259.969C296.333 246.475 291.08 237.204 278.409 233.084C277.791 232.878 277.379 232.26 276.761 231.848C277.379 231.436 278.1 230.611 278.718 230.611C284.384 230.302 288.504 233.393 291.801 237.513C293.758 239.985 295.097 242.87 296.539 245.136C301.278 241.531 305.913 238.028 310.652 234.423C315.493 230.817 316.42 228.036 314.463 222.371C310.858 211.555 303.853 203.417 294.067 197.648C291.389 196.103 289.123 196.309 286.547 197.957C282.118 200.738 277.482 203.314 272.847 205.889C268.211 208.464 263.576 210.833 260.074 212.688C260.589 218.971 261.722 224.534 261.413 229.993C261.104 235.865 258.631 241.222 253.172 244.518C245.549 249.153 236.072 247.093 229.479 241.84C224.329 237.616 221.342 232.054 220.414 225.564C205.581 224.637 191.16 223.813 176.841 222.989C173.442 222.783 171.278 224.225 170.145 227.521C167.364 235.556 165.819 243.591 166.334 252.141C166.952 262.854 171.691 267.18 182.404 266.562C188.687 266.15 194.971 265.944 201.255 265.738C203.727 265.635 206.302 266.047 208.568 266.15C209.598 261.309 210.422 256.879 211.556 252.553C211.762 251.626 213.101 250.905 213.925 250.08C214.028 251.214 214.337 252.347 214.234 253.48C213.822 257.909 212.689 262.442 212.998 266.768C213.822 275.421 220.208 280.984 228.964 281.808C230.2 281.911 231.231 283.25 232.364 283.971C231.231 284.692 230.097 285.825 228.861 286.031C227.316 286.34 225.668 285.928 224.02 285.722C226.08 291.697 228.037 297.362 230.097 303.234C256.365 297.465 282.427 291.8 309.313 285.928ZM318.481 225.358C329.4 220.31 346.499 207.537 356.079 198.266C384.613 170.968 398.52 136.254 407.07 98.861C408.512 92.7834 407.482 86.0877 407.276 79.7011C407.173 77.1258 405.524 74.7566 402.331 76.0957C399.55 77.3318 399.035 76.1987 398.623 73.7265C398.417 72.6964 397.387 71.4602 396.356 71.0482C395.738 70.8422 394.296 71.7693 393.678 72.4903C392.03 74.7566 390.897 74.3445 389.97 71.9753C388.013 67.0308 386.776 66.8248 383.171 70.6362C382.553 71.3572 381.42 72.1813 380.802 71.9753C380.081 71.8723 379.669 70.5331 379.154 69.8121C378.124 68.3699 377.197 66.8248 376.166 65.3826C374.724 66.6187 372.561 67.6489 371.84 69.194C370.089 73.2114 368.956 77.5379 367.617 81.7613C373.282 83.6155 373.591 84.0275 373.488 90.5172C374.518 90.8262 375.651 91.1353 376.784 91.4443C381.626 93.1955 386.158 99.9942 385.643 104.733C385.54 105.557 384.819 106.381 384.304 107.205C383.583 106.587 382.759 106.072 382.347 105.248C381.935 104.424 381.935 103.29 381.626 102.26C379.978 97.0068 377.094 94.6376 372.046 94.2256C367.308 93.9165 367.204 93.6075 369.574 89.2811C370.398 87.7359 370.913 86.3968 368.75 85.5727C362.672 83.1004 353.916 88.251 353.195 94.9466C352.989 97.2129 353.092 99.5821 353.504 101.848C354.637 107.411 354.019 112.767 351.444 117.609C343.924 131.618 336.198 145.628 328.37 159.431C323.322 168.393 316.111 175.604 307.87 181.681C302.823 185.39 297.878 189.098 292.522 193.116C305.913 200.326 314.978 210.524 318.481 225.358ZM169.424 220.619C158.196 219.177 146.968 217.838 137.079 212.07C123.173 203.932 109.472 195.588 95.7718 187.141C89.5912 183.433 85.5737 177.973 83.3075 171.071C80.4232 162.728 73.6245 160.255 65.7957 164.273C64.4566 164.994 63.5295 166.127 62.3964 167.157C63.4265 168.187 64.2506 169.526 65.3837 170.247C67.4439 171.586 67.7529 172.617 65.6927 174.265C58.997 179.518 58.482 181.372 60.6452 189.407C60.8512 190.334 60.4392 191.467 60.3362 192.498C59.3061 191.88 57.9669 191.571 57.4519 190.643C56.7308 189.407 56.3188 187.759 56.1127 186.317C55.4947 180.857 56.8338 176.119 61.5723 172.823C57.8639 167.672 57.9669 166.745 62.4994 161.903C59.7181 159.431 56.9368 156.959 54.0525 154.693C52.1983 153.354 50.2411 152.014 48.0779 151.396C45.6057 150.572 43.0304 151.396 43.0304 154.384C43.1334 158.298 41.1762 158.298 38.3949 157.68C37.5708 157.474 36.6437 157.577 35.4076 157.474C36.4377 162.006 35.2016 163.449 30.5661 162.213C27.9909 161.594 26.7547 164.273 27.4758 166.745C28.6089 170.762 26.8577 170.865 23.7674 170.041C20.3681 169.114 18.9259 170.659 19.75 174.162C20.0591 175.398 20.4711 176.737 21.1922 177.767C25.3126 183.433 29.227 189.407 33.9655 194.558C49.108 211.349 65.4867 227.109 84.8527 239.058C106.794 252.656 130.795 260.794 156.651 262.854C159.535 263.06 162.42 262.854 165.407 262.854C161.802 248.329 162.523 234.423 169.424 220.619ZM407.791 393.265C407.997 393.059 408.203 392.956 408.409 392.75C407.894 391.72 407.379 390.793 406.967 389.763C399.756 373.281 391.721 357.108 385.643 340.215C377.609 317.861 370.089 295.199 376.887 270.58C372.664 270.889 368.544 270.889 364.526 271.61C355.152 273.155 345.675 274.391 336.61 276.966C327.957 279.438 323.013 286.34 321.468 295.302C320.129 302.925 321.159 310.445 323.116 317.861C330.121 343.305 339.392 368.028 350.105 392.132C352.062 396.561 354.431 400.888 356.903 405.935C357.831 403.875 358.449 402.639 358.964 401.3C362.363 393.059 365.762 384.921 369.162 376.68C371.016 372.148 371.531 372.045 375.548 374.414C386.261 380.698 396.975 386.981 407.791 393.265ZM174.472 296.435C176.532 296.126 178.077 296.023 179.519 295.611C190.232 293.036 200.946 290.461 211.762 288.091C213.307 287.782 215.058 288.812 216.809 289.224C215.47 290.152 214.337 291.491 212.895 291.903C198.473 295.508 183.949 299.01 169.527 302.616C167.261 303.234 164.892 304.367 163.141 305.912C160.05 308.59 161.595 311.784 162.935 314.771C164.274 317.861 166.437 315.698 168.188 315.492C169.424 315.389 170.66 314.977 172 314.771C188.687 311.372 205.478 307.869 222.166 304.573C225.05 303.955 225.668 302.513 224.844 299.938C223.917 297.362 222.887 294.89 222.269 292.315C220.414 284.486 213.41 279.851 210.216 272.846C210.01 272.434 208.877 272.125 208.259 272.228C199.4 274.185 190.232 275.627 182.61 281.087C177.356 284.589 174.369 289.327 174.472 296.435ZM223.505 225.461C224.432 236.174 236.278 245.342 246.27 243.076C248.845 242.458 251.627 241.016 253.481 239.161C258.94 233.702 259.558 221.547 254.923 214.954C253.893 215.572 252.76 216.087 251.833 216.705C253.069 220.001 254.202 223.092 255.232 226.079C254.717 226.285 254.305 226.491 253.79 226.697C252.039 224.328 250.288 221.959 248.536 219.486C245.549 220.825 243.283 223.504 239.677 222.062C240.399 220.928 241.223 220.207 242.253 219.795C247.815 217.22 252.039 212.791 251.627 206.816C251.318 200.532 248.948 194.455 247.197 188.274C247.094 187.862 245.343 187.759 244.313 187.656C240.399 187.553 236.175 188.377 232.57 187.141C228.861 185.905 226.389 185.905 222.887 187.553C219.178 189.407 217.839 191.88 218.251 195.382C218.766 199.605 219.899 203.726 221.033 207.743C222.372 212.482 225.153 216.396 229.479 218.765C233.085 220.722 234.733 223.916 235.145 227.83C235.248 229.066 234.424 230.405 234.115 231.745C233.394 230.714 232.673 229.684 231.952 228.654C231.128 227.418 230.51 225.358 229.376 225.049C227.625 224.74 225.565 225.358 223.505 225.461Z" fill="#F5DF4D"/>
<path d="M90.5183 260.279C103.704 265.635 117.404 269.137 131.723 270.065C125.542 272.846 101.54 267.077 90.5183 260.279Z" fill="#F5DF4D"/>
<path d="M407.482 63.2194C411.705 64.3525 415.207 69.6061 414.486 74.0355C412.117 70.3271 409.748 66.7218 407.482 63.2194Z" fill="#F5DF4D"/>
<path d="M174.472 296.435C174.369 289.327 177.459 284.589 182.507 280.984C190.232 275.524 199.297 274.082 208.156 272.125C208.774 272.022 209.907 272.331 210.113 272.743C213.307 279.747 220.312 284.383 222.166 292.212C222.784 294.787 223.917 297.362 224.741 299.835C225.668 302.41 225.05 303.852 222.063 304.47C205.272 307.766 188.584 311.269 171.897 314.668C170.66 314.874 169.424 315.286 168.085 315.389C166.334 315.595 164.171 317.758 162.832 314.668C161.493 311.681 159.947 308.487 163.038 305.809C164.789 304.264 167.158 303.131 169.424 302.513C183.846 298.804 198.37 295.405 212.792 291.8C214.234 291.388 215.367 290.049 216.706 289.121C215.058 288.709 213.204 287.679 211.659 287.988C200.843 290.358 190.129 293.036 179.416 295.508C177.974 296.023 176.429 296.126 174.472 296.435Z" fill="#574AE2"/>
<path d="M405.215 253.686C395.635 255.437 386.055 256.776 376.579 259.145C358.346 263.781 339.907 266.974 321.056 267.077C319.923 267.077 318.893 266.15 317.76 265.635C318.79 265.12 319.82 264.296 320.85 264.193C332.593 262.957 344.336 262.236 355.976 260.588C363.393 259.557 370.604 256.982 378.021 255.437C389.764 252.862 401.61 249.977 413.765 251.832C420.976 252.862 427.466 255.334 432.925 260.588C438.076 265.429 441.166 271.301 443.226 277.893C449.201 296.641 455.279 315.389 461.356 334.034C461.665 334.858 462.077 335.785 461.974 336.609C461.871 337.639 461.253 338.566 460.841 339.494C459.914 338.979 458.575 338.566 458.266 337.845C456.618 333.828 455.073 329.708 453.733 325.484C448.686 309.518 443.741 293.551 438.694 277.687C436.634 271.095 433.44 265.223 427.672 260.897C421.594 256.364 414.692 255.128 407.482 254.613C406.761 254.613 405.937 254.613 405.215 254.613C405.318 254.304 405.215 253.995 405.215 253.686Z" fill="#F5DF4D"/>
<path d="M451.673 270.992C452.909 272.846 453.733 273.67 453.939 274.494C458.163 286.752 462.489 299.01 466.507 311.269C466.816 312.196 465.992 313.432 465.786 314.565C464.755 313.844 463.107 313.432 462.798 312.505C458.575 300.144 454.66 287.679 450.643 275.215C450.437 274.391 451.055 273.155 451.673 270.992Z" fill="#F5DF4D"/>
<path d="M232.364 206.919C235.351 204.962 237.823 203.314 240.502 201.562C242.047 204.653 242.459 207.228 239.678 209.082C237.102 210.73 234.939 209.494 232.364 206.919Z" fill="#F5DF4D"/>
<path d="M368.132 332.077C365.865 330.738 363.805 334.24 366.071 335.682C374.312 340.627 363.805 359.375 354.225 350.722C347.633 344.747 353.195 335.888 359.17 332.283C361.436 330.944 359.376 327.338 357.109 328.677C351.959 331.768 347.736 336.918 347.22 343.099C346.705 349.589 351.341 355.357 357.625 356.593C369.986 359.066 379.257 338.67 368.132 332.077Z" fill="#F5DF4D"/>
<path d="M310.24 120.184C305.707 118.33 300.866 114.931 297.982 111.016C296.952 109.677 294.788 109.677 294.17 111.531C292.831 115.961 291.595 121.523 289.02 125.335C287.578 127.498 291.08 129.661 292.625 127.395C294.788 124.202 296.024 120.081 297.158 116.167C299.939 118.948 303.235 121.317 306.738 122.965C304.265 127.086 302.72 130.897 301.793 135.327C300.969 134.091 300.145 132.855 299.321 131.721C297.879 129.558 294.273 131.618 295.715 133.782C297.467 136.46 299.218 139.138 301.175 141.713C302.411 143.362 304.78 142.744 304.986 140.683C305.707 133.782 307.562 128.837 311.476 123.069C312.197 122.038 311.373 120.596 310.24 120.184Z" fill="#F5DF4D"/>
<path d="M190.748 121.523C188.79 119.154 185.597 117.3 183.228 115.137C181.168 113.18 177.047 109.368 177.047 109.368C177.047 109.368 175.605 108.132 174.781 108.029C173.854 107.926 173.03 110.501 173.03 110.501C173.03 110.501 172.927 110.81 172.927 110.913C171.279 116.167 169.115 121.214 166.437 126.056C165.922 126.983 166.128 128.425 167.158 128.837C173.03 131.412 176.738 136.048 180.137 141.404C181.374 143.362 184.464 142.125 183.949 139.859C183.331 137.078 185.391 132.03 186.73 129.661C187.966 127.601 190.026 126.056 191.16 123.996C191.572 123.172 191.366 122.244 190.748 121.523Z" fill="#F5DF4D"/>
<path d="M445.596 145.731C443.638 143.362 440.445 141.507 438.076 139.344C436.016 137.387 431.895 133.576 431.895 133.576C431.895 133.576 430.453 132.339 429.629 132.236C428.702 132.133 427.878 134.709 427.878 134.709C427.878 134.709 427.775 135.018 427.775 135.121C426.127 140.374 423.963 145.422 421.285 150.263C420.77 151.19 420.976 152.633 422.006 153.045C427.878 155.62 431.586 160.255 434.985 165.612C436.222 167.569 439.312 166.333 438.797 164.067C438.179 161.285 440.239 156.238 441.578 153.869C442.814 151.808 444.874 150.263 446.008 148.203C446.42 147.379 446.214 146.452 445.596 145.731Z" fill="#F5DF4D"/>
<path d="M163.038 159.637C160.565 156.547 156.445 154.281 153.458 151.499C150.779 149.027 145.526 144.083 145.526 144.083C145.526 144.083 143.775 142.434 142.539 142.331C141.303 142.228 140.272 145.525 140.272 145.525C140.272 145.525 140.169 145.937 140.066 146.04C137.903 152.736 135.225 159.122 131.826 165.406C131.207 166.539 131.414 168.393 132.753 169.011C140.272 172.205 145.011 178.282 149.337 184.978C150.985 187.45 154.797 185.905 154.179 182.918C153.355 179.312 155.93 172.926 157.681 169.938C159.226 167.26 161.905 165.406 163.347 162.728C164.068 161.697 163.862 160.667 163.038 159.637Z" fill="#F5DF4D"/>
<path d="M227.419 192.704C225.565 193.013 223.814 193.528 222.166 194.352C220.929 194.97 222.063 196.721 223.196 196.103C224.741 195.382 226.286 194.867 227.934 194.661C229.273 194.455 228.758 192.498 227.419 192.704Z" fill="#F5DF4D"/>
<path d="M240.811 189.407C240.09 189.407 239.266 189.407 238.545 189.613C237.72 189.819 236.999 190.128 236.278 190.231C234.939 190.334 234.939 192.395 236.278 192.292C237.823 192.189 239.266 191.468 240.914 191.571C242.15 191.468 242.15 189.407 240.811 189.407Z" fill="#F5DF4D"/>
<path d="M238.853 192.601C236.896 192.601 236.896 195.691 238.853 195.691C240.914 195.691 240.914 192.601 238.853 192.601Z" fill="#F5DF4D"/>
<path d="M226.904 196.515C224.947 196.515 224.947 199.605 226.904 199.605C228.861 199.605 228.861 196.515 226.904 196.515Z" fill="#F5DF4D"/>
<path d="M234.321 201.151C233.703 201.666 233.291 201.563 233.188 201.047C233.188 200.944 233.085 200.841 233.085 200.738C232.982 200.326 232.879 199.811 232.776 199.399C232.57 198.369 232.467 197.339 232.364 196.309C232.364 195.691 231.334 195.691 231.334 196.309C231.437 197.442 231.54 198.575 231.746 199.708C231.849 200.532 231.952 201.563 232.57 202.181C233.394 203.211 234.939 202.696 235.248 201.46C235.454 200.738 234.424 200.429 234.321 201.151Z" fill="#F5DF4D"/>
<path d="M491.435 192.91C490.714 180.754 493.186 180.754 478.868 181.372C464.858 181.991 450.952 183.845 437.046 185.493C426.642 186.832 416.237 188.789 405.833 190.437C402.331 190.952 400.889 193.116 400.58 196.515C400.374 199.605 399.653 202.593 399.241 205.683C397.387 218.044 390.279 226.079 378.227 229.169C363.29 232.981 348.251 236.277 333.211 239.985C323.94 242.252 314.875 245.033 305.604 247.196C298.393 248.844 298.084 248.638 297.878 256.055C297.775 258.733 297.878 262.133 299.424 263.987C304.78 270.374 311.373 275.73 312.918 285.104C316.523 283.765 320.335 283.559 322.292 281.499C328.473 274.803 336.095 270.992 344.851 269.859C356.697 268.313 368.647 267.798 380.596 266.768C381.214 266.768 382.141 266.562 382.45 266.974C385.025 269.549 387.91 268.21 390.691 267.695C403.155 265.635 414.486 267.592 422.727 277.996C426.332 282.529 429.217 287.885 431.38 293.345C440.136 315.08 448.377 336.918 456.927 358.757C457.957 361.332 459.502 363.598 460.532 365.452C463.004 364.834 464.549 364.422 466.095 364.01C466.198 365.143 466.919 366.894 466.404 367.409C464.961 368.749 463.107 369.985 461.15 370.397C460.12 370.603 458.472 369.47 457.545 368.543C456 366.997 454.557 365.246 453.63 363.289C451.57 358.757 449.819 354.018 447.965 349.383C440.342 329.708 432.822 310.033 424.993 290.461C421.182 280.778 414.486 273.567 403.773 272.228C397.593 271.507 391.103 273.155 384.716 273.67C380.287 273.979 379.154 276.657 378.742 280.572C377.093 294.169 379.36 307.251 383.068 320.231C390.691 346.807 401.61 372.045 414.898 396.252C415.722 397.695 415.516 399.755 415.825 401.506C413.971 401.197 411.911 401.3 410.366 400.476C399.344 394.192 388.322 387.703 377.3 381.213C375.96 380.492 374.621 379.771 372.87 378.844C370.089 385.642 367.514 392.029 364.835 398.416C363.084 402.536 361.539 406.759 359.582 410.88C358.14 414.073 356.182 414.073 354.225 411.189C352.783 409.026 351.547 406.759 350.414 404.493C338.671 380.389 328.988 355.46 321.262 329.811C317.244 316.625 313.536 303.234 318.377 288.812C316.729 289.018 315.699 289.018 314.772 289.224C289.638 294.684 264.503 300.247 239.368 305.603C218.354 310.136 197.34 314.359 176.326 318.892C170.66 320.128 164.995 321.364 159.638 323.424C154.282 325.381 152.119 330.017 153.149 335.579C153.767 338.979 154.694 342.378 156.136 345.468C170.866 377.608 190.129 407.172 209.289 436.736C213.41 443.122 219.178 446.109 226.595 445.285C252.657 442.504 278.821 440.032 304.78 436.427C327.648 433.233 350.414 428.804 373.179 424.58C397.799 419.945 422.418 414.897 446.935 410.056C461.871 407.069 472.172 398.21 477.014 384.097C480.619 373.487 483.4 362.362 484.739 351.237C487.109 331.15 488.242 310.96 489.684 290.873C492.671 258.012 493.495 225.461 491.435 192.91ZM411.19 200.429C417.062 199.502 425.096 198.472 429.011 197.957C432.925 197.442 448.068 194.352 456.927 193.425C461.562 192.91 461.459 200.12 456.927 200.635C448.789 201.46 436.737 201.975 429.217 203.005C421.697 204.035 418.092 204.55 412.529 205.374C409.336 205.889 407.894 200.944 411.19 200.429ZM456.927 219.692C448.789 220.516 441.887 221.65 433.44 221.856C424.993 222.062 419.225 222.165 415.825 222.165C412.426 222.165 411.19 217.735 414.486 217.22C420.358 216.293 426.539 216.293 432.719 215.572C438.9 214.851 447.141 212.997 455.897 212.07C460.429 211.555 461.459 219.177 456.927 219.692ZM461.047 339.391C460.12 338.876 458.781 338.464 458.472 337.742C456.824 333.725 455.278 329.605 453.939 325.381C448.892 309.415 443.947 293.448 438.9 277.584C436.84 270.992 433.646 265.12 427.878 260.794C421.8 256.261 414.898 255.025 407.688 254.51C406.967 254.51 406.142 254.51 405.421 254.51C405.318 254.201 405.318 253.892 405.215 253.583C395.635 255.334 386.055 256.673 376.578 259.042C358.346 263.678 339.907 266.871 321.056 266.974C319.923 266.974 318.893 266.047 317.759 265.532C318.79 265.017 319.82 264.193 320.85 264.09C332.593 262.854 344.336 262.133 355.976 260.485C363.393 259.454 370.604 256.879 378.021 255.334C389.764 252.759 401.61 249.874 413.765 251.729C420.976 252.759 427.466 255.231 432.925 260.485C438.076 265.326 441.166 271.198 443.226 277.79C449.201 296.538 455.278 315.286 461.356 333.931C461.665 334.755 462.077 335.682 461.974 336.506C462.077 337.536 461.459 338.463 461.047 339.391ZM465.786 314.565C464.755 313.844 463.107 313.432 462.798 312.505C458.575 300.144 454.66 287.679 450.643 275.215C450.334 274.391 451.055 273.155 451.57 270.992C452.806 272.846 453.63 273.67 453.836 274.494C458.06 286.752 462.386 299.01 466.404 311.269C466.816 312.196 466.095 313.432 465.786 314.565ZM468.567 192.704C473.202 192.704 473.202 199.914 468.567 199.914C463.931 199.914 463.931 192.704 468.567 192.704ZM471.142 218.25C467.125 218.25 467.125 212.07 471.142 212.07C475.056 212.07 475.056 218.25 471.142 218.25Z" fill="#574AE2"/>
</svg>
