<svg width="512" height="512" viewBox="0 0 512 512" fill="none" xmlns="http://www.w3.org/2000/svg">
<path d="M52.4069 192.513C52.4069 192.513 48.7759 197.933 46.9233 200.496C45.0708 203.059 38.5497 206.209 37.0677 210.75C35.5115 215.291 37.9569 217.708 38.9944 222.468C39.9577 227.229 36.1785 251.398 39.9577 270.514C43.7369 289.63 51.74 306.109 55.4451 316.143C59.1502 326.177 56.4825 332.915 56.4825 332.915L36.1785 414.945C36.1785 414.945 66.7828 426.151 77.6759 427.396C88.5689 428.641 90.1992 422.709 90.1992 422.709C90.1992 422.709 100.796 388.945 105.761 369.462C110.726 349.98 110.726 342.363 110.726 342.363C110.726 342.363 123.027 355.181 128.362 364.116C131.474 369.243 137.847 389.75 143.923 406.156C148.37 418.168 154.224 430.472 154.224 430.472L188.311 417.216L204.91 401.249C204.91 401.249 195.647 371.953 179.27 337.822C162.894 303.692 130.511 262.091 130.511 262.091L81.5292 222.395L70.8584 227.815L62.5589 199.69L52.4069 192.513Z" fill="#F5DF4D"/>
<path d="M137.551 142.343C137.551 142.343 147.628 147.836 148.814 155.013C150 162.191 146.887 168.05 144.887 168.05C142.886 168.05 142.886 160.506 141.256 160.799C139.625 161.092 135.92 164.388 133.697 164.095C131.474 163.729 129.77 160.506 125.916 161.239C122.063 161.898 120.433 162.85 116.95 164.974C112.874 167.464 112.356 161.825 112.356 161.825C112.356 161.825 111.244 156.258 109.169 152.816C107.169 149.374 103.019 148.348 102.055 145.053C101.092 141.757 103.76 138.681 107.613 136.117C111.466 133.554 117.246 135.238 117.246 135.238L137.551 142.343Z" fill="#F5DF4D"/>
<path d="M143.923 190.828C143.923 190.828 143.997 206.282 140.811 215.877C137.625 225.471 137.106 227.009 137.106 227.009L120.062 230.671L109.688 199.69L118.432 185.555L143.923 190.828Z" fill="#F5DF4D"/>
<path d="M103.389 140.731C102.871 144.394 102.871 144.394 99.7582 145.053C91.3105 146.81 84.5672 151.425 79.0836 157.797C70.0431 168.27 62.6329 179.696 57.1493 192.366C56.5565 193.685 56.7047 194.563 57.9644 195.296C59.2242 196.028 60.4098 196.834 61.966 197.859C62.0401 196.834 62.1142 196.175 62.1142 195.516C62.1142 192.952 62.1142 190.389 62.1883 187.825C62.1883 187.166 62.4106 186.36 62.7811 185.775C63.0034 185.408 63.8185 185.189 64.189 185.335C64.5595 185.408 64.9301 186.068 65.0783 186.507C65.2265 186.873 65.1524 187.386 65.0783 187.752C64.6336 197.273 66.1898 206.502 68.7834 215.584C68.8575 215.877 69.0057 216.169 69.1539 216.389C69.228 216.536 69.4503 216.609 69.5985 216.755C71.6734 215.217 73.6 213.606 75.749 212.141C81.6772 208.186 88.2723 205.476 95.3862 204.451C99.0913 203.865 102.871 203.792 106.65 203.719C108.206 203.645 108.725 203.426 108.354 201.741C106.798 193.831 105.242 185.921 103.908 178.011C102.945 172.005 102.352 165.926 101.537 159.847C101.388 158.675 101.388 157.504 102.945 157.357C104.427 157.211 104.945 158.236 105.168 159.554C106.353 167.904 107.613 176.18 108.873 184.529C109.243 186.946 109.836 189.29 110.281 191.634C110.429 191.634 110.577 191.707 110.799 191.707C111.096 191.194 111.392 190.608 111.689 190.096C111.837 189.803 111.911 189.363 112.133 189.144C117.395 183.504 115.913 176.473 116.283 169.808C116.283 169.295 116.209 168.709 116.209 168.197C116.135 165.707 116.802 164.828 119.84 164.022C120.062 165.78 120.433 167.464 120.433 169.222C120.433 173.397 120.136 177.498 120.062 181.673C120.062 182.259 120.433 183.211 120.877 183.358C124.879 184.749 128.955 186.068 133.03 187.239C134.883 187.752 136.809 187.825 138.662 188.045C139.922 188.192 140.515 187.679 140.737 186.36C141.848 178.597 141.997 170.907 140.218 163.29C140.07 162.777 140.515 162.118 140.663 161.532C141.256 161.825 142.071 161.898 142.515 162.338C142.886 162.704 142.886 163.436 143.108 164.022C143.627 165.194 144.146 166.439 144.59 167.611C144.738 167.977 144.887 168.27 144.961 168.636C146.295 176.327 145.924 183.944 143.775 191.487C143.108 193.831 142.219 194.124 140.07 192.806C139.625 192.513 139.033 192.293 138.514 192.293C133.623 192.439 129.103 191.048 124.805 188.924C119.099 186.068 115.838 188.924 113.838 193.172C111.911 197.2 112.282 201.155 113.393 205.257C115.097 211.336 116.802 217.488 118.432 223.567C118.506 223.86 118.58 224.153 118.728 224.446C119.914 227.375 120.136 227.522 123.397 227.009C131.696 225.764 139.996 224.592 148.295 223.42C161.93 221.516 175.713 220.93 189.496 220.857C196.981 220.857 204.391 221.223 211.875 221.516C213.209 221.589 214.543 221.809 215.877 222.102C217.952 222.541 219.137 224.079 219.137 226.13C219.137 226.643 219.211 227.156 219.285 228.254C231.216 217.781 242.85 207.6 254.855 197.127C253.817 196.834 253.299 196.614 252.706 196.541C246.481 195.955 240.182 195.223 233.958 194.783C225.806 194.197 217.581 194.124 209.43 193.245C200.76 192.293 192.683 189.144 185.124 184.822C183.494 183.87 181.864 182.991 179.937 181.893C179.715 183.577 179.641 184.896 179.418 186.141C178.307 192.073 175.269 197.2 172.082 202.181C169.34 206.575 166.376 210.75 162.227 213.972C160.819 215.071 159.114 215.95 157.484 216.829C156.372 217.415 154.965 217.561 154.446 216.169C154.224 215.51 154.965 214.265 155.557 213.679C158.596 210.823 162.152 208.406 164.746 205.257C169.859 199.104 174.083 192.366 176.38 184.603C177.418 181.234 176.602 179.696 173.787 177.572C165.783 171.566 157.78 165.56 149.851 159.408C148.962 158.749 148.74 157.211 148.221 156.039C148.444 155.892 148.666 155.746 148.888 155.599C149.481 155.892 150.148 156.185 150.667 156.551C158.225 162.118 165.783 167.757 173.416 173.177C181.049 178.597 188.978 183.504 197.87 186.727C204.984 189.363 212.394 190.096 219.878 190.315C231.068 190.608 242.183 191.561 253.224 193.025C253.595 193.099 253.965 193.099 254.336 193.172C257.3 193.685 259.523 192.879 261.82 190.828C283.014 172.445 303.91 153.695 324.215 134.36C325.104 133.554 325.474 132.236 326.141 131.137C327.105 129.452 327.846 127.548 329.105 126.157C331.328 123.666 333.774 121.469 336.219 119.272C337.331 118.247 337.182 117.587 336.219 116.562C328.587 107.92 318.879 102.573 307.838 99.4237C300.724 97.4462 293.462 96.1278 286.274 94.2236C283.755 93.5644 281.309 92.3926 279.234 90.8545C276.196 88.6573 275.529 85.215 276.418 81.7726C277.975 75.3275 281.087 69.4682 284.496 63.8287C286.052 61.2652 288.794 60.2399 291.684 59.8736C297.908 59.2145 303.91 60.5328 309.69 62.3638C321.917 66.1724 333.551 71.2992 344.37 78.1106C350.817 82.1388 356.597 86.9727 361.71 92.6123C363.118 94.2236 363.192 94.1503 364.6 92.4658C369.195 86.753 373.122 86.4601 378.235 91.6601C380.162 93.6377 381.718 96.0546 383.052 98.4715C384.46 101.035 383.867 103.672 381.866 105.722C380.162 107.48 378.161 108.872 376.16 110.337C375.197 110.996 374.827 111.582 375.419 112.753C382.385 126.376 386.164 140.878 387.424 156.039C388.313 166.805 387.794 177.498 385.942 188.118C385.127 192.952 383.793 197.786 382.533 202.547C382.163 203.865 381.348 205.257 380.384 206.282C378.309 208.406 375.345 207.967 373.937 205.33C373.122 203.719 372.529 201.888 372.455 200.13C371.862 189.949 370.529 179.842 367.861 169.955C364.823 158.529 360.228 147.689 353.856 137.655C353.633 137.289 353.263 136.923 352.818 136.337C352.225 136.923 351.781 137.362 351.41 137.802C349.113 140.292 346.89 142.782 344.519 145.199C342.814 146.957 340.888 148.275 338.442 148.788C337.701 148.934 336.886 149.52 336.293 150.106C319.027 167.464 301.836 184.896 284.57 202.254C283.458 203.426 283.31 204.231 283.977 205.696C288.868 216.462 286.645 229.133 274.714 236.75C267.526 241.364 259.597 244.221 251.001 244.733C248.63 244.88 246.185 244.074 243.739 243.781C242.85 243.708 241.664 243.708 241.072 244.147C237.515 247.15 234.106 250.3 230.549 253.376C229.438 254.328 229.141 255.353 229.215 256.745C229.363 258.649 229.363 260.553 229.215 262.384C228.993 265.021 227.214 267.072 224.547 267.658C223.435 267.877 223.065 268.463 222.842 269.489C222.472 270.88 222.101 272.345 221.36 273.59C219.952 275.861 217.655 276.813 214.988 276.52C213.876 276.447 213.209 276.74 212.616 277.765C211.357 280.182 209.282 281.354 206.466 280.914C205.206 280.695 204.687 281.427 203.946 282.233C202.39 283.844 200.76 285.455 198.907 286.627C197.129 287.799 194.98 287.799 193.127 286.481C192.09 285.675 191.423 286.407 190.682 286.92C187.273 289.191 183.939 291.461 180.53 293.585C178.085 295.123 175.417 296.075 172.453 295.929C166.821 295.709 162.894 290.802 163.635 285.016C164.079 281.207 166.228 278.351 168.748 275.714C169.785 274.616 170.971 273.59 172.008 272.492C172.379 272.125 172.675 271.613 173.268 270.807C171.934 270.661 171.045 270.441 170.156 270.441C160.152 270.587 150.148 270.514 140.218 271.027C131.252 271.466 122.359 271.393 113.467 269.708C103.241 267.804 94.2746 263.263 86.1975 256.818C79.6764 251.618 75.8972 244.66 72.6367 237.263C68.7093 228.254 65.4488 219.099 63.2998 209.505C62.7811 207.161 62.4106 204.817 62.0401 202.473C61.8919 201.302 61.299 200.862 60.3357 200.203C57.3716 198.372 54.6298 196.248 51.888 194.051C51.5175 193.758 51.5175 192.439 51.8139 191.854C52.4067 190.462 53.4442 189.29 54.037 187.899C59.4465 175.667 66.7826 164.608 75.6008 154.574C81.8254 147.47 89.3098 142.27 98.869 140.512C100.722 140.951 102.055 140.878 103.389 140.731ZM104.278 206.648C99.9805 206.795 95.0157 207.674 90.199 209.212C83.4557 211.409 77.8239 215.437 72.2662 219.612C70.9324 220.637 70.6359 221.516 71.2288 222.981C73.2295 227.815 75.008 232.795 77.0829 237.629C79.4541 243.269 82.5664 248.615 86.8644 253.01C92.1257 258.429 98.5726 262.018 105.835 264.215C116.061 267.292 126.435 268.39 137.106 268.024C146.22 267.731 155.335 267.218 164.45 267.072C170.6 266.925 176.677 267.438 182.457 269.708C188.162 271.979 192.979 275.421 194.98 281.5C195.869 284.137 197.722 284.723 199.574 282.599C200.76 281.207 201.353 279.376 202.316 277.765C202.761 277.033 203.205 276.007 203.946 275.787C204.465 275.568 205.577 276.154 206.095 276.666C207.577 278.058 208.911 277.985 209.874 276.154C210.319 275.275 210.393 274.249 210.69 273.371C211.282 271.613 212.616 271.1 213.95 272.125C216.395 274.03 218.841 273.078 219.285 270.001C219.508 268.61 219.285 267.218 219.285 265.827C219.285 264.069 220.619 263.263 222.101 263.996C224.473 265.168 226.251 263.922 226.177 261.286C226.177 260.48 226.103 259.674 225.955 258.942C225.214 252.497 222.842 247.077 216.914 243.635C215.136 242.536 213.431 241.291 211.875 239.899C208.541 237.043 208.615 233.381 211.949 230.451C212.839 229.646 213.802 228.987 214.543 228.181C214.913 227.742 215.21 227.009 215.136 226.423C215.062 226.13 214.172 225.764 213.58 225.764C208.318 225.471 202.983 225.105 197.648 225.105C190.46 225.032 183.198 224.958 176.01 225.325C166.747 225.764 157.558 226.423 148.369 227.522C139.107 228.62 129.844 230.378 120.655 231.916C119.099 232.136 117.913 231.77 117.098 230.525C116.431 229.646 115.838 228.694 115.542 227.668C113.764 222.102 111.985 216.536 110.429 210.896C109.021 205.843 110.207 206.721 104.278 206.648ZM228.4 251.472C229.363 250.739 230.327 250.3 231.068 249.567C233.513 247.224 235.81 244.807 238.256 242.463C239.219 241.511 239.071 240.925 238.478 239.826C237.441 238.068 236.477 236.164 236.033 234.187C235.069 230.085 236.922 227.961 241.146 227.961C242.554 227.961 243.221 227.668 243.369 226.13C243.887 222.175 246.185 220.417 250.186 220.491C251.446 220.564 251.965 219.978 252.335 219.026C253.224 216.829 254.855 215.584 257.226 215.364C258.412 215.291 259.078 214.924 259.597 213.826C261.302 210.53 265.007 209.505 267.823 211.629C269.008 212.507 269.675 212.288 270.564 211.336C274.195 207.747 277.901 204.231 281.532 200.642C292.499 189.73 303.392 178.817 314.285 167.831C320.435 161.678 326.512 155.38 332.588 149.154C333.255 148.495 334.218 147.836 332.959 146.81C330.365 144.686 328.661 141.977 327.401 138.974C326.956 137.802 326.364 137.729 325.548 138.607C323.474 140.585 321.399 142.562 319.25 144.54C300.502 161.385 281.754 178.304 262.858 195.003C247.593 208.552 232.105 221.956 216.766 235.505C214.765 237.263 214.839 237.263 216.988 238.947C220.471 241.657 224.25 244.074 226.325 248.102C226.918 249.201 227.659 250.226 228.4 251.472ZM283.162 215.877C283.31 215.877 283.532 215.803 283.681 215.803C283.014 213.313 282.347 210.75 281.606 208.259C281.161 206.795 280.42 206.795 279.383 207.82C277.011 210.237 274.566 212.581 272.121 214.851C271.083 215.877 271.009 216.829 272.121 217.634C273.677 218.733 275.529 219.465 277.16 220.491C277.678 220.784 277.975 221.443 278.419 221.956C277.901 222.248 277.234 222.908 276.863 222.761C275.085 222.248 273.01 221.809 271.676 220.71C269.897 219.172 268.712 217.048 267.304 215.144C266.489 214.046 265.525 212.947 263.895 213.606C262.191 214.265 261.968 215.584 262.191 217.195C262.265 217.927 261.968 218.733 261.82 219.539C261.079 219.392 260.19 219.392 259.523 218.953C257.745 217.854 256.114 218.147 255.225 220.051C254.855 220.93 255.003 222.102 254.706 223.054C254.484 223.86 254.114 224.665 253.817 225.471C253.076 225.105 252.261 224.885 251.742 224.446C249.816 222.688 247.222 223.274 246.555 225.837C246.333 226.716 246.407 227.742 246.481 228.694C246.852 231.184 246.111 231.916 243.665 231.33C242.998 231.184 242.331 231.037 241.664 230.964C239.071 230.818 238.404 231.623 238.997 234.113C240.331 240.119 245.221 242.39 250.631 242.17C257.893 241.877 264.636 239.46 270.935 235.944C278.864 231.623 283.606 225.251 283.162 215.877ZM337.924 145.346C338.887 144.76 339.998 144.394 340.665 143.734C343.778 140.585 346.742 137.362 349.706 134.14C350.595 133.188 350.447 132.309 349.78 131.21C347.483 127.255 343.778 124.692 340.665 121.469C340.369 121.176 339.257 121.249 338.887 121.542C336.441 124.033 334.07 126.596 331.625 129.086C330.291 130.478 329.772 132.236 329.995 134.14C330.439 137.948 332.144 141.098 335.034 143.661C335.923 144.394 336.96 144.76 337.924 145.346ZM173.712 292.926C174.009 292.853 174.676 292.779 175.343 292.56C181.123 290.582 185.791 286.92 190.534 283.331C190.978 283.038 191.127 281.72 190.83 281.134C188.385 276.593 184.309 274.103 179.567 272.638C179.048 272.492 178.159 272.931 177.64 273.371C175.639 275.202 173.712 277.033 171.786 278.937C169.859 280.914 168.229 283.112 167.858 286.041C167.266 289.776 169.711 292.926 173.712 292.926ZM371.492 91.8066C370.603 92.3193 369.639 92.6855 368.972 93.2714C367.935 94.2236 367.12 95.3954 366.231 96.494C363.785 99.7166 363.859 101.621 366.527 104.624C367.268 105.503 367.787 106.528 368.306 107.48C368.898 108.579 370.825 109.604 371.64 109.018C374.086 107.334 376.531 105.503 378.902 103.672C380.236 102.646 380.458 101.255 379.495 99.9364C377.865 97.6659 376.16 95.4687 374.308 93.3447C373.715 92.6855 372.603 92.3926 371.492 91.8066Z" fill="#574AE2"/>
<path d="M110.355 334.014C108.576 334.673 107.02 335.332 105.39 335.991C105.983 336.431 106.724 336.797 107.169 337.456C107.613 338.115 108.132 339.068 107.91 339.653C107.613 340.313 106.576 340.972 105.835 341.045C102.945 341.192 98.7209 337.383 98.7209 334.6C98.7209 333.721 99.9065 332.769 100.722 332.11C101.314 331.67 102.204 331.67 103.241 331.011C102.278 330.352 101.24 329.619 100.277 328.887C99.0914 328.008 97.3129 327.349 97.8316 325.445C98.2762 323.687 100.129 323.54 101.537 323.54C104.723 323.54 107.984 323.907 111.541 324.126C111.541 323.98 111.763 323.248 111.763 322.588C112.504 309.332 111.911 296.148 108.873 283.112C108.502 281.427 107.984 279.816 107.539 278.131C107.169 276.74 107.243 275.348 108.947 274.909C110.651 274.469 111.392 275.714 111.837 277.106C114.727 286.993 116.283 297.101 116.654 307.354C117.098 319.512 116.357 331.524 113.912 343.389C111.318 356.352 108.058 369.169 104.649 381.987C101.24 394.657 97.2388 407.181 93.6819 419.779C92.4221 424.173 90.9401 428.714 92.6445 433.255C93.6819 436.112 93.6078 437.943 90.5696 439.188C89.9027 439.481 89.3098 440.213 88.8652 440.872C88.6429 441.165 88.7911 441.678 88.717 442.117C89.1616 442.117 89.6804 442.191 90.0509 441.971C91.3106 441.165 92.4221 440.213 93.6078 439.407C95.6086 438.089 96.2755 440.067 97.3129 440.945C98.4986 441.971 97.2388 442.484 96.7201 443.143C96.2755 443.802 95.6827 444.388 95.3121 445.047C95.1639 445.413 95.3121 445.926 95.3862 446.365C95.905 446.292 96.4978 446.365 96.7942 446.146C97.5352 445.56 98.128 444.681 98.795 444.022C100.277 442.63 101.092 444.241 102.055 444.754C103.093 445.34 102.871 445.999 102.352 446.878C102.055 447.464 102.204 448.27 102.13 448.929C102.722 448.636 103.389 448.416 103.834 447.977C104.501 447.317 105.094 446.951 105.909 447.61C109.021 450.174 111.985 452.81 113.393 456.692C115.394 462.259 112.949 467.752 107.391 470.315C102.945 472.366 98.128 472.878 93.3114 473.171C85.6788 473.611 78.0463 473.904 70.4137 473.757C60.8545 473.611 51.3694 472.219 42.1066 469.802C38.6238 468.85 35.0669 467.898 31.7322 466.58C27.953 465.115 25.7299 462.039 26.0264 458.011C26.2487 454.275 26.9156 450.54 27.8048 446.878C30.5466 436.185 33.5107 425.565 36.4007 414.872C37.1417 412.089 38.1792 411.576 40.7727 412.967C46.2563 415.97 51.8881 418.461 58.0386 419.852C66.4122 421.756 74.7858 421.17 83.2334 420.072C88.0501 419.486 90.2732 417.435 91.4588 412.675C94.7934 399.418 99.0173 386.381 102.648 373.198C106.057 360.893 108.799 348.442 110.429 335.772C110.281 335.259 110.281 334.6 110.355 334.014ZM50.1838 442.117C50.1096 445.779 52.555 448.563 55.8896 448.929C58.7055 449.295 61.966 446.878 62.5589 443.948C62.633 443.362 62.1883 442.703 61.966 442.117C61.4473 442.557 60.8545 442.85 60.484 443.362C60.1876 443.729 60.1135 444.241 59.8171 444.681C58.7796 446.292 56.9271 447.024 55.1486 446.439C53.2961 445.853 52.0363 444.315 52.4068 442.41C52.6291 441.165 53.5925 440.067 54.1112 438.895C54.3335 438.382 54.4817 437.796 54.6299 437.21C54.0371 437.283 53.2961 437.21 52.8514 437.576C51.2212 438.822 50.332 440.506 50.1838 442.117ZM105.39 327.203C106.724 328.228 107.761 328.814 108.502 329.619C109.243 330.425 109.836 331.45 110.725 332.769C110.725 330.572 110.725 328.814 110.725 327.129C109.169 327.203 107.613 327.203 105.39 327.203Z" fill="#574AE2"/>
<path d="M178.01 464.09C171.86 464.383 167.636 461.526 165.265 456.18C160.448 445.34 155.928 434.427 151.259 423.514C150.444 421.61 150.963 420.511 153.112 419.999C156.521 419.193 160.004 418.607 163.412 417.875C174.75 415.604 184.531 410.258 193.35 403.007C195.499 401.249 197.796 399.491 200.093 397.88C202.094 396.562 203.205 396.928 204.095 399.198C205.502 402.86 207.133 406.376 209.8 409.379C210.097 409.745 210.023 410.77 209.726 411.283C208.244 414.139 207.207 417.142 207.207 420.365C207.207 421.317 206.91 422.562 208.392 422.562C208.837 422.562 209.282 421.244 209.578 420.438C210.319 417.875 210.912 415.311 211.653 412.748C211.949 411.649 212.765 411.576 213.728 412.089C214.247 412.382 214.765 412.528 215.284 412.675C216.396 413.041 216.766 413.627 216.544 414.872C216.247 416.483 216.173 418.168 216.173 419.779C216.173 420.218 216.766 420.731 217.062 421.17C217.433 420.731 218.1 420.365 218.174 419.925C218.47 418.387 218.545 416.776 218.619 415.165C218.693 413.993 219.211 413.48 220.397 413.7C220.768 413.773 221.138 413.773 221.509 413.773C224.176 413.993 224.102 413.993 223.806 416.63C223.732 417.655 223.732 418.754 223.954 419.706C224.102 420.292 224.843 420.658 225.288 421.17C225.51 420.585 225.955 419.999 226.029 419.413C226.103 418.241 225.955 417.069 226.029 415.97C226.103 414.652 226.77 413.92 228.326 413.993C232.105 414.213 235.81 414.579 239.367 416.044C245.888 418.754 248.408 425.858 244.703 431.79C243.221 434.207 241.22 436.405 239.145 438.309C227.437 449.295 213.506 456.18 197.944 459.988C192.238 461.38 186.532 462.552 180.826 463.797C179.937 464.09 178.974 464.016 178.01 464.09ZM173.861 437.723C173.861 440.579 175.417 442.85 178.01 443.582C178.529 443.729 179.196 443.362 179.789 443.289C179.418 442.777 179.122 442.264 178.751 441.898C177.936 441.092 176.751 440.579 176.306 439.627C175.269 437.796 175.861 435.965 177.269 434.427C178.751 432.816 180.604 432.376 182.679 432.962C184.606 433.548 185.791 434.94 186.014 436.917C186.088 437.943 185.791 438.968 185.865 439.993C185.865 440.579 186.236 441.165 186.458 441.824C186.977 441.385 187.718 441.092 187.94 440.579C189.052 438.089 188.311 434.72 186.162 432.669C184.087 430.619 180.9 429.959 178.307 431.131C175.417 432.376 173.935 434.647 173.861 437.723Z" fill="#574AE2"/>
<path d="M466.417 226.13C467.603 224.958 468.64 223.787 469.826 222.688C470.938 221.736 472.049 220.71 473.309 220.051C476.347 218.367 479.385 219.172 480.719 222.322C481.756 224.885 482.349 227.668 482.868 230.378C483.98 236.823 484.795 243.269 485.758 249.714C485.906 250.593 486.054 251.398 485.98 252.277C485.98 252.717 485.536 253.083 485.239 253.522C484.869 253.156 484.276 252.863 484.202 252.497C483.757 250.373 483.535 248.176 483.164 245.978C482.127 239.314 481.09 232.575 480.126 225.91C480.052 225.544 479.978 225.178 479.83 224.812C478.57 220.637 475.828 219.758 472.494 222.615C467.232 227.156 463.972 232.868 462.193 239.607C461.378 242.683 460.341 245.832 458.785 248.615C456.636 252.424 452.486 253.303 448.559 251.325C446.41 250.226 444.779 250.226 443.001 252.424C441 254.914 438.851 257.551 437.888 260.553C435.961 266.12 434.85 271.979 433.368 277.692C432.701 280.328 432.034 283.038 431.219 285.602C428.996 292.267 424.475 296.441 417.51 298.126C415.509 298.639 413.508 299.371 411.656 300.323C409.358 301.568 408.025 303.619 408.025 306.256C408.025 308.087 408.025 309.991 408.025 311.822C407.728 312.042 407.432 312.188 407.135 312.408C407.061 311.968 406.839 311.602 406.839 311.163C406.987 308.453 406.691 305.596 407.358 303.033C408.247 299.884 411.137 298.346 414.175 297.394C416.176 296.734 418.251 296.295 420.177 295.562C425.216 293.731 427.884 289.63 429.588 284.943C430.329 282.892 430.848 280.695 431.441 278.571C431.293 278.497 431.07 278.351 430.922 278.278C430.181 278.644 429.44 279.01 428.699 279.376C423.067 282.452 417.213 284.723 410.766 285.309C404.69 285.821 399.28 284.21 394.316 280.988C391.87 279.376 389.499 277.545 387.424 275.495C381.051 269.342 379.05 261.872 380.533 253.229C383.719 235.139 394.464 221.956 408.395 210.823C414.842 205.696 422.03 201.814 430.033 199.617C436.183 197.933 442.63 197.127 448.114 200.935C456.636 206.941 463.972 214.045 465.824 224.958C465.824 225.105 465.899 225.325 465.973 225.471C466.047 225.764 466.121 225.837 466.417 226.13ZM451.967 216.609C451.967 216.096 451.967 215.657 451.967 215.144C451.745 208.113 447.818 203.499 440.778 202.62C436.035 201.961 431.367 203.133 427.069 204.964C409.21 212.434 396.242 224.958 387.795 242.243C385.127 247.663 383.126 253.229 383.348 259.382C383.645 266.413 388.832 271.613 395.946 271.979C404.764 272.418 412.174 268.683 419.288 264.362C424.327 261.286 429.144 257.77 433.071 253.156C437.888 247.517 442.853 242.023 446.335 235.432C449.448 229.426 451.819 223.347 451.967 216.609ZM454.264 248.469C454.339 248.176 454.413 247.956 454.487 247.663C453.227 246.491 451.967 245.319 450.708 244.147C450.411 244.514 449.744 245.173 449.744 245.246C450.708 246.491 451.671 247.736 452.782 248.835C452.931 249.055 453.746 248.615 454.264 248.469ZM460.267 231.843C459.303 230.598 458.414 229.426 457.377 228.254C457.229 228.108 456.562 228.108 456.413 228.327C456.191 228.547 455.969 229.133 456.117 229.426C456.784 230.598 457.525 231.697 458.266 232.722C458.414 232.942 459.081 233.015 459.378 232.942C459.748 232.795 459.896 232.356 460.267 231.843ZM427.291 266.925C427.143 267.145 426.55 267.585 426.698 267.804C427.217 268.903 427.81 270.001 428.477 271.027C428.551 271.1 429.292 270.88 429.514 270.661C430.107 269.855 428.551 266.999 427.291 266.925ZM412.397 277.692C411.581 276.74 410.989 275.934 410.322 275.202C410.025 275.641 409.432 276.227 409.581 276.52C409.877 277.399 410.47 278.204 410.989 279.01C411.359 278.644 411.73 278.351 412.397 277.692ZM403.875 278.497C403.06 277.911 402.541 277.472 402.022 277.252C401.874 277.179 401.207 278.058 401.281 278.131C401.578 278.571 402.022 279.083 402.467 279.303C402.689 279.376 403.208 278.937 403.875 278.497Z" fill="#574AE2"/>
<path d="M117.617 96.6405C119.247 97.2997 119.84 96.1278 120.507 94.5898C123.175 88.877 129.77 87.3389 134.661 91.2207C135.698 92.0263 136.143 91.8066 136.884 90.9277C139.7 87.4122 142.293 86.8262 146.517 88.3643C147.11 88.584 148.221 88.2911 148.814 87.8516C151.482 86.0206 154.298 84.5558 157.558 84.1896C162.301 83.6037 166.451 84.8487 169.415 88.6573C172.379 92.3925 172.305 96.6405 170.6 100.815C167.859 107.48 162.597 111.508 155.78 113.559C153.112 114.365 153.112 114.292 153.779 116.782C155.261 122.348 155.187 127.768 152.445 132.968C150.519 136.776 147.406 139.267 143.479 140.658C142.96 140.878 142.441 141.024 141.923 141.171C139.181 142.123 138.662 142.782 138.514 145.712C138.366 147.982 138.366 150.253 138.218 152.45C138.069 154.867 137.106 156.918 135.476 158.675C135.105 159.042 134.809 159.847 134.883 160.287C135.772 163.876 134.661 167.318 134.438 170.833C134.364 172.371 134.216 173.836 133.92 175.374C133.846 175.741 133.401 176.034 133.105 176.4C132.808 176.107 132.364 175.814 132.364 175.521C132.289 174.349 132.289 173.25 132.289 172.079C132.438 169.076 132.734 166 132.66 162.997C132.586 159.554 130.511 156.991 128.436 154.428C126.361 152.011 124.36 149.52 122.137 147.177C119.247 144.101 117.691 140.292 115.913 136.703C115.765 136.41 115.839 135.898 115.987 135.531C117.172 133.261 116.357 130.478 114.06 129.452C109.91 127.548 108.799 124.838 110.503 120.737C110.948 119.711 110.651 119.199 109.91 118.613C106.502 115.756 106.057 111.289 109.021 107.92C109.836 106.967 110.059 106.308 109.762 104.99C108.503 100.522 112.208 96.5673 117.617 96.6405ZM132.586 155.966C132.882 155.966 133.179 155.966 133.401 155.966C133.771 154.354 134.216 152.743 134.438 151.132C134.809 148.275 134.957 145.419 135.105 142.562C135.105 142.123 134.587 141.391 134.142 141.171C132.882 140.512 131.474 139.999 130.066 139.413C129.103 138.974 128.288 138.315 128.807 137.143C129.325 135.898 130.363 136.484 131.178 136.776C134.29 137.729 137.477 138.095 140.663 137.509C147.406 136.264 150.889 129.526 150.667 123.52C150.667 123.08 150.37 122.568 150 122.348C148.888 121.542 148.888 120.81 149.629 119.711C149.852 119.345 149.555 118.613 149.481 118.027C148.37 118.32 147.11 118.32 146.221 118.906C145.776 119.199 145.924 120.59 146.072 121.323C146.221 122.055 146.888 122.641 147.332 123.3C148.518 125.204 147.851 126.596 145.628 126.962C145.257 127.035 144.813 126.669 144.368 126.523C144.516 126.157 144.59 125.644 144.887 125.497C146.072 124.911 145.85 124.179 145.331 123.227C145.035 122.787 144.739 122.275 144.516 121.762C143.479 119.125 144.739 117.075 147.629 116.928C148.147 116.928 148.666 116.855 149.259 116.855C149.185 115.17 148.37 114.804 146.962 114.658C144.294 114.365 141.626 113.999 138.959 113.413C137.18 112.973 133.475 112.094 131.697 112.168C129.103 112.314 129.029 112.387 129.918 114.877C130.807 117.514 131.4 120.224 130.585 122.934C130.363 123.74 129.325 124.911 128.807 124.911C127.991 124.838 127.25 123.886 126.584 123.154C126.213 122.714 126.213 121.909 125.768 121.542C124.953 120.883 123.99 120.444 123.101 119.858C122.73 120.81 122.211 121.762 121.989 122.714C121.841 123.3 122.137 124.033 122.137 124.692C122.063 126.376 122.434 128.281 121.767 129.672C120.878 131.43 120.729 133.114 120.655 134.945C120.655 135.898 120.655 136.996 120.285 137.802C119.396 139.999 120.285 141.684 121.693 143.295C124.583 146.664 127.473 149.96 130.363 153.329C131.178 154.281 131.845 155.16 132.586 155.966Z" fill="#574AE2"/>
<path d="M288.275 393.193C288.942 393.119 289.683 392.9 290.35 393.046C296.13 393.998 300.502 391.801 303.762 387.187C305.022 385.429 306.134 383.451 307.245 381.547C308.134 380.009 307.838 379.643 306.06 379.57C300.798 379.35 295.611 378.325 290.794 376.127C283.458 372.758 279.086 366.826 276.344 359.502C274.047 353.496 273.603 347.344 275.603 341.192C277.308 336.065 280.865 332.11 284.792 328.521C293.166 320.977 303.021 316.07 313.766 312.847C323.548 309.918 333.552 308.746 343.778 309.918C350.076 310.65 356.153 312.115 361.266 316.143C362.155 316.876 362.674 316.583 363.415 315.85C367.268 311.529 371.863 311.602 375.716 315.923C378.532 319.073 379.94 322.881 381.348 326.763C383.2 331.817 384.979 336.87 386.757 341.924C387.72 344.634 388.758 345.293 391.426 345.073C398.317 344.414 401.874 346.831 403.653 353.496C404.986 358.623 405.06 363.896 404.764 369.096C404.616 372.539 404.468 375.908 404.245 379.35C404.245 379.863 404.245 380.522 404.023 380.961C403.801 381.401 403.282 381.62 402.837 381.913C402.615 381.547 402.17 381.181 402.17 380.815C402.17 378.544 402.319 376.274 402.319 374.077C402.319 368.217 402.393 362.358 402.096 356.572C401.948 354.448 400.985 352.178 399.873 350.273C398.243 347.344 395.501 346.392 392.167 347.124C388.239 348.003 386.683 347.344 385.201 343.608C383.052 338.115 381.348 332.403 379.199 326.91C378.161 324.273 376.827 321.709 375.419 319.219C374.827 318.121 373.863 317.169 372.9 316.363C370.232 314.092 367.046 314.312 364.971 317.095C363.785 318.707 362.896 320.684 362.155 322.588C357.116 336.358 352.225 350.2 347.186 363.896C346.297 366.386 344.889 368.803 343.333 370.927C339.85 375.834 334.515 377.153 328.364 374.736C325.919 373.784 323.474 372.758 320.954 371.879C317.397 370.708 315.174 371.367 313.099 374.443C311.173 377.373 309.542 380.595 307.764 383.671C305.911 386.894 303.911 389.897 300.872 392.167C297.39 394.804 291.239 395.609 288.127 393.778C288.349 393.632 288.275 393.412 288.275 393.193ZM333.107 313.653C321.547 313.873 307.838 317.681 295.315 325.518C289.238 329.327 283.829 334.014 280.42 340.459C276.863 347.197 278.493 353.496 285.014 357.524C289.016 360.014 293.462 361.113 298.131 361.626C306.726 362.578 315.248 361.772 323.622 359.648C332.736 357.305 341.481 353.935 349.187 348.442C350.225 347.71 351.188 346.392 351.633 345.22C354.3 338.042 356.894 330.791 359.487 323.54C360.599 320.391 360.525 320.318 357.709 318.56C357.487 318.414 357.264 318.267 357.042 318.194C350.595 314.678 343.63 313.58 333.107 313.653ZM328.439 368.291C329.031 369.243 329.476 370.634 329.921 370.708C331.551 370.781 330.81 369.243 331.032 368.364V368.217C330.884 367.339 331.551 365.874 329.995 365.8C329.55 365.8 329.031 367.265 328.439 368.291ZM295.463 366.899C295.241 366.899 294.944 366.899 294.722 366.826C294.425 367.705 293.907 368.584 293.759 369.463C293.684 369.829 294.277 370.341 294.574 370.781C295.092 369.975 295.685 369.17 295.982 368.291C296.204 367.998 295.685 367.412 295.463 366.899ZM312.951 371.074C313.173 371.147 313.47 371.294 313.692 371.367C314.804 370.854 315.322 370.048 314.878 368.803C314.804 368.584 314.211 368.51 313.84 368.364C313.544 369.243 313.248 370.195 312.951 371.074ZM286.941 364.116C286.422 364.848 285.904 365.288 285.978 365.507C286.2 366.02 286.645 366.46 287.015 366.972C287.312 366.679 287.904 366.313 287.904 366.093C287.83 365.581 287.46 365.068 286.941 364.116ZM344.963 362.065C345.26 362.065 345.63 362.065 345.927 361.992C345.927 361.26 345.927 360.6 345.927 359.868C345.556 359.941 344.815 359.941 344.815 360.014C344.889 360.674 344.963 361.406 344.963 362.065Z" fill="#574AE2"/>
<path d="M67.3756 254.401C67.4497 270.441 71.3771 285.528 78.0463 300.03C79.2319 302.594 80.0471 305.304 80.714 308.013C81.5291 311.456 80.5658 314.825 79.2319 317.974C77.824 321.416 77.7499 324.712 80.0471 327.862C81.9737 330.572 81.8255 333.648 81.3068 336.724C79.0096 350.347 76.6384 363.969 74.2671 377.665C72.7109 386.454 71.1548 395.17 69.6727 403.959C69.5986 404.252 69.5986 404.618 69.4504 404.838C69.0058 405.35 68.4871 405.717 67.9684 406.156C67.7461 405.57 67.2274 404.984 67.3015 404.472C67.8943 399.857 68.5612 395.316 69.3022 390.702C71.5994 377.08 73.9707 363.53 76.342 349.98C77.083 345.586 77.8981 341.192 78.6391 336.797C79.232 333.721 78.8614 330.718 77.1571 328.008C75.3045 325.079 74.934 321.856 76.4902 318.707C79.6025 312.481 78.6391 306.475 75.8232 300.543C71.4512 291.315 68.413 281.647 66.7827 271.613C65.5971 263.996 65.1525 256.305 65.5971 248.615C65.5971 248.029 66.264 247.517 66.6345 247.004C66.8568 247.59 67.3015 248.102 67.3015 248.688C67.3756 250.666 67.3756 252.57 67.3756 254.401Z" fill="#574AE2"/>
<path d="M171.86 409.159C171.638 409.452 171.267 410.184 170.971 410.111C170.378 410.038 169.563 409.672 169.415 409.232C168.377 406.742 167.414 404.252 166.525 401.688C160.078 383.452 153.705 365.141 147.184 346.978C146.221 344.341 144.738 341.924 143.627 339.361C142.738 337.31 141.7 335.186 141.552 332.989C141.256 329.986 139.922 327.642 138.217 325.445C133.03 318.707 127.843 311.968 122.656 305.157C122.36 304.791 122.063 304.498 121.915 304.132C121.767 303.546 121.767 302.887 121.693 302.227C122.285 302.52 123.026 302.594 123.323 303.033C126.88 307.428 130.363 311.822 133.845 316.29C136.143 319.146 138.292 322.149 140.663 324.932C142.812 327.422 143.775 330.279 144.294 333.428C144.516 334.82 144.813 336.211 145.48 337.456C149.777 345.366 152.371 353.935 155.335 362.285C159.411 373.784 163.561 385.283 167.636 396.781C168.97 400.59 170.23 404.398 171.564 408.207C171.712 408.427 171.786 408.646 171.86 409.159Z" fill="#574AE2"/>
<path d="M240.775 387.26C240.775 386.747 240.701 386.528 240.849 385.868C242.628 376.713 244.48 367.558 246.333 358.403C248.185 349.248 249.964 340.093 251.965 331.011C253.224 325.225 254.632 319.366 256.485 313.726C257.745 309.844 260.412 306.695 264.488 305.084C267.082 304.058 269.601 304.205 272.195 305.23C279.383 308.16 279.383 308.087 284.792 302.594C287.089 300.25 289.461 298.126 292.721 297.101C297.167 295.782 302.28 297.394 304.133 300.909C304.577 301.715 304.874 302.74 304.948 303.692C305.022 304.058 305.022 304.718 304.207 305.011C303.392 305.23 303.095 304.498 303.021 304.205C302.428 301.495 300.872 299.737 298.131 299.078C294.944 298.272 292.128 299.151 289.683 301.129C287.608 302.887 285.681 304.718 283.755 306.695C281.383 309.185 278.642 309.918 275.381 308.599C274.492 308.233 273.603 308.013 272.787 307.574C267.082 304.644 262.487 307.794 259.894 311.309C257.374 314.825 256.411 319 255.596 323.101C252.409 337.896 249.297 352.69 246.111 367.485C244.777 373.784 243.443 380.009 242.109 386.308C241.961 386.967 241.961 387.04 241.664 387.553C241.368 387.992 240.775 387.773 240.775 387.26Z" fill="#574AE2"/>
<path d="M411.878 44.9324C412.026 45.4451 412.174 46.031 412.248 46.5437C412.322 47.1297 412.397 47.7888 412.322 48.3748C412.1 52.5495 413.879 55.1129 418.102 56.2848C423.438 57.7496 425.513 62.2905 426.476 66.9779C427.884 73.6428 428.625 80.4542 429.514 87.1924C430.255 92.7587 430.329 98.3982 432.478 103.672C432.701 104.257 433.071 104.77 433.368 105.356C433.59 105.356 433.812 105.356 433.96 105.283C434.257 103.232 434.701 101.181 434.85 99.0574C435.072 95.7615 435.072 92.4657 435.368 89.1699C435.665 85.2149 437.888 82.505 441.296 80.6739C442.112 80.2345 442.927 79.7218 443.742 79.3556C447.892 77.5246 449.522 74.2288 449.448 69.9808C449.374 65.5131 449.892 61.1919 451.819 57.1636C452.19 56.358 452.56 55.6256 453.079 54.9664C453.375 54.6002 453.968 54.6002 454.413 54.3805C454.487 54.8932 454.709 55.4791 454.561 55.8453C453.968 57.3834 452.931 58.7749 452.56 60.3862C451.967 63.1694 451.374 66.0258 451.449 68.8822C451.597 74.8879 449.151 79.0626 443.668 81.6261C440.63 83.0176 437.888 84.8487 437.221 88.4375C436.924 89.9755 436.85 91.5868 436.924 93.1981C436.924 98.4715 436.554 103.672 434.701 108.725C434.627 109.018 434.553 109.384 434.405 109.604C434.109 109.97 433.664 110.19 433.368 110.483C433.071 110.117 432.701 109.824 432.552 109.458C428.18 100.229 428.254 90.2685 427.291 80.4542C426.698 74.8147 425.957 69.1751 423.734 63.9018C422.326 60.5327 419.955 58.3355 416.398 57.1636C412.545 55.9186 411.137 54.0143 411.063 49.986C410.989 48.3015 411.063 46.6902 411.063 45.0057C411.359 45.0057 411.656 44.9324 411.878 44.9324Z" fill="#574AE2"/>
<path d="M327.253 297.979C327.327 297.394 327.253 296.734 327.401 296.148C329.476 287.36 331.625 278.644 333.774 269.855C334.589 266.559 335.256 263.19 336.293 259.968C336.886 258.063 337.924 256.086 339.257 254.621C341.184 252.35 342.296 252.424 344.889 253.962C347.927 255.72 350.225 255.207 352.077 252.204C352.744 251.105 353.115 249.86 353.485 248.688C354.967 244.147 356.301 239.46 358.079 235.066C358.82 233.235 360.303 231.477 361.785 230.159C364.675 227.595 368.157 228.84 368.824 232.575C369.639 237.483 370.158 242.463 370.751 247.443C370.825 247.883 370.38 248.469 370.158 248.981C369.862 248.542 369.343 248.102 369.269 247.663C368.454 242.976 367.787 238.288 366.898 233.601C366.749 232.722 366.083 231.404 365.416 231.184C364.675 230.964 363.415 231.55 362.674 232.209C360.08 234.48 358.895 237.629 357.857 240.705C356.746 244.001 356.005 247.443 354.819 250.666C354.226 252.35 353.189 253.962 351.929 255.28C349.706 257.551 347.409 257.624 344.741 255.866C341.629 253.815 339.257 254.694 338.294 258.356C335.108 270.88 331.921 283.405 328.661 295.856C328.438 296.661 328.142 297.394 327.846 298.199C327.697 298.053 327.475 297.979 327.253 297.979Z" fill="#574AE2"/>
<path d="M444.335 339.653C444.705 337.163 444.928 334.6 445.372 332.11C447.077 322.295 449.226 312.628 452.56 303.18C453.153 301.568 453.598 299.737 455.672 299.517C457.747 299.225 459.526 300.323 460.489 302.008C461.601 304.058 462.564 306.329 462.934 308.599C463.527 311.822 463.527 315.118 463.75 318.414C463.972 322.076 465.083 325.005 469.011 326.397C471.604 327.276 472.79 329.693 473.235 332.036C474.198 337.896 474.865 343.828 475.532 349.761C475.606 350.2 474.939 350.713 474.569 351.226C474.198 350.713 473.605 350.273 473.605 349.687C473.012 345.147 472.568 340.606 471.975 336.065C471.827 334.673 471.456 333.282 471.012 331.963C470.345 329.839 468.863 328.448 466.862 327.495C464.268 326.25 462.712 324.2 462.342 321.416C461.897 318.78 461.897 316.07 461.526 313.433C461.156 310.65 460.711 307.94 460.044 305.23C459.822 304.205 458.933 303.18 458.192 302.374C456.636 300.689 455.228 300.982 454.487 303.106C453.301 306.475 452.041 309.918 451.226 313.36C449.3 321.636 447.669 329.912 445.891 338.189C445.743 338.701 445.372 339.214 445.15 339.727C444.853 339.8 444.631 339.727 444.335 339.653Z" fill="#574AE2"/>
<path d="M172.527 327.569C173.342 327.862 174.157 327.862 174.602 328.301C175.195 328.814 176.084 329.766 175.936 330.352C175.787 331.084 174.824 332.183 174.157 332.256C171.934 332.329 169.637 332.183 167.414 331.817C165.561 331.451 164.968 329.766 165.932 328.155C166.376 327.349 166.969 326.69 167.784 325.664C166.821 325.518 166.154 325.372 165.487 325.372C163.486 325.298 161.412 325.445 159.411 325.152C158.522 325.005 157.41 324.346 157.04 323.614C156.743 322.955 157.188 321.636 157.781 321.05C160.745 317.974 164.227 315.557 168.674 314.971C169.415 314.898 170.23 315.557 170.971 315.85C170.6 316.509 170.378 317.388 169.785 317.828C168.451 318.78 166.969 319.512 165.561 320.318C165.561 320.464 165.635 320.611 165.635 320.757C167.266 320.904 168.97 320.977 170.6 321.197C174.676 321.636 175.046 322.442 173.268 326.031C172.972 326.397 172.823 326.836 172.527 327.569Z" fill="#574AE2"/>
<path d="M461.971 442.923C461.971 443.948 462.119 445.047 461.897 445.999C461.823 446.585 461.156 447.098 460.785 447.61C460.563 447.098 460.118 446.512 460.044 445.999C459.526 441.898 459.229 437.796 458.562 433.695C458.266 431.717 457.377 429.886 456.562 428.055C455.154 424.906 453.005 424.027 449.67 425.126C445.891 426.371 443.297 428.861 442.408 432.743C441.593 436.258 439.666 438.455 436.258 439.627C432.775 440.799 429.736 442.63 428.625 446.439C428.254 447.61 428.329 448.929 428.106 450.247C428.032 450.687 427.662 451.053 427.365 451.492C427.143 451.126 426.772 450.76 426.772 450.32C426.18 445.926 428.995 441.165 433.442 439.041C433.96 438.822 434.479 438.529 434.998 438.382C438.11 437.503 439.74 435.599 440.555 432.523C441.741 427.835 444.853 424.686 449.67 423.295C453.079 422.269 456.043 423.368 457.97 426.371C460.341 430.252 462.045 436.991 461.971 442.923Z" fill="#574AE2"/>
<path d="M334.292 448.489C334.367 447.977 334.367 447.757 334.441 447.537C335.849 444.534 337.182 441.531 338.665 438.602C339.406 437.137 340.369 435.745 341.48 434.574C344 432.157 347.112 431.717 349.854 433.841C353.707 436.698 357.338 436.185 361.266 434.207C364.23 432.743 367.268 431.204 370.454 430.545C376.531 429.373 381.718 431.497 386.09 435.745C386.461 436.112 386.387 436.991 386.535 437.65C385.942 437.503 385.127 437.503 384.682 437.137C378.902 431.937 372.529 430.765 365.416 434.354C362.97 435.526 360.525 436.624 357.931 437.503C355.115 438.529 352.448 437.869 350.076 436.258C345.852 433.402 343.111 433.914 340.517 438.309C339.035 440.726 338.146 443.509 336.812 446.072C336.367 447.098 336.071 448.343 334.292 448.489Z" fill="#574AE2"/>
<path d="M463.75 197.64C464.046 195.076 464.342 192.513 464.639 189.949C465.306 184.529 465.973 179.183 466.714 173.763C466.862 172.664 467.01 171.493 467.529 170.614C468.122 169.662 469.011 168.343 469.974 168.197C470.938 168.05 472.42 168.856 473.087 169.735C474.198 171.2 474.939 172.884 475.532 174.569C476.421 177.059 476.94 179.622 477.755 182.113C478.57 184.603 479.533 187.166 483.016 187.093C483.387 187.093 484.054 187.752 484.128 188.118C484.35 189.876 484.498 191.634 484.572 193.392C484.572 193.611 484.202 193.904 483.98 194.197C483.683 193.978 483.313 193.758 483.164 193.392C483.016 193.025 483.016 192.586 483.016 192.147C483.09 190.242 482.498 188.997 480.349 188.411C478.051 187.752 477.088 185.628 476.421 183.651C475.31 180.574 474.494 177.352 473.457 174.203C473.087 173.031 472.494 171.932 471.827 170.98C470.863 169.662 469.678 169.808 469.011 171.346C468.64 172.152 468.492 173.104 468.344 173.983C467.232 181.307 466.195 188.704 465.083 196.028C465.009 196.614 464.713 197.2 464.491 197.786C464.268 197.713 463.972 197.64 463.75 197.64Z" fill="#574AE2"/>
<path d="M49.4427 253.815C49.9614 257.331 50.5543 261.213 51.073 265.168C51.5176 268.463 51.2212 271.613 49.4427 274.542C48.183 276.593 46.6268 278.278 44.1814 278.79C43.5886 278.937 42.9217 278.937 42.403 278.79C41.3655 278.497 41.3655 277.838 42.1807 277.179C42.3289 277.033 42.5512 276.886 42.8476 276.813C47.8866 275.421 49.1463 269.782 48.7017 265.461C48.183 261.139 47.8125 256.745 47.2196 252.424C47.1455 251.838 46.5527 251.179 45.9599 250.812C44.0332 249.567 41.9584 248.395 40.0317 247.15C39.513 246.784 39.3648 246.052 38.9943 245.466C39.6612 245.539 40.4022 245.393 40.9209 245.612C43.144 246.711 45.293 248.176 47.5902 249.128C49.7391 249.934 49.8132 251.545 49.4427 253.815Z" fill="#574AE2"/>
<path d="M373.715 60.0933C374.086 60.899 374.53 61.7046 374.827 62.5103C375.345 64.1216 375.642 65.8061 376.309 67.4174C377.494 70.3471 380.236 70.8597 382.459 68.516C384.312 66.6118 384.904 64.1948 385.275 61.7046C385.794 58.6285 386.238 55.5524 386.831 52.5495C387.053 51.4509 387.646 50.3523 388.165 49.327C388.832 48.0086 389.869 47.5692 391.425 47.9354C393.723 48.3748 394.538 47.8621 395.205 45.5917C395.723 43.8339 396.02 42.0029 396.464 40.2451C396.613 39.7324 397.131 39.3662 397.502 39C397.724 39.5127 398.095 40.0254 398.021 40.4648C397.65 42.7353 397.131 45.0057 396.613 47.2762C396.242 48.9607 395.131 49.6199 393.352 49.6199C389.869 49.5467 388.906 50.2058 388.165 53.5749C387.35 57.237 386.979 61.0455 386.016 64.7075C385.497 66.5385 384.312 68.3696 382.978 69.7611C380.532 72.2513 377.272 71.5189 375.642 68.516C375.419 68.0766 375.197 67.6372 375.049 67.1977C374.382 64.9272 373.789 62.6568 373.196 60.3863C373.27 60.3131 373.493 60.1666 373.715 60.0933Z" fill="#574AE2"/>
<path d="M122.508 213.02C122.508 212.507 122.508 212.068 122.508 211.555C122.878 206.428 125.324 204.597 130.363 205.55C132.66 205.989 134.957 206.502 137.18 207.088C137.699 207.234 138.069 207.893 138.588 208.26C137.921 208.406 137.254 208.845 136.661 208.772C134.142 208.406 131.696 207.747 129.177 207.527C126.509 207.307 125.249 208.479 125.027 211.116C124.879 212.8 125.027 214.485 124.953 216.243C124.953 216.829 124.434 217.341 124.138 217.854C123.693 217.415 122.952 216.975 122.804 216.462C122.508 215.364 122.508 214.192 122.359 213.02H122.508Z" fill="#574AE2"/>
<path d="M45.7376 215.803C49.0723 217.048 52.1105 218.074 55.0745 219.392C55.5933 219.612 56.112 221.077 55.8156 221.443C55.4451 222.029 54.2594 222.541 53.6666 222.395C50.9248 221.663 48.3312 220.637 45.6635 219.685C44.6261 219.319 43.811 218.513 44.2556 217.268C44.4779 216.682 45.1448 216.316 45.7376 215.803Z" fill="#574AE2"/>
<path d="M375.568 298.565C375.345 298.199 375.049 297.76 374.975 297.394C374.604 292.34 374.456 287.286 376.457 282.452C377.05 280.988 378.384 279.742 379.569 278.497C379.94 278.131 380.829 277.985 381.496 278.058C382.015 278.131 382.459 278.644 382.904 278.937C382.459 279.23 382.089 279.669 381.644 279.743C379.347 279.962 378.458 281.647 377.791 283.478C376.235 287.653 376.086 292.047 376.235 296.441C376.235 297.101 376.235 297.833 376.235 298.492C376.012 298.492 375.79 298.492 375.568 298.565Z" fill="#574AE2"/>
<path d="M120.581 194.71C119.988 195.076 119.321 195.809 118.506 195.955C117.395 196.175 115.987 194.783 116.357 193.831C116.654 193.099 117.543 192.146 118.284 192.073C119.618 191.78 120.211 192.952 120.581 194.71Z" fill="#574AE2"/>
<path d="M445.669 407.328C445.372 407.694 445.224 407.987 445.002 408.134C443.668 408.866 442.26 409.525 440.852 410.111C440.555 410.258 440.037 410.111 439.889 409.965C439.74 409.818 439.814 409.159 440.037 409.013C441.519 408.207 443.001 407.401 444.557 406.742C444.779 406.669 445.224 407.108 445.669 407.328Z" fill="#574AE2"/>
<path d="M401.8 395.829C402.319 394.877 402.689 394.145 403.134 393.412C403.43 394.218 403.949 395.097 403.949 395.902C403.949 396.781 403.43 397.587 403.134 398.466C402.689 397.66 402.244 396.855 401.8 395.829Z" fill="#574AE2"/>
<path d="M104.279 206.648C110.207 206.795 109.095 205.916 110.429 210.75C111.985 216.389 113.764 221.956 115.542 227.522C115.839 228.547 116.505 229.499 117.098 230.378C117.913 231.55 119.099 231.99 120.655 231.77C129.918 230.232 139.107 228.474 148.37 227.375C157.558 226.277 166.821 225.691 176.01 225.178C183.198 224.812 190.46 224.885 197.648 224.958C202.983 225.032 208.244 225.398 213.58 225.618C214.098 225.618 215.062 225.984 215.136 226.277C215.21 226.863 214.914 227.595 214.543 228.035C213.728 228.913 212.765 229.573 211.949 230.305C208.615 233.235 208.541 236.897 211.875 239.753C213.432 241.145 215.136 242.39 216.914 243.488C222.768 247.004 225.214 252.424 225.955 258.796C226.029 259.601 226.103 260.407 226.177 261.139C226.325 263.776 224.473 265.021 222.101 263.849C220.545 263.117 219.286 263.922 219.286 265.68C219.286 267.072 219.508 268.463 219.286 269.855C218.841 272.931 216.396 273.883 213.95 271.979C212.616 270.954 211.357 271.466 210.69 273.224C210.393 274.103 210.319 275.128 209.875 276.007C208.911 277.838 207.652 277.911 206.095 276.52C205.503 276.007 204.465 275.421 203.946 275.641C203.279 275.934 202.761 276.886 202.316 277.619C201.353 279.23 200.834 281.134 199.574 282.452C197.722 284.576 195.869 283.99 194.98 281.354C192.905 275.202 188.163 271.832 182.457 269.562C176.677 267.292 170.6 266.779 164.45 266.925C155.335 267.072 146.221 267.585 137.106 267.878C126.509 268.244 116.061 267.145 105.835 264.069C98.4986 261.872 92.1258 258.283 86.8645 252.863C82.5666 248.469 79.4543 243.122 77.083 237.483C75.0081 232.649 73.2296 227.742 71.2289 222.834C70.6361 221.37 70.9325 220.417 72.2663 219.465C77.824 215.291 83.4558 211.262 90.1991 209.065C95.0158 207.6 99.9806 206.721 104.279 206.648Z" fill="#F5DF4D"/>
<path d="M228.4 251.472C227.659 250.226 226.918 249.201 226.399 248.176C224.25 244.074 220.545 241.731 217.063 239.021C214.914 237.336 214.765 237.336 216.84 235.578C232.179 222.102 247.667 208.699 262.932 195.076C281.754 178.304 300.502 161.459 319.324 144.613C321.473 142.709 323.548 140.658 325.623 138.681C326.512 137.875 327.031 137.948 327.475 139.047C328.661 142.123 330.439 144.833 333.033 146.884C334.293 147.909 333.329 148.568 332.662 149.227C326.586 155.453 320.51 161.752 314.359 167.904C303.466 178.89 292.499 189.803 281.606 200.716C277.975 204.305 274.27 207.82 270.639 211.409C269.749 212.361 269.082 212.581 267.897 211.702C265.081 209.578 261.376 210.603 259.671 213.899C259.153 214.998 258.486 215.364 257.3 215.437C254.929 215.584 253.299 216.902 252.409 219.099C251.965 220.125 251.52 220.637 250.26 220.564C246.259 220.417 243.962 222.248 243.443 226.204C243.221 227.742 242.628 228.035 241.22 228.035C236.996 228.035 235.144 230.159 236.107 234.26C236.551 236.237 237.515 238.142 238.552 239.9C239.145 240.998 239.367 241.584 238.33 242.536C235.885 244.807 233.513 247.297 231.142 249.641C230.327 250.3 229.438 250.812 228.4 251.472Z" fill="#F5DF4D"/>
<path d="M283.162 215.877C283.532 225.251 278.79 231.55 271.009 235.871C264.71 239.387 257.967 241.731 250.705 242.097C245.37 242.316 240.405 240.046 239.071 234.04C238.478 231.477 239.145 230.744 241.739 230.891C242.406 230.964 243.072 231.111 243.739 231.257C246.185 231.843 246.926 231.111 246.555 228.62C246.407 227.668 246.333 226.643 246.629 225.764C247.296 223.201 249.89 222.615 251.817 224.372C252.409 224.885 253.224 225.105 253.891 225.398C254.188 224.592 254.558 223.86 254.781 222.981C255.003 221.956 254.855 220.857 255.299 219.978C256.114 218.074 257.819 217.854 259.597 218.879C260.264 219.246 261.079 219.246 261.894 219.465C262.043 218.66 262.339 217.854 262.265 217.122C262.043 215.51 262.265 214.192 263.969 213.533C265.6 212.874 266.489 213.972 267.378 215.071C268.86 216.975 269.972 219.099 271.75 220.637C273.084 221.809 275.159 222.175 276.937 222.688C277.308 222.834 277.975 222.175 278.493 221.882C278.049 221.37 277.752 220.784 277.234 220.417C275.603 219.392 273.751 218.66 272.195 217.561C271.083 216.829 271.157 215.803 272.195 214.778C274.64 212.507 277.085 210.091 279.457 207.747C280.494 206.721 281.235 206.721 281.68 208.186C282.421 210.676 283.088 213.167 283.755 215.73C283.532 215.877 283.384 215.877 283.162 215.877Z" fill="#F5DF4D"/>
<path d="M337.924 145.346C336.886 144.76 335.923 144.394 335.182 143.734C332.292 141.171 330.587 138.022 330.143 134.213C329.92 132.309 330.439 130.551 331.773 129.159C334.144 126.596 336.516 124.033 339.035 121.616C339.331 121.323 340.517 121.249 340.814 121.542C343.852 124.765 347.557 127.328 349.928 131.283C350.595 132.382 350.743 133.261 349.854 134.213C346.816 137.436 343.852 140.658 340.814 143.808C339.998 144.467 338.961 144.833 337.924 145.346Z" fill="#F5DF4D"/>
<path d="M173.713 292.926C169.785 292.926 167.34 289.776 167.784 285.968C168.155 283.038 169.785 280.914 171.712 278.864C173.564 276.959 175.565 275.055 177.566 273.297C178.011 272.858 178.974 272.418 179.493 272.565C184.235 274.03 188.385 276.52 190.756 281.061C191.053 281.647 190.904 282.965 190.46 283.258C185.717 286.847 181.049 290.509 175.269 292.486C174.676 292.779 174.009 292.853 173.713 292.926Z" fill="#F5DF4D"/>
<path d="M371.492 91.8066C372.529 92.3925 373.715 92.6855 374.308 93.3446C376.16 95.4686 377.865 97.6658 379.495 99.9363C380.458 101.255 380.236 102.646 378.902 103.672C376.531 105.503 374.086 107.26 371.64 109.018C370.751 109.604 368.824 108.652 368.306 107.48C367.787 106.455 367.268 105.429 366.527 104.624C363.934 101.621 363.785 99.7166 366.231 96.494C367.12 95.3954 367.935 94.2235 368.972 93.2714C369.639 92.6855 370.603 92.3193 371.492 91.8066Z" fill="#F5DF4D"/>
<path d="M105.39 327.203C107.613 327.203 109.169 327.203 110.8 327.203C110.8 328.887 110.8 330.645 110.8 332.842C109.836 331.524 109.318 330.498 108.577 329.693C107.761 328.887 106.724 328.228 105.39 327.203Z" fill="#F5DF4D"/>
<path d="M451.967 216.609C451.819 223.347 449.448 229.499 446.335 235.359C442.853 241.95 437.962 247.517 433.071 253.083C429.144 257.697 424.327 261.213 419.288 264.289C412.248 268.61 404.764 272.345 395.946 271.906C388.832 271.54 383.645 266.339 383.348 259.308C383.126 253.156 385.127 247.59 387.794 242.17C396.242 224.958 409.21 212.434 427.069 204.89C431.367 203.059 436.035 201.888 440.778 202.547C447.817 203.499 451.819 208.04 451.967 215.071C451.967 215.584 451.967 216.096 451.967 216.609ZM445.076 217.708C444.927 216.755 444.927 215.437 444.631 214.192C444.483 213.606 443.89 213.167 443.52 212.654C443.371 213.24 443.001 213.899 443.075 214.412C443.816 218.953 443.001 223.274 441.519 227.522C438.555 235.725 433.367 242.536 427.217 248.395C422.326 253.083 416.769 257.111 410.173 259.382C407.728 260.187 405.431 261.432 403.06 262.384C402.17 262.751 401.133 262.751 400.17 263.044C399.799 263.19 399.577 263.849 399.354 264.289C399.799 264.508 400.392 264.948 400.762 264.801C403.801 263.922 407.061 263.263 409.877 261.945C413.879 260.114 417.88 257.99 421.437 255.427C425.216 252.717 428.625 249.494 431.885 246.198C435.813 242.243 438.999 237.556 441.371 232.575C443.594 227.961 445.076 223.127 445.076 217.708ZM392.908 262.458C392.463 261.286 392.092 260.26 391.648 259.308C391.5 259.015 390.907 258.722 390.61 258.796C390.314 258.869 389.943 259.382 389.869 259.674C389.721 260.773 391.277 262.311 392.908 262.458Z" fill="#F5DF4D"/>
<path d="M132.586 155.966C131.845 155.16 131.178 154.354 130.437 153.475C127.547 150.106 124.657 146.81 121.767 143.441C120.359 141.83 119.47 140.219 120.359 137.948C120.729 137.069 120.655 136.044 120.729 135.092C120.803 133.261 120.952 131.576 121.841 129.819C122.508 128.427 122.211 126.523 122.211 124.838C122.211 124.179 121.915 123.447 122.063 122.861C122.285 121.909 122.804 120.956 123.175 120.004C124.064 120.517 125.027 121.03 125.842 121.689C126.287 122.055 126.287 122.861 126.658 123.3C127.324 124.033 128.065 124.985 128.881 125.058C129.399 125.131 130.437 123.886 130.659 123.08C131.4 120.371 130.881 117.661 129.992 115.024C129.103 112.534 129.177 112.461 131.771 112.314C133.549 112.241 137.254 113.12 139.033 113.559C141.626 114.218 144.294 114.511 147.036 114.804C148.37 114.951 149.259 115.317 149.333 117.001C148.74 117.001 148.221 117.075 147.703 117.075C144.813 117.294 143.553 119.272 144.59 121.909C144.813 122.421 145.035 122.934 145.405 123.373C145.998 124.252 146.221 124.985 144.961 125.644C144.664 125.79 144.59 126.303 144.442 126.669C144.887 126.816 145.331 127.109 145.702 127.109C147.925 126.816 148.592 125.351 147.406 123.447C146.962 122.788 146.369 122.202 146.146 121.469C145.924 120.664 145.85 119.345 146.295 119.052C147.184 118.466 148.444 118.393 149.555 118.173C149.629 118.759 149.926 119.492 149.703 119.858C148.962 120.956 148.962 121.689 150.074 122.495C150.444 122.714 150.741 123.3 150.741 123.666C150.963 129.672 147.48 136.41 140.737 137.655C137.551 138.241 134.364 137.875 131.252 136.923C130.437 136.703 129.399 136.044 128.881 137.289C128.436 138.461 129.177 139.12 130.14 139.56C131.474 140.146 132.882 140.658 134.216 141.317C134.661 141.537 135.179 142.27 135.179 142.709C135.031 145.565 134.809 148.422 134.512 151.278C134.29 152.889 133.845 154.501 133.475 156.112C133.179 155.966 132.882 155.966 132.586 155.966ZM136.958 117.954C138.44 118.1 139.848 118.32 141.256 118.393C141.478 118.393 141.849 118.1 141.923 117.88C141.997 117.661 141.849 117.294 141.626 117.148C140.663 116.196 137.995 116.635 136.958 117.954ZM139.7 122.788C140.218 121.835 140.737 121.249 140.737 120.737C140.737 120.371 140.07 120.004 139.625 119.638C139.181 120.151 138.588 120.59 138.44 121.103C138.366 121.396 139.033 121.909 139.7 122.788ZM140.218 130.624C140.07 128.647 138.736 127.988 136.735 128.72C138.143 129.452 139.181 130.038 140.218 130.624Z" fill="#F5DF4D"/>
<path d="M333.107 313.653C343.555 313.58 350.595 314.678 357.042 318.121C357.264 318.267 357.487 318.34 357.709 318.487C360.525 320.245 360.599 320.318 359.487 323.467C356.894 330.718 354.374 337.969 351.632 345.147C351.188 346.392 350.225 347.637 349.187 348.369C341.48 353.862 332.81 357.305 323.622 359.575C315.248 361.699 306.726 362.505 298.13 361.552C293.462 361.04 289.016 359.941 285.014 357.451C278.493 353.349 276.863 347.051 280.42 340.386C283.829 333.867 289.238 329.253 295.315 325.445C307.838 317.608 321.547 313.799 333.107 313.653ZM330.365 327.129C332.366 327.129 334.515 328.081 335.108 329.473C335.923 331.231 335.478 332.842 334.441 334.307C333.551 335.552 332.44 336.577 331.328 337.676C330.513 338.555 329.92 339.434 330.661 340.606C331.477 341.851 332.588 341.704 333.774 341.265C337.108 339.873 339.776 337.603 340.517 334.16C341.184 330.938 342.444 329.107 345.927 328.814C347.112 328.667 348.224 327.642 348.076 326.25C347.927 324.786 346.89 323.687 345.408 323.687C343.926 323.614 342.296 323.76 340.888 324.2C339.628 324.566 338.739 324.566 337.701 323.76C332.885 320.171 326.289 320.684 321.991 324.859C318.805 327.935 317.397 331.89 316.286 335.991C315.841 337.676 315.47 339.434 314.804 341.045C314.063 342.73 312.655 343.682 310.654 343.608C308.801 343.535 307.986 342.217 307.393 340.752C307.023 340.02 306.875 339.141 306.726 338.262C306.504 337.163 306.43 336.065 306.282 334.966C306.059 333.355 305.096 332.403 303.466 332.256C301.836 332.183 300.428 332.842 299.909 334.38C299.464 335.625 299.316 337.017 299.39 338.335C299.464 339.434 299.168 339.8 298.13 340.093C296.574 340.679 295.018 341.338 293.684 342.217C292.573 342.949 291.906 344.268 292.795 345.366C293.462 346.172 294.796 346.758 295.833 346.758C297.167 346.831 298.501 346.245 299.761 345.952C300.946 345.659 301.91 345.732 302.873 346.831C306.504 350.933 311.914 351.445 316.582 348.516C320.287 346.172 321.176 342.363 322.14 338.555C322.807 335.845 323.696 333.135 324.807 330.645C325.919 328.594 327.846 327.276 330.365 327.129ZM310.061 355.693C322.955 355.254 334.885 351.738 345.334 344.194C350.15 340.752 354.004 336.358 356.005 330.718C356.153 330.279 355.93 329.619 355.856 329.107C355.412 329.4 354.819 329.693 354.597 330.059C352.225 336.211 347.705 340.606 342.296 343.975C329.105 352.251 314.729 355.107 299.316 352.544C297.315 352.178 295.315 351.811 293.314 351.518C292.721 351.445 292.054 351.885 291.461 352.104C291.98 352.544 292.425 353.057 292.943 353.423C293.24 353.642 293.61 353.642 293.981 353.716C299.242 355.4 304.577 355.84 310.061 355.693ZM287.682 345.732C287.534 345.659 287.46 345.586 287.312 345.513C287.312 345.147 287.386 344.707 287.312 344.414C287.089 343.901 286.719 343.462 286.422 343.023C285.978 343.389 285.533 343.755 285.163 344.194C284.94 344.487 284.866 344.927 285.014 345.22C285.385 346.099 285.904 346.978 286.274 347.783C286.793 347.124 287.237 346.465 287.682 345.732Z" fill="#F5DF4D"/>
<path d="M445.076 217.708C445.076 223.201 443.594 228.034 441.371 232.649C438.925 237.702 435.813 242.316 431.885 246.271C428.625 249.567 425.142 252.79 421.437 255.5C417.88 258.063 413.879 260.114 409.877 262.018C406.987 263.337 403.801 263.996 400.762 264.875C400.392 264.948 399.799 264.508 399.354 264.362C399.651 263.922 399.799 263.263 400.17 263.117C401.059 262.751 402.096 262.751 403.06 262.458C405.431 261.506 407.728 260.334 410.173 259.455C416.769 257.184 422.326 253.156 427.217 248.469C433.368 242.609 438.555 235.798 441.519 227.595C443.075 223.347 443.816 219.026 443.075 214.485C443.001 213.899 443.371 213.313 443.52 212.727C443.89 213.24 444.483 213.679 444.631 214.265C444.927 215.437 444.927 216.682 445.076 217.708Z" fill="#574AE2"/>
<path d="M392.908 262.458C391.277 262.311 389.721 260.773 389.944 259.675C390.018 259.308 390.314 258.869 390.685 258.796C390.981 258.722 391.574 259.015 391.722 259.308C392.092 260.26 392.463 261.286 392.908 262.458Z" fill="#574AE2"/>
<path d="M136.958 117.954C137.921 116.635 140.663 116.196 141.626 117.148C141.774 117.294 141.997 117.734 141.923 117.88C141.849 118.1 141.478 118.393 141.256 118.393C139.848 118.32 138.44 118.173 136.958 117.954Z" fill="#574AE2"/>
<path d="M139.699 122.787C139.032 121.909 138.366 121.396 138.514 121.103C138.662 120.517 139.255 120.078 139.699 119.638C140.07 120.004 140.811 120.371 140.811 120.737C140.737 121.323 140.218 121.835 139.699 122.787Z" fill="#574AE2"/>
<path d="M140.218 130.624C139.181 130.038 138.069 129.452 136.735 128.72C138.81 127.988 140.07 128.72 140.218 130.624Z" fill="#574AE2"/>
<path d="M330.365 327.129C327.846 327.203 325.919 328.521 324.956 330.718C323.844 333.282 322.955 335.918 322.288 338.628C321.325 342.437 320.435 346.245 316.73 348.589C312.062 351.592 306.726 351.006 303.021 346.904C302.058 345.879 301.095 345.732 299.909 346.025C298.575 346.318 297.241 346.904 295.982 346.831C294.944 346.758 293.536 346.172 292.943 345.439C292.054 344.341 292.795 342.949 293.833 342.29C295.166 341.411 296.723 340.752 298.279 340.166C299.242 339.8 299.613 339.507 299.538 338.408C299.464 337.09 299.613 335.698 300.057 334.453C300.576 332.915 301.984 332.183 303.614 332.329C305.244 332.403 306.208 333.428 306.43 335.039C306.578 336.138 306.652 337.237 306.875 338.335C307.023 339.141 307.171 340.02 307.542 340.825C308.208 342.217 308.95 343.608 310.802 343.682C312.803 343.755 314.211 342.73 314.952 341.118C315.693 339.507 315.989 337.749 316.434 336.065C317.545 331.963 318.953 328.008 322.14 324.932C326.438 320.684 333.033 320.171 337.849 323.833C338.961 324.639 339.776 324.639 341.036 324.273C342.444 323.833 344.074 323.687 345.556 323.76C347.038 323.833 348.076 324.859 348.224 326.324C348.372 327.788 347.335 328.814 346.075 328.887C342.666 329.253 341.406 331.011 340.665 334.234C339.924 337.676 337.257 339.946 333.922 341.338C332.736 341.851 331.625 341.997 330.81 340.679C330.069 339.507 330.662 338.628 331.477 337.749C332.514 336.651 333.7 335.625 334.589 334.38C335.626 332.915 336.145 331.304 335.256 329.546C334.515 328.155 332.366 327.129 330.365 327.129Z" fill="#574AE2"/>
<path d="M310.061 355.693C304.578 355.84 299.242 355.327 293.981 353.789C293.61 353.716 293.24 353.642 292.943 353.496C292.425 353.13 291.906 352.617 291.461 352.178C292.054 351.958 292.721 351.518 293.314 351.592C295.315 351.811 297.316 352.251 299.316 352.617C314.73 355.181 329.105 352.324 342.296 344.048C347.779 340.606 352.225 336.211 354.597 330.132C354.745 329.693 355.412 329.473 355.856 329.18C355.931 329.693 356.153 330.352 356.005 330.791C354.004 336.431 350.151 340.825 345.334 344.268C334.885 351.811 322.955 355.327 310.061 355.693Z" fill="#574AE2"/>
<path d="M287.682 345.732C287.238 346.465 286.793 347.124 286.348 347.856C285.904 346.978 285.459 346.172 285.089 345.293C284.94 345 285.014 344.487 285.237 344.268C285.533 343.828 286.052 343.462 286.497 343.096C286.793 343.535 287.163 343.975 287.386 344.487C287.534 344.78 287.386 345.22 287.386 345.586C287.46 345.586 287.608 345.659 287.682 345.732Z" fill="#574AE2"/>
<path d="M325.919 262.165C325.919 260.627 321.621 258.21 319.991 256.086C318.36 253.962 315.989 250.666 314.878 250.666C313.766 250.666 312.062 256.086 310.283 258.869C308.505 261.725 306.059 263.044 306.059 264.582C306.059 266.12 309.32 267.951 311.247 270.514C313.173 273.078 311.321 277.619 314.359 278.131C317.397 278.571 318.731 272.272 320.509 269.416C322.288 266.559 325.919 263.63 325.919 262.165Z" fill="#F5DF4D"/>
<path d="M284.199 275.934C284.199 275.934 283.014 273.737 282.273 274.469C281.532 275.202 282.273 277.179 282.273 277.179C282.273 277.179 283.977 281.134 284.347 282.013C284.718 282.892 285.459 283.771 286.496 283.478C287.46 283.112 287.163 281.94 287.756 280.768C288.349 279.596 290.943 277.106 291.758 276.666C292.573 276.227 293.462 276.007 293.981 275.495C294.425 274.982 292.573 273.004 292.573 273.004L287.682 266.046C287.682 266.046 286.2 264.215 285.385 265.021C284.57 265.827 284.199 267.072 283.31 268.39C282.495 269.709 280.939 272.125 280.939 272.125C280.939 272.125 280.124 273.004 279.901 274.249C279.679 275.495 280.865 275.202 281.309 274.689C281.754 274.176 283.31 272.492 284.496 270.734C285.681 268.976 285.904 268.097 285.904 268.097L290.72 274.616L288.201 276.813L285.755 279.45L284.199 275.934Z" fill="#F5DF4D"/>
<path d="M265.822 342.437C265.822 342.437 265.155 341.631 264.785 341.631C264.414 341.631 263.747 341.997 263.747 341.997C263.747 341.997 262.932 342.217 262.561 341.631C262.191 341.045 263.525 340.459 263.525 340.459C263.525 340.459 264.785 339.873 265.6 340.093C266.341 340.313 267.082 341.265 267.082 341.265C267.082 341.265 267.526 341.851 267.082 342.437C266.637 342.949 265.822 342.437 265.822 342.437Z" fill="#F5DF4D"/>
<path d="M263.006 334.453C263.228 335.479 264.859 335.259 264.859 335.259C264.859 335.259 268.267 335.259 269.601 332.476C270.935 329.766 270.49 325.811 270.49 325.811C270.49 325.811 273.306 327.715 276.567 326.25C279.827 324.786 280.791 321.929 280.791 321.929C280.791 321.929 281.013 319.439 279.975 319.439C278.938 319.439 278.716 321.27 278.716 321.27C278.716 321.27 277.975 323.687 275.455 324.493C272.936 325.298 271.157 323.907 271.157 323.907C271.157 323.907 269.305 322.149 268.712 322.295C268.119 322.442 268.49 325.811 268.49 325.811C268.49 325.811 268.86 330.572 267.749 331.817C266.637 333.062 265.007 333.135 265.007 333.135C265.007 333.135 262.784 333.428 263.006 334.453Z" fill="#F5DF4D"/>
<path d="M325.919 302.374C325.919 302.374 324.733 300.689 323.992 301.056C323.251 301.495 323.77 302.96 323.77 302.96L324.807 304.937C324.807 304.937 325.4 306.182 326.438 305.816C327.475 305.45 326.734 304.351 326.734 304.351L325.919 302.374Z" fill="#F5DF4D"/>
<path d="M337.257 301.056C337.257 301.056 336.219 302.52 335.33 301.934C334.441 301.349 335.33 300.25 335.33 300.25L339.628 293.805C339.628 293.805 340.369 292.853 340.888 292.633C341.406 292.486 342.37 293.731 342.37 293.731C342.37 293.731 345.186 301.056 349.335 300.47C353.485 299.81 354.448 296.002 354.448 296.002C354.448 296.002 355.189 294.171 355.708 294.171C356.227 294.171 357.264 295.416 357.264 295.416C357.264 295.416 359.487 298.346 361.562 298.565C363.637 298.785 364.823 298.199 364.823 298.199C364.823 298.199 366.824 297.027 367.49 297.247C368.157 297.54 368.75 299.371 368.75 299.371C368.75 299.371 369.565 301.422 370.455 302.96C371.418 304.425 372.826 305.157 372.826 305.157C372.826 305.157 374.753 305.67 374.086 306.695C373.419 307.72 371.788 306.988 371.788 306.988C371.788 306.988 370.084 306.475 368.454 304.205C366.824 301.934 366.453 300.03 366.453 300.03C366.453 300.03 364.008 301.202 361.118 300.836C358.228 300.47 355.93 296.954 355.93 296.954C355.93 296.954 354.374 302.667 349.113 302.52C343.852 302.374 340.962 295.782 340.962 295.782L337.257 301.056Z" fill="#F5DF4D"/>
<path d="M388.906 219.392C387.943 219.465 387.054 219.465 386.09 219.539C384.682 219.612 384.682 221.809 386.09 221.736C387.054 221.663 387.943 221.663 388.906 221.589C390.388 221.516 390.388 219.319 388.906 219.392Z" fill="#F5DF4D"/>
<path d="M392.76 211.555C391.722 210.969 390.685 210.383 389.647 209.724C388.462 208.992 387.35 210.823 388.536 211.629C389.573 212.288 390.611 212.874 391.648 213.46C392.908 214.119 394.019 212.288 392.76 211.555Z" fill="#F5DF4D"/>
<path d="M458.044 197.859C456.265 196.541 455.228 194.93 454.709 192.806C454.487 191.854 453.153 191.78 452.708 192.513C448.558 198.518 445.594 188.704 444.335 186.287C443.89 185.482 442.482 185.628 442.334 186.58C441.296 191.487 434.85 191.854 430.774 190.975C427.662 190.315 426.105 187.752 423.438 186.287C422.845 185.994 421.956 186.214 421.808 186.946C421.437 188.777 420.548 191.78 418.769 192.732C416.176 194.197 414.323 192.659 412.026 191.854C411.581 191.707 410.989 191.927 410.766 192.366C409.507 194.563 408.321 197.786 405.95 199.031C403.282 200.569 400.392 199.324 397.724 198.299C396.835 197.933 396.242 198.958 396.39 199.617C396.835 202.547 397.502 205.257 398.613 207.967C399.132 209.285 401.281 208.699 400.762 207.381C399.947 205.257 399.354 203.206 398.91 201.082C401.429 201.961 404.097 202.547 406.617 201.448C409.358 200.203 410.84 196.98 412.248 194.344C414.768 195.442 416.398 196.98 419.288 195.149C421.437 193.758 422.845 191.487 423.586 189.07C425.068 190.242 426.328 191.707 428.18 192.439C430.255 193.318 432.775 193.465 434.998 193.392C438.332 193.245 441.741 192.293 443.445 189.656C444.409 192.146 445.298 194.783 447.817 195.955C449.744 196.834 451.745 196.394 453.227 195.223C453.968 197.054 455.228 198.518 456.932 199.764C458.044 200.642 459.155 198.738 458.044 197.859Z" fill="#F5DF4D"/>
<path d="M459.378 132.162C457.451 129.159 455.524 126.157 453.672 123.08C453.227 122.348 452.19 122.348 451.745 123.08C450.337 125.644 448.855 128.134 447.447 130.697C446.78 131.943 448.633 133.041 449.374 131.796C450.485 129.819 451.671 127.768 452.782 125.79C454.19 128.061 455.598 130.258 457.006 132.528C455.376 134.067 454.339 136.264 453.449 138.388C452.412 136.41 451.152 134.579 449.522 132.895C448.559 131.869 446.928 133.407 447.966 134.433C450.041 136.557 451.523 138.9 452.486 141.684C452.856 142.709 454.264 142.709 454.635 141.684C455.524 139.193 456.71 135.312 459.007 133.7C459.452 133.334 459.674 132.748 459.378 132.162Z" fill="#F5DF4D"/>
<path d="M422.104 142.709C418.917 138.827 415.805 134.799 412.471 131.064C411.285 129.672 409.803 128.647 408.321 130.405C407.358 131.503 407.061 133.554 406.542 134.872C405.801 136.776 405.209 138.9 404.171 140.658C403.134 142.416 401.503 143.002 400.244 144.467C399.651 145.126 399.503 145.712 399.651 146.517C399.947 147.543 401.059 148.202 401.726 148.934C403.356 150.692 404.468 152.743 405.431 154.867C406.172 156.551 406.691 161.385 408.84 162.045C411.285 162.85 412.174 158.529 412.841 157.137C414.842 152.67 416.472 147.323 421.141 144.906C421.363 144.833 421.437 144.686 421.585 144.54C422.252 144.32 422.623 143.441 422.104 142.709Z" fill="#F5DF4D"/>
<path d="M395.723 248.102C394.908 246.857 394.908 245.393 395.872 244.001C397.057 242.243 399.132 241.291 400.54 241.95C400.837 242.097 400.985 242.097 401.355 241.73C403.504 239.167 405.727 236.677 407.876 234.187C407.95 234.113 408.024 234.04 408.099 233.894C407.283 233.235 406.913 232.356 407.358 231.037C407.58 230.305 408.024 229.499 408.543 228.84C409.951 227.229 411.655 226.936 413.36 227.888C415.731 225.178 418.102 222.395 420.474 219.685C419.584 218.074 419.807 216.316 421.141 214.851C422.474 213.386 424.179 212.947 425.661 213.679C426.55 212.654 427.662 211.775 428.773 211.702C429.44 211.702 430.181 211.848 430.626 212.214C431.811 213.093 431.441 214.705 429.588 217.488C429.959 217.854 430.403 218.147 430.774 218.513C431.811 219.612 433.145 220.491 433.886 221.809C437.073 227.449 432.034 237.995 423.141 240.925C422.993 240.998 422.845 240.998 422.623 241.071C422.549 241.438 422.474 241.731 422.4 242.023C421.437 246.491 418.992 250.3 414.842 253.083C410.692 255.939 406.913 256.379 403.652 254.694C402.985 254.328 402.541 253.815 401.948 253.376C401.281 252.79 400.54 252.204 399.799 251.618C398.762 252.79 397.576 253.669 396.316 253.669C395.723 253.669 395.056 253.522 394.686 253.156C393.723 252.057 394.093 250.446 395.723 248.102ZM424.623 223.054C422.252 225.837 419.881 228.547 417.435 231.33C418.473 232.209 419.362 233.015 420.4 233.82C421.956 235.066 424.846 234.26 426.772 232.063C428.699 229.865 429.07 226.936 427.662 225.544C426.624 224.739 425.661 223.933 424.623 223.054ZM412.174 237.409C409.877 240.119 407.506 242.829 405.06 245.612C406.098 246.491 407.061 247.37 408.099 248.176C409.581 249.274 412.248 248.469 414.323 246.345C416.027 244.587 416.694 241.73 415.583 240.339C414.62 239.24 413.36 238.435 412.174 237.409Z" fill="#574AE2"/>
</svg>
