<svg width="512" height="512" viewBox="0 0 512 512" fill="none" xmlns="http://www.w3.org/2000/svg">
<path d="M372.061 148.642C371.723 150.738 370.574 152.631 369.83 154.592C368.478 157.837 367.193 161.082 365.841 164.327C364.151 168.181 362.731 172.102 361.108 175.956C359.08 180.621 357.187 185.353 355.159 190.086C354.348 191.911 353.807 193.804 351.846 194.886C350.494 195.63 349.142 195.292 347.857 195.495C347.114 195.63 346.302 195.495 345.491 195.495C344.612 195.495 344.139 196.035 344.545 196.847C345.356 198.537 345.356 200.43 345.559 202.255C346.843 211.247 347.384 220.239 346.911 229.298C346.573 235.789 346.032 242.279 344.883 248.702C344.207 252.623 343.598 256.544 342.381 260.398C341.502 263.17 341.232 266.145 340.353 268.984C338.73 274.19 336.837 279.261 334.065 283.993C333.322 285.21 333.592 285.21 334.741 285.481C344.883 287.576 353.739 292.174 361.108 299.475C365.165 303.532 368.004 308.4 370.236 313.741C372.061 318.135 373.413 322.665 374.698 327.194C375.374 329.628 375.712 332.197 376.253 334.699C377.537 340.784 379.43 346.598 383.149 351.669C387.543 357.618 393.087 362.418 398.09 367.759C403.972 373.979 408.907 380.943 412.896 388.515C415.533 393.518 417.629 398.656 419.319 403.997C420.333 407.174 421.009 410.555 421.685 413.868C422.834 419.209 422.834 424.685 423.375 430.093C423.51 431.851 423.172 433.677 422.902 435.435C422.699 436.787 421.617 436.854 420.536 436.787C419.386 436.719 418.913 436.111 418.913 434.961C418.913 431.987 419.048 429.012 418.846 426.037C418.575 421.778 417.967 417.518 417.088 413.327C416.276 409.406 415.33 405.552 414.045 401.833C412.423 397.033 410.259 392.504 407.893 388.041C402.687 378.441 395.318 370.531 387.476 362.959C382.878 358.564 378.754 353.697 375.982 347.882C374.495 344.84 373.413 341.663 372.805 338.282C372.129 334.699 371.114 331.251 370.371 327.668C369.627 323.949 368.343 320.366 366.99 316.783C364.354 310.09 360.635 304.14 355.091 299.475C351.373 296.298 347.181 293.999 342.719 292.038C339.136 290.416 335.35 289.131 331.429 289.402C326.764 289.74 322.91 291.768 321.017 296.433C320.747 297.041 320.814 297.785 320.814 298.461C320.679 300.76 319.259 301.639 317.231 300.557C313.986 298.867 309.997 299.949 308.374 303.194C307.698 304.546 306.752 306.101 307.901 307.859C308.374 308.602 308.104 309.616 307.293 310.225C306.549 310.833 305.67 310.901 304.859 310.293C299.518 306.033 293.163 311.442 293.027 316.377C292.96 318.473 293.095 320.569 293.163 322.665C293.23 324.22 292.622 324.896 291.067 325.301C288.295 326.113 285.388 325.707 282.616 326.383C279.371 327.127 275.855 330.507 275.585 333.82C275.517 334.834 274.909 335.713 275.247 336.795C275.99 339.431 277.342 340.446 280.655 340.648C282.143 340.716 283.698 340.784 285.185 340.648C291.472 340.243 296.07 343.353 299.923 347.815C303.371 351.804 304.724 356.536 303.912 361.674C302.966 367.894 299.585 372.559 293.636 375.196C289.579 377.021 285.253 378.171 281.467 380.605C279.303 381.957 277.207 383.444 276.937 386.216C276.531 389.935 278.221 391.828 282.075 393.45C285.32 394.802 288.701 395.343 292.216 395.546C295.326 395.749 298.504 395.884 301.614 396.29C311.079 397.507 320.138 399.873 327.913 405.62C334.065 410.217 338.325 416.166 341.164 423.198C343.26 428.336 344.477 433.609 345.288 439.085C346.64 447.604 346.438 456.055 346.505 464.573C346.505 465.858 345.964 466.467 344.747 466.467C343.463 466.399 343.125 465.655 343.125 464.438C343.125 459.841 343.192 455.176 342.922 450.579C342.719 446.522 342.381 442.398 341.705 438.342C340.488 431.446 338.663 424.753 335.012 418.668C331.023 412.042 325.412 407.242 318.448 404.2C314.324 402.374 309.997 401.293 305.467 400.549C301.005 399.805 296.475 399.67 291.946 399.129C286.672 398.521 281.331 398.047 276.869 394.667C275.111 393.315 273.827 391.692 273.354 389.461C273.016 387.636 272.407 387.501 270.582 388.109C267.742 389.056 264.903 389.732 261.995 390.475C258.75 391.354 255.37 391.827 251.99 392.233C248.542 392.706 245.094 392.571 241.578 391.963C236.034 391.016 231.978 387.974 228.665 383.715C225.825 379.996 224.135 375.872 224 371.14C224 370.193 223.729 369.855 222.783 369.99C219.403 370.531 216.022 371.275 212.642 371.951C210.952 372.289 209.126 372.424 207.368 372.695C204.935 373.033 202.433 373.303 199.932 373.709C192.698 374.723 185.464 374.993 178.162 374.926C174.781 374.926 171.401 375.061 168.021 374.723C163.559 374.182 159.029 373.979 154.567 373.033C151.795 372.492 148.888 372.018 146.116 371.41C143.141 370.801 140.302 369.787 137.327 368.976C134.217 368.097 131.242 367.083 128.267 365.866C124.346 364.311 120.492 362.689 116.706 360.728C111.365 357.956 106.092 354.981 101.427 351.195C99.3312 349.505 97.3706 347.815 95.5452 345.854C94.3282 344.57 92.3676 343.894 90.8802 342.677C86.7562 339.364 83.1053 335.51 79.8602 331.319C75.3304 325.504 71.0035 319.487 67.2851 313.064C65.1217 309.278 63.4315 305.154 61.6061 301.098C59.5778 296.568 57.9552 291.836 56.3327 287.103C55.1833 283.723 54.372 280.207 53.4255 276.759C52.5466 273.243 51.5325 269.728 50.924 266.145C50.586 264.252 50.1804 262.359 49.9775 260.398C49.4367 255.733 49.031 251.136 48.4902 246.471C47.7465 239.507 48.0169 232.544 48.2197 225.648C48.3549 221.794 48.7606 217.873 49.5043 214.087C50.3832 209.287 51.1945 204.554 52.5466 199.821C53.696 195.833 54.7777 191.844 56.2651 187.99C58.3609 182.446 60.6596 176.97 63.5667 171.764C66.4738 166.423 69.5162 161.15 73.0994 156.214C79.2517 148.372 85.9449 140.665 93.4493 133.701C99.8045 127.819 106.768 122.749 114.07 118.219C118.532 115.447 123.197 113.013 127.929 110.782C131.377 109.159 134.825 107.74 138.341 106.32C140.64 105.373 143.073 104.765 145.44 104.089C148.82 103.142 152.2 102.331 155.581 101.52C156.933 101.182 158.285 101.047 159.637 100.844C162.139 100.573 164.573 100.168 167.074 99.8972C174.781 99.0183 182.421 99.2211 190.128 99.4915C194.591 99.6268 199.12 100.235 203.582 100.844C207.03 101.317 210.546 101.993 213.926 102.872C216.969 103.616 220.011 104.292 222.986 105.306C224.135 105.711 225.014 105.847 225.555 103.886C226.569 99.9648 229.341 97.1253 233.059 95.3675C237.183 93.4744 241.578 93.6097 245.972 94.4886C253.274 95.9759 260.102 98.9507 266.863 101.993C277.748 106.861 287.822 113.013 297.219 120.315C306.211 127.346 314.256 135.324 321.152 144.383C326.561 151.482 331.158 159.122 334.944 167.302C337.446 172.711 339.406 178.322 341.435 183.866C342.381 186.435 342.854 189.207 343.53 191.844C343.666 192.317 343.598 192.79 344.274 192.79C346.37 192.79 348.466 193.534 350.562 192.655C351.643 192.249 352.049 191.235 352.387 190.289C354.213 185.489 356.308 180.756 358.337 175.956C360.297 171.359 362.123 166.694 364.016 162.096C365.976 157.431 367.937 152.766 369.898 148.102C370.641 148.034 371.52 147.763 372.061 148.642ZM318.516 292.106C319.935 290.416 321.49 288.928 323.383 287.712C324.533 286.968 325.952 286.63 326.899 285.345C328.927 282.709 330.55 279.937 331.902 276.962C334.133 272.027 335.688 266.888 337.04 261.683C337.649 259.452 337.784 257.153 338.392 254.989C339.609 250.324 340.218 245.592 340.894 240.859C341.773 234.707 341.908 228.555 341.773 222.335C341.637 217.197 341.773 211.991 341.097 206.853C340.623 203.337 339.947 199.889 339.609 196.373C339.474 195.292 338.798 195.224 337.919 195.224C333.727 194.954 329.536 195.157 325.344 194.818C318.786 194.278 312.16 194.075 305.535 193.399C301.343 192.925 297.152 192.723 293.027 191.911C292.487 191.776 292.013 191.709 292.081 191.032C292.149 190.492 292.622 190.424 293.163 190.492C294.177 190.559 295.191 190.559 296.205 190.694C300.126 191.1 303.98 191.709 307.901 191.776C311.079 191.844 314.256 192.385 317.501 192.385C324.059 192.52 330.55 192.79 337.108 193.061C338.257 193.128 338.663 192.655 338.392 191.573C337.716 188.463 336.702 185.421 335.756 182.379C333.795 176.159 331.158 170.209 328.184 164.395C322.91 154.321 316.42 145.194 308.577 136.946C303.642 131.74 298.233 127.076 292.554 122.681C286.402 117.881 279.844 113.757 272.948 110.106C266.187 106.523 259.224 103.21 251.922 100.776C247.933 99.4239 243.877 98.2746 239.617 98.4098C234.276 98.6126 230.287 102.331 230.017 107.604C229.949 108.889 229.409 109.836 228.462 110.444C227.921 110.782 227.583 111.12 227.448 111.593C227.11 113.013 226.299 114.23 225.69 115.515C223.662 119.774 221.498 123.966 219.403 128.225C214.602 137.96 209.735 147.696 204.867 157.364C200.946 165.139 196.889 172.846 193.036 180.688C190.128 186.503 187.559 192.52 184.585 198.334C182.016 203.337 179.784 208.408 177.418 213.478C175.593 217.264 173.903 221.118 172.145 224.972C171.874 225.58 171.333 225.918 170.793 226.256C168.359 227.676 166.669 229.772 165.452 232.138C163.829 235.248 163.085 238.696 161.936 242.009C160.516 245.998 159.164 250.054 158.015 254.178C157.609 255.665 157.001 257.558 157.744 258.978C158.42 260.263 158.691 261.615 159.164 262.967C159.975 265.401 162.409 266.28 164.708 265.131C166.669 264.184 167.818 262.359 169.508 261.142C172.618 258.911 175.322 259.722 176.81 263.238C177.215 264.252 177.689 265.401 179.108 265.536C180.122 265.604 180.731 264.928 181.137 264.184C181.61 263.373 182.083 262.426 182.218 261.48C182.759 257.829 183.976 254.449 186.275 251.474C186.68 250.933 187.154 250.257 187.897 250.73C188.573 251.203 188.371 252.015 188.033 252.623C187.492 253.57 186.68 254.313 186.207 255.26C184.99 257.491 184.517 259.925 184.111 262.359C183.909 263.778 183.435 265.131 182.354 266.145C181.272 267.159 181.339 268.241 181.88 269.39C182.016 269.66 182.083 269.863 182.151 270.134C183.097 273.852 183.909 277.638 184.99 281.289C186.613 286.63 188.709 291.768 191.21 296.771C193.982 302.382 197.024 307.859 200.134 313.267C204.529 321.042 208.856 328.749 211.493 337.336C213.115 342.474 214.535 347.747 216.563 352.75C218.321 357.077 220.552 360.998 224 364.244C224.811 365.055 225.082 365.19 225.555 363.973C226.637 361.066 228.53 358.767 231.369 357.415C234.141 356.063 236.913 354.914 240.091 355.928C240.293 355.995 240.564 355.995 240.767 355.928C244.215 355.049 247.73 354.238 251.111 353.291C255.573 352.074 259.697 350.114 263.753 347.882C266.66 346.26 269.5 344.502 272.339 342.609C273.286 342.001 273.624 341.595 272.88 340.513C271.799 339.026 271.393 337.268 271.461 335.375C271.528 333.955 271.663 332.603 272.204 331.319C273.489 328.006 275.449 325.234 278.627 323.476C280.655 322.394 282.819 322.124 285.05 322.124C288.971 322.124 289.106 321.921 289.106 318.135C289.106 314.619 290.053 311.442 292.216 308.805C294.785 305.628 298.368 304.343 302.425 304.613C303.033 304.681 303.642 305.087 303.912 304.073C305.129 298.461 309.051 296.095 314.324 295.148C315.947 295.148 317.772 294.202 318.516 292.106ZM248.068 358.429C249.623 359.646 250.908 360.593 252.125 361.607C255.573 364.379 257.669 367.962 258.277 372.221C258.953 376.886 258.142 381.416 254.829 385.134C254.491 385.54 254.221 385.946 254.221 386.419C254.153 387.095 254.491 387.365 255.1 387.23C257.195 386.689 259.291 386.013 261.455 385.608C264.294 385.067 266.931 383.985 269.703 383.241C271.731 382.7 273.962 382.227 275.585 380.605C276.869 379.32 278.289 378.171 279.844 377.224C283.224 375.061 287.146 374.114 290.729 372.559C298.436 369.247 301.816 362.621 299.045 354.238C297.219 348.626 291.743 344.773 285.861 344.637C283.968 344.637 282.007 344.975 280.114 344.232C279.574 344.029 278.762 343.961 278.086 344.434C274.165 347.139 270.108 349.708 265.849 351.939C260.305 354.778 254.694 357.415 248.068 358.429ZM170.657 358.97C173.362 358.97 175.39 358.97 177.351 358.97C177.824 358.97 178.297 359.105 178.703 358.632C179.514 357.821 179.717 356.942 179.379 355.86C179.041 354.576 178.027 354.643 177.08 354.643C172.888 354.508 168.764 354.238 164.573 353.764C160.313 353.291 156.189 352.48 151.998 351.601C149.158 350.992 146.386 350.249 143.75 349.302C139.693 347.815 135.637 346.125 131.715 344.232C123.738 340.378 116.504 335.375 109.878 329.628C103.252 323.882 97.7086 317.189 92.9085 309.887C92.2324 308.873 91.5563 308.738 90.745 309.143C89.7985 309.684 89.7985 310.698 90.3394 311.577C91.8943 314.011 93.4493 316.58 95.1395 318.879C103.455 330.034 113.529 339.161 125.631 346.057C132.189 349.775 139.085 352.75 146.319 354.981C150.51 356.266 154.77 357.348 159.096 358.024C163.153 358.7 167.277 359.376 170.657 358.97ZM253.139 374.858C253.409 372.221 252.463 369.787 250.773 367.556C248.677 364.784 245.77 363.162 242.795 361.742C240.226 360.525 237.386 360.322 234.817 361.269C229.949 363.027 228.868 366.542 228.868 370.801C228.868 374.249 230.017 377.562 232.113 380.402C235.493 384.932 239.617 388.041 245.702 387.433C247.798 387.23 248.677 386.487 249.285 384.458C249.488 383.782 249.691 383.039 250.367 382.43C252.666 380.605 253.342 377.968 253.139 374.858Z" fill="#574AE2"/>
<path d="M372.061 148.642C371.452 147.763 370.641 148.034 369.83 148.169C366.72 148.237 363.61 147.696 360.5 147.29C355.362 146.547 349.345 144.113 347.587 137.081C346.911 134.512 346.505 131.943 346.302 129.239C345.964 125.25 345.897 121.194 345.423 117.205C345.085 113.96 345.356 110.714 344.883 107.537C344.207 103.345 344.883 99.0859 344.071 95.0294C343.395 91.311 344.004 87.7278 344.477 84.2798C345.356 77.519 348.939 72.3132 355.632 69.8117C358.066 68.9328 360.703 68.4596 363.407 68.1891C368.41 67.6483 373.481 67.3102 378.551 66.837C383.487 66.2961 388.422 66.0933 393.357 65.4848C397.82 64.944 402.349 65.4172 406.744 64.8088C413.64 63.8622 420.536 64.2679 427.432 64.4707C431.421 64.6059 435.477 64.6735 439.466 65.1468C442.846 65.5524 446.362 65.6877 449.675 66.4313C454.948 67.6483 459.072 70.285 460.898 75.8964C462.25 80.2233 462.791 84.6178 462.791 89.1476C462.791 96.7196 463.331 104.292 463.669 111.796C463.94 117.205 464.143 122.546 463.872 127.887C463.669 131.538 463.669 135.121 463.399 138.772C463.196 141.341 461.371 142.963 459.072 143.91C456.976 144.789 454.745 145.194 452.514 145.465C446.091 146.276 439.669 146.547 433.178 146.952C430.271 147.155 427.297 147.087 424.322 147.425C418.102 148.102 411.882 147.696 405.73 148.237C395.859 149.116 385.988 148.44 376.117 148.642C375.779 148.642 375.374 148.71 375.103 148.507C373.954 147.696 373.007 148.169 372.061 148.642ZM431.556 98.6126C431.285 100.844 431.961 103.007 432.164 105.238C432.502 109.159 432.164 113.148 432.705 117.137C433.314 121.396 432.908 125.791 433.381 130.185C433.652 132.822 435.612 134.242 437.708 134.445C440.007 134.58 442.238 134.039 444.469 133.769C445.077 133.701 445.415 133.16 445.551 132.687C445.753 132.146 445.415 131.876 444.875 131.74C444.198 131.538 444.266 130.997 444.266 130.524C444.131 127.414 443.928 124.304 443.86 121.194C443.658 113.96 442.711 106.793 442.914 99.5591C442.914 98.545 442.982 97.5309 442.914 96.5168C442.779 94.6238 441.697 93.4068 439.804 93.3392C437.64 93.2716 435.545 93.2716 433.381 93.3392C432.164 93.3392 431.488 94.0153 431.488 95.1646C431.488 96.2464 431.556 97.4633 431.556 98.6126ZM426.08 129.374C426.147 128.495 425.674 127.346 425.606 126.197C425.336 122.478 425.336 118.76 424.863 115.041C424.525 112.743 423.848 110.444 424.051 108.078C424.051 107.875 423.916 107.672 423.849 107.469C423.24 106.32 420.536 105.035 418.846 105.576C417.088 106.117 415.33 106.049 413.572 106.117C412.49 106.117 412.017 106.928 411.476 107.604C411.003 108.281 411.747 108.686 412.085 109.159C412.423 109.565 412.558 109.971 412.626 110.512C412.761 112.472 413.031 114.5 413.166 116.461C413.505 121.599 414.383 126.602 414.654 131.74C414.721 133.363 415.803 134.31 417.358 134.512C419.319 134.715 421.144 134.039 422.902 133.633C425.944 132.89 426.147 132.349 426.08 129.374ZM404.31 130.05C404.513 125.791 403.769 122.208 403.634 118.557C403.566 115.177 401.741 114.095 398.428 114.771C397.549 114.974 396.603 114.974 395.724 114.839C393.56 114.5 393.56 114.433 393.56 116.596C393.56 117.34 393.56 118.084 393.56 118.76C393.56 121.261 393.898 123.763 393.425 126.197C393.019 128.292 393.019 130.388 393.019 132.484C393.019 134.31 394.033 135.729 395.386 135.729C397.549 135.797 399.645 135.797 401.808 135.729C402.822 135.729 403.363 135.188 403.837 134.31C404.783 132.755 404.242 131.064 404.31 130.05ZM422.023 78.5331C421.685 78.9388 421.55 79.2768 421.279 79.412C417.493 81.9811 414.383 85.2263 410.868 88.0658C406.811 91.311 402.484 94.2181 397.887 96.652C393.425 98.9507 388.895 100.911 384.095 102.331C380.918 103.21 377.74 104.224 374.562 104.63C371.723 105.035 368.816 105.779 365.909 105.509C365.097 105.441 364.286 105.779 364.286 106.523C364.354 107.199 365.165 107.469 365.976 107.469C367.666 107.402 369.424 107.199 371.114 106.996C375.036 106.59 378.822 105.847 382.675 104.968C387.07 103.954 391.262 102.331 395.318 100.506C402.687 97.3281 409.11 92.6632 415.262 87.5926C417.02 86.1052 418.778 84.5502 420.603 83.2657C421.212 82.7924 421.753 81.5079 422.496 82.1163C423.037 82.522 422.632 83.7389 422.429 84.6854C422.226 85.4291 422.496 86.3756 423.308 86.5109C424.119 86.6461 424.457 85.9024 424.795 85.0911C425.539 83.0629 425.268 80.8994 425.539 78.8036C425.809 76.8429 424.525 75.3556 422.699 75.964C420.941 76.5725 419.251 76.7077 417.493 76.0316C416.817 75.7612 416.209 76.3021 416.006 76.7753C415.736 77.4514 416.344 77.5866 416.885 77.9247C418.44 78.736 420.198 78.0599 422.023 78.5331ZM374.833 130.118C374.833 131.402 374.562 132.755 374.9 133.972C375.239 135.121 376.523 135.662 377.672 135.729C379.363 135.797 381.391 136.608 382.54 134.918C383.351 133.633 383.96 131.876 383.351 130.321C382.946 129.171 382.878 128.022 382.811 126.873C382.743 125.521 381.796 125.25 380.782 125.453C380.241 125.521 379.701 125.588 379.16 125.588C374.495 125.859 374.698 125.115 374.833 130.118Z" fill="#F5DF4D"/>
<path d="M92.0972 83.8065C87.0942 83.8065 82.0912 83.8065 77.0882 83.8741C75.8713 83.8741 74.722 84.753 73.505 84.3474C70.5979 83.4685 67.4879 84.2798 64.6484 82.522C61.9441 80.8318 60.1863 78.4655 59.1046 75.626C57.0763 70.3526 56.7383 64.8088 56.9411 59.1973C57.0087 57.2367 57.482 55.2761 57.1439 53.2478C56.7383 51.152 59.7807 47.9744 62.485 47.9068C66.0682 47.8392 69.5838 48.3125 73.0318 49.1914C73.4374 49.3266 73.9107 49.259 74.3839 49.259C77.2911 49.259 80.2658 49.3942 83.1729 49.259C87.297 49.0561 91.4211 48.7857 95.5452 48.042C95.6804 48.042 95.748 48.042 95.8832 48.042C100.278 48.2449 104.605 47.5012 108.931 47.0955C114.273 46.6223 119.614 47.0279 124.887 46.4194C129.214 45.8786 133.473 45.9462 137.8 46.149C139.963 46.2166 142.262 46.2166 144.493 47.0955C145.507 47.5012 146.048 48.3125 146.183 48.9885C146.995 52.8422 147.333 56.6282 146.521 60.5495C146.048 62.5777 146.521 64.8764 146.251 66.9722C145.71 70.5554 145.575 74.2062 143.749 77.4514C142.127 80.2909 139.49 81.6431 136.515 82.4544C132.324 83.6037 128.064 82.86 123.805 83.2657C113.799 84.2122 103.726 83.5361 93.6521 83.9418C93.0437 83.8065 92.5704 83.8065 92.0972 83.8065ZM118.532 71.5695C122.656 71.84 126.983 69.3385 128.943 66.9722C129.484 66.2961 129.552 65.6877 129.079 65.1468C128.605 64.6059 127.929 64.6735 127.321 65.2144C126.51 65.9581 125.698 66.6342 124.684 67.2426C119.749 70.0822 114.002 69.3385 110.419 65.4172C109.743 64.6735 109.405 64.1327 110.148 63.1186C110.892 62.1721 111.298 60.9551 111.095 59.6706C110.892 58.3184 109.202 56.6282 108.12 56.8986C106.024 57.3043 104.875 59.603 105.484 61.6312C105.822 62.6453 106.43 63.8622 105.213 64.8088C101.765 67.5807 98.2495 70.0822 93.855 71.2315C90.6774 72.0428 87.7027 72.4484 84.5927 71.0287C83.511 70.4878 83.3758 70.0146 84.1871 69.1357C86.2829 66.837 87.5674 64.0651 88.5816 61.1579C88.852 60.4143 87.7027 57.9128 86.959 57.5747C84.7955 56.5606 80.6038 57.9128 79.3869 60.0086C77.6291 62.9833 77.2235 65.9581 79.1165 69.068C79.4545 69.6765 79.7925 70.4878 78.9136 70.9611C77.0206 71.9752 75.06 72.0428 73.0994 71.2991C72.4233 71.0287 71.6796 70.6906 71.3416 71.5019C70.9359 72.3808 71.8148 72.7189 72.4909 72.9893C75.06 74.2062 77.5615 73.6654 79.9954 72.516C80.9419 72.0428 81.8208 72.0428 82.7673 72.7189C84.0518 73.6654 85.5392 74.2738 87.2294 74.2738C89.3252 74.2738 91.3535 74.2738 93.5169 73.733C98.3171 72.516 102.441 70.1498 106.227 67.1074C107.174 66.3637 107.579 66.2961 108.458 67.175C111.163 69.8793 114.34 71.7047 118.532 71.5695Z" fill="#F5DF4D"/>
<path d="M390.045 250.798C383.013 250.798 375.982 250.798 368.951 250.798C367.058 250.798 365.165 250.865 363.407 249.986C362.325 249.446 361.446 248.769 361.311 247.417V247.282C361.379 241.13 360.297 234.978 360.568 228.825C360.635 227.676 360.838 226.932 362.19 227.203C363.61 227.473 364.556 226.594 365.03 225.648C365.571 224.566 366.179 224.498 367.125 224.498C378.619 224.498 390.112 224.634 401.605 224.363C408.366 224.16 415.127 223.755 421.888 223.755C424.863 223.755 424.863 223.755 425.471 226.594C426.485 231.191 427.364 235.789 427.702 240.521C427.837 242.55 428.175 244.578 428.175 246.674C428.175 248.364 427.026 249.378 425.403 249.581C419.589 250.257 413.775 250.933 407.893 250.865C402.011 250.798 396.062 250.865 390.18 250.865V250.798H390.045ZM383.351 241.941C382.81 241.941 382.337 241.941 381.864 241.941C380.917 241.941 380.039 241.535 379.565 240.859C378.957 240.048 379.768 239.237 380.309 238.696C380.85 238.155 380.985 237.411 381.256 236.803C381.999 235.316 381.12 233.423 379.43 232.206C378.281 231.394 376.658 231.8 375.306 232.814C373.751 234.031 373.278 236.532 374.698 239.372C375.374 240.724 374.968 240.995 373.683 241.333C372.331 241.671 371.047 242.076 369.627 241.941C369.221 241.941 368.816 241.941 368.68 242.482C368.613 242.685 368.68 243.023 368.816 243.09C369.762 243.428 370.573 244.307 371.655 243.767C372.94 243.09 374.495 243.428 375.779 242.617C376.591 242.144 377.402 242.144 378.213 242.955C378.754 243.428 379.565 243.834 380.309 243.902C383.96 244.24 387.746 244.443 390.923 242.144C392.952 240.657 394.845 239.845 396.805 242.144C397.076 242.414 397.414 242.617 397.684 242.888C399.374 244.105 401.47 244.713 403.431 244.578C406.608 244.375 409.516 242.955 411.138 239.913C411.611 239.034 412.355 239.034 412.761 239.372C413.572 240.116 414.654 240.048 415.533 240.386C416.614 240.859 417.967 240.792 419.116 240.251C419.86 239.913 420.13 239.44 419.927 238.628C419.724 237.885 419.183 237.885 418.643 237.885C418.102 237.885 417.628 237.885 417.155 237.885C413.978 237.885 413.166 237.141 413.302 233.963C413.369 232.544 412.558 231.732 411.544 231.259C410.597 230.786 409.718 231.327 409.11 232.138C408.299 233.152 408.366 234.099 408.975 235.18C409.313 235.789 409.989 236.397 409.718 237.073C408.975 239.169 405.932 242.076 403.498 241.874C400.997 241.671 398.969 240.724 397.211 239.034C396.602 238.426 396.467 237.885 397.143 237.276C398.09 236.465 398.428 235.248 398.969 234.166C399.51 233.152 398.766 231.124 397.819 230.448C396.467 229.569 395.183 229.366 393.898 230.448C391.599 232.341 391.194 233.761 392.276 236.668C392.478 237.209 392.614 237.952 392.14 238.223C389.368 240.116 386.732 241.941 383.351 241.941Z" fill="#F5DF4D"/>
<path d="M357.39 270.336C360.229 270.336 363.137 270.539 365.976 270.269C370.1 269.863 374.292 269.525 378.348 268.511C381.391 267.767 384.636 267.294 387.813 267.632C389.301 267.767 390.045 267.294 390.383 265.671C390.856 263.102 391.667 260.533 392.343 257.964C392.478 257.356 392.816 256.815 393.425 256.95C394.304 257.085 394.304 257.964 394.101 258.573C393.357 260.668 392.952 262.9 392.546 265.063C392.411 265.604 392.343 266.145 392.208 266.686C391.735 269.187 390.45 269.796 388.625 269.796C384.704 269.863 380.85 270.269 377.064 271.418C375.712 271.824 374.292 271.959 372.94 272.094C364.827 273.243 356.714 273.108 348.533 272.838C347.992 272.838 347.452 272.5 346.911 272.365C346.302 272.229 345.423 272.432 345.559 271.35C345.694 270.404 346.438 270.201 347.249 270.201C350.088 270.201 352.86 270.201 355.7 270.201C356.376 270.404 356.917 270.404 357.39 270.336Z" fill="#574AE2"/>
<path d="M92.0972 83.8065C92.5705 83.8065 93.0437 83.8065 93.517 83.8065C94.6663 87.7278 95.1396 91.7843 96.0185 95.7731C96.6269 98.6126 97.1002 101.452 97.5734 104.359C97.7763 105.509 98.1143 106.252 99.3989 106.32C99.9397 106.32 100.481 106.658 101.021 106.658C104.875 106.523 108.594 107.469 112.447 107.537C113.867 107.537 115.354 107.875 116.774 108.145C117.518 108.281 117.991 108.754 117.856 109.565C117.721 110.376 117.044 110.647 116.301 110.579C110.081 109.971 103.793 109.362 97.5734 108.754C96.2213 108.619 95.8156 107.74 95.6128 106.658C94.8015 101.858 93.9226 97.0577 93.0437 92.1899C92.5029 89.418 91.8268 86.6461 92.0972 83.8065Z" fill="#574AE2"/>
<path d="M355.903 349.505C355.97 350.587 355.497 351.128 354.889 351.533C351.17 353.967 347.857 356.874 344.545 359.849C343.598 360.728 342.584 360.863 341.773 359.984C341.097 359.241 341.299 358.294 342.178 357.415C345.559 354.102 349.345 351.195 353.131 348.356C353.739 347.95 354.415 347.882 355.024 348.221C355.565 348.491 356.106 348.964 355.903 349.505Z" fill="#574AE2"/>
<path d="M309.118 328.141C309.118 329.426 307.698 330.304 306.684 329.561C304.791 328.276 302.831 327.195 300.464 326.992C299.45 326.856 298.368 326.113 298.571 324.761C298.774 323.476 300.059 323.206 301.546 323.476C303.98 324.017 306.076 325.031 308.036 326.518C308.577 326.992 309.186 327.397 309.118 328.141Z" fill="#574AE2"/>
<path d="M331.97 302.72C333.322 303.261 334.944 303.87 336.567 304.411C337.04 304.614 337.311 305.628 336.837 306.371C336.432 307.047 335.756 307.521 335.012 307.318C333.524 306.912 332.172 306.304 330.685 305.898C329.603 305.56 329.536 304.749 329.738 303.937C330.009 302.991 330.82 302.72 331.97 302.72Z" fill="#574AE2"/>
<path d="M319.192 313.064C320.409 313.132 322.031 314.349 321.828 315.228C321.626 316.242 320.949 316.918 319.935 316.918C318.448 316.918 317.096 315.701 317.231 314.619C317.299 313.605 318.178 312.997 319.192 313.064Z" fill="#574AE2"/>
<path d="M171.942 225.107C173.767 225.377 175.39 224.498 177.148 224.16C178.5 223.89 179.649 223.89 181.001 224.16C183.03 224.566 184.923 224.972 186.883 225.648C189.79 226.662 192.427 228.149 194.726 229.975C202.839 236.465 211.357 242.279 220.89 246.471C223.797 247.755 226.907 248.431 229.949 249.378C234.209 250.798 238.468 252.285 242.051 255.057C243.268 256.004 243.944 257.356 244.688 258.573C246.513 261.615 249.015 263.17 252.53 263.778C254.491 264.116 256.452 264.86 258.412 265.266C259.764 265.536 261.049 266.009 262.401 266.212C265.376 266.686 268.215 267.767 271.122 268.579C274.097 269.457 277.004 270.607 279.911 271.689C282.143 272.567 284.374 273.514 286.605 274.46C291.743 276.624 296.746 279.125 301.546 281.83C306.481 284.602 311.281 287.441 315.879 290.754C316.69 291.295 317.434 291.971 318.448 292.038C317.704 294.134 315.946 295.081 314.053 295.351C308.712 296.298 304.859 298.664 303.642 304.275C303.439 305.222 302.763 304.816 302.154 304.816C298.03 304.478 294.515 305.83 291.946 309.008C289.782 311.645 288.836 314.822 288.836 318.338C288.836 322.124 288.7 322.259 284.779 322.327C282.548 322.327 280.385 322.597 278.356 323.679C275.179 325.437 273.218 328.209 271.934 331.521C271.393 332.806 271.258 334.158 271.19 335.578C271.122 337.471 271.528 339.229 272.61 340.716C273.354 341.798 273.015 342.136 272.069 342.812C269.297 344.705 266.458 346.463 263.483 348.085C259.494 350.316 255.302 352.277 250.84 353.494C247.392 354.44 243.944 355.252 240.496 356.131C240.293 356.198 240.023 356.198 239.82 356.131C236.643 355.049 233.803 356.266 231.099 357.618C228.259 358.97 226.366 361.269 225.284 364.176C224.811 365.393 224.541 365.258 223.729 364.446C220.349 361.201 218.118 357.28 216.293 352.953C214.197 347.95 212.777 342.677 211.222 337.539C208.585 328.952 204.258 321.245 199.864 313.47C196.822 307.994 193.712 302.518 190.94 296.974C188.438 291.971 186.342 286.833 184.72 281.492C183.638 277.841 182.827 274.055 181.88 270.336C181.813 270.066 181.745 269.863 181.61 269.593C181.069 268.443 181.001 267.362 182.083 266.348C183.165 265.333 183.638 263.981 183.841 262.561C184.246 260.128 184.72 257.694 185.937 255.463C186.478 254.516 187.221 253.705 187.762 252.826C188.168 252.218 188.371 251.339 187.627 250.933C186.883 250.46 186.41 251.136 186.004 251.677C183.638 254.651 182.489 258.032 181.948 261.683C181.813 262.629 181.407 263.576 180.866 264.387C180.46 265.131 179.852 265.807 178.838 265.739C177.418 265.604 176.945 264.455 176.539 263.44C175.052 259.857 172.348 259.113 169.238 261.345C167.547 262.561 166.398 264.387 164.437 265.333C162.071 266.483 159.705 265.604 158.894 263.17C158.42 261.818 158.082 260.466 157.474 259.181C156.798 257.761 157.339 255.936 157.744 254.381C158.894 250.257 160.313 246.268 161.665 242.212C162.815 238.899 163.491 235.451 165.181 232.341C166.466 229.975 168.156 227.879 170.522 226.459C171.198 226.053 171.739 225.715 171.942 225.107ZM248.406 319.082C248.068 317.189 248.001 315.498 249.015 314.079C249.488 313.47 249.488 312.997 249.15 312.186C248.474 310.495 247.122 309.414 245.837 308.4C244.35 307.25 242.322 307.115 240.767 307.25C237.859 307.385 235.02 308.602 232.789 310.698C229.747 313.538 227.651 316.851 226.501 320.907C225.487 324.625 225.42 328.344 226.907 331.859C229.611 338.417 235.29 340.784 241.848 341.392C243.606 341.527 245.364 341.189 247.122 340.986C249.758 340.648 252.192 339.905 254.491 338.755C258.209 336.93 260.778 333.955 261.657 330.034C262.333 326.789 262.266 323.341 260.981 320.096C259.764 317.121 257.466 316.107 255.843 316.512C253.409 317.121 250.773 317.459 248.406 319.082ZM207.03 248.634C205.002 248.702 203.65 248.837 202.23 249.31C195.74 251.474 193.712 258.099 196.957 263.643C197.498 264.59 198.444 265.401 199.864 264.522C200.337 264.184 201.148 264.049 201.622 264.522C202.027 264.928 201.825 265.671 201.554 266.145C200.675 267.632 201.622 268.443 202.636 269.052C206.084 271.08 209.667 270.674 213.047 268.917C218.794 265.807 220.281 260.33 217.645 255.327C215.414 251.136 211.628 248.364 207.03 248.634ZM256.316 294.067C258.345 294.202 260.102 293.593 261.725 292.647C266.322 290.01 268.553 284.737 266.255 280.14C264.294 276.151 259.224 273.311 253.815 274.325C251.111 274.866 249.015 275.813 247.46 278.179C245.229 281.559 244.891 285.007 246.648 288.658C248.677 292.647 252.395 293.593 256.316 294.067ZM196.145 286.089C196.348 291.227 196.957 294.608 200.337 296.839C201.284 297.447 202.027 297.38 203.109 296.974C204.799 296.298 205.34 294.743 206.287 293.526C207.774 291.633 208.72 291.498 210.546 293.053C211.019 293.458 211.425 293.796 211.966 294.134C214.062 295.554 215.752 295.284 217.307 293.391C218.524 291.903 219.2 290.213 219.403 288.32C219.673 285.886 220.822 285.007 222.58 285.278C223.256 285.413 223.932 285.278 224.608 285.278C225.082 285.278 225.352 285.007 225.42 284.602C225.487 284.196 225.555 283.723 225.082 283.385C222.648 281.965 217.848 282.911 217.307 286.021C217.036 287.441 216.698 288.861 216.36 290.213C215.819 292.309 214.264 292.85 212.507 291.565C211.763 291.024 211.087 290.551 210.343 290.01C209.261 289.267 208.247 289.267 207.03 289.943C205.475 290.754 204.664 292.106 203.92 293.458C203.041 295.148 200.878 295.419 199.796 293.458C199.053 292.106 198.647 290.686 198.512 289.267C198.174 285.886 198.715 282.641 200.27 279.599C200.54 279.058 200.81 278.382 200.134 277.908C199.323 277.368 198.85 278.247 198.647 278.72C197.227 281.559 195.943 284.399 196.145 286.089ZM176.472 239.237C176.539 239.575 176.472 239.913 176.539 240.251C176.607 245.119 180.393 247.958 184.99 246.741C187.694 245.998 189.249 242.279 187.965 239.507C186.275 235.789 183.3 234.031 179.244 234.504C177.824 234.707 176.877 235.586 176.607 237.073C176.539 237.817 176.539 238.561 176.472 239.237ZM215.346 313.808C216.428 313.741 217.442 313.47 217.915 312.253C218.456 310.698 219.132 309.211 219.741 307.723C220.146 306.709 219.47 306.033 218.659 305.628C218.05 305.357 217.307 305.087 216.766 304.816C215.819 304.343 214.738 304.614 213.926 304.14C212.033 302.923 212.168 302.923 211.019 304.816C210.681 305.357 210.411 305.966 210.073 306.507C208.585 308.873 208.788 310.969 210.614 312.253C211.966 313.064 213.521 314.011 215.346 313.808ZM219.47 347.747C219.47 348.964 219.47 350.249 219.47 351.466C219.47 352.074 219.538 352.683 219.605 353.291C219.876 355.117 220.755 356.401 222.58 356.604C224.203 356.807 225.622 355.86 226.637 354.576C228.056 352.818 228.124 350.519 228.935 348.491C229.544 347.004 230.287 346.53 231.64 346.53C232.316 346.53 233.127 347.004 233.397 345.922C233.735 344.705 232.586 344.637 231.91 344.299C231.437 344.096 230.828 344.164 230.287 344.367C228.259 345.246 227.313 347.004 226.637 348.897C226.163 350.316 225.758 351.736 225.217 353.088C224.811 353.967 223.932 354.373 222.918 354.305C221.769 354.238 221.904 353.291 221.769 352.547C221.296 349.37 221.16 346.192 221.228 342.947C221.228 342.271 221.16 341.46 220.484 341.46C219.741 341.46 219.538 342.271 219.538 342.947C219.47 344.57 219.47 346.192 219.47 347.747ZM286.875 282.506C284.644 282.506 283.292 283.588 282.413 286.359C281.737 288.388 282.278 290.416 283.833 291.903C285.185 293.188 286.74 293.796 288.768 292.917C289.917 292.444 291.27 292.174 292.622 291.903C294.65 291.43 296.949 291.092 297.895 288.59C298.233 287.644 298.504 286.9 297.489 286.495C296.543 286.157 296.002 286.697 295.732 287.712C295.461 288.59 294.718 289.131 293.906 289.267C291.878 289.537 289.917 290.145 287.957 290.686C287.146 290.889 286.131 291.16 285.388 290.145C284.644 289.199 284.238 286.63 285.05 285.548C285.793 284.602 286.74 283.52 288.295 284.466C288.633 284.669 289.309 284.737 289.512 284.061C289.782 283.317 289.174 283.249 288.836 282.979C288.16 282.303 287.416 282.573 286.875 282.506ZM238.4 271.012C239.82 271.148 241.105 270.674 242.254 269.863C245.634 267.497 245.77 262.697 243.133 259.519C242.727 259.046 242.322 258.573 241.848 258.911C241.375 259.249 241.578 259.722 242.051 260.263C243.268 261.885 243.336 263.778 242.93 265.671C242.524 267.835 239.752 269.052 237.589 268.511C235.628 268.038 234.209 267.024 232.856 265.604C232.451 265.131 232.113 264.657 231.369 265.333C230.625 265.942 230.896 266.28 231.301 266.956C232.924 269.728 235.426 270.674 238.4 271.012ZM259.088 306.912C261.049 306.912 262.671 305.83 264.362 305.087C265.308 304.681 265.984 303.464 265.714 302.247C265.376 300.625 264.429 299.273 262.739 298.799C261.928 298.596 260.914 297.447 260.17 298.394C259.291 299.475 258.074 300.016 257.06 300.827C255.911 301.706 255.167 302.856 255.843 304.14C256.519 305.425 257.263 306.912 259.088 306.912ZM238.738 299.408C240.226 299.746 241.172 298.664 242.119 297.65C242.727 296.974 243.268 296.23 244.215 296.095C245.026 295.96 245.161 295.419 245.093 294.81C245.026 293.999 244.417 293.999 243.741 293.999C241.916 293.931 241.307 295.554 240.158 296.501C239.414 297.109 238.603 297.92 237.521 297.177C236.643 296.568 236.575 295.622 236.778 294.675C236.913 293.999 237.386 293.593 238.062 293.323C238.671 293.12 239.076 292.647 238.738 292.038C238.468 291.498 237.927 291.43 237.319 291.7C235.561 292.444 234.073 294.54 234.411 296.027C234.817 298.258 236.643 299.678 238.738 299.408ZM288.16 301.504C288.16 299.137 286.672 297.785 285.05 298.867C284.171 299.475 283.224 300.287 282.751 301.368C281.94 303.194 283.021 304.884 285.05 304.884C287.078 304.884 288.16 303.667 288.16 301.504ZM216.563 324.558C216.293 325.91 217.171 326.856 218.118 327.735C218.862 328.479 219.808 328.885 220.755 327.803C221.566 326.924 221.498 326.045 220.822 325.099C220.552 324.625 219.943 324.355 219.943 323.747C220.011 322.327 218.997 322.259 217.983 322.394C216.833 322.53 216.495 323.341 216.563 324.558ZM217.577 271.418C216.157 272.229 214.67 273.041 213.25 273.852C213.115 273.92 213.115 274.528 213.25 274.798C213.385 275.137 213.723 275.069 213.994 274.934C215.414 274.325 216.901 273.717 218.118 272.703C218.388 272.5 218.726 272.162 218.456 271.891C218.321 271.689 217.915 271.621 217.577 271.418Z" fill="#F5DF4D"/>
<path d="M248.068 358.429C254.694 357.415 260.305 354.778 265.782 351.871C270.041 349.64 274.097 347.139 278.019 344.367C278.695 343.894 279.506 343.894 280.047 344.164C281.94 344.975 283.9 344.57 285.793 344.57C291.675 344.637 297.152 348.491 298.977 354.17C301.749 362.553 298.436 369.179 290.661 372.492C287.01 374.047 283.157 374.993 279.776 377.157C278.221 378.171 276.869 379.252 275.517 380.537C273.895 382.16 271.731 382.633 269.635 383.174C266.863 383.917 264.227 384.999 261.387 385.54C259.224 385.946 257.128 386.622 255.032 387.163C254.356 387.298 254.085 387.027 254.153 386.351C254.221 385.878 254.423 385.472 254.762 385.067C258.074 381.348 258.886 376.886 258.21 372.154C257.601 367.894 255.438 364.244 252.057 361.539C250.908 360.593 249.623 359.646 248.068 358.429ZM270.514 371.41C270.92 370.193 270.176 369.179 269.973 368.03C269.365 364.379 267.134 361.81 264.227 359.849C263.415 359.308 262.063 359.173 261.387 359.984C260.711 360.931 261.117 362.013 261.996 362.824C262.334 363.094 262.672 363.432 263.01 363.703C266.187 366.61 266.458 370.328 265.714 374.182C265.376 375.94 266.322 376.481 267.472 376.886C268.689 377.359 269.568 376.21 269.838 375.331C270.108 374.047 270.92 372.897 270.514 371.41ZM275.855 361.607C274.638 361.269 274.503 362.486 274.368 363.229C274.097 364.717 275.247 366.339 276.328 366.339C277.41 366.339 277.951 365.663 277.951 364.717C278.019 363.162 277.004 361.607 275.855 361.607Z" fill="#F5DF4D"/>
<path d="M253.139 374.858C253.342 377.968 252.666 380.605 250.367 382.498C249.691 383.039 249.488 383.782 249.285 384.526C248.677 386.487 247.798 387.298 245.702 387.501C239.617 388.109 235.493 384.999 232.113 380.469C230.017 377.63 228.868 374.249 228.868 370.869C228.868 366.61 229.949 363.094 234.817 361.336C237.386 360.39 240.293 360.593 242.795 361.81C245.77 363.229 248.677 364.852 250.773 367.624C252.463 369.787 253.409 372.221 253.139 374.858ZM244.891 374.79C245.229 373.844 244.553 373.033 244.079 372.289C243.201 371.072 241.916 370.261 240.361 370.599C239.144 370.869 237.86 371.342 237.521 372.83C237.251 374.317 237.319 375.737 238.874 376.751C239.55 377.224 240.293 377.427 240.767 376.886C241.308 376.278 240.564 375.872 240.091 375.534C239.279 374.993 239.279 374.182 239.617 373.438C239.955 372.762 240.767 372.897 241.443 372.965C242.322 373.1 242.457 373.709 242.457 374.452C242.457 375.264 242.66 376.075 242.119 376.751C241.375 377.562 242.186 378.036 242.592 378.374C243.065 378.779 243.539 378.441 243.944 377.9C244.417 376.954 244.958 376.075 244.891 374.79Z" fill="#F5DF4D"/>
<path d="M248.474 112.134C245.364 111.052 243.809 113.351 242.254 115.177C236.575 121.802 231.302 128.766 227.042 136.405C224.406 141.07 222.039 145.87 219.876 150.806C219.538 151.617 219.132 152.361 218.794 153.172C218.253 154.592 217.104 154.457 216.09 154.051C215.076 153.578 214.94 152.496 215.346 151.617C217.036 147.425 218.726 143.234 220.822 139.177C224.473 132.281 228.665 125.723 233.533 119.639C236.237 116.258 238.874 112.675 242.457 110.106C244.958 108.281 247.257 108.078 249.42 109.295C250.367 109.836 250.57 110.512 250.299 111.323C250.029 112.067 249.285 112.269 248.474 112.134Z" fill="#574AE2"/>
<path d="M211.966 163.448C210.816 163.516 209.938 162.164 210.343 161.015C210.749 159.662 211.763 158.716 212.709 157.702C213.25 157.093 214.129 156.958 214.805 157.431C215.414 157.837 215.549 158.513 215.346 159.257C214.941 160.677 214.129 161.894 213.047 162.908C212.709 163.246 212.371 163.516 211.966 163.448Z" fill="#574AE2"/>
<path d="M196.146 286.089C195.943 284.331 197.227 281.492 198.512 278.652C198.715 278.179 199.188 277.3 199.999 277.841C200.675 278.246 200.405 278.99 200.134 279.531C198.647 282.573 198.039 285.819 198.377 289.199C198.512 290.619 198.917 292.106 199.661 293.391C200.743 295.351 202.839 295.081 203.785 293.391C204.529 291.971 205.34 290.686 206.895 289.875C208.112 289.199 209.126 289.199 210.208 289.943C210.952 290.416 211.628 290.957 212.371 291.498C214.197 292.782 215.752 292.241 216.225 290.145C216.563 288.726 216.901 287.373 217.172 285.954C217.712 282.844 222.513 281.83 224.946 283.317C225.42 283.587 225.352 284.061 225.284 284.534C225.217 285.007 224.946 285.21 224.473 285.21C223.797 285.21 223.121 285.345 222.445 285.21C220.687 284.94 219.47 285.819 219.267 288.252C219.065 290.213 218.388 291.903 217.172 293.323C215.617 295.284 213.859 295.486 211.831 294.067C211.357 293.729 210.884 293.391 210.411 292.985C208.585 291.43 207.639 291.498 206.151 293.458C205.205 294.675 204.664 296.298 202.974 296.906C201.96 297.312 201.216 297.379 200.202 296.771C196.957 294.608 196.348 291.227 196.146 286.089Z" fill="#574AE2"/>
<path d="M215.346 313.808C213.453 314.011 211.966 313.132 210.614 312.118C208.721 310.833 208.518 308.738 210.073 306.371C210.411 305.83 210.681 305.222 211.019 304.681C212.169 302.788 212.033 302.788 213.926 304.005C214.738 304.546 215.819 304.208 216.766 304.681C217.374 304.952 218.05 305.222 218.659 305.492C219.47 305.83 220.146 306.507 219.741 307.588C219.2 309.143 218.524 310.631 217.915 312.118C217.442 313.403 216.495 313.741 215.346 313.808Z" fill="#574AE2"/>
<path d="M219.47 347.747C219.47 346.192 219.47 344.57 219.47 343.015C219.47 342.339 219.741 341.527 220.417 341.527C221.093 341.527 221.16 342.339 221.16 343.015C221.093 346.192 221.296 349.437 221.701 352.615C221.836 353.359 221.701 354.238 222.851 354.373C223.865 354.44 224.744 354.035 225.149 353.156C225.758 351.804 226.096 350.384 226.569 348.964C227.245 347.004 228.192 345.246 230.22 344.434C230.761 344.232 231.369 344.096 231.842 344.367C232.519 344.705 233.6 344.773 233.33 345.989C233.059 347.071 232.248 346.598 231.572 346.598C230.22 346.598 229.409 347.071 228.868 348.559C228.056 350.587 227.989 352.885 226.569 354.643C225.555 355.928 224.135 356.874 222.513 356.671C220.755 356.469 219.808 355.117 219.538 353.359C219.47 352.75 219.403 352.142 219.403 351.533C219.47 350.249 219.47 348.964 219.47 347.747Z" fill="#574AE2"/>
<path d="M286.875 282.506C287.484 282.641 288.227 282.303 288.836 282.911C289.174 283.249 289.782 283.317 289.512 283.993C289.241 284.669 288.565 284.602 288.295 284.399C286.74 283.452 285.793 284.534 285.05 285.481C284.238 286.495 284.644 289.131 285.388 290.078C286.131 291.092 287.146 290.822 287.957 290.619C289.918 290.078 291.878 289.469 293.906 289.199C294.65 289.131 295.461 288.523 295.732 287.644C296.002 286.697 296.543 286.089 297.49 286.427C298.504 286.833 298.233 287.576 297.895 288.523C296.949 291.024 294.718 291.362 292.622 291.836C291.337 292.106 289.985 292.377 288.768 292.85C286.74 293.729 285.117 293.12 283.833 291.836C282.278 290.348 281.805 288.388 282.413 286.292C283.292 283.52 284.577 282.506 286.875 282.506Z" fill="#574AE2"/>
<path d="M238.4 271.012C235.493 270.674 232.924 269.728 231.301 267.024C230.896 266.347 230.625 266.009 231.369 265.401C232.113 264.725 232.451 265.198 232.856 265.671C234.141 267.091 235.628 268.105 237.589 268.579C239.752 269.119 242.457 267.835 242.93 265.739C243.336 263.846 243.268 261.953 242.051 260.33C241.645 259.79 241.375 259.249 241.848 258.978C242.322 258.64 242.727 259.113 243.133 259.587C245.77 262.764 245.702 267.497 242.254 269.931C241.037 270.742 239.82 271.148 238.4 271.012Z" fill="#574AE2"/>
<path d="M259.088 306.912C257.263 306.912 256.519 305.425 255.843 304.208C255.167 302.923 255.911 301.774 257.06 300.895C258.074 300.084 259.291 299.543 260.17 298.461C260.914 297.515 261.928 298.664 262.739 298.867C264.429 299.273 265.308 300.692 265.714 302.315C265.984 303.532 265.308 304.681 264.362 305.154C262.672 305.83 261.049 306.912 259.088 306.912ZM263.28 302.45C263.077 302.247 263.28 301.842 262.874 301.504C262.198 300.895 261.184 300.287 260.643 300.557C259.562 301.03 258.345 301.706 257.804 302.856C257.533 303.464 258.886 305.019 259.359 304.681C260.373 304.073 261.59 304.14 262.604 303.532C263.145 303.261 263.212 302.923 263.28 302.45Z" fill="#574AE2"/>
<path d="M238.738 299.408C236.643 299.678 234.817 298.258 234.411 296.027C234.141 294.54 235.628 292.512 237.319 291.7C237.995 291.43 238.468 291.498 238.738 292.038C239.076 292.647 238.671 293.12 238.062 293.323C237.386 293.526 236.981 293.999 236.778 294.675C236.575 295.622 236.643 296.568 237.521 297.177C238.603 297.92 239.414 297.109 240.158 296.501C241.24 295.554 241.916 293.999 243.741 293.999C244.35 293.999 245.026 293.999 245.093 294.81C245.161 295.419 245.026 295.96 244.215 296.095C243.268 296.23 242.727 296.974 242.119 297.65C241.172 298.664 240.226 299.746 238.738 299.408Z" fill="#574AE2"/>
<path d="M217.577 271.418C217.915 271.621 218.321 271.689 218.456 271.891C218.659 272.229 218.389 272.5 218.118 272.703C216.901 273.717 215.414 274.258 213.994 274.934C213.791 275.069 213.386 275.069 213.25 274.798C213.115 274.528 213.115 273.92 213.25 273.852C214.67 273.041 216.157 272.229 217.577 271.418Z" fill="#574AE2"/>
<path d="M244.891 374.79C245.026 376.075 244.417 376.954 243.741 377.833C243.336 378.374 242.93 378.712 242.389 378.306C241.984 377.968 241.24 377.562 241.916 376.683C242.457 376.075 242.254 375.196 242.254 374.385C242.254 373.641 242.119 373.033 241.24 372.897C240.564 372.83 239.752 372.695 239.414 373.371C239.076 374.047 239.076 374.926 239.888 375.466C240.361 375.804 241.105 376.21 240.564 376.819C240.091 377.359 239.347 377.157 238.671 376.683C237.183 375.669 237.048 374.317 237.319 372.762C237.589 371.275 238.941 370.802 240.158 370.531C241.713 370.193 242.998 370.937 243.877 372.221C244.553 373.033 245.229 373.844 244.891 374.79Z" fill="#574AE2"/>
<path d="M79.9954 64.5383C79.9954 61.6988 82.3616 59.1973 84.7955 59.4001C85.742 59.4677 86.1477 59.8734 86.0801 60.7523C85.8096 63.8622 84.2547 66.2961 82.0912 68.392C81.8208 68.6624 81.618 68.8652 81.3475 68.392C80.8067 67.1074 79.8601 66.0257 79.9954 64.5383Z" fill="#F5DF4D"/>
<path d="M376.996 239.102C376.658 238.087 376.05 237.276 375.982 236.194C375.915 234.842 376.793 234.504 377.605 234.031C378.213 233.693 378.619 234.099 379.025 234.572C379.633 235.316 379.43 235.992 379.025 236.803C378.551 237.749 377.943 238.561 376.996 239.102Z" fill="#F5DF4D"/>
<path d="M394.71 235.789C393.831 234.639 393.831 233.558 394.777 232.679C395.115 232.341 395.927 232.341 396.129 232.814C396.738 234.234 395.521 234.91 394.71 235.789Z" fill="#F5DF4D"/>
<path d="M261.86 284.061C262.131 286.292 260.035 288.388 257.804 288.726C256.384 288.929 255.032 288.996 253.68 288.658C252.192 288.32 250.435 286.833 250.435 285.413C250.435 284.399 249.758 283.723 249.961 282.573C250.299 280.342 252.057 279.734 253.545 279.396C256.046 278.855 258.683 278.787 260.779 281.086C261.59 282.033 261.995 282.911 261.86 284.061ZM254.288 282.844C254.288 284.399 254.829 285.075 255.843 285.142C256.925 285.21 257.466 284.128 257.601 283.385C257.736 282.438 256.79 281.694 255.843 281.627C254.829 281.559 254.153 282.168 254.288 282.844Z" fill="#F5DF4D"/>
<path d="M263.28 302.45C263.145 302.991 263.145 303.261 262.604 303.599C261.59 304.208 260.373 304.14 259.359 304.749C258.818 305.087 257.466 303.532 257.804 302.923C258.345 301.706 259.562 301.03 260.643 300.625C261.252 300.354 262.198 300.963 262.874 301.571C263.28 301.774 263.077 302.18 263.28 302.45Z" fill="#F5DF4D"/>
<path d="M254.288 282.844C254.221 282.168 254.897 281.559 255.843 281.627C256.79 281.694 257.736 282.371 257.601 283.385C257.533 284.196 256.993 285.21 255.843 285.142C254.829 285.075 254.221 284.399 254.288 282.844Z" fill="#574AE2"/>
</svg>
