<svg width="18" height="10" viewBox="0 0 18 10" fill="none" xmlns="http://www.w3.org/2000/svg">
<path d="M16.5938 1.90625H1.40625C1.18247 1.90625 0.967862 1.81736 0.809629 1.65912C0.651395 1.50089 0.5625 1.28628 0.5625 1.0625C0.5625 0.838724 0.651395 0.624112 0.809629 0.465879C0.967862 0.307645 1.18247 0.21875 1.40625 0.21875H16.5938C16.8175 0.21875 17.0321 0.307645 17.1904 0.465879C17.3486 0.624112 17.4375 0.838724 17.4375 1.0625C17.4375 1.28628 17.3486 1.50089 17.1904 1.65912C17.0321 1.81736 16.8175 1.90625 16.5938 1.90625ZM13.7812 5.84375H4.21875C3.99497 5.84375 3.78036 5.75485 3.62213 5.59662C3.46389 5.43839 3.375 5.22378 3.375 5C3.375 4.77622 3.46389 4.56161 3.62213 4.40338C3.78036 4.24514 3.99497 4.15625 4.21875 4.15625H13.7812C14.005 4.15625 14.2196 4.24514 14.3779 4.40338C14.5361 4.56161 14.625 4.77622 14.625 5C14.625 5.22378 14.5361 5.43839 14.3779 5.59662C14.2196 5.75485 14.005 5.84375 13.7812 5.84375ZM10.4062 9.78125H7.59375C7.36997 9.78125 7.15536 9.69236 6.99713 9.53412C6.83889 9.37589 6.75 9.16128 6.75 8.9375C6.75 8.71372 6.83889 8.49911 6.99713 8.34088C7.15536 8.18265 7.36997 8.09375 7.59375 8.09375H10.4062C10.63 8.09375 10.8446 8.18265 11.0029 8.34088C11.1611 8.49911 11.25 8.71372 11.25 8.9375C11.25 9.16128 11.1611 9.37589 11.0029 9.53412C10.8446 9.69236 10.63 9.78125 10.4062 9.78125Z" fill="#1A1A1A"/>
</svg>
