<svg width="12" height="14" viewBox="0 0 12 14" fill="none" xmlns="http://www.w3.org/2000/svg">
<path d="M1.1875 13.125C1.07147 13.125 0.960188 13.0789 0.878141 12.9969C0.796094 12.9148 0.75 12.8035 0.75 12.6875V1.86293C0.750031 1.7483 0.780088 1.63568 0.837177 1.53628C0.894266 1.43687 0.976396 1.35416 1.07539 1.29637C1.40625 1.10414 2.07289 0.875 3.375 0.875C4.39246 0.875 5.53051 1.27723 6.53457 1.63188C7.34312 1.91762 8.10684 2.1875 8.625 2.1875C9.29203 2.18545 9.95199 2.05067 10.5664 1.79102C10.6412 1.75943 10.7227 1.74685 10.8036 1.7544C10.8844 1.76195 10.9622 1.78939 11.0298 1.83428C11.0975 1.87917 11.153 1.9401 11.1915 2.01166C11.2299 2.08321 11.25 2.16316 11.25 2.24437V8.2425C11.2499 8.34881 11.2188 8.45279 11.1605 8.54171C11.1022 8.63063 11.0193 8.70064 10.9219 8.74316C10.6837 8.84734 9.81418 9.1875 8.625 9.1875C7.96492 9.1875 7.13805 8.99227 6.26277 8.78527C5.27894 8.55285 4.26176 8.3125 3.375 8.3125C2.36684 8.3125 1.85086 8.46508 1.625 8.5616V12.6875C1.625 12.8035 1.57891 12.9148 1.49686 12.9969C1.41481 13.0789 1.30353 13.125 1.1875 13.125Z" fill="#5BA967"/>
</svg>
