<svg width="19" height="18" viewBox="0 0 19 18" fill="none" xmlns="http://www.w3.org/2000/svg">
<path d="M14.9306 9.81563C14.7548 9.41133 14.4841 9.05625 13.9427 8.75742C13.6629 8.59921 13.3623 8.48088 13.0497 8.40586C13.26 8.30814 13.4535 8.17761 13.6228 8.01914C13.8717 7.79665 14.0603 7.51488 14.1712 7.2C14.2733 6.88001 14.315 6.54383 14.2943 6.20859C14.2556 5.61797 14.1396 5.04492 13.8302 4.63359C13.5208 4.22227 13.0849 3.90586 12.5083 3.68438C12.0654 3.51562 11.6118 3.41016 10.9087 3.37148V1.125H9.50246V3.375H8.37746V1.125H6.93605V3.375H3.875V5.0625H4.8548C5.16066 5.0625 5.36809 5.09063 5.47355 5.14336C5.57169 5.18535 5.65238 5.25983 5.70207 5.3543C5.74777 5.44219 5.76887 5.64961 5.76887 5.96953V12.0586C5.76887 12.375 5.74777 12.5789 5.70207 12.6703C5.65637 12.7617 5.63176 12.8426 5.52277 12.8918C5.41379 12.941 5.41027 12.9375 5.10793 12.9375H4.1798L3.875 14.625H6.93359V16.875H8.375V14.625H9.5V16.875H10.9062V14.6109C11.8203 14.5652 12.4707 14.4457 12.9945 14.2488C13.673 13.9957 14.1934 13.6266 14.566 13.1414C14.9387 12.6562 15.0582 11.9145 15.0909 11.3414C15.1145 10.8316 15.0898 10.1742 14.9306 9.81563ZM8.375 5.27344H9.5V7.875H8.375V5.27344ZM8.375 12.7266V9.5625H9.5V12.7266H8.375ZM10.9062 5.41055C11.1172 5.49844 11.2543 5.67422 11.3914 5.85703C11.5426 6.05742 11.6199 6.32461 11.6199 6.60938C11.6199 6.88359 11.518 7.11914 11.3562 7.33008C11.2227 7.50234 11.1172 7.62188 10.9062 7.72031V5.41055ZM11.9187 11.9742C11.6445 12.2168 11.4863 12.3293 11.1418 12.4594C11.0647 12.4865 10.9861 12.5088 10.9062 12.5262V9.61523C11.0438 9.63559 11.1776 9.67585 11.3035 9.73477C11.5777 9.85078 11.8379 9.97734 11.9996 10.1988C12.1789 10.4532 12.277 10.756 12.2809 11.0672C12.2798 11.4504 12.1814 11.7422 11.9177 11.9742H11.9187Z" fill="#1A1A1A"/>
</svg>
