<svg width="19" height="18" viewBox="0 0 19 18" fill="none" xmlns="http://www.w3.org/2000/svg">
<path fill-rule="evenodd" clip-rule="evenodd" d="M3.875 5.625C3.25368 5.625 2.75 6.12868 2.75 6.75V13.5C2.75 14.1213 3.25368 14.625 3.875 14.625H15.125C15.7463 14.625 16.25 14.1213 16.25 13.5V6.75C16.25 6.12868 15.7463 5.625 15.125 5.625H3.875ZM1.625 6.75C1.625 5.50736 2.63236 4.5 3.875 4.5H15.125C16.3676 4.5 17.375 5.50736 17.375 6.75V13.5C17.375 14.7426 16.3676 15.75 15.125 15.75H3.875C2.63236 15.75 1.625 14.7426 1.625 13.5V6.75Z" fill="black"/>
<path fill-rule="evenodd" clip-rule="evenodd" d="M12.7754 1.72805C13.109 1.66533 13.4524 1.67659 13.7812 1.76104C14.1119 1.84598 14.4198 2.00286 14.683 2.22049C14.9461 2.43812 15.1579 2.71114 15.3033 3.02007C15.4488 3.329 15.5243 3.66622 15.5244 4.00767V5.06254H14.3994V4.00804C14.3994 4.00797 14.3994 4.00791 14.3994 4.00785C14.3993 3.83201 14.3604 3.65836 14.2855 3.49927C14.2106 3.34013 14.1015 3.19948 13.9659 3.08736C13.8304 2.97525 13.6718 2.89443 13.5014 2.85068C13.331 2.80692 13.1531 2.80131 12.9803 2.83424C12.9767 2.83492 12.9732 2.83556 12.9696 2.83617L3.71675 4.41544C3.44525 4.46833 3.20044 4.61375 3.02412 4.827C2.84676 5.0415 2.74981 5.31117 2.75 5.5895L2.75 7.31254H1.625V5.59005C1.625 5.59 1.625 5.58994 1.625 5.58988C1.62472 5.04973 1.81291 4.5264 2.15712 4.11011C2.50141 3.69373 2.98021 3.41054 3.51095 3.3094C3.5145 3.30872 3.51805 3.30808 3.52161 3.30748L12.7754 1.72805Z" fill="black"/>
<path d="M13.4375 11.25C13.215 11.25 12.9975 11.184 12.8125 11.0604C12.6275 10.9368 12.4833 10.7611 12.3981 10.5555C12.313 10.35 12.2907 10.1238 12.3341 9.90552C12.3775 9.6873 12.4847 9.48684 12.642 9.32951C12.7993 9.17217 12.9998 9.06503 13.218 9.02162C13.4362 8.97821 13.6624 9.00049 13.868 9.08564C14.0736 9.17078 14.2493 9.31498 14.3729 9.49998C14.4965 9.68499 14.5625 9.9025 14.5625 10.125C14.5625 10.4234 14.444 10.7095 14.233 10.9205C14.022 11.1315 13.7359 11.25 13.4375 11.25Z" fill="black"/>
</svg>
