<svg width="19" height="18" viewBox="0 0 19 18" fill="none" xmlns="http://www.w3.org/2000/svg">
<path d="M18.2297 11.1771C17.0277 15.9986 12.1443 18.9329 7.3223 17.7306C2.50227 16.5285 -0.431983 11.6449 0.770559 6.82378C1.97205 2.00177 6.85542 -0.932704 11.676 0.269311C16.4977 1.47133 19.4317 6.35553 18.2296 11.1772L18.2297 11.1771H18.2297Z" fill="#F7931A"/>
<path d="M13.4686 7.71775C13.6477 6.52005 12.7359 5.87624 11.489 5.44675L11.8935 3.82436L10.9059 3.57827L10.5121 5.15795C10.2525 5.09319 9.98586 5.03218 9.72086 4.97169L10.1175 3.38158L9.1305 3.1355L8.72578 4.75736C8.51093 4.70845 8.2999 4.6601 8.09517 4.60916L8.09631 4.60406L6.73439 4.26396L6.47167 5.31878C6.47167 5.31878 7.20439 5.48674 7.18895 5.49708C7.58887 5.59689 7.66119 5.86163 7.64918 6.07147L7.18842 7.91976C7.21596 7.92675 7.25168 7.93687 7.2911 7.95271C7.25815 7.94453 7.22308 7.9356 7.1867 7.92689L6.54087 10.5161C6.492 10.6376 6.36794 10.8199 6.08833 10.7507C6.09823 10.765 5.37053 10.5715 5.37053 10.5715L4.8802 11.702L6.16541 12.0224C6.4045 12.0824 6.63879 12.1451 6.86953 12.2041L6.46085 13.8451L7.44731 14.0912L7.85203 12.4676C8.12152 12.5408 8.38304 12.6082 8.63907 12.6719L8.23572 14.2878L9.22336 14.5339L9.632 12.896C11.3161 13.2147 12.5824 13.0862 13.1153 11.5629C13.5448 10.3365 13.094 9.62917 12.208 9.16788C12.8533 9.01905 13.3394 8.59463 13.469 7.71788L13.4686 7.71766L13.4686 7.71775ZM11.2122 10.8819C10.9069 12.1082 8.84209 11.4453 8.17263 11.2791L8.71496 9.10501C9.38437 9.27213 11.5311 9.60286 11.2122 10.8819H11.2122ZM11.5176 7.69998C11.2392 8.81551 9.52057 8.24877 8.96307 8.1098L9.45476 6.13807C10.0123 6.27704 11.8076 6.53641 11.5177 7.69998H11.5176Z" fill="white"/>
</svg>
