<svg width="19" height="18" viewBox="0 0 19 18" fill="none" xmlns="http://www.w3.org/2000/svg">
<path fill-rule="evenodd" clip-rule="evenodd" d="M10.7898 1.28975C11.0094 1.07008 11.3656 1.07008 11.5852 1.28975L15.5227 5.22725C15.7424 5.44692 15.7424 5.80308 15.5227 6.02275L11.5852 9.96025C11.3656 10.1799 11.0094 10.1799 10.7898 9.96025C10.5701 9.74058 10.5701 9.38442 10.7898 9.16475L13.767 6.1875H3.875C3.56434 6.1875 3.3125 5.93566 3.3125 5.625C3.3125 5.31434 3.56434 5.0625 3.875 5.0625H13.767L10.7898 2.08525C10.5701 1.86558 10.5701 1.50942 10.7898 1.28975ZM8.21025 8.03975C8.42992 8.25942 8.42992 8.61558 8.21025 8.83525L5.233 11.8125H15.125C15.4357 11.8125 15.6875 12.0643 15.6875 12.375C15.6875 12.6857 15.4357 12.9375 15.125 12.9375H5.233L8.21025 15.9148C8.42992 16.1344 8.42992 16.4906 8.21025 16.7102C7.99058 16.9299 7.63442 16.9299 7.41475 16.7102L3.47725 12.7727C3.25758 12.5531 3.25758 12.1969 3.47725 11.9773L7.41475 8.03975C7.63442 7.82008 7.99058 7.82008 8.21025 8.03975Z" fill="#1A1A1A"/>
</svg>
