<svg width="19" height="18" viewBox="0 0 19 18" fill="none" xmlns="http://www.w3.org/2000/svg">
<path fill-rule="evenodd" clip-rule="evenodd" d="M9.50645 8.74575H2.79679C2.5505 8.74575 2.42032 8.64371 2.37458 8.40446C2.26902 7.89172 2.16604 7.3764 2.06343 6.86292L2.01218 6.60654C1.96996 6.39543 2.03681 6.26173 2.22329 6.15266C3.11184 5.6369 4.0009 5.12165 4.89008 4.60632L4.89029 4.6062C6.34246 3.7646 7.79495 2.92281 9.24609 2.07831C9.42201 1.97627 9.57682 1.97275 9.75626 2.07479C11.4035 3.03094 13.0508 3.98535 14.6993 4.94046L16.7791 6.14562C16.9726 6.25821 17.0359 6.39191 16.9937 6.60654C16.8741 7.20819 16.7544 7.80632 16.6313 8.40446C16.582 8.64019 16.4554 8.74575 16.2161 8.74575H10.8329H9.50645ZM9.50645 7.99632H15.8572C15.9311 7.99632 15.9558 7.97873 15.9698 7.90484C16.0402 7.53189 16.1141 7.15893 16.195 6.78598C16.2126 6.70505 16.195 6.66987 16.1246 6.62765C13.9397 5.37158 11.7618 4.10847 9.58393 2.84537L9.58386 2.84533C9.52405 2.81014 9.48534 2.81014 9.42553 2.84533C8.55061 3.35433 7.67568 3.86021 6.80076 4.36608C6.36331 4.61902 5.92585 4.87195 5.4884 5.12528C4.87421 5.47942 4.26002 5.83532 3.64706 6.1905L3.64681 6.19064L2.8742 6.6382L2.8719 6.63944C2.82729 6.66344 2.79351 6.68161 2.80735 6.75079C2.88827 7.1343 2.96568 7.51781 3.03957 7.90484C3.05364 7.97521 3.07475 7.99984 3.15216 7.99984C5.26674 7.99632 7.38484 7.99632 9.50645 7.99632ZM15.2943 14.0128C15.6039 14.0656 15.8572 14.2133 16.0402 14.4667C16.1739 14.6496 16.2513 14.8537 16.2548 15.0789C16.2583 15.705 16.2583 16.3346 16.2583 16.9607V16.9612C16.2583 16.9685 16.2567 16.9757 16.2545 16.9852L16.2545 16.9852L16.2513 16.9999H2.75104C2.75104 16.9859 2.75016 16.9718 2.74928 16.9577C2.7484 16.9436 2.74752 16.9296 2.74752 16.9155V15.1492C2.75104 14.5687 3.12752 14.1183 3.71158 14.0128C3.71685 13.9512 3.72301 13.8896 3.72917 13.8281C3.73533 13.7665 3.74148 13.7049 3.74676 13.6434C3.7837 13.2 3.81977 12.7558 3.85583 12.3116C3.8919 11.8674 3.92796 11.4232 3.9649 10.9799C3.98601 10.7337 4.00623 10.4866 4.02646 10.2395L4.02648 10.2393C4.04671 9.99211 4.06694 9.74493 4.08805 9.49864C4.10916 9.25938 4.27453 9.11161 4.50322 9.12568C4.71433 9.14327 4.85859 9.32623 4.84099 9.55845L4.56656 12.8447C4.55249 13.0223 4.53754 13.2008 4.52259 13.3793L4.52257 13.3795C4.50762 13.558 4.49267 13.7366 4.4786 13.9143C4.47627 13.9306 4.47702 13.9484 4.4778 13.9668C4.47819 13.9762 4.4786 13.9857 4.4786 13.9952H6.28355C6.25892 13.6926 6.2343 13.3935 6.20967 13.098C6.1868 12.8288 6.16481 12.5606 6.14282 12.2923L6.14281 12.2922C6.12082 12.0239 6.09883 11.7557 6.07597 11.4866C6.05134 11.1822 6.02583 10.8788 6.00032 10.5753L6.00032 10.5753C5.97481 10.2718 5.9493 9.96834 5.92467 9.664C5.9235 9.64641 5.92194 9.62882 5.92037 9.61123C5.91725 9.57604 5.91412 9.54086 5.91412 9.50567C5.9106 9.3016 6.06189 9.13624 6.26244 9.12568C6.46651 9.11513 6.63892 9.25234 6.65651 9.45641C6.69575 9.89465 6.73196 10.3359 6.76795 10.7746L6.77614 10.8743C6.82525 11.4441 6.87132 12.0169 6.91718 12.5871L6.92743 12.7145L7.02243 13.8791C7.02594 13.9178 7.02946 13.953 7.0365 13.9952H7.84222C7.86333 13.763 7.88092 13.5378 7.89852 13.3091C7.94764 12.7392 7.99372 12.1663 8.03959 11.596L8.04981 11.469L8.19758 9.68863C8.2011 9.64993 8.20374 9.6121 8.20638 9.57427C8.20902 9.53645 8.21166 9.49863 8.21518 9.45993C8.23629 9.24883 8.41573 9.10105 8.63035 9.12216C8.8309 9.13975 8.97868 9.31919 8.9646 9.52678L8.73239 12.338L8.60572 13.8545C8.6039 13.8764 8.60302 13.8992 8.6021 13.9231L8.6021 13.9231C8.60126 13.9451 8.60038 13.968 8.59869 13.9917H10.4036C10.4 13.9278 10.3954 13.8639 10.3908 13.8006C10.3866 13.7417 10.3824 13.6833 10.379 13.6258C10.3298 13.0417 10.2814 12.4576 10.233 11.8736C10.1846 11.2895 10.1362 10.7055 10.087 10.1214C10.0694 9.92437 10.0553 9.73085 10.0412 9.53382C10.0237 9.32271 10.1714 9.13975 10.3755 9.12216C10.5936 9.10457 10.7731 9.25235 10.7907 9.47049L10.8092 9.6974C10.891 10.6988 10.973 11.7029 11.0581 12.7039C11.0933 13.1297 11.1284 13.5554 11.1671 13.9882H11.9764C11.9834 13.8967 11.994 13.8017 12.0045 13.7067V13.7067V13.7067L12.0207 13.5068L12.0207 13.5065C12.0928 12.6157 12.165 11.7224 12.2403 10.8321C12.2535 10.6757 12.2663 10.5189 12.2792 10.3619C12.3039 10.0599 12.3286 9.75739 12.3564 9.45641C12.3775 9.24179 12.5499 9.10457 12.761 9.11864C12.958 9.13272 13.1093 9.29808 13.0988 9.50919C13.0741 9.91029 13.039 10.3114 13.0038 10.709C12.9649 11.1946 12.9231 11.6803 12.881 12.1687L12.8809 12.1698L12.8701 12.2958C12.8243 12.8412 12.7786 13.3865 12.7364 13.9354V13.9917H14.5343C14.5343 13.9815 14.5351 13.9714 14.5359 13.9608L14.536 13.9608C14.5369 13.9494 14.5378 13.9376 14.5378 13.9248L14.3689 11.9193L14.2211 10.1144C14.217 10.0676 14.2126 10.0205 14.2082 9.97343L14.2082 9.97332L14.2082 9.9733C14.1941 9.82215 14.1799 9.66993 14.1719 9.51975C14.1578 9.27697 14.3478 9.10105 14.5906 9.12216C14.7489 9.13624 14.8861 9.25586 14.9108 9.41419C14.9303 9.5483 14.941 9.68684 14.9516 9.82454L14.9516 9.82456C14.9544 9.86026 14.9571 9.89591 14.96 9.9314L15.15 12.2254C15.1746 12.5136 15.1983 12.8009 15.2221 13.0882L15.2221 13.0892C15.2459 13.3768 15.2696 13.6645 15.2943 13.953C15.2876 13.973 15.2904 13.9899 15.2937 14.0096L15.2943 14.0128ZM3.50047 16.247H15.4983C15.4997 16.2416 15.501 16.2373 15.5022 16.2336L15.5022 16.2336C15.504 16.2276 15.5054 16.2232 15.5054 16.2189C15.5054 16.1256 15.5056 16.0323 15.5058 15.939V15.9388C15.5065 15.6594 15.5071 15.3805 15.5019 15.1035C15.4983 14.91 15.3435 14.7622 15.15 14.7552C15.0703 14.7528 14.9905 14.7536 14.9108 14.7544C14.8709 14.7548 14.831 14.7552 14.7911 14.7552H10.5268C9.88713 14.7552 9.24746 14.7561 8.6078 14.7569L8.60572 14.7569C7.96537 14.7578 7.32501 14.7587 6.68466 14.7587C6.22374 14.7587 5.76195 14.7578 5.30015 14.7569L5.29865 14.7569C4.83735 14.7561 4.37606 14.7552 3.91565 14.7552C3.64824 14.7552 3.50047 14.8994 3.50047 15.1668V16.0113V16.247ZM10.7027 6.114C10.8962 6.07178 11.0088 5.92049 11.0018 5.6742C10.9998 5.66414 10.9989 5.64605 10.9979 5.62451C10.9971 5.60835 10.9962 5.59026 10.9947 5.57216C10.9103 4.84384 10.3262 4.29849 9.57329 4.24219C8.89071 4.18941 8.22925 4.67848 8.05333 5.36457C8.02166 5.48772 8.0111 5.62142 8.00759 5.74808C8.00407 5.95215 8.16592 6.11048 8.36647 6.11752C8.57054 6.12104 8.74294 5.96974 8.74998 5.76216C8.76053 5.50531 8.85201 5.28717 9.06664 5.13587C9.30237 4.96699 9.56273 4.94236 9.8231 5.06551C10.094 5.19569 10.2312 5.42087 10.2559 5.71993C10.2594 5.77975 10.2664 5.83956 10.2875 5.89234C10.3509 6.0577 10.5338 6.14918 10.7027 6.114Z" fill="#1A1A1A"/>
</svg>
