<svg width="19" height="18" viewBox="0 0 19 18" fill="none" xmlns="http://www.w3.org/2000/svg">
<g clip-path="url(#clip0_341_2340)">
<path d="M9.5 0C14.45 0 18.5 4.05 18.5 9C18.5 13.95 14.45 18 9.5 18C4.55 18 0.5 13.95 0.5 9C0.5 4.05 4.55 0 9.5 0Z" fill="#627EEA"/>
<g opacity="0.602">
<g opacity="0.602">
<path opacity="0.602" d="M9.8 2.25V7.275L14 9.15L9.8 2.25Z" fill="white"/>
</g>
</g>
<path d="M9.79999 2.25L5.52499 9.15L9.79999 7.275V2.25Z" fill="white"/>
<g opacity="0.602">
<g opacity="0.602">
<path opacity="0.602" d="M9.8 12.375V15.75L14 9.90002L9.8 12.375Z" fill="white"/>
</g>
</g>
<path d="M9.79999 15.75V12.375L5.52499 9.90002L9.79999 15.75Z" fill="white"/>
<g opacity="0.2">
<g opacity="0.2">
<path opacity="0.2" d="M9.8 11.55L14 9.15002L9.8 7.27502V11.55Z" fill="white"/>
</g>
</g>
<g opacity="0.602">
<g opacity="0.602">
<path opacity="0.602" d="M5.52499 9.15002L9.79999 11.55V7.27502L5.52499 9.15002Z" fill="white"/>
</g>
</g>
</g>
<defs>
<clipPath id="clip0_341_2340">
<rect width="18" height="18" fill="white" transform="translate(0.5)"/>
</clipPath>
</defs>
</svg>
