<svg width="18" height="18" viewBox="0 0 18 18" fill="none" xmlns="http://www.w3.org/2000/svg">
<path fill-rule="evenodd" clip-rule="evenodd" d="M6.91763 2.83201C7.16921 1.98707 7.90707 1.125 9 1.125C10.0932 1.125 10.8304 1.9871 11.0838 2.83045C11.0851 2.83203 11.0868 2.83401 11.089 2.83629C11.0942 2.84171 11.1001 2.84669 11.1056 2.85056C11.1099 2.8535 11.1124 2.85477 11.1127 2.85492C11.749 3.11686 12.4978 3.53528 13.0835 4.30136C13.6739 5.07359 14.0579 6.1456 14.0579 7.64121C14.0579 9.13241 14.2153 9.95013 14.4469 10.5115C14.6501 11.0037 14.9172 11.3272 15.2973 11.7876C15.3528 11.8549 15.4107 11.925 15.4712 11.9991L15.4714 11.9992C16.1719 12.8574 15.5104 14.0625 14.4313 14.0625H11.8125C11.8125 14.8084 11.5162 15.5238 10.9887 16.0512C10.4613 16.5787 9.74592 16.875 9 16.875C8.25408 16.875 7.53871 16.5787 7.01126 16.0512C6.48381 15.5238 6.1875 14.8084 6.1875 14.0625H3.57222C2.4951 14.0625 1.82244 12.8635 2.52878 11.9991C2.58931 11.925 2.64728 11.8548 2.70283 11.7875C3.08288 11.3272 3.35003 11.0036 3.55335 10.5113C3.78524 9.94993 3.94294 9.13221 3.94382 7.64121M7.3125 14.0625C7.3125 14.5101 7.49029 14.9393 7.80676 15.2557C8.12323 15.5722 8.55245 15.75 9 15.75C9.44755 15.75 9.87678 15.5722 10.1932 15.2557C10.5097 14.9393 10.6875 14.5101 10.6875 14.0625H7.3125ZM3.57222 12.9375C3.45661 12.9375 3.40456 12.8843 3.38366 12.8434C3.37162 12.8198 3.36801 12.7968 3.36974 12.7777C3.37128 12.7608 3.37754 12.7383 3.39993 12.7109L3.39996 12.7109C3.45429 12.6444 3.50903 12.5784 3.56382 12.5124C3.94088 12.0579 4.32091 11.5999 4.59314 10.9408C4.90607 10.1832 5.06793 9.19662 5.06883 7.64154V7.64121C5.06883 6.34552 5.39681 5.52607 5.81143 4.98392C6.23069 4.43571 6.78004 4.11647 7.31738 3.89518C7.31742 3.89516 7.31746 3.89514 7.31751 3.89512C7.6039 3.77732 7.88966 3.51486 7.99286 3.16321L7.99327 3.1618C8.15333 2.61114 8.56693 2.25 9 2.25C9.43309 2.25 9.84682 2.61087 10.0089 3.16267L10.0094 3.1641C10.112 3.50989 10.3947 3.77603 10.6843 3.89514C11.2205 4.1159 11.7701 4.43576 12.1897 4.98464C12.6047 5.52743 12.9329 6.34718 12.9329 7.64121C12.9329 9.1963 13.0943 10.183 13.407 10.9407C13.6791 11.5999 14.0592 12.058 14.4363 12.5125C14.491 12.5785 14.5457 12.6444 14.6 12.7109C14.6353 12.7541 14.6381 12.7989 14.6153 12.844C14.5939 12.8861 14.5427 12.9375 14.4313 12.9375H3.57222ZM6.91763 2.83201C6.91665 2.83316 6.91544 2.83452 6.91395 2.83606C6.90917 2.84103 6.90351 2.84582 6.89786 2.84971C6.89262 2.85332 6.88947 2.85473 6.88947 2.85473L6.88913 2.85487C6.25265 3.11698 5.50355 3.53461 4.91781 4.3005C4.32745 5.07243 3.94388 6.14429 3.94382 7.64089" fill="#1A1A1A"/>
</svg>
