<svg width="19" height="18" viewBox="0 0 19 18" fill="none" xmlns="http://www.w3.org/2000/svg">
<path fill-rule="evenodd" clip-rule="evenodd" d="M1.625 2.39062C1.625 1.69164 2.19164 1.125 2.89062 1.125H7.67188C8.37086 1.125 8.9375 1.69164 8.9375 2.39062V7.17188C8.9375 7.87086 8.37086 8.4375 7.67188 8.4375H2.89062C2.19164 8.4375 1.625 7.87086 1.625 7.17188V2.39062Z" fill="black"/>
<path fill-rule="evenodd" clip-rule="evenodd" d="M11.3281 2.25C11.2505 2.25 11.1875 2.31296 11.1875 2.39062V7.17188C11.1875 7.24954 11.2505 7.3125 11.3281 7.3125H16.1094C16.187 7.3125 16.25 7.24954 16.25 7.17188V2.39062C16.25 2.31296 16.187 2.25 16.1094 2.25H11.3281ZM10.0625 2.39062C10.0625 1.69164 10.6291 1.125 11.3281 1.125H16.1094C16.8084 1.125 17.375 1.69164 17.375 2.39062V7.17188C17.375 7.87086 16.8084 8.4375 16.1094 8.4375H11.3281C10.6291 8.4375 10.0625 7.87086 10.0625 7.17188V2.39062Z" fill="black"/>
<path fill-rule="evenodd" clip-rule="evenodd" d="M2.89062 10.6875C2.81296 10.6875 2.75 10.7505 2.75 10.8281V15.6094C2.75 15.687 2.81296 15.75 2.89062 15.75H7.67188C7.74954 15.75 7.8125 15.687 7.8125 15.6094V10.8281C7.8125 10.7505 7.74954 10.6875 7.67188 10.6875H2.89062ZM1.625 10.8281C1.625 10.1291 2.19164 9.5625 2.89062 9.5625H7.67188C8.37086 9.5625 8.9375 10.1291 8.9375 10.8281V15.6094C8.9375 16.3084 8.37086 16.875 7.67188 16.875H2.89062C2.19164 16.875 1.625 16.3084 1.625 15.6094V10.8281Z" fill="black"/>
<path fill-rule="evenodd" clip-rule="evenodd" d="M11.3281 10.6875C11.2505 10.6875 11.1875 10.7505 11.1875 10.8281V15.6094C11.1875 15.687 11.2505 15.75 11.3281 15.75H16.1094C16.187 15.75 16.25 15.687 16.25 15.6094V10.8281C16.25 10.7505 16.187 10.6875 16.1094 10.6875H11.3281ZM10.0625 10.8281C10.0625 10.1291 10.6291 9.5625 11.3281 9.5625H16.1094C16.8084 9.5625 17.375 10.1291 17.375 10.8281V15.6094C17.375 16.3084 16.8084 16.875 16.1094 16.875H11.3281C10.6291 16.875 10.0625 16.3084 10.0625 15.6094V10.8281Z" fill="black"/>
</svg>
