<svg width="19" height="18" viewBox="0 0 19 18" fill="none" xmlns="http://www.w3.org/2000/svg">
<path fill-rule="evenodd" clip-rule="evenodd" d="M3.3125 3.375C3.3125 2.13236 4.31986 1.125 5.5625 1.125H13.4375C14.6801 1.125 15.6875 2.13236 15.6875 3.375V14.625C15.6875 15.8676 14.6801 16.875 13.4375 16.875H5.5625C4.31986 16.875 3.3125 15.8676 3.3125 14.625V3.375ZM5.5625 2.25C4.94118 2.25 4.4375 2.75368 4.4375 3.375V14.625C4.4375 15.2463 4.94118 15.75 5.5625 15.75H13.4375C14.0588 15.75 14.5625 15.2463 14.5625 14.625V3.375C14.5625 2.75368 14.0588 2.25 13.4375 2.25H5.5625Z" fill="black"/>
<path fill-rule="evenodd" clip-rule="evenodd" d="M6.125 5.27344C6.125 4.34146 6.88052 3.58594 7.8125 3.58594H9.07812C10.0101 3.58594 10.7656 4.34146 10.7656 5.27344V6.53906C10.7656 7.47104 10.0101 8.22656 9.07812 8.22656H7.8125C6.88052 8.22656 6.125 7.47104 6.125 6.53906V5.27344ZM7.8125 4.71094C7.50184 4.71094 7.25 4.96278 7.25 5.27344V6.53906C7.25 6.84972 7.50184 7.10156 7.8125 7.10156H9.07812C9.38879 7.10156 9.64062 6.84972 9.64062 6.53906V5.27344C9.64062 4.96278 9.38879 4.71094 9.07812 4.71094H7.8125Z" fill="black"/>
<path fill-rule="evenodd" clip-rule="evenodd" d="M6.125 10.125C6.125 9.81434 6.37684 9.5625 6.6875 9.5625H12.3125C12.6232 9.5625 12.875 9.81434 12.875 10.125C12.875 10.4357 12.6232 10.6875 12.3125 10.6875H6.6875C6.37684 10.6875 6.125 10.4357 6.125 10.125Z" fill="black"/>
<path fill-rule="evenodd" clip-rule="evenodd" d="M6.125 12.9375C6.125 12.6268 6.31126 12.375 6.54102 12.375H10.7012C10.9309 12.375 11.1172 12.6268 11.1172 12.9375C11.1172 13.2482 10.9309 13.5 10.7012 13.5H6.54102C6.31126 13.5 6.125 13.2482 6.125 12.9375Z" fill="black"/>
</svg>
