<svg width="19" height="18" viewBox="0 0 19 18" fill="none" xmlns="http://www.w3.org/2000/svg">
<path fill-rule="evenodd" clip-rule="evenodd" d="M4.15625 3.9375C3.93247 3.9375 3.71786 4.02639 3.55963 4.18463C3.40139 4.34286 3.3125 4.55747 3.3125 4.78125V13.2188C3.3125 13.4425 3.40139 13.6571 3.55963 13.8154C3.71786 13.9736 3.93247 14.0625 4.15625 14.0625H9.78125C10.005 14.0625 10.2196 13.9736 10.3779 13.8154C10.5361 13.6571 10.625 13.4425 10.625 13.2188V11.8125C10.625 11.5018 10.8768 11.25 11.1875 11.25C11.4982 11.25 11.75 11.5018 11.75 11.8125V13.2188C11.75 13.7409 11.5426 14.2417 11.1734 14.6109C10.8042 14.9801 10.3034 15.1875 9.78125 15.1875H4.15625C3.63411 15.1875 3.13335 14.9801 2.76413 14.6109C2.39492 14.2417 2.1875 13.7409 2.1875 13.2188V4.78125C2.1875 4.25911 2.39492 3.75835 2.76413 3.38913C3.13335 3.01992 3.63411 2.8125 4.15625 2.8125H9.5C10.0282 2.8125 10.5698 3.02124 10.9819 3.34412C11.3918 3.66532 11.75 4.1643 11.75 4.78125V6.1875C11.75 6.49816 11.4982 6.75 11.1875 6.75C10.8768 6.75 10.625 6.49816 10.625 6.1875V4.78125C10.625 4.62159 10.5277 4.41745 10.2881 4.22967C10.0505 4.04358 9.74842 3.9375 9.5 3.9375H4.15625ZM13.0398 5.78975C13.2594 5.57008 13.6156 5.57008 13.8352 5.78975L16.6477 8.60225C16.8674 8.82192 16.8674 9.17808 16.6477 9.39775L13.8352 12.2102C13.6156 12.4299 13.2594 12.4299 13.0398 12.2102C12.8201 11.9906 12.8201 11.6344 13.0398 11.4148L15.4545 9L13.0398 6.58525C12.8201 6.36558 12.8201 6.00942 13.0398 5.78975Z" fill="white"/>
<path fill-rule="evenodd" clip-rule="evenodd" d="M6.13676 9.00397C6.13676 8.69331 6.3886 8.44147 6.69926 8.44147H15.7696C16.0802 8.44147 16.3321 8.69331 16.3321 9.00397C16.3321 9.31463 16.0802 9.56647 15.7696 9.56647H6.69926C6.3886 9.56647 6.13676 9.31463 6.13676 9.00397Z" fill="white"/>
</svg>
