<svg width="19" height="18" viewBox="0 0 19 18" fill="none" xmlns="http://www.w3.org/2000/svg">
<path d="M9.60194 1.68751C5.48937 1.63196 2.13195 4.98938 2.18749 9.10196C2.24234 13.0461 5.45386 16.2577 9.39804 16.3125C13.5113 16.3687 16.868 13.0113 16.8118 8.89875C16.7576 4.95387 13.5461 1.74235 9.60194 1.68751ZM14.0464 13.1924C14.0324 13.2075 14.0152 13.2194 13.9961 13.2272C13.977 13.2349 13.9564 13.2384 13.9358 13.2373C13.9152 13.2363 13.8951 13.2307 13.8769 13.221C13.8587 13.2113 13.8429 13.1977 13.8305 13.1811C13.5161 12.7697 13.131 12.4175 12.6932 12.1409C11.7982 11.5664 10.664 11.25 9.49999 11.25C8.33597 11.25 7.20183 11.5664 6.30675 12.1409C5.86901 12.4174 5.48391 12.7695 5.16944 13.1808C5.15709 13.1973 5.14125 13.2109 5.12306 13.2206C5.10486 13.2303 5.08475 13.2359 5.06415 13.237C5.04355 13.2381 5.02297 13.2346 5.00386 13.2268C4.98475 13.2191 4.96759 13.2072 4.95359 13.192C3.92199 12.0784 3.33763 10.6233 3.31249 9.10547C3.25519 5.68442 6.06241 2.82094 9.48487 2.81251C12.9073 2.80407 15.6875 5.58317 15.6875 9C15.6887 10.5544 15.1025 12.0519 14.0464 13.1924Z" fill="black"/>
<path d="M9.49999 5.0625C8.80671 5.0625 8.17988 5.3223 7.73445 5.79445C7.28902 6.2666 7.06649 6.91945 7.11676 7.62012C7.21871 9 8.28781 10.125 9.49999 10.125C10.7122 10.125 11.7792 9 11.8832 7.62047C11.9353 6.92648 11.7145 6.27961 11.2617 5.79867C10.8145 5.32406 10.1887 5.0625 9.49999 5.0625Z" fill="black"/>
</svg>
