<svg width="18" height="18" viewBox="0 0 18 18" fill="none" xmlns="http://www.w3.org/2000/svg">
<path fill-rule="evenodd" clip-rule="evenodd" d="M5.24991 3.38758C6.35994 2.64588 7.66498 2.25 9.00001 2.25C10.7902 2.25 12.5071 2.96116 13.773 4.22703C15.0389 5.4929 15.75 7.20979 15.75 9C15.75 10.335 15.3541 11.6401 14.6124 12.7501C13.8707 13.8601 12.8165 14.7253 11.5831 15.2362C10.3497 15.7471 8.99252 15.8808 7.68315 15.6203C6.37377 15.3598 5.17104 14.717 4.22703 13.773C3.28303 12.829 2.64015 11.6262 2.3797 10.3169C2.11925 9.00749 2.25292 7.65029 2.76382 6.41689C3.27471 5.18349 4.13987 4.12928 5.24991 3.38758ZM9.00001 3.375C7.88749 3.375 6.79995 3.7049 5.87492 4.32298C4.9499 4.94107 4.22892 5.81957 3.80318 6.84741C3.37744 7.87524 3.26604 9.00624 3.48309 10.0974C3.70013 11.1885 4.23586 12.1908 5.02253 12.9775C5.8092 13.7641 6.81148 14.2999 7.90262 14.5169C8.99377 14.734 10.1248 14.6226 11.1526 14.1968C12.1804 13.7711 13.0589 13.0501 13.677 12.1251C14.2951 11.2001 14.625 10.1125 14.625 9C14.625 7.50816 14.0324 6.07742 12.9775 5.02252C11.9226 3.96763 10.4918 3.375 9.00001 3.375Z" fill="white"/>
<path d="M8.78963 12.9375C8.65057 12.9375 8.51463 12.8963 8.399 12.819C8.28337 12.7417 8.19325 12.6319 8.14003 12.5034C8.08681 12.375 8.07289 12.2336 8.10002 12.0972C8.12715 11.9608 8.19412 11.8355 8.29245 11.7372C8.39078 11.6389 8.51607 11.5719 8.65246 11.5448C8.78885 11.5176 8.93023 11.5315 9.05871 11.5848C9.18719 11.638 9.297 11.7281 9.37426 11.8437C9.45152 11.9594 9.49276 12.0953 9.49276 12.2344C9.49276 12.4208 9.41868 12.5997 9.28682 12.7316C9.15496 12.8634 8.97611 12.9375 8.78963 12.9375ZM9.96526 9.35156C9.39538 9.73406 9.31698 10.0846 9.31698 10.4062C9.31698 10.5368 9.26512 10.662 9.17282 10.7543C9.08052 10.8466 8.95533 10.8984 8.82479 10.8984C8.69425 10.8984 8.56906 10.8466 8.47676 10.7543C8.38446 10.662 8.3326 10.5368 8.3326 10.4062C8.3326 9.63597 8.68698 9.02355 9.41612 8.53382C10.0939 8.0789 10.4771 7.79062 10.4771 7.15675C10.4771 6.72574 10.231 6.39843 9.72163 6.15621C9.60174 6.09925 9.33491 6.04371 9.00655 6.04757C8.59452 6.05285 8.2746 6.15128 8.02815 6.34957C7.56338 6.72363 7.52401 7.13074 7.52401 7.13671C7.52089 7.20135 7.50508 7.26474 7.47746 7.32326C7.44985 7.38178 7.41098 7.43429 7.36307 7.47779C7.31516 7.52129 7.25916 7.55493 7.19825 7.57679C7.13734 7.59864 7.07273 7.60829 7.00809 7.60517C6.94346 7.60205 6.88007 7.58624 6.82155 7.55862C6.76302 7.53101 6.71051 7.49214 6.66701 7.44423C6.62351 7.39632 6.58987 7.34032 6.56802 7.27941C6.54616 7.2185 6.53652 7.15389 6.53963 7.08925C6.5435 7.00382 6.60292 6.23425 7.41045 5.58457C7.82917 5.24777 8.36178 5.07269 8.99249 5.06496C9.43897 5.05968 9.85838 5.13527 10.1428 5.26957C10.9939 5.6721 11.4615 6.34324 11.4615 7.15675C11.4615 8.34609 10.6666 8.88011 9.96526 9.35156Z" fill="white"/>
</svg>
