<svg width="19" height="18" viewBox="0 0 19 18" fill="none" xmlns="http://www.w3.org/2000/svg">
<path d="M16.5559 8.51733L15.639 8.36967C15.5798 8.3597 15.5253 8.33105 15.4836 8.28791C15.4418 8.24477 15.415 8.1894 15.4069 8.1299C15.3894 8.0174 15.3718 7.90455 15.3472 7.79557C15.3353 7.73705 15.3421 7.67628 15.3667 7.62188C15.3914 7.56748 15.4325 7.52221 15.4843 7.49252L16.296 7.04182C16.3575 7.0104 16.4053 6.95761 16.4306 6.89339C16.4558 6.82916 16.4568 6.75792 16.4332 6.69307L16.2925 6.30635C16.269 6.24132 16.2222 6.18734 16.1611 6.15486C16.1001 6.12238 16.0291 6.11373 15.9621 6.13057L15.0519 6.30635C14.9927 6.3178 14.9314 6.30994 14.877 6.28393C14.8227 6.25792 14.7781 6.21512 14.7499 6.16186C14.6971 6.06342 14.6409 5.96486 14.5811 5.86619C14.5496 5.81488 14.535 5.75495 14.5394 5.69487C14.5438 5.6348 14.567 5.57765 14.6057 5.5315L15.2136 4.83049C15.2607 4.78033 15.2878 4.71462 15.2898 4.64581C15.2917 4.577 15.2684 4.50987 15.2241 4.45713L14.9608 4.14072C14.9169 4.08751 14.8548 4.05258 14.7865 4.04276C14.7182 4.03295 14.6488 4.04895 14.5917 4.08764L13.794 4.56682C13.7427 4.5972 13.6831 4.61052 13.6238 4.60483C13.5644 4.59914 13.5084 4.57475 13.4639 4.53518C13.3795 4.461 13.2916 4.38717 13.2037 4.3165C13.157 4.27936 13.1232 4.22831 13.1074 4.17073C13.0916 4.11315 13.0946 4.05203 13.1158 3.99623L13.4463 3.12611C13.4744 3.06299 13.4783 2.99172 13.4572 2.9259C13.4362 2.86008 13.3916 2.80433 13.332 2.76928L12.9734 2.5615C12.9136 2.52752 12.8434 2.51666 12.776 2.53098C12.7087 2.5453 12.649 2.5838 12.6082 2.6392L12.0232 3.37186C11.9905 3.41797 11.9432 3.45172 11.889 3.46767C11.8348 3.48361 11.7768 3.48082 11.7243 3.45975C11.7243 3.45975 11.5275 3.37889 11.3798 3.32932C11.3232 3.31044 11.274 3.27404 11.2394 3.22537C11.2049 3.17671 11.1867 3.1183 11.1875 3.05861L11.2016 2.12873C11.2057 2.05957 11.1844 1.99128 11.1416 1.93675C11.0989 1.88222 11.0377 1.84521 10.9695 1.83271L10.5621 1.7624C10.4939 1.75059 10.4237 1.76412 10.3648 1.80045C10.3058 1.83677 10.2622 1.89339 10.2421 1.95963L9.9398 2.84029C9.9204 2.89706 9.88336 2.94613 9.83409 2.98035C9.78482 3.01457 9.7259 3.03214 9.66594 3.03049H9.3214C9.26152 3.03175 9.20278 3.01403 9.15358 2.97987C9.10439 2.9457 9.06727 2.89685 9.04754 2.84029L8.74519 1.95963C8.72511 1.89339 8.6815 1.83677 8.62257 1.80045C8.56365 1.76412 8.49348 1.75059 8.42527 1.7624L8.01781 1.83271C7.94966 1.84521 7.88844 1.88222 7.8457 1.93675C7.80295 1.99128 7.78164 2.05957 7.78578 2.12873L7.79984 3.05861C7.80069 3.11845 7.78244 3.177 7.74773 3.22575C7.71301 3.27449 7.66366 3.3109 7.60684 3.32967C7.52598 3.36131 7.3502 3.42846 7.26582 3.4601C7.16738 3.49525 7.05137 3.46713 6.95645 3.35779L6.37602 2.64271C6.33498 2.58755 6.27516 2.54933 6.20785 2.53527C6.14055 2.52121 6.07043 2.5323 6.01074 2.56643L5.65215 2.7742C5.59244 2.80858 5.54756 2.86384 5.52614 2.92932C5.50473 2.99481 5.50829 3.0659 5.53614 3.12893L5.8666 3.99904C5.88752 4.05489 5.89028 4.1159 5.8745 4.17341C5.85872 4.23091 5.8252 4.28197 5.77871 4.31932C5.69082 4.38963 5.60293 4.46381 5.51856 4.53799C5.47398 4.57756 5.41799 4.60195 5.35866 4.60764C5.29932 4.61333 5.23972 4.60002 5.18844 4.56963L4.40235 4.08307C4.34495 4.0453 4.27572 4.02985 4.20771 4.03963C4.13971 4.04941 4.07763 4.08374 4.03321 4.13615L3.76989 4.45256C3.72565 4.5053 3.70229 4.57243 3.70423 4.64124C3.70618 4.71005 3.73329 4.77576 3.78043 4.82592L4.38828 5.52693C4.42781 5.57267 4.45154 5.62992 4.45598 5.69021C4.46041 5.75049 4.4453 5.8106 4.41289 5.86162C4.35313 5.95537 4.29688 6.05393 4.24414 6.15729C4.21547 6.21014 4.17083 6.25257 4.11659 6.27852C4.06235 6.30447 4.0013 6.31261 3.94215 6.30178L3.03196 6.126C2.9649 6.10964 2.89417 6.11852 2.83324 6.15093C2.7723 6.18334 2.72541 6.23703 2.70149 6.30178L2.56086 6.6885C2.53727 6.75335 2.53818 6.82459 2.56343 6.88882C2.58868 6.95304 2.63653 7.00583 2.69797 7.03725L3.50868 7.4883C3.56102 7.51742 3.60261 7.5626 3.6273 7.61717C3.65199 7.67174 3.65847 7.73281 3.64579 7.79135C3.62469 7.90385 3.6036 8.01319 3.58602 8.12569C3.57758 8.18502 3.55059 8.24016 3.50892 8.28322C3.46724 8.32629 3.41301 8.35507 3.35399 8.36545L2.43711 8.51311C2.36888 8.52151 2.30601 8.55435 2.26012 8.60554C2.21423 8.65673 2.18843 8.7228 2.18751 8.79154V9.20358C2.18665 9.27282 2.21183 9.33986 2.25806 9.39143C2.30428 9.44299 2.36819 9.47532 2.43711 9.48201L3.35399 9.62967C3.41319 9.63964 3.46765 9.66829 3.5094 9.71143C3.55115 9.75457 3.578 9.80994 3.58602 9.86944C3.6036 9.98194 3.62118 10.0948 3.64579 10.2038C3.65768 10.2623 3.65084 10.3231 3.62622 10.3775C3.60161 10.4319 3.56048 10.4771 3.50868 10.5068L2.69692 10.9582C2.63547 10.9896 2.58763 11.0424 2.56238 11.1067C2.53712 11.1709 2.53621 11.2421 2.55981 11.307L2.70043 11.6937C2.72396 11.7587 2.77079 11.8127 2.83184 11.8452C2.89289 11.8777 2.96383 11.8863 3.0309 11.8695L3.9411 11.6937C4.00027 11.6822 4.06156 11.6901 4.11593 11.7161C4.1703 11.7421 4.21488 11.7849 4.24309 11.8382C4.29582 11.9366 4.35207 12.0352 4.41184 12.1339C4.44339 12.1852 4.458 12.2451 4.45358 12.3052C4.44916 12.3652 4.42595 12.4224 4.38723 12.4685L3.77938 13.1703C3.73224 13.2204 3.70512 13.2861 3.70318 13.3549C3.70124 13.4237 3.7246 13.4909 3.76883 13.5436L4.03215 13.86C4.07603 13.9132 4.13818 13.9482 4.20645 13.958C4.27472 13.9678 4.3442 13.9518 4.40129 13.9131L5.19899 13.4339C5.25027 13.4035 5.30987 13.3902 5.3692 13.3959C5.42854 13.4016 5.48453 13.426 5.5291 13.4656C5.61348 13.5397 5.70137 13.6136 5.78926 13.6842C5.83601 13.7214 5.86972 13.7724 5.88553 13.83C5.90133 13.8876 5.89839 13.9487 5.87715 14.0045L5.54668 14.8746C5.51901 14.9378 5.51554 15.009 5.53693 15.0746C5.55832 15.1402 5.60308 15.1957 5.6627 15.2304L6.02129 15.4382C6.08114 15.4722 6.15137 15.483 6.21868 15.4687C6.286 15.4544 6.34573 15.4159 6.38656 15.3605L6.97684 14.6349C7.05066 14.5435 7.1702 14.5048 7.26512 14.5435C7.38465 14.5927 7.46551 14.6208 7.61316 14.6704C7.66999 14.6891 7.71934 14.7255 7.75405 14.7743C7.78876 14.823 7.80702 14.8816 7.80617 14.9414L7.79211 15.8713C7.78797 15.9405 7.80928 16.0088 7.85202 16.0633C7.89477 16.1178 7.95599 16.1548 8.02414 16.1673L8.4316 16.2376C8.49981 16.2495 8.56998 16.2359 8.6289 16.1996C8.68783 16.1633 8.73144 16.1067 8.75152 16.0404L9.05387 15.1615C9.07326 15.1047 9.1103 15.0557 9.15958 15.0214C9.20885 14.9872 9.26777 14.9697 9.32773 14.9713H9.67226C9.73215 14.97 9.79089 14.9878 9.84009 15.0219C9.88928 15.0561 9.9264 15.105 9.94613 15.1615L10.2485 16.0404C10.2686 16.1067 10.3122 16.1633 10.3711 16.1996C10.43 16.2359 10.5002 16.2495 10.5684 16.2376L10.9759 16.1673C11.044 16.1548 11.1052 16.1178 11.148 16.0633C11.1907 16.0088 11.212 15.9405 11.2079 15.8713L11.1938 14.9414C11.193 14.8816 11.2112 14.823 11.2459 14.7743C11.2807 14.7255 11.33 14.6891 11.3868 14.6704C11.5345 14.6208 11.6329 14.5821 11.7243 14.547C11.8157 14.5118 11.9282 14.5118 12.0161 14.6208L12.6138 15.357C12.6548 15.4126 12.7149 15.4511 12.7825 15.4652C12.8501 15.4794 12.9206 15.4681 12.9805 15.4336L13.3391 15.2258C13.3991 15.1915 13.4442 15.1361 13.4656 15.0703C13.4871 15.0046 13.4833 14.9332 13.4551 14.8701L13.1246 13.9999C13.1037 13.944 13.101 13.883 13.1167 13.8254C13.1325 13.7679 13.166 13.7168 13.2125 13.6793C13.3004 13.609 13.3883 13.5352 13.4727 13.461C13.5172 13.4214 13.5732 13.397 13.6326 13.3913C13.6919 13.3857 13.7515 13.399 13.8028 13.4294L14.5977 13.9099C14.655 13.9477 14.7243 13.9632 14.7923 13.9534C14.8603 13.9436 14.9224 13.9093 14.9668 13.8569L15.2301 13.5405C15.2743 13.4877 15.2977 13.4206 15.2958 13.3518C15.2938 13.283 15.2667 13.2173 15.2196 13.1671L14.6117 12.4661C14.5722 12.4203 14.5485 12.3631 14.544 12.3028C14.5396 12.2425 14.5547 12.1824 14.5871 12.1314C14.6469 12.0365 14.7031 11.9379 14.7559 11.8357C14.7845 11.7829 14.8292 11.7404 14.8834 11.7145C14.9376 11.6885 14.9987 11.6804 15.0578 11.6912L15.968 11.867C16.0351 11.8834 16.1058 11.8745 16.1668 11.8421C16.2277 11.8097 16.2746 11.756 16.2985 11.6912L16.4391 11.3045C16.4627 11.2397 16.4618 11.1684 16.4366 11.1042C16.4113 11.04 16.3635 10.9872 16.302 10.9558L15.4903 10.5051C15.4379 10.4759 15.3963 10.4308 15.3716 10.3762C15.347 10.3216 15.3405 10.2606 15.3532 10.202C15.3743 10.0895 15.3953 9.98018 15.4129 9.86768C15.4214 9.80835 15.4484 9.7532 15.49 9.71014C15.5317 9.66707 15.5859 9.63829 15.645 9.62791L16.5618 9.48026C16.6301 9.47185 16.6929 9.43901 16.7388 9.38782C16.7847 9.33664 16.8105 9.27056 16.8114 9.20182V8.78908C16.8076 8.72096 16.7799 8.65636 16.7331 8.60666C16.6864 8.55696 16.6236 8.52532 16.5559 8.51733ZM9.5 3.93752C10.6229 3.93704 11.714 4.31036 12.6012 4.99861C13.4885 5.68686 14.1213 6.65087 14.4001 7.73861C14.4208 7.82156 14.4224 7.90815 14.4046 7.99179C14.3869 8.07543 14.3503 8.15392 14.2976 8.2213C14.245 8.28868 14.1777 8.34318 14.1008 8.38064C14.024 8.41811 13.9396 8.43756 13.8541 8.43752H10.1543C10.0549 8.43753 9.95729 8.41122 9.87139 8.36126C9.78549 8.31131 9.71436 8.23948 9.66523 8.15311L7.83359 4.92893C7.79094 4.85397 7.7661 4.77021 7.76098 4.68412C7.75587 4.59803 7.77061 4.51191 7.80408 4.43243C7.83756 4.35295 7.88885 4.28223 7.95402 4.22573C8.01918 4.16924 8.09646 4.12849 8.17988 4.10662C8.61079 3.99357 9.05451 3.93673 9.5 3.93752ZM4.4375 9.00002C4.43687 8.32217 4.57238 7.65109 4.83598 7.02659C5.09959 6.40209 5.48592 5.83689 5.97207 5.36451C6.03346 5.30374 6.10802 5.25792 6.18997 5.23061C6.27192 5.2033 6.35906 5.19523 6.44463 5.20703C6.53021 5.21882 6.61191 5.25017 6.68342 5.29864C6.75492 5.3471 6.8143 5.41139 6.85695 5.4865L8.69351 8.71877C8.74204 8.80374 8.76756 8.89989 8.76756 8.99774C8.76756 9.09558 8.74204 9.19174 8.69351 9.2767L6.84184 12.5005C6.79885 12.5754 6.7392 12.6394 6.6675 12.6876C6.5958 12.7357 6.51398 12.7667 6.42838 12.7781C6.34278 12.7895 6.2557 12.7811 6.17389 12.7534C6.09207 12.7258 6.01773 12.6797 5.9566 12.6187C5.47519 12.147 5.09283 11.584 4.83197 10.9626C4.57111 10.3412 4.43699 9.67395 4.4375 9.00002ZM9.5 14.0625C9.04676 14.0637 8.59535 14.0052 8.15738 13.8885C8.07398 13.8663 7.9968 13.8253 7.93181 13.7685C7.86681 13.7117 7.81576 13.6408 7.78258 13.5611C7.74941 13.4814 7.73501 13.3952 7.74051 13.3091C7.746 13.2229 7.77123 13.1392 7.81426 13.0644L9.66277 9.84588C9.71221 9.76025 9.78335 9.68916 9.86902 9.63978C9.95469 9.59041 10.0519 9.56448 10.1507 9.56463H13.8559C13.9413 9.56464 14.0257 9.58413 14.1025 9.62162C14.1793 9.65911 14.2466 9.71361 14.2992 9.78099C14.3518 9.84836 14.3883 9.92683 14.406 10.0104C14.4238 10.0941 14.4222 10.1806 14.4015 10.2635C14.1222 11.3511 13.4889 12.3147 12.6014 13.0025C11.714 13.6904 10.6228 14.0633 9.5 14.0625Z" fill="black"/>
</svg>
