<svg width="19" height="18" viewBox="0 0 19 18" fill="none" xmlns="http://www.w3.org/2000/svg">
<path fill-rule="evenodd" clip-rule="evenodd" d="M4.15625 3.9375C3.3796 3.9375 2.75 4.5671 2.75 5.34375V12.6562C2.75 13.4329 3.3796 14.0625 4.15625 14.0625H14.8438C15.6204 14.0625 16.25 13.4329 16.25 12.6562V5.34375C16.25 4.5671 15.6204 3.9375 14.8438 3.9375H4.15625ZM1.625 5.34375C1.625 3.94578 2.75828 2.8125 4.15625 2.8125H14.8438C16.2417 2.8125 17.375 3.94578 17.375 5.34375V12.6562C17.375 14.0542 16.2417 15.1875 14.8438 15.1875H4.15625C2.75828 15.1875 1.625 14.0542 1.625 12.6562V5.34375Z" fill="black"/>
<path fill-rule="evenodd" clip-rule="evenodd" d="M16.4609 7.80469H2.53906V5.69531H16.4609V7.80469ZM3.94531 10.5469C3.94531 9.96439 4.41751 9.49219 5 9.49219H6.6875C7.26999 9.49219 7.74219 9.96439 7.74219 10.5469V11.25C7.74219 11.8325 7.26999 12.3047 6.6875 12.3047H5C4.41751 12.3047 3.94531 11.8325 3.94531 11.25V10.5469Z" fill="black"/>
</svg>
